<svg xmlns="http://www.w3.org/2000/svg" width="30" height="19.5" viewBox="0 0 30 19.5">
  <path id="braille" d="M6,42.5a3,3,0,1,1-3-3A3,3,0,0,1,6,42.5Zm-3,6A1.5,1.5,0,1,0,4.5,50,1.5,1.5,0,0,0,3,48.5ZM3,32a3,3,0,1,0,3,3A3,3,0,0,0,3,32Zm7.5,9A1.5,1.5,0,1,0,12,42.5,1.5,1.5,0,0,0,10.5,41Zm0,7.5A1.5,1.5,0,1,0,12,50,1.5,1.5,0,0,0,10.5,48.5Zm0-16.5a3,3,0,1,0,3,3A3,3,0,0,0,10.5,32ZM21,41a1.5,1.5,0,1,0,1.5,1.5A1.5,1.5,0,0,0,21,41Zm0,7.5A1.5,1.5,0,1,0,22.5,50,1.5,1.5,0,0,0,21,48.5ZM21,32a3,3,0,1,0,3,3A3,3,0,0,0,21,32Zm7.5,9A1.5,1.5,0,1,0,30,42.5,1.5,1.5,0,0,0,28.5,41Zm0,7.5A1.5,1.5,0,1,0,30,50,1.5,1.5,0,0,0,28.5,48.5Zm0-15A1.5,1.5,0,1,0,30,35,1.5,1.5,0,0,0,28.5,33.5Z" transform="translate(0 -32)" fill="#fff"/>
</svg>
