<svg xmlns="http://www.w3.org/2000/svg" width="8.564" height="9.788" viewBox="0 0 8.564 9.788">
  <path id="calculator" d="M8.115,0H1.386A.941.941,0,0,0,.468.914V8.867a.941.941,0,0,0,.918.918H8.115a.941.941,0,0,0,.918-.918V.914A.941.941,0,0,0,8.115,0Zm-5.2,8.32a.263.263,0,0,1-.245.245H1.936a.263.263,0,0,1-.245-.245V7.582a.263.263,0,0,1,.245-.245H2.67a.263.263,0,0,1,.245.245Zm0-2.447a.263.263,0,0,1-.245.245H1.936a.263.263,0,0,1-.245-.245V5.135a.263.263,0,0,1,.245-.245H2.67a.263.263,0,0,1,.245.245ZM5.362,8.317a.263.263,0,0,1-.245.245H4.383a.263.263,0,0,1-.245-.245V7.582a.263.263,0,0,1,.245-.245h.734a.263.263,0,0,1,.245.245v.734Zm0-2.447a.263.263,0,0,1-.245.245H4.383a.263.263,0,0,1-.245-.245V5.135a.263.263,0,0,1,.245-.245h.734a.263.263,0,0,1,.245.245V5.87ZM7.809,8.317a.263.263,0,0,1-.245.245H6.83a.263.263,0,0,1-.245-.245V5.135a.263.263,0,0,1,.245-.245h.734a.263.263,0,0,1,.245.245V8.316Zm0-4.894a.263.263,0,0,1-.245.245H1.936a.263.263,0,0,1-.245-.245V1.465a.263.263,0,0,1,.245-.245H7.564a.263.263,0,0,1,.245.245Z" transform="translate(-0.468 0.003)" fill="#62615d"/>
</svg>
