<svg xmlns="http://www.w3.org/2000/svg" width="697.035" height="435.646" viewBox="0 0 697.035 435.646">
  <g id="card" transform="translate(1969 -105.802)" fill="#f8f5f0">
    <path d="M -1281.30126953125 540.9481811523438 L -1959.66455078125 540.9481811523438 C -1964.536499023438 540.9481811523438 -1968.500244140625 536.9844360351563 -1968.500244140625 532.1124267578125 L -1968.500244140625 350.4619750976563 C -1967.561889648438 350.0157470703125 -1964.610229492188 348.4955139160156 -1961.645751953125 345.7484130859375 C -1959.567138671875 343.8223266601563 -1957.909790039063 341.6877136230469 -1956.7197265625 339.4035949707031 C -1955.227661132813 336.5404357910156 -1954.471069335938 333.437255859375 -1954.471069335938 330.1803283691406 C -1954.471069335938 326.9235229492188 -1955.227783203125 323.8234252929688 -1956.719970703125 320.9661560058594 C -1957.910034179688 318.687255859375 -1959.567504882813 316.559326171875 -1961.646606445313 314.6414184570313 C -1964.58837890625 311.927734375 -1967.559814453125 310.4039306640625 -1968.500244140625 309.9578247070313 L -1968.500244140625 115.1369705200195 C -1968.500244140625 110.2655181884766 -1964.536499023438 106.30224609375 -1959.66455078125 106.30224609375 L -1726.003295898438 106.30224609375 C -1726.653198242188 109.8371429443359 -1726.982543945313 113.4329452514648 -1726.982543945313 116.9999694824219 C -1726.982543945313 148.4530639648438 -1701.970581054688 177.9939727783203 -1656.554321289063 200.1807861328125 C -1611.251586914063 222.3118743896484 -1551.030029296875 234.4999694824219 -1486.982788085938 234.4999694824219 C -1441.331176757813 234.4999694824219 -1396.927978515625 228.2077026367188 -1358.57373046875 216.3034210205078 C -1321.74951171875 204.8740081787109 -1292.008422851563 188.8019256591797 -1272.465576171875 169.7848968505859 L -1272.465454101563 309.9231567382813 C -1273.269287109375 310.3773193359375 -1275.702026367188 311.8714294433594 -1278.078491210938 314.5304260253906 C -1279.781372070313 316.4356994628906 -1281.138671875 318.566162109375 -1282.112426757813 320.8627014160156 C -1283.328979492188 323.7323303222656 -1283.945922851563 326.8672485351563 -1283.945922851563 330.1803283691406 C -1283.945922851563 333.4938659667969 -1283.328857421875 336.6235961914063 -1282.112182617188 339.4825134277344 C -1281.13818359375 341.7705993652344 -1279.780517578125 343.88916015625 -1278.0771484375 345.7794189453125 C -1275.6923828125 348.4257202148438 -1273.272094726563 349.8882751464844 -1272.465454101563 350.335205078125 L -1272.465454101563 532.1124267578125 C -1272.465454101563 536.9844360351563 -1276.42919921875 540.9481811523438 -1281.30126953125 540.9481811523438 Z" stroke="none"/>
    <path d="M -1281.30126953125 540.4481811523438 C -1276.704956054688 540.4481811523438 -1272.965454101563 536.7088012695313 -1272.965454101563 532.1124267578125 L -1272.965454101563 350.6253051757813 C -1273.984008789063 350.0318603515625 -1276.237182617188 348.5680236816406 -1278.448486328125 346.1141662597656 C -1280.189086914063 344.1827087402344 -1281.576416015625 342.0174255371094 -1282.572143554688 339.6783447265625 C -1283.815551757813 336.7571411132813 -1284.445922851563 333.5616149902344 -1284.445922851563 330.1803283691406 C -1284.445922851563 326.7998046875 -1283.815673828125 323.5992431640625 -1282.57275390625 320.6675109863281 C -1281.577514648438 318.3204345703125 -1280.190795898438 316.1434326171875 -1278.451293945313 314.1972351074219 C -1276.216674804688 311.6968994140625 -1273.975830078125 310.2259826660156 -1272.965454101563 309.632080078125 L -1272.965576171875 170.961181640625 C -1292.57177734375 189.6768493652344 -1322.0537109375 205.4920043945313 -1358.425415039063 216.7809753417969 C -1396.8271484375 228.6999664306641 -1441.281494140625 234.9999694824219 -1486.982788085938 234.9999694824219 C -1551.1044921875 234.9999694824219 -1611.404052734375 222.7937927246094 -1656.773681640625 200.6300659179688 C -1702.370971679688 178.3547821044922 -1727.482543945313 148.6544189453125 -1727.482543945313 116.9999694824219 C -1727.482543945313 113.6010055541992 -1727.186157226563 110.176513671875 -1726.6005859375 106.80224609375 L -1959.66455078125 106.80224609375 C -1964.260864257813 106.80224609375 -1968.000244140625 110.5411529541016 -1968.000244140625 115.1369705200195 L -1968.000244140625 309.6452941894531 C -1966.807250976563 310.2372436523438 -1964.040283203125 311.753173828125 -1961.307495117188 314.2739562988281 C -1959.18603515625 316.23095703125 -1957.493530273438 318.4046936035156 -1956.27685546875 320.7347106933594 C -1954.746826171875 323.6641540527344 -1953.971069335938 326.8421630859375 -1953.971069335938 330.1803283691406 C -1953.971069335938 333.5185241699219 -1954.746704101563 336.6994323730469 -1956.2763671875 339.6347045898438 C -1957.493041992188 341.9696960449219 -1959.185180664063 344.1500549316406 -1961.305786132813 346.115234375 C -1964.060668945313 348.6678771972656 -1966.813110351563 350.1832885742188 -1968.000244140625 350.7742309570313 L -1968.000244140625 532.1124267578125 C -1968.000244140625 536.7088012695313 -1964.260864257813 540.4481811523438 -1959.66455078125 540.4481811523438 L -1281.30126953125 540.4481811523438 M -1281.30126953125 541.4481811523438 L -1959.66455078125 541.4481811523438 C -1964.812255859375 541.4481811523438 -1969.000244140625 537.26025390625 -1969.000244140625 532.1124267578125 L -1969.000244140625 350.1414184570313 C -1968.9658203125 350.1265258789063 -1965.456909179688 348.5983276367188 -1961.985595703125 345.3817138671875 C -1959.949096679688 343.4945983886719 -1958.32666015625 341.405517578125 -1957.163208007813 339.172607421875 C -1955.708618164063 336.3814392089844 -1954.971069335938 333.35595703125 -1954.971069335938 330.1803283691406 C -1954.971069335938 327.0049743652344 -1955.708618164063 323.9826965332031 -1957.163208007813 321.1976013183594 C -1958.32666015625 318.9696044921875 -1959.94921875 316.8875122070313 -1961.985595703125 315.0089721679688 C -1965.454833984375 311.8087768554688 -1968.965209960938 310.2935180664063 -1969.000244140625 310.2785949707031 L -1969.000244140625 115.1369705200195 C -1969.000244140625 109.9897918701172 -1964.812255859375 105.80224609375 -1959.66455078125 105.80224609375 L -1725.39990234375 105.80224609375 C -1726.117919921875 109.4949722290039 -1726.482543945313 113.2619705200195 -1726.482543945313 116.9999694824219 C -1726.482543945313 148.2517852783203 -1701.5703125 177.633056640625 -1656.334838867188 199.7315216064453 C -1611.09912109375 221.8298797607422 -1550.955444335938 233.9999694824219 -1486.982788085938 233.9999694824219 C -1441.380859375 233.9999694824219 -1397.029052734375 227.7155151367188 -1358.721923828125 215.8258819580078 C -1321.433837890625 204.2525177001953 -1291.433959960938 187.9194183349609 -1271.965576171875 168.5924224853516 L -1271.965454101563 310.2200622558594 C -1271.993774414063 310.2342529296875 -1274.867431640625 311.6878662109375 -1277.705688476563 314.8636169433594 C -1279.3720703125 316.7280578613281 -1280.699829101563 318.8121643066406 -1281.652099609375 321.0578918457031 C -1282.84228515625 323.8651428222656 -1283.445922851563 326.934326171875 -1283.445922851563 330.1803283691406 C -1283.445922851563 333.426513671875 -1282.84228515625 336.4903259277344 -1281.652099609375 339.2867126464844 C -1280.699829101563 341.5237121582031 -1279.3720703125 343.5955200195313 -1277.705688476563 345.4447021484375 C -1274.871826171875 348.5894165039063 -1271.994262695313 350.0211486816406 -1271.965454101563 350.0352478027344 L -1271.965454101563 532.1124267578125 C -1271.965454101563 537.26025390625 -1276.153564453125 541.4481811523438 -1281.30126953125 541.4481811523438 Z" stroke="none" fill="#bc9769"/>
  </g>
</svg>
