<svg xmlns="http://www.w3.org/2000/svg" width="789" height="324" viewBox="0 0 789 324">
  <g id="card-long" transform="translate(-752 -9262)">
    <g id="Group_495" data-name="Group 495" transform="translate(752.391 9576.1)" opacity="0.2">
      <ellipse id="Ellipse_154" data-name="Ellipse 154" cx="394.5" cy="5" rx="394.5" ry="5" transform="translate(-0.391 -0.099)" fill="#333" opacity="0.19"/>
    </g>
    <g id="Path_13534" data-name="Path 13534" transform="translate(345 9112)" fill="#f8f5f0">
      <path d="M 1182.7138671875 450.9929504394531 L 419.6748352050781 450.9929504394531 C 414.6158447265625 450.9929504394531 410.5000305175781 446.8771667480469 410.5000305175781 441.8180541992188 L 410.5000305175781 253.5486145019531 C 411.4585266113281 253.0951538085938 414.5155944824219 251.5284118652344 417.6096496582031 248.6613616943359 C 419.7622375488281 246.6667633056641 421.4787292480469 244.4561614990234 422.7112426757813 242.0909576416016 C 424.2562255859375 239.1261596679688 425.0396423339844 235.9130554199219 425.0396423339844 232.5407562255859 C 425.0396423339844 229.1683654785156 424.2561340332031 225.9582672119141 422.7110290527344 222.9995574951172 C 421.4783325195313 220.6392669677734 419.7617492675781 218.4354553222656 417.6088256835938 216.4495544433594 C 414.5162353515625 213.5967559814453 411.4605102539063 212.0425872802734 410.5000305175781 211.5920257568359 L 410.5000305175781 159.6748657226563 C 410.5000305175781 154.6157531738281 414.6158447265625 150.4999542236328 419.6748352050781 150.4999542236328 L 1182.7138671875 150.4999542236328 C 1187.772827148438 150.4999542236328 1191.888671875 154.6157531738281 1191.888671875 159.6748657226563 L 1191.888671875 211.5548095703125 C 1191.0693359375 212.0101470947266 1188.580078125 213.5217742919922 1186.06689453125 216.3336639404297 C 1184.303344726563 218.3068542480469 1182.89794921875 220.5131530761719 1181.8896484375 222.8911590576172 C 1180.629760742188 225.8625640869141 1179.990966796875 229.1091613769531 1179.990966796875 232.5407562255859 C 1179.990966796875 235.9725646972656 1180.6298828125 239.2136535644531 1181.889892578125 242.1738586425781 C 1182.8984375 244.5432586669922 1184.30419921875 246.7371673583984 1186.068359375 248.6946563720703 C 1188.578857421875 251.4805450439453 1191.065795898438 252.9695129394531 1191.888671875 253.4195709228516 L 1191.888671875 441.8180541992188 C 1191.888671875 446.8771667480469 1187.772827148438 450.9929504394531 1182.7138671875 450.9929504394531 Z" stroke="none"/>
      <path d="M 419.6748046875 150.9999694824219 C 414.8914794921875 150.9999694824219 411 154.8914489746094 411 159.6748657226563 L 411 211.2778930664063 C 412.21728515625 211.8757934570313 415.0712890625 213.4285583496094 417.9478759765625 216.0820617675781 C 420.1431884765625 218.1071472167969 421.894775390625 220.3566589355469 423.154296875 222.7681579589844 C 424.737060546875 225.7989501953125 425.5396728515625 229.0869750976563 425.5396728515625 232.540771484375 C 425.5396728515625 235.9942626953125 424.7371826171875 239.28515625 423.1546630859375 242.3220520019531 C 421.8955078125 244.7381591796875 420.144287109375 246.9944458007813 417.9495849609375 249.0280456542969 C 415.071044921875 251.6952514648438 412.2152099609375 253.2598876953125 411 253.8616027832031 L 411 441.8180541992188 C 411 446.6014404296875 414.8914794921875 450.4929809570313 419.6748046875 450.4929809570313 L 1182.7138671875 450.4929809570313 C 1187.4970703125 450.4929809570313 1191.388671875 446.6014404296875 1191.388671875 441.8180541992188 L 1191.388671875 253.711669921875 C 1190.349853515625 253.1131896972656 1188.02734375 251.6154174804688 1185.696899414063 249.0294494628906 C 1183.895751953125 247.03076171875 1182.460205078125 244.7900695800781 1181.429809570313 242.3696594238281 C 1180.143310546875 239.34716796875 1179.490966796875 236.0402526855469 1179.490966796875 232.540771484375 C 1179.490966796875 229.041748046875 1180.14306640625 225.7294616699219 1181.429321289063 222.696044921875 C 1182.458984375 220.2673645019531 1183.893920898438 218.0146484375 1185.694091796875 216.0004577636719 C 1188.028076171875 213.3892211914063 1190.353637695313 211.8701782226563 1191.388671875 211.2649841308594 L 1191.388671875 159.6748657226563 C 1191.388671875 154.8914489746094 1187.4970703125 150.9999694824219 1182.7138671875 150.9999694824219 L 419.6748046875 150.9999694824219 M 419.6748046875 149.9999694824219 L 1182.7138671875 149.9999694824219 C 1188.05712890625 149.9999694824219 1192.388671875 154.3315734863281 1192.388671875 159.6748657226563 L 1192.388671875 211.8544616699219 C 1192.388671875 211.8544616699219 1180.490966796875 217.7919616699219 1180.490966796875 232.540771484375 C 1180.490966796875 247.28955078125 1192.388671875 253.1176452636719 1192.388671875 253.1176452636719 L 1192.388671875 441.8180541992188 C 1192.388671875 447.161376953125 1188.05712890625 451.4929809570313 1182.7138671875 451.4929809570313 L 419.6748046875 451.4929809570313 C 414.33154296875 451.4929809570313 410 447.161376953125 410 441.8180541992188 L 410 253.2273559570313 C 410 253.2273559570313 424.5396728515625 246.9688720703125 424.5396728515625 232.540771484375 C 424.5396728515625 218.1126708984375 410 211.9144592285156 410 211.9144592285156 L 410 159.6748657226563 C 410 154.3315734863281 414.33154296875 149.9999694824219 419.6748046875 149.9999694824219 Z" stroke="none" fill="#bc9769"/>
    </g>
  </g>
</svg>
