<svg xmlns="http://www.w3.org/2000/svg" width="13.869" height="10.401" viewBox="0 0 13.869 10.401">
  <path id="envelope" d="M13.606,67.435a.163.163,0,0,1,.263.127V74.4H0V67.565a.162.162,0,0,1,.263-.127c.607.471,1.411,1.07,4.174,3.077a4.846,4.846,0,0,0,2.5,1.289,4.848,4.848,0,0,0,2.5-1.289C12.2,68.507,13,67.906,13.606,67.435Zm-6.672,3.5c.628.011,1.533-.791,1.988-1.121,3.594-2.608,3.868-2.836,4.7-3.486a.648.648,0,0,0,.249-.512V64H0v1.815a.652.652,0,0,0,.249.512c.829.647,1.1.878,4.7,3.486C5.4,70.143,6.306,70.945,6.934,70.934Z" transform="translate(0 -64)" fill="#4a8466"/>
</svg>
