<svg xmlns="http://www.w3.org/2000/svg" xmlns:xlink="http://www.w3.org/1999/xlink" width="206.345" height="228.541" viewBox="0 0 206.345 228.541">
  <defs>
    <linearGradient id="linear-gradient" x1="0.5" x2="0.5" y2="1" gradientUnits="objectBoundingBox">
      <stop offset="0" stop-color="#f9dab4"/>
      <stop offset="0.197" stop-color="#fcd7a9"/>
      <stop offset="0.527" stop-color="#dca96a"/>
      <stop offset="0.778" stop-color="#fecf94"/>
      <stop offset="1" stop-color="#bc9769"/>
    </linearGradient>
    <filter id="Union_13" x="69.811" y="0" width="64.318" height="212.5" filterUnits="userSpaceOnUse">
      <feOffset dy="3" input="SourceAlpha"/>
      <feGaussianBlur stdDeviation="0.5" result="blur"/>
      <feFlood flood-opacity="0.4"/>
      <feComposite operator="in" in2="blur"/>
      <feComposite in="SourceGraphic"/>
    </filter>
  </defs>
  <g id="five-year" transform="translate(-365.371 -7094)">
    <g transform="matrix(1, 0, 0, 1, 365.37, 7094)" filter="url(#Union_13)">
      <path id="Union_13-2" data-name="Union 13" d="M0,208v-4H2.685V117.965L.5,115.779l2.829-2.829,22.627,22.628-2.828,2.828-1.748-1.748V191.9h19.3s1.356-69.246,0-72.864c-.575-1.534-3.958-12.175-11.524-18.521-10.778-9.04-26.466-14.14-26.466-14.14V4H0V0H60V4H58.162V59.071l3.156,1.212-1.434,3.734-22.405-8.6,1.434-3.734,1.762.676V17.027h-19.3V73.709A51.044,51.044,0,0,1,42.092,83.834c9.2,7.847,16.069,21.266,16.069,21.266V204H60v4Z" transform="translate(71.31)" fill="url(#linear-gradient)"/>
    </g>
    <path id="Path_13611" data-name="Path 13611" d="M-.58-75.981q.387-.129.322.258a1.155,1.155,0,0,1-.322.645l-.387.774a6.313,6.313,0,0,1-.387.645Q-2.644-71.466-4-69.4t-2.774,4.128q-2.58,4-5.224,8t-5.225,8.127Q-19.028-46.44-20.7-43.8t-3.354,5.354q-.9,1.419-2.709,4.837t-3.805,7.74q-2,4.322-3.677,9.03a39.649,39.649,0,0,0-2.129,8.514,10.342,10.342,0,0,0,.839,6.192q1.29,2.387,5.16,2.387A14.8,14.8,0,0,0-24.832-.774a21.393,21.393,0,0,0,4.9-2.774,34.206,34.206,0,0,0,4.386-3.935q2.064-2.193,3.87-4.257l.9-.9q.774-.774,1.483-1.613a8.251,8.251,0,0,0,1.1-1.612q.387-.774-.129-1.032a.508.508,0,0,0-.709.065l-.58.581q-1.419,1.548-3.741,4.063t-4.966,4.966a36.72,36.72,0,0,1-5.418,4.193,9.763,9.763,0,0,1-5.1,1.742q-2.58,0-3.548-1.225a4.544,4.544,0,0,1-.967-2.9,13,13,0,0,1,.58-3.741,35.959,35.959,0,0,1,1.226-3.483A69.853,69.853,0,0,1-28.251-20q1.87-3.612,3.676-7.095,3.354-6.579,6.708-13.029t6.837-12.9q1.161-1.935,3.354-5.87T-3.16-67.08q2.322-4.257,4.192-8.062a38.625,38.625,0,0,0,2.387-5.612q.387-1.161,0-1.1a2.065,2.065,0,0,0-.968.645q-.581.581-1.225,1.354t-.774.9q-8.9,10.062-17.608,20.06T-34.378-38.571q-2.58,3.1-5.805,7.224T-47.02-22.9q-3.612,4.322-7.676,8.45a86.8,86.8,0,0,1-8.256,7.418A41.7,41.7,0,0,1-71.6-1.742a21.425,21.425,0,0,1-8.836,2q-2.58,0-5.805-.258A23.035,23.035,0,0,1-92.3-1.29a12.09,12.09,0,0,1-4.773-3.1,7.97,7.97,0,0,1-1.935-5.676A4.522,4.522,0,0,0-96.234-8a4.175,4.175,0,0,0,2.644-.323,3.426,3.426,0,0,0,1.677-1.871,3.329,3.329,0,0,0-.129-2.709,4.16,4.16,0,0,0-1.87-2.193,3.7,3.7,0,0,0-2.516-.387,4.851,4.851,0,0,0-2.386,1.29,5.185,5.185,0,0,0-1.484,2.58,6.669,6.669,0,0,0,.258,4.838A13.864,13.864,0,0,0-97.2-2.709,12.683,12.683,0,0,0-90.364.968a29.886,29.886,0,0,0,8.578.452A44.452,44.452,0,0,0-73.143-.193a26.837,26.837,0,0,0,7.16-3.161,64.563,64.563,0,0,0,9.095-7.16A117.636,117.636,0,0,0-48.7-19.028q3.87-4.451,7.546-9.095t7.289-9.03q8.127-9.933,16.448-19.608T-.58-75.981ZM9.481-16.254l6.063-1.161q1.677-.387,2.9-.645a13.289,13.289,0,0,0,2.193-.645,8.839,8.839,0,0,0,1.935-1.1,20.407,20.407,0,0,0,2.257-2,15,15,0,0,0,1.483-1.741,2.743,2.743,0,0,0,.451-2.257,3.52,3.52,0,0,0-2.193-3.031,8.733,8.733,0,0,0-4.579-.516,19.635,19.635,0,0,0-5.741,1.741,21.992,21.992,0,0,0-5.805,3.935,24.035,24.035,0,0,0-4.644,6,19.355,19.355,0,0,0-2.322,7.74A12.859,12.859,0,0,0,1.612-5.87,10.781,10.781,0,0,0,3.16-2.064,6.6,6.6,0,0,0,7.74.968a10.79,10.79,0,0,0,5.547-.9,23.64,23.64,0,0,0,5.741-3.548,54.546,54.546,0,0,0,5.1-4.709,39.764,39.764,0,0,0,3.741-4.515,9.746,9.746,0,0,0,1.612-2.9l-.516-.258q-.774.129-2.774,2.451t-4.773,5.1A47.081,47.081,0,0,1,15.48-3.29a10.452,10.452,0,0,1-6,2.258q-2.967,0-3.612-1.935A8.152,8.152,0,0,1,5.8-7.418a24.977,24.977,0,0,1,1.806-5.1Q8.836-15.093,9.481-16.254Zm.774-1.419q-.129-.129.194-.838A10.616,10.616,0,0,1,11.287-20q.516-.774,1.032-1.419a6.451,6.451,0,0,0,.645-.9,17.729,17.729,0,0,1,2.709-2.645,17.68,17.68,0,0,1,3.741-2.386,7.377,7.377,0,0,1,3.676-.774q1.742.129,2.386,2.322.516,1.806-1.548,3.483a20.8,20.8,0,0,1-4.9,2.9,30.212,30.212,0,0,1-5.483,1.806Q10.9-17.028,10.255-17.673Zm68.5-3.1a7.338,7.338,0,0,0,1.29-5.934A2.758,2.758,0,0,0,78.3-29.09a8.253,8.253,0,0,0-3.032-.58,7.964,7.964,0,0,0-3.676.967,26.179,26.179,0,0,0-3.676,2.322,27.575,27.575,0,0,0-3.354,2.967Q63.016-21.8,61.855-20.64q.516-1.161,1.225-2.709a9.125,9.125,0,0,0,.838-2.967,3.381,3.381,0,0,0-.58-2.386q-.71-.967-2.9-.967a5.939,5.939,0,0,0-2.58.7,30.233,30.233,0,0,0-2.774,1.548q-1.354.852-2.58,1.755t-2.129,1.677q-.645.516-2.064,1.677t-2.9,2.451q-1.484,1.29-2.773,2.451a9.423,9.423,0,0,0-1.677,1.806,1.619,1.619,0,0,0-.387.645.584.584,0,0,0,.129.645q.258.387,1.161-.258T43.8-16.125q1.032-.9,1.87-1.742l1.1-1.1q1.806-1.677,3.741-3.225t3.87-2.967a11.736,11.736,0,0,1,1.161-.774,22.144,22.144,0,0,1,2.258-1.226,7.578,7.578,0,0,1,2.193-.709q.968-.129.839.9A11.392,11.392,0,0,1,59.4-24.639q-1.419,2.064-3.483,5.031t-4.451,6.321q-2.386,3.354-4.515,6.321T43.279-1.935Q41.731.129,41.6.387h6.45q.645-.9,2.257-3.354t3.935-5.611q2.322-3.161,4.966-6.644a61.588,61.588,0,0,1,5.482-6.321,42.91,42.91,0,0,1,5.482-4.708,8.61,8.61,0,0,1,4.838-1.871q1.29,0,1.484.71a2.9,2.9,0,0,1-.129,1.677,9.775,9.775,0,0,1-.9,1.935q-.581.968-.839,1.354-4,5.805-8.127,11.417T58.243.387h6.45q4.773-6.45,9.288-12.965A58.586,58.586,0,0,1,84.688-24.252q1.419-1.161,3.419-2.516a7.006,7.006,0,0,1,3.934-1.354q2.322,0,1.29,1.935a23.568,23.568,0,0,1-3.676,5.1q-2.516,2.774-4.773,5.741A28.97,28.97,0,0,0,81.27-9.224a8.541,8.541,0,0,0-.322,6.257Q82.108.387,84.366.774a8.522,8.522,0,0,0,5.031-.9A23.8,23.8,0,0,0,95.073-4q2.9-2.58,5.289-5.031a50.642,50.642,0,0,0,3.87-4.386,16.969,16.969,0,0,0,1.483-2.064q0-.774-.71-.71a1.714,1.714,0,0,0-1.1.451q-1.032,1.032-3.225,3.418t-4.838,4.9Q93.2-4.9,90.751-2.967t-3.87,1.935q-2.193,0-2.773-.967a2.957,2.957,0,0,1-.129-2.451A13.525,13.525,0,0,1,85.591-7.74q1.161-1.806,2.451-3.483t2.451-2.967Q91.654-15.48,92.041-16a26.9,26.9,0,0,0,1.87-2.645,13.759,13.759,0,0,0,1.355-2.9,18.1,18.1,0,0,0,.58-2.645,6.8,6.8,0,0,0-.193-2.773,2.978,2.978,0,0,0-3.1-2.58,8.4,8.4,0,0,0-4,1.032,20.452,20.452,0,0,0-3.483,2.322Q83.4-24.9,81.786-23.543T78.754-20.769Z" transform="translate(466 7321)" fill="#f9d9b2"/>
  </g>
</svg>
