<svg xmlns="http://www.w3.org/2000/svg" width="22" height="26" viewBox="0 0 22 26">
  <g id="guard-check" transform="translate(664.833 -7250.05)" fill="#f8f2e6" stroke-linecap="round" stroke-linejoin="round">
    <path d="M -653.83349609375 7275.68359375 L -654.1404418945313 7275.44482421875 L -664.1404418945313 7267.66748046875 L -664.33349609375 7267.517578125 L -664.33349609375 7267.27294921875 L -664.33349609375 7251.05029296875 L -664.33349609375 7250.55029296875 L -663.83349609375 7250.55029296875 L -643.83349609375 7250.55029296875 L -643.33349609375 7250.55029296875 L -643.33349609375 7251.05029296875 L -643.33349609375 7267.27294921875 L -643.33349609375 7267.517578125 L -643.5265502929688 7267.66748046875 L -653.5265502929688 7275.44482421875 L -653.83349609375 7275.68359375 Z" stroke="none"/>
    <path d="M -663.83349609375 7251.05029296875 L -663.83349609375 7267.27294921875 L -653.83349609375 7275.05029296875 L -643.83349609375 7267.27294921875 L -643.83349609375 7251.05029296875 L -663.83349609375 7251.05029296875 M -663.83349609375 7250.05029296875 L -643.83349609375 7250.05029296875 C -643.2811889648438 7250.05029296875 -642.83349609375 7250.498046875 -642.83349609375 7251.05029296875 L -642.83349609375 7267.27294921875 C -642.83349609375 7267.58154296875 -642.9759521484375 7267.873046875 -643.2196044921875 7268.0625 L -653.2196044921875 7275.83984375 C -653.400146484375 7275.97998046875 -653.6168212890625 7276.05029296875 -653.83349609375 7276.05029296875 C -654.0501708984375 7276.05029296875 -654.266845703125 7275.97998046875 -654.4473876953125 7275.83984375 L -664.4473876953125 7268.0625 C -664.6910400390625 7267.873046875 -664.83349609375 7267.58154296875 -664.83349609375 7267.27294921875 L -664.83349609375 7251.05029296875 C -664.83349609375 7250.498046875 -664.3858032226563 7250.05029296875 -663.83349609375 7250.05029296875 Z" stroke="none" fill="#fff"/>
  </g>
</svg>
