<svg xmlns="http://www.w3.org/2000/svg" width="558.772" height="576.197" viewBox="0 0 558.772 576.197">
  <g id="lawn-mower--lianer" transform="translate(0)" opacity="0.75">
    <g id="Слой_1" data-name="Слой 1" transform="translate(0 0)">
      <path id="Path_13565" data-name="Path 13565" d="M383.039,575.653l-2.659.607a71.563,71.563,0,0,0,3.386-24.842c-.147-2.843,1.159-4.72,3.349-6.358a166.215,166.215,0,0,1,34.356-19.4q22.165-9.44,44.467-18.558c10.314-4.2,20.748-8.088,31.421-11.308,3.459-1.049,7.14-1.647,10.121-3.938-19.975,4.6-39.2,11.593-58.507,18.457,2.76-2.917,6.68-4.186,9.44-7.361a2.76,2.76,0,0,0-2.981.313,129.183,129.183,0,0,1-22.468,11.188c-14.776,5.889-29.958,9.67-46,8.575-5.99-.414-11.74-1.325-14.776-7.986-1.629-3.579-4.527-6.606-7.563-9.32-8.078-7.213-17.012-12.062-28.154-8.649-4.269,1.307-8.281,3.211-12.881,2.576-2.383-.331-4.8-.4-7.195-.69-10.121-1.178-20.315-2.254-30.013-5.8-6.5-2.374-13.056-4.6-19.588-6.928,6.1,5.778,12.881,10.47,20.692,13.065,10.608,3.5,21.456,5.99,32.736,5.907.782,0,1.721-.11,2.107.81a1.941,1.941,0,0,1-.736,2.144,29.655,29.655,0,0,0-6.348,10.121,4.15,4.15,0,0,1-3.947,2.76c-6.643.4-13.3.755-19.91,1.426-7.765.791-15.641.81-23.278,2.466-4.3.92-4.389.837-4.453-3.68-.156-12.614.791-25.274-2.061-37.723-1.187-5.2-2.263-10.424-3.4-15.641l-.856.055v8.428c-1.1-4.38-.34-8.86-.69-13.277,5.364,2.963,7.213,2.319,9.458-3.469.791-2.015,1.224-4.159,1.914-6.211,1.371-4.131,4.241-7.287,6.845-10.645.92-1.233,3.073-3.018-.386-4.012.074-3.6-2.7-4.14-5.272-4.895.69-.681,2.07,0,2.558-1.343-2.493-1.343-4.554.184-6.716.865-3.386-2.1-7.361-2.337-11.041-3.561a23,23,0,0,0,2.631-2.641,3.138,3.138,0,0,0,.23-3.846,2.7,2.7,0,0,0-3.432-.773c-2.65,1.454-5.088.607-7.581-.156-3.607-1.095-7.131-2.622-10.811-3.229-3.285-.534-5.235-3.68-8.566-3.68a17.83,17.83,0,0,0-10.378-5.769c.432-.635,1.73-.819,1.389-1.748-.414-1.15-1.564-.736-2.4-.469a23.472,23.472,0,0,0-9.2,5.217,16.828,16.828,0,0,1-10.369,4.656c-7.2.837-14.151,2.9-21.162,4.665-4.49,1.132-4.775.92-5.521-3.257-1.969-11.722-4.895-23.1-11.436-33.252.515-1.757,1.04-3.524,1.555-5.29a31.183,31.183,0,0,1,3.551,2.677c2.613,2.576,5.088,5.281,7.637,7.922,1.638,1.693,3.68,3.487,5.935,2.871s4.6-2.365,6.652-3.846c.975-.69.616-1.84-.156-2.76a13.378,13.378,0,0,0-3.975-3.239c-4.2-2.1-8.437-4.131-12.605-6.284a11.445,11.445,0,0,0-6.266-1.463c3.487-2.153,6.937-4.4,11.317-4.039,7.075,3.984,13.249,9.274,19.947,13.8,3.873,2.622,3.966,2.871.92,6.395-1.417,1.656-2.852,3.3-4.15,5.051-1.785,2.42-2.549,4.389-2.613,6.22a4.04,4.04,0,0,0,.81-.653c4.214-5.852,8.235-11.887,15.641-14.188a3.331,3.331,0,0,0,1.583-1.73c.7-1.426,1.923-2.171,3.1-3.1,5.217-4.122,11.749-5.52,17.481-8.685a6.339,6.339,0,0,1,5.9.064,110.706,110.706,0,0,0,29.442,9.145c3.984.653,7.2.92,7.591,6.707.359,5.447,5.272,8.842,9.909,11.639a191.37,191.37,0,0,0,19.322,9.744,118.421,118.421,0,0,0,25.974,8.271,136.164,136.164,0,0,0,25.937,3.119c3.947,0,7.563.874,8.98,5.327.138.414.543.727,1.214.313a6.563,6.563,0,0,0,.166-1.214c-.184-4.508-.193-4.6,4.361-4.536,5.98.11,11.529-1.674,17.095-3.487.092.966.837.681,1.408.754-2.76,1.141-5.52,2.19-8.216,3.469-1.325.635-2.76,1.629-2.033,3.478.672,1.656,2.291,1.389,3.607,1.113,8.547-1.776,17.169-3.294,25.6-5.52,8.989-2.411,17.343-5.925,21.659-15.4,1.785-3.92,10.047-6.891,13.976-5.272a16.119,16.119,0,0,0,8.281,1.408c1.7-.2,2.852.6,4.048,1.509,1.978,3.736,4.122,7.407,5.916,11.234,3.607,7.71,1.509,17.012-5.088,21.723a96.231,96.231,0,0,1-32.6,15.108c-16.874,4.223-34.153,5.631-51.524,6.395-24.078,1.049-47.936-1.334-71.766-4.508-6.615-.92-13.323-.442-19.984-.193-3.064.11-5.52,3.147-5.576,6.44-.083,3.128,2.53,3.524,4.656,4.186a46.987,46.987,0,0,0,6.468,1.481,411.185,411.185,0,0,0,56.216,4.95,280.093,280.093,0,0,0,48.764-3.174c21.557-3.349,42.379-8.409,60.486-21.3,5.576-3.975,10.673-8.768,12.743-15.393,3.349-10.746-1.242-19.432-8.64-26.977-.727-3.579,2.457-2.6,4.048-3.487,1.012,1.776,3.561,2.024,4.168,4.2-.175,1.794.92,3.036,1.978,4.223,5.447,6.063,8.409,13.406,10.314,21.116,2.981,12.081,1.2,24.456,1.546,36.7,0,1.021,0,2.429-1.472,2.227-5.263-.764-8.281,2.953-11.547,5.833a94.362,94.362,0,0,1-24.842,15.779,113.6,113.6,0,0,1-43.979,10.121c-1.656,0-3.321.276-4.3,1.886a2.291,2.291,0,0,0,2.116.782,157.175,157.175,0,0,0,44.21-5.1A136.557,136.557,0,0,0,467.722,483.9c2.76-1.748,4.6-3.92,5.079-7.361a174.311,174.311,0,0,0,2.153-28.108l12.329,4.895c4.6,3.22,9.8,5.465,14.648,8.281,6.56,3.791,13.12,7.5,20.352,9.937,2.07.69,5.18-.828,6.118,1.941.708,2.07.313,4.536.313,6.827,0,5.6.423,11.253-1.472,16.681a17.1,17.1,0,0,1-10.121,10.838c-5.833,1.656-11.7,3.211-17.481,4.987-11.749,3.6-23.158,8.106-34.521,12.817a388.356,388.356,0,0,0-66.245,35.883C392.884,565.413,386.829,569.323,383.039,575.653Z" transform="translate(-12.608 -29.763)" fill="#fff"/>
      <path id="Path_13566" data-name="Path 13566" d="M248.071,481.557V473.13l.856-.055c1.132,5.208,2.208,10.433,3.4,15.641,2.852,12.476,1.9,25.136,2.061,37.723.064,4.5.156,4.6,4.453,3.68,7.673-1.656,15.512-1.675,23.278-2.466,6.615-.672,13.267-1.031,19.91-1.426a4.15,4.15,0,0,0,3.947-2.76,29.654,29.654,0,0,1,6.349-10.121,1.942,1.942,0,0,0,.736-2.144c-.386-.92-1.325-.819-2.107-.81-11.28.083-22.128-2.411-32.736-5.907-7.848-2.595-14.592-7.287-20.692-13.065,6.533,2.3,13.083,4.554,19.588,6.928,9.7,3.542,19.864,4.6,30.013,5.8,2.392.285,4.812.359,7.2.69,4.6.635,8.6-1.27,12.881-2.576,11.142-3.414,20.076,1.435,28.154,8.649,3.036,2.76,5.934,5.741,7.563,9.32,3.036,6.661,8.787,7.572,14.776,7.986,16.028,1.095,31.209-2.687,46-8.575a129.184,129.184,0,0,0,22.468-11.188,2.76,2.76,0,0,1,2.981-.313c-2.76,3.183-6.671,4.453-9.44,7.361,19.322-6.864,38.533-13.865,58.507-18.457-3.018,2.291-6.7,2.889-10.121,3.938-10.673,3.22-21.106,7.112-31.421,11.308q-22.312,9.081-44.467,18.558a166.232,166.232,0,0,0-34.356,19.469c-2.19,1.638-3.5,3.515-3.349,6.358a71.563,71.563,0,0,1-3.386,24.842c-2,4.748-4.012,9.486-7.094,13.682C355.775,606.3,344.6,611.132,331,611.159c-5.06-.7-9.468-3.045-13.8-5.52a38.666,38.666,0,0,1-8.989-8.8c-2.392-3.524-4.573-7.1-6.855-10.609-1.711-5.254-4.766-9.946-5.52-15.687-.322-2.521-2.714-5.833-5.852-6.5-4.886-1.04-9.918-1.3-14.9-1.9l-11.455-1.583-29.24-6.717-12.311-3.579-13.258-6.026-1.132-.92c-4.315-4.711-9.541-7.462-16.055-7.361a54,54,0,0,0-9.541-1.546,144.6,144.6,0,0,0-16.644-2.116,50.417,50.417,0,0,0-10.949-1.343,79.055,79.055,0,0,0-23.14-1.086c-.708.055-1.721,0-1.757,1.168s-.074,2.254-.138,3.386a2.53,2.53,0,0,1-1.987,2.457c-1.408.23-1.233-1.233-1.463-2.144-.322-1.3-.3-2.687-1.141-3.828-5.833-.4-10.9,2.125-16.074,4.26-.984-.285-1.767,1.178-3.045.184,5.088-3.064,10.121-5.889,15.862-7.25,1.205-.294,3.423-.147,2.907-2.457-.616-2.76-.166-5.714-1.251-8.419-.083-.92.607-2.374-.92-2.447-3.3-.156-4.729-2.76-6.652-4.7-1.555-1.583-2.7-3.6-4.84-4.6-.69-.672-.791-1.84-1.9-2.153a27.443,27.443,0,0,0-1.84-2.07c-2.245-2.309-4.343-5.235-7.7-1.205-.92,1.086-2.631,1.1-3.91,1.012-9.017-.663-17.785,1.923-26.737,1.84-5.649-1.472-8.465-5.521-9.753-10.866-.239-.994-.451-2-.662-2.99-.92-4.067-.57-8.235-.994-12.329s-.607-3.929-4.03-2.135c-4.039,2.125-8.133,4.168-12.209,6.247a5.134,5.134,0,0,1-.451-.442.34.34,0,0,1,0-.285c4.554-2.871,9.127-5.7,13.654-8.612,2.659-1.721,2.539-3.68-.129-5.355-.865-.543-2.171-.662-2.585-2.438,3.6-.064,6.7.966,9.79,1.9,1.1.331,2.079.828,3.276.193,7.554-4.048,15.144-8.042,22.717-12.062,1.251-.543,2.512-1.077,3.754-1.647,12.449-5.75,24.943-11.381,38.238-14.951,1.721-.34,3.036,1.454,4.876.81,3.469-1.215,4.242-.745,5.244,3.091-2.07-1.288-3.036-.543-3.183,1.564a8.826,8.826,0,0,1-1.261.543,407.755,407.755,0,0,0-62.2,22.026c-1.583.7-3.34,1.2-4.656,2.76,12.679,5.383,23.747,13.01,34.871,20.527,7.913,5.346,15.706,10.921,19.966,19.956.92,2.015,2.006.819,3,.221A112.329,112.329,0,0,1,151,498.036c10.526-3.239,21.162-6.211,31.6-9.587,18-5.806,35.791-12.338,54.625-15.108,1.629-.239,4.021-1.417,4.6,1.178.524,2.217-.92,3.938-3.119,4.757a58.956,58.956,0,0,1-6.183,2.107q-35.966,9.33-71.959,18.558c-11.225,2.871-22.487,5.576-32.92,10.857-1.638.828-2.217,1.536-1.509,3.368a37.491,37.491,0,0,1,2.429,9.633c.193,1.84.846,2.079,2.65,1.84a155.808,155.808,0,0,1,29.8-1.73c26.415,1.343,52.5,5.116,78.445,9.983,5.263.984,5.52.966,6.634-4.3a116.207,116.207,0,0,0,2.19-23.922C248.439,497.622,248.2,489.59,248.071,481.557Zm57.569,46.114a42.686,42.686,0,0,0-7.885.258c-9.734,1.408-19.552,2.328-29.13,4.674-4.49,1.095-9.081,1.2-13.6,1.84-1.031.156-2.254.184-2.521,1.389-.322,1.417,1.076,1.5,1.941,1.951,1.417.736,3.165,1.159,4.2,2.254,1.776,1.914,3.625,1.739,5.907,1.518,9.9-.92,19.818-2.227,29.783-.92,3.542.451,5.419-.975,5.944-4.49.138-.92.074-2.1,1.178-2.687.81.635.35,1.518.543,2.254-1.389,4.8-1.389,4.821,3.147,4.913,2.5.055,5.005,0,7.508,0a20.242,20.242,0,0,1-6.376,1.1c-6.2.11-5.033-.423-5.1,5.143-.046,4.232,0,8.2,3.965,11.354,2.355,1.886,2.107,5.456.258,7.913-3.975,5.291-.515,10.333.718,15.052,1.012,3.864,4.545,7.048,7.434,10.195,6.036,6.588,12.881,11.335,22.367,10.921a5.631,5.631,0,0,0,4.821-2.622c2.76-3.929,3.791-8.575,5.281-12.964A43.787,43.787,0,0,0,348,572.452c-.055-9.78.5-19.644-3.956-28.826,1.095-5.585-1.914-10.056-4.462-14.4-4.38-7.434-9.109-14.832-19.322-14.96.359-1.619,1.38-1.84,2.641-1.84a17.368,17.368,0,0,1,7.434,1.04c.589.267,1.6.727,1.84.506,2.245-2.208,5.52-1.932,8.281-3.478-1.095-1.417-2.282-1.288-3.68-1.04-3.156.552-6.441,1.647-9.5,1.15-4.674-.764-8.106.847-11.225,3.754a40.032,40.032,0,0,0-7.867,9.486c-.267.488-.773,1.2-.607,1.509C308.823,527.764,306.68,527.239,305.64,527.672Zm-90.167,13.415c21.042,8.971,43.676,10.829,66.411,14.795-6.247-6-13.415-8.584-21.3-9.55a2.65,2.65,0,0,0-1.932.432c-2.135,1.969-4.674,1.629-7.177,1.454a79.387,79.387,0,0,1-12.513-2.291c-7.8-1.822-15.522-3.947-23.508-4.84ZM86.837,485.5c-2.512-1.711-4.159-2.935-5.9-4.011-5.769-3.533-11.529-7.094-17.6-10.121-1.1-.543-2.2-1.012-3.156-.1s.074,1.932.432,2.815A54.66,54.66,0,0,0,67,485.431c1.224,1.684,2.714,3.285,5.171,2.53A75.268,75.268,0,0,1,86.837,485.5Zm265.9,66.954c2.374-.708,4.554-2.181,7.177-2.089,1.454,0,3.045.221,3.137,1.932a2.662,2.662,0,0,1-2.871,2.816c-1.711.055-3.211-.046-4.812-.083s-2.972-.294-2.567,2.226c.294,1.84.34,3.128,2.76,2.411a8.612,8.612,0,0,1,4.766.212c.672.193,1.435.193,1.555,1.049s-.543,1.205-1.04,1.675c-1.647,1.583-3.68.819-5.594.92-3.137.156-1.555,2.484-1.84,3.874-.3,1.693.865,1.84,2.181,1.536,2.585-.552,5.162-1.2,7.756,0a.782.782,0,0,0,1.205-.727c0-3.11,1.26-6.33-.662-9.2-.451-.672-.681-1.371-.322-1.84,2.282-3.036.488-6.238.377-9.33-.083-2.236-.3-5.024-3.966-2.76-.92.552-2.227.386-3.367.5-5.75.552-5.833.672-4.288,6.33a3.672,3.672,0,0,0,.423.552Zm43.289-18.981c-7.545,1.205-15.034,2.677-22.726,2.466-1.656,0-2.135.92-1.675,2.521.7,2.42,1.316,4.849,1.84,7.305s1.656,2.438,3.349,1.095c6.091-4.849,12.642-9.008,19.22-13.387Zm-113.942,9.707c1.923,1.592,3.9,1.564,5.52,2.429s3.248,1.684,4.784,2.659c4.9,3.11,4.968,3.1,5.8-2.484a6.42,6.42,0,0,1,.193-1c.258-1.748-.561-2.631-2.263-2.641C291.563,542.1,286.99,541.721,282.086,543.175Zm80.1-3.009c-.764-2.043-.11-4.8-2.76-5.208-3.781-.58-7.572-1.73-11.519-1.031,1.537,5.861,1.537,5.833,7.232,5.889C357.33,539.835,359.492,540.056,362.188,540.166Z" transform="translate(-3.276 -34.962)" fill="#fff"/>
      <path id="Path_13567" data-name="Path 13567" d="M550.77,444.487c3.358-1.168,6.661-2.318,10.379-1.435,2.291.552,4.288-1.3,6.615-1.435,7.36-.442,13.35,2.42,18.65,7.241a54.67,54.67,0,0,1,10.369,13.6c1.9,5.134,4.242,10.121,5.005,15.641A53.622,53.622,0,0,1,594,514.9c-.662,1.058-1.288,2.144-1.932,3.211-3.745,4.011-7.508,8-12.108,11.041-1.058.708-2.595,1.84-3.322.727-1.352-2.135-2.318-.764-3.588-.258a35.849,35.849,0,0,1-4.6,1.417c-1.592.4-1.224-.837-1.27-1.693l1.721-3.22c-6.376,2.033-11.7,5.824-18.172,4.674-1.914-1.638-3.772-3.193-4.417-5.916-.442-1.886.35-2.825,1.518-3.8,1.353-1.113,2.705-.92,4.1,0,5.521,3.846,9.624,3.873,14.887-.3,8.6-6.836,11.814-16.414,12.881-26.857,1.141-11.2-1.987-21.594-6.514-31.687-.847-1.9-1.84-3.368-4.794-2.889,2.917-2.76,1.113-4.113-.708-5.346a4.407,4.407,0,0,0-3.276-.7c-2.346.35-2.76-1.123-1.638-2.613s.708-1.9-.5-2.843c-4.26-3.358-8.6-2.282-13-.469-1.2.488-2.19,1.7-3.91.856Zm34.273,41.321v5.52c0,1.031.377,1.472,1.49.994,3.993-1.7,5.9-5.649,8.925-8.4,1.242-1.123-.138-3.487-.478-5.254-1.408-7.25-1.389-7.149-8.483-4.913-2.2.7-3.018,1.564-2.374,3.883A26.163,26.163,0,0,1,585.043,485.807Zm6.6-17.767a3.855,3.855,0,0,0-4.895-3.956,12.135,12.135,0,0,1-3.285.92c-2.861.046-2.6,1.408-1.684,3.3a29.61,29.61,0,0,1,1.076,2.9c.294.8.791,1.058,1.573.635,2.107-1.141,4.131-2.475,6.6-2.76a.791.791,0,0,0,.616-1.04Zm1.711,32.552c-3.174,2.171-7.149,2.972-9.734,5.171-2.429,2.061-3.119,6.183-4.978,10.286,3.947-2.53,6.606-4.784,8.345-8.041,1.242-2.319,2.558-4.6,5.521-5.245.874-.193,1.214-.938.847-2.171ZM580.7,462.207l.662-.166c1.1-.3,2.2-.616,3.312-.92,3.4-.828,3.588-1.371,1.537-4.214-.92-1.233-1.647-2.061-3.229-.736-.92.764-2.355.92-3.34,1.647-.626.469-2.659-.35-1.84,1.527C578.382,460.616,578.565,462.5,580.7,462.207Z" transform="translate(-43.616 -35.32)" fill="#fff"/>
      <path id="Path_13568" data-name="Path 13568" d="M536.666,519.588c2.337.4,4.536-.58,6.818-.69.837,0,2.024-.589,2.318.69a2.079,2.079,0,0,1-1.61,2.346c-.846.3-1.84.3-2.677.534q-8,2.061-15.963,4.15a223.685,223.685,0,0,0-41.4,15.936c-4.6,1.555-8.685,4.1-12.881,6.349-9.983,5.29-20.159,10.277-29.442,16.847-10.066,5.778-19.092,13.083-28.7,19.533-2.1,1.408-4.177,2.843-6.339,4.14-2.337,1.417-3.947,1.04-4.168-2.043,3.791-6.33,9.845-10.24,15.733-14.151A388.382,388.382,0,0,1,484.6,537.346c11.363-4.711,22.772-9.2,34.521-12.817C524.962,522.8,530.86,521.244,536.666,519.588Z" transform="translate(-32.208 -41.489)" fill="#fff"/>
      <path id="Path_13569" data-name="Path 13569" d="M367.112,390.519c-5.52,1.84-11.114,3.6-17.095,3.487-4.554-.083-4.545,0-4.361,4.536a6.571,6.571,0,0,1-.166,1.215c-.672.414-1.077.1-1.215-.313-1.417-4.453-5.033-5.3-8.98-5.327a136.172,136.172,0,0,1-25.974-3.082,118.425,118.425,0,0,1-25.872-8.281,191.387,191.387,0,0,1-19.322-9.744c-4.6-2.76-9.55-6.192-9.909-11.639-.386-5.778-3.607-6.054-7.591-6.707a110.7,110.7,0,0,1-29.442-9.146,6.34,6.34,0,0,0-5.9-.064c-5.7,3.137-12.237,4.6-17.481,8.686a9.338,9.338,0,0,0-3.1,3.1,3.331,3.331,0,0,1-1.583,1.73c-7.453,2.3-11.473,8.336-15.641,14.188a4.041,4.041,0,0,1-.81.653c.064-1.84.828-3.8,2.613-6.22,1.3-1.748,2.76-3.4,4.15-5.051,3.027-3.524,2.935-3.772-.92-6.395-6.7-4.536-12.881-9.826-19.947-13.8-.819-.377-1.665-.718-2.457-1.15s-1.84-.736-1.509-1.941,1.472-.764,2.337-.708c1.481.083,2.963.212,4.444.322,9.449,3.515,18.852,7.149,27.2,12.973.837.589,1.5.837,2.429.11,5.447-4.214,11.713-7.029,17.84-10.2-.791-1.518-2.162-1.941-3.266-2.687s-2.319-1.481-3.432-2.282c-13.065-9.366-23.922-20.683-30.905-35.349a58.913,58.913,0,0,1-4.453-23.112c.156-5.815,1.665-11.289,3.045-16.837.644-1.454,1.307-2.9,1.941-4.361,3.386-7.876,8.833-14.4,13.93-21.162,1.049-1.389.966-1.987-.35-2.944-11.961-8.649-23.729-17.537-36.177-25.486a6.339,6.339,0,0,0-2.687-2.015l-11.86-8.207c-8.86-6.063-17.481-12.458-26.682-18.089-.718-.57-1.491-1.076-2.144-1.7-2.76-2.631-4.748-1.26-6.818,1.021s-2.539,4.83-3.4,7.9c-2.3-4.3-2.263-8.014.828-11.188,2.116-2.171,1.233-3.239-.754-4.6a2.539,2.539,0,0,0-3.367,0c-4.37,3.064-6.91,7.075-7.075,12.623,6.155-2.576,8.695-.865,8.787,5.686v4.821c-2.668,4.6-.644,8.594,1.665,12.531q6.606,14.234,13.24,28.467c3.294,7.315,6.569,14.648,9.891,21.953q10.3,22.7,20.656,45.4,6.56,14.482,13.093,28.946c.11.442.2.92.331,1.325.414,1.334,2.07,3.091.285,3.929-1.96.92-2.024-1.638-2.539-2.76q-18.539-39.4-36.9-78.878c-7.821-16.856-15.485-33.776-23.14-50.715-.754-1.656-1.38-2.033-2.953-1.012-1.132.727-2.411,1.555-4.4.791,2.521-2.079,3.68-4.407,2.889-7.232a56.594,56.594,0,0,0-2.76-8.143c-7.922-17.169-15.963-34.392-23.922-51.625-.313-.681-.322-1.592-1.334-1.84-1.592,2.659-.423,5.162.6,7.554a12.3,12.3,0,0,1,1.3,6.312c-.386,3.377.764,6.3,2.153,9.2q1.711,3.57,3.377,7.158c13.488,29.01,24.842,59.023,40.014,87.232,11.409,21.162,20.177,43.51,29.976,65.39a23.637,23.637,0,0,1,1.647,11.142c-.138,2.539-1.417,4.6-3.772,5.235-2.558.69-2.429-2.135-3.423-3.478a2.958,2.958,0,0,0-.258-.221c-3.469-10.793-6.974-21.567-10.406-32.377A250.642,250.642,0,0,0,103.5,260.025L91.292,233.8Q85,220,78.715,206.2c-3.828-9.1-8.115-17.988-12.55-26.8-1.978-5.52-4.895-10.682-7.471-15.963-.506-1.371-.92-2.76-1.527-4.113-.736-1.748-1.334-3.726-3.892-3.45-3.754-4.26-5.833-8.925-5.1-14.9.239-1.96-1.509-4.214-2.475-6.275-3.9-8.354-7.857-16.69-11.8-25.026L20.492,81.42,8.283,52.962a31.286,31.286,0,0,0-.994-3.275c-.92-2.033-.478-3.634,1.537-4.6s3.349.1,4.334,2.006c4.711,9.2,9,18.567,13.074,28.053q11.731,27.372,23.453,54.726c.451,1.049.92,2.061,1.472,3.137,4.748-4.6,4.6-4.527,2.006-10.075Q39.74,94.089,26.519,65.144q-4.14-9.054-8.281-18.153c-.147-.313-.478-.69-.4-.92.828-2.4-7.361-.626-2.365-5.428,1.325-1.279-.377-5.263.791-8.014-2.871,2.19-6.054,3.966-6.836,7.894-.2,1.03-.8.92-1.362.166-.994-3.956-2.3-7.876-.92-12.274-3.2-.046-4.6,2.613-7.121,3.947.5-2.558,2.76-3.091,3.68-4.7l6-3.561c2.383-1.527,5.916-1.095,7.361-4.315.147-.313,1.067-.515,1.555-.414,4.886,1.058,9.458-.92,14.151-1.481,10.976-1.389,21.916-3.045,32.874-4.6,4.6-.7,9.311-.8,13.8-2.033,14.059-2.024,28.108-4.094,42.167-6.045,3.515-.488,7.075-.626,10.912-.92-.147-1.288-1.4-2.981.469-3.984,1.647-.874,2.76.552,4.067,1.15,2.944,1.371,5.116,3.828,7.729,5.668,1.73,2.125,3.772,4.03,4.784,6.661a1.84,1.84,0,0,0,1.785,1.343c3.68.2,5.75,2.585,7.278,5.52,5.419,10.489,10.581,21.162,16.212,31.494,16.9,31.154,33.058,62.7,49.5,94.1,1.84,3.487,2.76,7.94,8.2,7.453a2.613,2.613,0,0,1,.975.331c-3.036,7.3,1.307,12.679,4.481,18.586,2.493-2.576,2.392-4.84.874-7.609-1.951-3.561-4.242-6.983-5.346-10.967a5.421,5.421,0,0,1-.626-.782c-18.742-36.923-37.346-73.91-56.888-110.409-3.9-7.287-6.671-15.135-11.1-22.082S155.863,6.443,146.349,5.33c.331-1.426,1.325-.819,2.171-.718A26.682,26.682,0,0,1,164.815,13.1c1.5,2.567,3.055,5.1,4.481,7.7,3.625,6.606,7.2,13.249,10.792,19.874,4.3,9.449,9.5,18.4,14.224,27.667,4.232,9.412,9.293,18.4,14.086,27.529,4.508,9.633,9.146,19.193,14.39,28.449,6.312,12.78,12.568,25.6,19.266,39.26,2.208-8.6,3.846-16.249,2.76-24.235a45.939,45.939,0,0,0-5.346-17.316c-2.585-6.634-6.937-12.163-11.041-17.84,3.4.331,3.745,4.058,6.128,5.52,5.428,8.06,9.992,16.561,11.869,26.195a129.6,129.6,0,0,1,0,17.932l-2.153,9.652a2.978,2.978,0,0,0-.11,3.772c4.821,8.409,9.569,16.874,14.344,25.311l14.224,27.51,14.335,28.348c2.125,4.711,4.26,9.431,6.606,14.611,1.307-2.089,2.9-2.843,4.545-3.846-1.334-.4-2.88.984-3.285-.524-.3-1.113,1.113-1.84,2.236-2.162l1.628-.552a40.639,40.639,0,0,1,15.135.175c1.978.92,5.226.672,5.52,3.257.506,4.15,2.944,3,5.29,2.687,1.012-.129,2.015-.3,3.027-.46,6.229-.478,12.393.635,18.6.681,5.254,1.03,10.645,1.491,15.558,3.92,3.229,1.592,5.52,3.68,5.125,7.673-.819,1.224-.6,2.953-1.941,3.938-1.629,1.187-1.279,2.125.386,2.953,2.457,1.224,4.84,2.613,7.361,3.781,9.2,4.37,18.4,8.805,26.6,15.006,1.491,1.132,3.487,1.951,3.588,4.3a14.3,14.3,0,0,0-10.332-.2c-11.749,3.929-23.489,7.894-34.852,12.881-.672.294-1.675.313-1.417,1.546,1.27.589,2.42-.064,3.616-.368,6.339-1.583,12.55-3.68,19.055-4.6a86.22,86.22,0,0,0,21.511-5.806c1.518-.644,3.423-.92,3.883-2.963,4.867,3.423,6.744,8.713,8.713,13.948.377,1.794-.368,4.131,1.84,5.07,2.585,1.113,5.07,2.549,7.894,3.036,3.809,1.84,7.545,3.837,11.427,5.52,12.246,5.208,18.852,13.8,16.92,27.6a22.625,22.625,0,0,1-11.851,13.083c-1.592.92-4.775-.092-4.048,3.487h0c-1.2-.92-2.346-1.711-4.048-1.509a16.12,16.12,0,0,1-8.281-1.408c-3.929-1.619-12.191,1.352-13.976,5.272-4.315,9.477-12.669,12.991-21.659,15.4-8.428,2.254-17.049,3.772-25.6,5.52-1.316.276-2.935.543-3.607-1.113-.745-1.84.708-2.843,2.033-3.478,2.677-1.279,5.474-2.328,8.216-3.469,4.186-1.84,8.391-3.616,12.541-5.52.865-.4,2.19-.129,2.089-2.043-.239-4.472.92-8.851,1.647-13.249,1.086-7.02,2.052-14.04,1.84-21.162,0-.745.506-2.116-1.049-1.987-1.04.083-1.96.607-1.84,2,.083.92,0,1.84,0,2.76,0,7.673.175,15.356-1.215,22.956-.506,2.76.276,6.266-4.131,6.606-.294,0-.57.681-.81,1.058a19.322,19.322,0,0,1-10.452,7.793ZM261.046,254.707h14.234l-3.588-7.011c-4.6-9.9-9.734-19.542-14.933-29.148-4.508-8.741-8.667-17.665-13.7-26.139-1.748-3.469-3.533-6.928-5.254-10.415-.984-2.006-1.665-1.205-2.493.12-1.454,2.337-2.972,4.6-4.49,6.928-3.873,5.815-8.575,10.995-12.826,16.561l-.662.672L204.259,220.1l-.727.708c-2.245,2.282-4.508,4.545-6.717,6.864-1.426,1.481-3.92,3.119-3.846,4.6.11,1.941,3.137,2.6,4.812,3.947.543.432,1.04.92,1.6,1.316l31.752,22.431c1.638,1,2.76,3.193,5.272,2.1,2.76-1.205,5.668-2.273,8.511-3.4Zm-84.389-99.5a89.492,89.492,0,0,0-13.8,2.843,185.847,185.847,0,0,0-28.329,6.689c-5.024.727-9.67,2.76-14.427,4.343a107.648,107.648,0,0,0-14.638,5.327c6.008,4.315,11.961,7.922,17.84,11.565,8.465,5.208,16.322,11.391,25.072,16.166,8.538,6.533,17.656,12.209,26.682,18.089a4.435,4.435,0,0,0,2.355,1.84c3.772,2.6,7.6,5.134,11.28,7.857,1.408,1.04,2.171.644,3.11-.478,6.956-8.281,15.328-15.154,22.772-23s14.464-16.276,19.736-25.919c1.076-1.969,1.316-3.469-.074-5.3a34.965,34.965,0,0,1-2.4-4.159c-.368-.828-.681-1.684-1.132-2.475-1.445-2.567-2.024-6.137-6.625-4.6-1.472.488-3.22-.92-4.453-2.171a26.83,26.83,0,0,1-7-11.961c3,1.435,5.392,3.763,8.124,5.594.754.5,1.647,1.316,2.475.736,1.122-.81-.156-1.592-.432-2.355-1.61-4.453-5.134-7.259-8.409-10.443-4.186-4.076-7.821-8.465-14.721-4.757,1.03-2.135,2.944-2.263,3.975-3.5,2.677-1.178,5.52-.635,8.686-.773-.819-1.61-1.454-2.926-2.144-4.214q-10.516-19.22-20.867-38.432L161.641,40.605c-3.975-6.707-4.6-15.062-9.955-21.309-.377.46-.5.534-.5.616-.166,2.392-.662,5.07-3.331,5.318-2.328.212-2.309-2.677-3.119-4.315C144.2,19.8,144.1,18.6,142.181,19.2c-7.572,2.383-15.476,3.156-23.232,4.6-17.408,3.331-34.429,8.4-51.644,12.706,17.555-.616,34.705-4.729,52.2-6L93.1,35.692a150.83,150.83,0,0,0-16.064,2.825,22.661,22.661,0,0,0-7.361.92,30.7,30.7,0,0,0-9.2,1.15c-2.926.221-5.9,0-8.732.92-4.426.57-8.842,1.224-13.286,1.675-1.675.166-2.852,2.273-4.389,1.564-3.358-1.555-6.7-.092-10.02-.451-2.714-.294-2.76.7-1.721,2.889q16.957,36.545,33.7,73.082c1.279,2.76,2,5.52,6.008,3.128,1-.6,3.68-1.03,2.677,2.079-4.6,2.521-4.757,3.128-2.76,7.729,2.19,4.913,4.343,9.845,6.532,14.721a8.124,8.124,0,0,0,2.76,3.828c4.113,2.705,8.115,5.585,12.255,8.235,4.821,3.091,4.867,3.027,9.661-.442,6.026-2.549,12.1-4.867,18.622-5.944a96.144,96.144,0,0,0,9.67-2.512,92,92,0,0,0,13.074-2.852c18.972-4.012,37.889-8.281,56.7-12.982,2.162-.239,4.315-.5,6.441-.7.534-.046,1.205-.092,1.435.607a1.426,1.426,0,0,1-.653,1.785,9.92,9.92,0,0,1-2.2.92c-8.143,2.365-16.295,4.7-24.437,7.066q-33.178,9.615-66.328,19.322a31.2,31.2,0,0,0-9.578,4.334c2.181,1.058,3.367,3.055,5.9,1.711,15.062-8,31.282-12.246,47.991-15.135,15.917-2.76,32.009-4.794,47.439-9.826,6.441-2.1,11.7-1.84,15.365,4.6-1.757,2.521-3.45,2.622-5.419.11a5.088,5.088,0,0,0-5.6-1.583c-3.073.8-6.118,1.711-9.2,2.576a4.371,4.371,0,0,0-2.7.782ZM286.449,339.418c-.708-6.625-6.44-7.664-11.041-10.507-.607,5.106.258,9.707-.543,14.252-.147.81-.138,1.739,1.076,1.665,1.03-.064,2.116-.2,2.263-1.592.221-2.043.285-4.122.69-6.128.3-1.491-.267-3.349,1.583-4.775.681,3.183.175,6.026.414,8.823.083.92-.856,2.549,1.021,2.76s2.273-1.067,2.374-2.631c0-.681-.34-2.309,1.325-1,.166,4.352.469,8.695.442,13.047,0,2.171.764,3.018,2.834,3.312,16.1,2.346,31.181,7.186,43.8,18.852.46-5.8.92-11.142,1.325-16.479a2.355,2.355,0,0,0-1.058-2.346c-3.966-2.825-7.315-7.361-13.24-4.416a4.7,4.7,0,0,1-2.043.092C305.6,352.023,295.015,348.177,286.449,339.418Zm-33.343-24.842a22.34,22.34,0,0,0-5.87-4.067c-3.413-3.45-8.014-5.171-11.823-8.041-2.052-1.546-4.738-2.76-5.024-5.732-.524-5.594-1.03-11.188-1.076-16.819,0-2.521.745-2.981,3.027-2.171a173.063,173.063,0,0,1,17.233,6.919c1.224.589,2.677,1.445,3.68-.184s-.607-2.438-1.665-3.22c-6.2-4.536-13.341-6.441-20.821-7.407-3-.4-3.929.754-3.846,3.561.147,4.932.156,9.872.156,14.813,0,.782.442,1.84-1.224,2.328-.055-1.187-.166-2.273-.147-3.349.064-4.251.23-8.492.23-12.743,0-.837.626-2.263-1.113-2.365-3.4-.2-1.932-2.125-1.1-3.5a23.434,23.434,0,0,1,6.247-6.726c-3.846-2.815-7.563-5.52-11.243-8.216-8.962-6.606-17.941-13.185-26.848-19.864-1.9-1.426-3.073-1.537-4.738.534a124.485,124.485,0,0,0-10.636,14.8c-7.2,12.3-9.348,25.3-4.729,38.965,6.947,20.5,20.794,35.312,39.011,46.427a4.794,4.794,0,0,0,5.143.166,147.958,147.958,0,0,1,36.729-12.366c4.048-.856,8.087-1.767,12.955-2.834a18.282,18.282,0,0,1-8.133-6.864,4.343,4.343,0,0,0-4.37-2.061ZM35.554,22.259c1.711,2.383,4.168,4.067,4.324,6.763s1.537,2.9,3.6,2.622c10.664-1.472,21.346-2.825,32-4.416,18.346-2.76,36.536-6.615,55.149-7.489A95.465,95.465,0,0,0,141.188,18.4c.727-.12,2.282-.055,2.043-1.233a15.1,15.1,0,0,0-4.094-7.453c-1.619-1.675-2.033,1.2-3.349,1.021a5.245,5.245,0,0,0-1.693.267A351.2,351.2,0,0,1,97.42,16.693C83.3,18.2,69.164,19.655,55,20.75ZM266,330.917c-14.666,1.969-29.166,4.665-42.949,10.342-.92.359-2.374.193-2.291,1.592.074,1.215,1.463,1.279,2.383,1.638a106.38,106.38,0,0,0,19.763,5.723c6.33,1.132,12.835,4.343,18.576-1.573a1.665,1.665,0,0,1,.92-.368c5.52-.727,7.784-4.048,7.581-9.422-.046-1.132.377-2.263.442-3.4C270.716,331.1,270.292,330.7,266,330.917Zm120.53,52.122a17.168,17.168,0,0,0,8.014-4.223c2.2-1.923,3.183-5.033,5.52-6.5,3.137-1.987,3.846-4.83,4.527-7.94.294-1.343.672-2.668.92-4.012,1.537-7.094,2.53-14.224,1.325-21.493-.3-1.84-.708-3.1-2.99-1.675-4.067,2.558-8.235,4.968-12.412,7.361-1.2.681-.92,1.583-.92,2.622a163.346,163.346,0,0,1-.34,17.877c-.552,6.036-2.457,11.786-3.634,17.978ZM286,255.949c-14.16-29.111-28.127-57.514-44.329-85.116-2,2.76-2.53,4.849-.92,7.765,3.9,7.149,7.48,14.482,11.041,21.833,8.64,18.024,17.757,35.763,29.672,51.911C282.41,253.695,283.063,255.406,286,255.949ZM440.837,361.491c4.251-6.928.672-15.862-5.474-20.923a93.463,93.463,0,0,0-14.942-10.36c-2-1.076-4.288-3.229-5.98-2.843s-1.168,3.791-1.84,5.806c-1.693,5.005.331,8.557,5.428,9.9a28.9,28.9,0,0,1,6.183,1.987c4.729,2.521,10,4.8,12.062,10.121a13.24,13.24,0,0,0,4.564,6.312Zm-64.056,14.059c2.3,1.445,2.355-.331,2.466-1.84.506-7.305.92-14.62,1.481-21.925.2-2.585-.607-2.76-2.907-2.015-5.428,1.84-10.93,3.432-16.479,4.812-2.227.561-2.3.92-1.067,2.76a48.6,48.6,0,0,1,8.207,19.837c.4,2.576,1.233,2.079,2.76.865S374.472,375.393,376.782,375.549ZM329.9,387.032h2.585c.92-.074,2.015-.046,2.254-1.159s-.727-1.84-1.629-2.374a4.306,4.306,0,0,0-1.969-.5c-7.186.064-14.2-1.334-21.106-2.935-12.881-3-25.67-6.5-35.266-16.626-.828-.874-1.665-1.5-3.009-.966-2.208.865-3.239-.129-3.413-2.346a2.1,2.1,0,0,0-2.015-2c-2.153-.35-4.3-.764-6.441-1.095-2.328-.359-2.309.92-1.481,2.429a14.1,14.1,0,0,0,6.017,5.962c4.6,2.4,9.2,4.757,13.6,7.425,16.212,9.808,34.484,11.943,51.874,14.178ZM272.39,286.422c-.92.129-2.319-.662-2.447,1.012s1.491,1.178,2.263,1.334c18.88,3.947,36.711,10.783,53.916,19.4,7.894,3.956,15.9,7.7,23.858,11.547,1.307.626,2.76,1.2,3.68-.267,1.1-1.665-.432-2.447-1.527-3.239a98.554,98.554,0,0,0-17.288-9.817c-10.378-4.656-21.281-7.922-31.927-11.869a161.758,161.758,0,0,0-30.528-8.1Zm30.362-.626a12.735,12.735,0,0,1,2.447-.092c12.393,2.429,24.842,1.767,37.373,1.159a29,29,0,0,0,9.339-2.006c.865-.34,1.84-.736,1.84-1.767s-1.224-1.518-2.024-1.426c-1.573.175-1.7-.616-2.107-1.84a5.778,5.778,0,0,0-6.763-3.34c1.665,1.721,4.177,2.631,4.738,5.465-1.343.276-2.631.626-3.947.782a190.6,190.6,0,0,1-32.966.92c-2.254-.12-3.073-.488-1.638-3.22a11.128,11.128,0,0,1-12.43.782c1.334-1.095,3.459-1.122,4.278-3.321a11.039,11.039,0,0,0-1.932.294c-2.65.984-5.419,0-8.281.92-2.4.791-4.214-2.171-3.57-5.52-3.68,3.1-3.487,4.472-.092,6.726,2.668,1.767,5.852,2.107,8.547,4.085,7.213,5.3,15.577,7.361,24.5,7.131a76.191,76.191,0,0,1-17.3-5.732Zm110.271,83.911c2.3-.718,3.625-2.024,5.125-3.018a56.366,56.366,0,0,1,13.369-7.02c2.861-.966,2.466-2.07,1.279-3.8a27.657,27.657,0,0,0-19.68-12.136c1.03,8.741,2.843,17.242-.074,25.974Zm-86.248,7.637c-11.731-9.035-24.373-13.12-37.613-15.724-.966-.193-2.76-1.739-3.1.92-.221,1.84-1.1,3.579,1.592,4.812a98.623,98.623,0,0,0,20.38,7.048c5.852,1.26,11.63,3.2,18.76,2.944Zm36.8-28.6a7.636,7.636,0,0,0-4.794.248c-4.536,1.159-4.987.92-3.8-3.542a59.041,59.041,0,0,0,1.583-21.751c-.074-.736.35-1.886-.736-2s-1.095.984-1.067,1.767c.313,8.281-1.721,16.074-3.919,23.922-.764,2.76-1.84,3.791-4.416,3.782h-1.564c2.852,7.729,11.041,10.066,16.074,15.954a35.414,35.414,0,0,0-2.337-6.882,10.266,10.266,0,0,0-2.76-4.269c-.727-.543-2.484.313-2.273-1.307a3.846,3.846,0,0,1,2.539-3.045ZM319.1,274.084c-.92,1.408-3.055,2.061-2.245,3.68s2.447.377,3.726.359a27.475,27.475,0,0,0,2.76-.2c4.315-.534,8.621-1.113,12.531-3.239,1.325-.727,2.309-1.84,2.052-3.257s-1.84-1.03-2.926-.984q-14.215.524-28.439,1.168c-.92,0-2.162-.285-2.263,1.573a106.8,106.8,0,0,1,14.795.9Zm41.044.359a4.305,4.305,0,0,0-.672-1.178c-3.137-2.714-6.965-3.873-10.93-4.6a106.378,106.378,0,0,0-28.734-1.932c-7.02.552-14.059.745-21.088,1.187-.745.046-1.9,0-2.291,2.024,21.493-2.135,42.783-3.377,63.706,4.5ZM72.007,153.968c.543,2.953,8.032,19.423,9.937,21.981a30.626,30.626,0,0,1,3.588-9.918c.6-.92.773-1.527-.23-2.254C80.9,160.555,76.516,157.335,72.007,153.968ZM21.937,23.446c1.721,2.567,0,3.947-1.242,5.585a11.841,11.841,0,0,0-2.19,9.09c.3,2.181,2.291,3.073,3.68,1.555,1.739-1.96,3.091-4.232,5.778-5.152.607-.212.488-.975.313-1.527C27.1,29.39,25.838,25.847,21.937,23.446ZM348.453,365.024v5.447c0,8.023,0,7.876,8.207,7.121,3-.276,2.76-1.426,1.748-3.4C356.356,370.02,352.851,367.49,348.453,365.024Zm-8.281-4.113a152.263,152.263,0,0,0,.506,15.328c.184,1.932,1.012,2.181,2.6,2.181,1.84,0,1.932-.975,1.969-2.42.064-2.622.35-5.244.524-7.867C346.134,362.751,346.134,362.751,340.172,360.911Zm4.012,25.762L357.911,385c1.509-.184,2.319-.975,2.043-2.53s-1.445-1.628-2.65-1.481q-7.3.911-14.592,1.9c-1.15.147-2.466.3-2.2,1.941.258,1.481,1.362,2.006,3.671,1.868Zm-84.214-99.534-1.656.1c.506,9.054-2.4,18.107.561,27.151C260.006,305.311,261.3,296.267,259.969,287.139Zm21.778,39.913c3.119,3.68,27.6,14.473,30.316,14.077Z" transform="translate(-0.03 -0.03)" fill="#fff"/>
      <path id="Path_13570" data-name="Path 13570" d="M457.537,408.71c7.361,7.545,11.961,16.23,8.639,26.977-2.07,6.625-7.167,11.418-12.743,15.393-18.107,12.881-38.928,17.951-60.486,21.3a280.081,280.081,0,0,1-48.764,3.174,411.173,411.173,0,0,1-56.143-4.932,46.983,46.983,0,0,1-6.376-1.435c-2.125-.662-4.738-1.058-4.656-4.186.092-3.331,2.512-6.367,5.576-6.441,6.661-.248,13.369-.681,19.984.193,23.821,3.174,47.678,5.52,71.766,4.508,17.334-.764,34.613-2.171,51.524-6.395A96.229,96.229,0,0,0,458.476,441.7c6.6-4.711,8.695-14.013,5.088-21.723-1.794-3.827-3.938-7.5-5.916-11.234Z" transform="translate(-22.168 -32.693)" fill="#fff"/>
      <path id="Path_13571" data-name="Path 13571" d="M151.939,435.546c-1.665.46-1.693,1.932-2.033,3.229s-.193,2.53-1.058,3.588c-.754.92-1.6,1.9-2.861,1.343s-.442-1.794-.488-2.76c-.064-1.307,2.6-3.736-1.371-3.524.147-2.107,1.113-2.852,3.183-1.564-1-3.837-1.776-4.306-5.244-3.091-1.84.644-3.156-1.15-4.876-.81a39.568,39.568,0,0,1,8.8-2.76c2.079-.386,3.174-2.024,2.227-3.312-2.309-3.11.221-4.867,1.38-6.937s.589-2.852-1.445-2.917c-3.386-.11-2.65-1.674-1.251-3.4,2.76-3.377,1.058-10.047-3-10.931-3.055-.653-2.2-2.76-1.049-3.5,3.9-2.438.156-5.52-.4-5.658-2.889-.653-1.84-2.466-1.767-4.039,1.84.23,3.625.552,5.456.681a5.07,5.07,0,0,0,4.692-2.2c.644-.92,1.187-2.475.221-3.2-2.567-1.923-5.327-3.551-6.118-6.992,0-.138-.386-.221-.589-.313a4.748,4.748,0,0,1-2.953-4.646c1.086.607,2.2,1.169,3.257,1.84,4.729,2.981,7.554,7.775,11.133,11.841,6.542,10.121,9.468,21.53,11.436,33.251.708,4.214.994,4.389,5.52,3.257,7.011-1.767,13.967-3.828,21.162-4.665a16.828,16.828,0,0,0,10.369-4.656,23.472,23.472,0,0,1,9.2-5.217c.837-.267,1.987-.681,2.4.469.34.92-.92,1.113-1.389,1.748-2.9,1.454-6.174,2.429-7.784,5.962,1.38.653,3.68-.34,3.68,2.144,0,2.033-1.279,2.944-2.972,4.039-3.68,2.365-8.014,2.76-11.906,4.968l16.727,6.67c.184-.414.368-.626.34-.81a21.812,21.812,0,0,1,0-5.8c.276-1.748,1.73-2.88,1.316-5.217-.46-2.622,2.935.543,4.462-1.389s4.352-3.257,6.6-4.83c3.331.074,5.281,3.183,8.566,3.68,3.68.607,7.2,2.135,10.811,3.229,2.493.764,4.932,1.61,7.581.156a2.7,2.7,0,0,1,3.432.773,3.137,3.137,0,0,1-.23,3.846,23.011,23.011,0,0,1-2.631,2.641,11.381,11.381,0,0,0-5.014,8.18c-.313,2.291-.34,4.554-.469,6.827-.055.92,0,2.061-1.2,2.107s-.718-1.224-1.076-1.84c-.92-1.592.129-4.113-2.346-4.922-8.722-2.88-16.267-7.784-23.305-13.534-1.711-1.389-2.834-.966-3.828.791-2.116,3.745-1.159,6.9,2.668,8.851,11.317,5.751,23.278,10.286,33.592,17.923,1.3.966,2.687,1.767,3.174,3.45-2.392,2.052-4.711,1.757-7.471.386-10.121-5.014-19-11.961-28.715-17.592-7.526-4.38-15.089-8.685-23-12.458-1.978-.92-4.232.138-6.072-1.6-.653-.607-1.058,1.96-2.613,2.171-4.6.635-9.1,1.481-13.645,2.245-1.472-5.2-13.111-8.593-16.994-4.978a2.107,2.107,0,0,0-.708,1.84c.285,2.19-.736,3.22-2.76,3.947S149.6,433.715,151.939,435.546Zm69.926-11.2A21.61,21.61,0,0,0,228.9,428.3c4.131,1.647,8.446,2.825,12.439,4.849.69.35,2.07,2.107,2.457-.239.212-1.3,2.171-2.972-.92-4.011a60.808,60.808,0,0,1-10.176-4.775c-3.68-2.1-7.167-2.953-10.82.23Zm-71.122-32.727c-3.505,3.321-3.377,3.266-2.567,5.2a3.275,3.275,0,0,0,2.622,1.9c1,.267,2.107.331,2.181,1.721a1.84,1.84,0,0,1-1.509,2.024c-1.288.3-1.224,1.509-1.84,2.273,2.217,1.288,1.04,3.781,1.951,5.52,1.086,2.07,3.321,1.288,4.821,1.38s.432-1.757.294-2.76c-.81-6.017-3.119-11.556-5.934-17.261Z" transform="translate(-10.993 -29.747)" fill="#fff"/>
      <path id="Path_13572" data-name="Path 13572" d="M483.487,417.748a71.279,71.279,0,0,1,9.2,20.867c1.049,4.242,1.168,8.584,1.9,12.881a174.319,174.319,0,0,1-2.153,28.108c-.478,3.4-2.291,5.576-5.079,7.36a136.558,136.558,0,0,1-37.383,16.1,157.174,157.174,0,0,1-44.292,5.042,2.291,2.291,0,0,1-2.116-.782c.975-1.61,2.641-1.84,4.3-1.886a112.29,112.29,0,0,0,43.98-10.121,94.361,94.361,0,0,0,24.842-15.779c3.239-2.88,6.284-6.6,11.547-5.833,1.435.2,1.5-1.205,1.472-2.227-.35-12.246,1.435-24.621-1.546-36.7-1.9-7.71-4.867-15.052-10.314-21.116-1.067-1.187-2.153-2.429-1.978-4.223Z" transform="translate(-32.283 -32.752)" fill="#fff"/>
      <path id="Path_13573" data-name="Path 13573" d="M515.5,459.645c-1.214-1.794-3.165-2.972-4.1-5.024-.589-1.307-1.334-2.641.239-3.616a2.76,2.76,0,0,1,3.68.755c1.481,1.739,2.834,3.6,4.959,4.646,4.334,4.085,10.121,5.152,15.356,7.361,6.836,2.944,14.335,4.076,21.07,7.406a3.947,3.947,0,0,0,2.337.193c4.747-.92,6.56,2.181,7.36,5.428,1.987,7.977,1.316,15.954-.92,23.8a10.21,10.21,0,0,0-.423,4.978c.515,2.6.46,5.327-2.144,7.131-.92.616-2.226,1.307-2.76.313-1.537-2.926-6.183-4.2-4.739-8.731a3.236,3.236,0,0,0,0-1.031c1.9-5.428,1.472-11.041,1.472-16.681,0-2.291.4-4.757-.313-6.827-.92-2.76-4.048-1.251-6.119-1.941-7.232-2.438-13.8-6.146-20.352-9.937C525.3,465.11,520.177,462.865,515.5,459.645Z" transform="translate(-40.846 -36.042)" fill="#fff"/>
      <path id="Path_13574" data-name="Path 13574" d="M264.68,463.31c2.806-6.625,6.68-12.384,12.881-16.377a13.315,13.315,0,0,1,5.585-2.392c3.459.994,1.343,2.76.386,4.011-2.6,3.358-5.474,6.514-6.845,10.645-.69,2.052-1.122,4.2-1.914,6.211-2.245,5.787-4.094,6.441-9.458,3.469C264.312,467.1,264.974,465.2,264.68,463.31Z" transform="translate(-21.183 -35.557)" fill="#fff"/>
      <path id="Path_13575" data-name="Path 13575" d="M158.862,380.585l-2.622-1.84c1.389-.5,3.864.58,3.4-2.227a11.446,11.446,0,0,1,6.266,1.463c4.168,2.153,8.4,4.186,12.605,6.284a13.379,13.379,0,0,1,3.975,3.239c.773.874,1.132,2.052.156,2.76-2.1,1.481-4.26,3.193-6.652,3.846s-4.3-1.178-5.934-2.871c-2.549-2.641-5.024-5.346-7.637-7.922A31.182,31.182,0,0,0,158.862,380.585Z" transform="translate(-12.515 -30.119)" fill="#fff"/>
      <path id="Path_13576" data-name="Path 13576" d="M277.984,439.06c-3.367.837-5.686,2.76-6.551,6.256a21.759,21.759,0,0,1-1.536,3.8c-.525,1.141-1.159,2.76-2.539,2.309-1.721-.58-.92-2.374-.616-3.607a14.427,14.427,0,0,1,7.085-9.2c2.162-.681,4.223-2.208,6.716-.865C280.045,439.023,278.665,438.379,277.984,439.06Z" transform="translate(-21.311 -34.972)" fill="#fff"/>
      <path id="Path_13577" data-name="Path 13577" d="M324.037,535.534c-1.251,2.668-1.766,5.667-3.68,8.051-.193-.736.267-1.619-.543-2.254-1.1.589-1.04,1.766-1.178,2.687-.524,3.515-2.4,4.941-5.944,4.49-9.964-1.279-19.883,0-29.783.92-2.282.221-4.131.4-5.907-1.518-1.03-1.095-2.76-1.518-4.2-2.254-.865-.451-2.263-.534-1.941-1.951.267-1.205,1.491-1.233,2.521-1.389,4.517-.681,9.109-.782,13.6-1.84,9.578-2.346,19.4-3.266,29.13-4.674A42.681,42.681,0,0,1,324.037,535.534Z" transform="translate(-21.673 -42.824)" fill="#fff"/>
      <path id="Path_13578" data-name="Path 13578" d="M424.777,541.84c-6.578,4.38-13.129,8.538-19.193,13.387-1.693,1.343-2.825,1.27-3.349-1.095s-1.159-4.885-1.84-7.305c-.46-1.6,0-2.567,1.674-2.521C409.743,544.517,417.233,543.045,424.777,541.84Z" transform="translate(-32.016 -43.334)" fill="#fff"/>
      <path id="Path_13579" data-name="Path 13579" d="M303.06,552.294c4.9-1.454,9.477-1.076,14.013-1.04,1.7,0,2.521.92,2.263,2.641-.055.331-.147.672-.193,1-.828,5.585-.92,5.594-5.8,2.484-1.537-.975-3.183-1.794-4.784-2.659S304.983,553.885,303.06,552.294Z" transform="translate(-24.25 -44.081)" fill="#fff"/>
      <path id="Path_13580" data-name="Path 13580" d="M285.172,359.656c4.3-.221,4.72.184,4.462,4.527-.064,1.141-.488,2.273-.442,3.4.2,5.373-2.043,8.695-7.581,9.422a1.665,1.665,0,0,0-.92.368c-5.741,5.916-12.246,2.705-18.576,1.573a106.376,106.376,0,0,1-19.772-5.723c-.92-.359-2.309-.423-2.383-1.638-.083-1.4,1.408-1.233,2.291-1.592C256.006,364.321,270.506,361.625,285.172,359.656Z" transform="translate(-19.206 -28.769)" fill="#fff"/>
      <path id="Path_13581" data-name="Path 13581" d="M352.3,418.038c-17.389-2.236-35.662-4.37-51.892-14.2-4.416-2.668-9.026-5.024-13.6-7.425a14.1,14.1,0,0,1-6.017-5.962c-.828-1.546-.846-2.76,1.481-2.429,2.162.331,4.306.745,6.441,1.095a2.1,2.1,0,0,1,2.015,2c.175,2.217,1.205,3.211,3.413,2.346,1.343-.534,2.181.092,3.009.966,9.6,10.121,22.358,13.626,35.266,16.626,6.91,1.6,13.921,3,21.106,2.935a4.305,4.305,0,0,1,1.969.5c.92.5,1.9,1.159,1.629,2.374s-1.343,1.086-2.254,1.159C354.319,418.075,353.739,418.038,352.3,418.038Z" transform="translate(-22.43 -31.036)" fill="#fff"/>
      <path id="Path_13582" data-name="Path 13582" d="M272.837,340.77c-1.684,2.7-4.251,2.512-6.44,1.334-6.109-3.266-12.384-6.312-17.537-11.1-.81-.745-1.84-1.417-1.96-2.631.662-1,1.205-.221,1.73.064,4.913,2.659,9.8,5.373,14.721,7.959,1.058.552,2.263,1.932,3.6.3a22.336,22.336,0,0,1,5.888,4.067Z" transform="translate(-19.762 -26.233)" fill="#fff"/>
      <path id="Path_13583" data-name="Path 13583" d="M373.757,419.792c-2.309.138-3.413-.386-3.68-1.84-.267-1.638,1.049-1.794,2.2-1.941,4.867-.653,9.725-1.3,14.592-1.9,1.205-.147,2.392,0,2.65,1.481s-.534,2.346-2.043,2.53Z" transform="translate(-29.604 -33.121)" fill="#fff"/>
      <path id="Path_13584" data-name="Path 13584" d="M306.22,355.46l30.316,14.077C333.813,369.933,309.339,359.168,306.22,355.46Z" transform="translate(-24.503 -28.437)" fill="#fff"/>
      <path id="Path_13585" data-name="Path 13585" d="M83,402.678c1.951-3.193,2.76-6.9,4.6-10.194,1.84-3.073,4.656-4.849,6.965-7.443-7.729,9.909-10.848,21.162-10.378,33.5a47.43,47.43,0,0,0,4.895,20.831c1.491,3.027,1.7,5.612-.635,8.17-2.585,1.536-3.864.368-4.913-2.07-3.68-8.456-3.754-17.334-3.515-26.305C80.216,413.526,81.688,408.115,83,402.678Z" transform="translate(-6.417 -30.802)" fill="#fff"/>
      <path id="Path_13586" data-name="Path 13586" d="M153.1,440.1c-2.337-1.84-1.288-3.22.773-3.975s3.036-1.757,2.76-3.947a2.107,2.107,0,0,1,.708-1.84c3.883-3.616,15.522-.221,16.994,4.977Z" transform="translate(-12.158 -34.302)" fill="#fff"/>
      <path id="Path_13587" data-name="Path 13587" d="M124.982,375.55c-8.207-5.005-17.757-4.122-26.452,2.392-1.141.856-2.162,2.457-4.49,1.233,6.689-4.665,12.881-9.339,20.416-11.915,4.6-.92,9.146-1.647,13.8-.727a25.4,25.4,0,0,1,9.679,4.84,4.747,4.747,0,0,0,2.953,4.646c.2.092.561.175.589.313.791,3.441,3.551,5.07,6.118,6.992.966.727.423,2.273-.221,3.2a5.07,5.07,0,0,1-4.692,2.2c-1.84-.129-3.634-.451-5.456-.681-2.263-1.757-4.646-2.889-5.235-6.615C131.579,378.724,128.046,376.682,124.982,375.55Z" transform="translate(-7.544 -29.288)" fill="#fff"/>
      <path id="Path_13588" data-name="Path 13588" d="M343.543,557.38c-.865,4.058-1.84,8.06-1.012,12.219a7.738,7.738,0,0,0,2.171,4.6c2.613,2.429,6.44,1.352,7.2-2.116a9.3,9.3,0,0,0,.055-3.423c-.313-1.84,0-3.4,1.923-3.791s2.963,1.159,3.542,2.65c2.043,5.3-4.481,14.528-10.066,14.381-3.634-.1-7.361-3.68-7.931-7.894A23,23,0,0,1,343.543,557.38Z" transform="translate(-27.139 -44.576)" fill="#fff"/>
      <path id="Path_13589" data-name="Path 13589" d="M107.719,416.26c-.34,4.794-1.509,8.612-.092,12.421a8.327,8.327,0,0,0,2.337,3.68,3.91,3.91,0,0,0,6.579-2.346,30.726,30.726,0,0,0,.1-4.122c0-1.316.359-2.567,1.73-3.091,1.518-.58,2.493.616,3.082,1.6,1.711,2.843,1.049,5.732-.451,8.456-1.941,3.515-4.324,6.67-8.768,6.827-3.312.12-5.52-1.776-7.02-4.674-1.84-3.588-1.38-7.361-.782-11.115A16.884,16.884,0,0,1,107.719,416.26Z" transform="translate(-8.333 -33.297)" fill="#fff"/>
      <path id="Path_13590" data-name="Path 13590" d="M445.448,326.932c-.212,3.423-.727,3.745-3.552,2.171-7.361-4.076-13.341-10.121-20.665-14.252-5-2.815-9.9-5.787-14.841-8.695-.994-.58-1.96-1.187-2.935-1.794a1.84,1.84,0,0,1-.626-2.7c.6-1.205,1.527-1.122,2.595-.561,4.058,2.153,8.143,4.242,12.191,6.441a151.114,151.114,0,0,1,24.428,15.973A13.34,13.34,0,0,0,445.448,326.932Z" transform="translate(-32.197 -24.062)" fill="#fff"/>
    </g>
  </g>
</svg>
