<svg xmlns="http://www.w3.org/2000/svg" width="129.604" height="124.673" viewBox="0 0 129.604 124.673">
  <path id="maple--round-blur" d="M-1903.215,124.506c-.4-.177-.765-.418-1.146-.628a12.134,12.134,0,0,0-3.527-2.537,14.821,14.821,0,0,0-3.366-1.925,3.724,3.724,0,0,0-2.009-.531,8.749,8.749,0,0,0-1.054,0,3.683,3.683,0,0,1-4.087-2.457c.42.088.967.625,1.222-.041.379-.989,1.148-1.706,1.594-2.634a28.873,28.873,0,0,0,2.608-8.222c.062-.407-.014-.9.471-1.274a6.218,6.218,0,0,1,1.442,1.946c.861,1.741,1.74,3.476,2.549,5.242.321.708.866.674,1.438.651a1.2,1.2,0,0,0,1.077-1l-.01.005a1.2,1.2,0,0,1-1.071.984c-.572.023-1.118.05-1.438-.651-.81-1.769-1.688-3.5-2.549-5.242a6.218,6.218,0,0,0-1.442-1.946c-.485.378-.409.867-.471,1.274a28.866,28.866,0,0,1-2.608,8.222c-.45.929-1.219,1.645-1.594,2.634-.255.665-.8.129-1.222.041a18.748,18.748,0,0,0-1.625-1.946,1.672,1.672,0,0,0-2.491-.018,15.015,15.015,0,0,1-3.27,2.477,2.221,2.221,0,0,1-2.823-.866h-.008a20.105,20.105,0,0,1-2.712-4.183c-.189-.329-.384-.655-.577-.982q-.659-1.483-1.322-2.968h-.013a75.509,75.509,0,0,1-5.086-12.832c-.032-.111-.048-.23-.078-.343-.43-1.661-.932-1.9-2.522-1.2a1.119,1.119,0,0,1-.259.05.838.838,0,0,0-.332-1.142.838.838,0,0,1,.327,1.138,10.145,10.145,0,0,1-1.594,1.207c.329-.759-.048-1.143-.719-1.4a10.522,10.522,0,0,0-7.972.11c-.262.108-.5.329-.944.177a10.721,10.721,0,0,1,.951-3.646v.089c0,.759,0,1.133.189,1.271-.182-.143-.183-.518-.184-1.267v-.088a34.526,34.526,0,0,1,1.943-5.311,31.7,31.7,0,0,1,1.764-4.937v-.011l4.092-11.668.257.034c.36,2.666.914,5.292,1.515,7.909l.177-.177,0-.007c-.312-1.821-.641-3.638-.93-5.464-.177-1.127-.312-2.265-.429-3.4a2.542,2.542,0,0,1,.464-1.568h0a47.065,47.065,0,0,1,1.593-4.6l0,0c.866-2.567,1.72-5.131,2.6-7.7q1.934-5.6,3.908-11.185c.092-.262.089-.593.411-.731.315.124.3.419.37.664q2.94,10.836,6.345,21.537a5.921,5.921,0,0,1,.176.75l.01.017c.583,1.716,1.12,3.452,1.771,5.143.264.688-.377,1.138-.29,1.755a.874.874,0,0,0,.432.063c.292,0,.57-.009.568.468,0,.009,0,.019,0,.028.9,2.069,1.428,4.273,2.275,6.364.154.38.245.791.432,1.153a4.774,4.774,0,0,1-.041,4.312v.512c0,.122-.009.244-.014.364-.769,1.507-.762,3.326-1.784,4.777-.354-.3-.315-.618-.386-.893a50.668,50.668,0,0,0-3.189-9.78,4.32,4.32,0,0,1-.513-2.431,4.4,4.4,0,0,0,.511,2.447,50.921,50.921,0,0,1,3.189,9.78c.071.276.023.6.386.893,1.022-1.454,1.015-3.273,1.784-4.777.136.487.545.87.531,1.41h.012c.012-.543-.4-.927-.531-1.415l.016-.364c.46-.037.508-.409.62-.743s.059-.708.484-1.01l1.69,4.26.3-.111c-.788-2.785-2.082-5.408-2.771-8.22-.43-1.159-.9-2.3-1.286-3.476-3.543-10.651-6.769-21.4-9.589-32.264a2.192,2.192,0,0,1-.089-1.592c5.21,3.892,10.5,7.532,15.944,10.941l6.592,4.14A2.649,2.649,0,0,1-1909,57.114c1.623,3.7,3.322,7.358,5.157,10.955.632,1.238,1.277,2.477,1.917,3.7l.2-.1c-2.33-4.722-4.59-9.472-6.732-14.554.432.214.624.288.792.395,3.956,2.521,8.032,4.841,12.085,7.2a2.641,2.641,0,0,1,.886.955q2.935,4.678,5.885,9.354c.813,1.286,1.642,2.56,2.464,3.839l.214-.131-7.734-12.689.213-.2c5.378,3.135,10.771,6.245,16.4,8.931-6.606-3.975-13.242-7.891-19.763-12.031,4.592-.41,9.15-.623,13.715-.667h.01v-.318c-3.065.062-6.132.044-9.19.216-1.738.1-3.479.023-5.212.191a1.672,1.672,0,0,1-1.075-.322q-5.18-3.231-10.36-6.467a1.273,1.273,0,0,1-.709-.718l19.21-1.99a4.895,4.895,0,0,0-1.417-.043q-3.609.31-7.217.632c-3.049.271-6.1.515-9.148.833a5.328,5.328,0,0,1-4.3-.929,32.535,32.535,0,0,0-3.5-2.226c-.2-.168-.393-.354-.609-.5-3.72-2.555-7.511-5-11.129-7.7a24.557,24.557,0,0,1-2.753-2.166c.386.025.555.039.723.046,1.825.078,3.656.3,5.472.2,2.939-.152,5.888-.138,8.822-.462,2.834-.313,5.69-.49,8.53-.8,2.4-.264,4.783-.628,7.182-.954a1.881,1.881,0,0,1,1.33.354c1.212.785,2.415,1.592,3.67,2.3a12.672,12.672,0,0,0,3.292,1.592,69.333,69.333,0,0,1-6.838-4.384l9.566-1.481c.794-.046,1.594-.057,2.379-.145,1.706-.188,3.333-.193,4.728,1.079a10.4,10.4,0,0,0,2.007,1.286,10.2,10.2,0,0,0,2.675,1.169l-.021-.013a10.279,10.279,0,0,1-2.651-1.164,10.463,10.463,0,0,1-2.007-1.286c-1.4-1.272-3.022-1.267-4.728-1.079-.788.088-1.585.1-2.379.145-.138-.305-.41-.342-.7-.353l0,0c-1.811.248-3.619.5-5.429.745-.932.126-1.019.018-.725-.844a1.079,1.079,0,0,0,.122-.817c-.531.127-.579.614-.684.991a1.261,1.261,0,0,1-1.22,1.028c-4.666.664-9.352,1.118-14.041,1.571a126.007,126.007,0,0,1-15.177.678,25.284,25.284,0,0,1-4.822-.531,1.286,1.286,0,0,1-1.044-.655c6.377-3.142,12-7.385,17.681-11.557h0a3.263,3.263,0,0,1,.748-.729c2.811-2.275,5.527-4.664,8.243-7.05,1.283-1.131,2.461-2.362,3.72-3.512,2.438-2.219,4.746-4.572,7-6.976a48.932,48.932,0,0,1,5.6-5.37,1.279,1.279,0,0,1,1.385-.3c.865.418,1.653.547,2.347-.285a24.864,24.864,0,0,1-1.359,5.644c-.455,1.582-1.075,3.117-1.384,4.743-.321,1.7.166,2.284,1.913,2.3a17.4,17.4,0,0,0,3.665-.541,74.313,74.313,0,0,1,10.629-1.7,16.467,16.467,0,0,1,4.193.5c1.9.582,3.467,1.485,3.706,3.737.062.593.581.934,1.019,1.281a56.45,56.45,0,0,0,10.064,5.994c.418.211.825.446,1.24.669a1.87,1.87,0,0,1-.766-.059,1.409,1.409,0,0,0-1.015.032c-.056.373.2.531.383.7a17.931,17.931,0,0,1,1.834,2.148c.695.9.661,1.078-.468,1.4-1.585.455-3.173.943-4.783,1.238-6.317,1.178-12.645,2.288-18.969,3.422l-2.335.425a.66.66,0,0,0,.693.143c6.261-.994,12.489-2.158,18.719-3.312a40.157,40.157,0,0,1,7.44-.957c2.361.011,3.765-1.2,4.911-3.008,1.55.833,1.771,1.967.39,3.018-3.412,2.6-6.223,5.853-9.566,8.515-.583.465-.415,1.061-.336,1.626a11.912,11.912,0,0,1,.321,1.909,2.305,2.305,0,0,1-1.481,2.2,8,8,0,0,1-2.834.651,25.415,25.415,0,0,0-3.416.531,6.49,6.49,0,0,1-.79.057c-.42-.442-.833-.885-1.261-1.325-.25-.255-.531-.517-.9-.223a.694.694,0,0,0-.216.913.723.723,0,0,1,.219-.9c.34-.274.654-.032.9.223.428.433.841.885,1.261,1.325a7.094,7.094,0,0,1-2.124.356.561.561,0,0,0,.064-.254.549.549,0,0,1-.068.244l-4.757.754c-.451.126-.9.265-1.357.373a4.1,4.1,0,0,0-2.266,1.283c-.785.913-.648,1.64.455,2.164a10.553,10.553,0,0,0,2.386.635,24.073,24.073,0,0,1,4.451,1.028h0c4.027.946,8,2.1,11.924,3.383a56.989,56.989,0,0,1,8.911,3.661,11.636,11.636,0,0,1,2.958,2.073,1.954,1.954,0,0,1,.393,2.772,8,8,0,0,1-3.177,3.119c-.868.5-1.762.957-2.616,1.483a2.077,2.077,0,0,0-1.038,2.914,7.227,7.227,0,0,0,1.974,2.9,14.119,14.119,0,0,0,1.459,1.283c2.276,1.64,3.189,4.02,3.619,6.645a3.153,3.153,0,0,1-.654,2.668,1.627,1.627,0,0,0-.027,2.243c.762,1.049,1.548,2.081,2.3,3.128a15.718,15.718,0,0,1,1.839,3.008c.565,1.318.273,1.782-1.144,1.9-.372.032-.785-.055-1.063.306a3,3,0,0,0-.831-.264c-2.208-.027-4.4-.317-6.615-.237a4.267,4.267,0,0,0-2.459.863c-.516.283-1.043.545-1.543.853a9.128,9.128,0,0,1-8.857.432,13.6,13.6,0,0,0-2.409-.846c-1.642-.364-2.508.327-2.4,2,.051.78.236,1.553.354,2.33-.081.342-.223.519-.424.441.206.09.35-.086.438-.436a5.036,5.036,0,0,1,.113,2.438,2.441,2.441,0,0,1-1.918,1.966,12.807,12.807,0,0,1-5.768.138c-.611-.083-1.219-.188-1.83-.283-2.586-.5-4.344-2.258-6.106-4.009-.312-.311-.657-.589-.987-.885l-.646-.614-2.866-2.834-9.993-10.026a1.8,1.8,0,0,0,.338,1.191c1.123,2.3,2.316,4.575,3.338,6.928a22.086,22.086,0,0,1,2.225,8.315,3.382,3.382,0,0,1-.957,2.123,7.257,7.257,0,0,1-3.653,1.849c-1.516.136-1.979,1.012-2.276,2.22-1.3,3.738-2.586,7.484-3.57,11.323a9.829,9.829,0,0,0-.51,2.28c-.085.678-.376,1.025-.859,1.025A1.691,1.691,0,0,1-1903.215,124.506Zm-4.078-13.717c.236-.411.521-.884.429-1.258a2.1,2.1,0,0,1-.433,1.244.458.458,0,0,1-.152-.233A.456.456,0,0,0-1907.293,110.789Zm-.9-.139c-.112-.466.114-.8.621-.983a.405.405,0,0,1,.13.2.4.4,0,0,0-.134-.219C-1908.091,109.839-1908.317,110.177-1908.2,110.65Zm-32.687-23.415a.958.958,0,0,0,.222.145c2.365.8,3.74,2.673,5.047,4.626a8.215,8.215,0,0,1,.813,2.139,6.775,6.775,0,0,0,2.677,3.538,3.606,3.606,0,0,1,1.522,3.521,15.636,15.636,0,0,1-1.306,5.662,2.269,2.269,0,0,1-.522.81,2.24,2.24,0,0,0,.533-.816,15.625,15.625,0,0,0,1.306-5.661,3.6,3.6,0,0,0-1.522-3.521,6.773,6.773,0,0,1-2.677-3.538A8.274,8.274,0,0,0-1935.6,92c-1.307-1.946-2.682-3.825-5.047-4.627a.948.948,0,0,1-.222-.145c-1.518-1.072-3.3-1.079-5.274-1.406l0,.008C-1944.175,86.156-1942.4,86.166-1940.883,87.235Zm28.231,12.14a17.432,17.432,0,0,0,.264,1.8,17.563,17.563,0,0,1-.26-1.783,32.237,32.237,0,0,0-1.13-6.495A32.959,32.959,0,0,1-1912.652,99.376Zm-9.711.363c.008.038.015.075.022.113q-.012-.066-.026-.133c-.144-.681-.406-.941-1.063-.8-.861.189-1.745.249-2.611.389a6.424,6.424,0,0,1-4.526-1.146,3.972,3.972,0,0,1-1.717-3.126,21.533,21.533,0,0,0-1.226-4.954,4.189,4.189,0,0,1-.137-2.256c.165-.754.34-1.506.512-2.258a7.893,7.893,0,0,0-.98,1.159c-.354.451-.661.455-.877-.133a23.447,23.447,0,0,0-2.4-4.007c-1.163-1.893-3.087-3.257-3.8-5.458,0,.015,0,.029,0,.044.72,2.183,2.637,3.543,3.795,5.427a23.482,23.482,0,0,1,2.4,4.007c.216.587.531.584.877.133a7.91,7.91,0,0,1,.98-1.159c-.177.752-.354,1.5-.512,2.258a4.188,4.188,0,0,0,.136,2.256,21.472,21.472,0,0,1,1.226,4.954,3.972,3.972,0,0,0,1.717,3.126,5.679,5.679,0,0,1-.673-.3,5.674,5.674,0,0,0,.684.305,6.4,6.4,0,0,0,4.526,1.146c.866-.14,1.75-.2,2.611-.389a1.454,1.454,0,0,1,.313-.039C-1922.685,98.9-1922.486,99.179-1922.364,99.738Zm-2.859-1.865a2.229,2.229,0,0,1-.273.882,2.14,2.14,0,0,0,.282-.887c.247-1,.49-2,.733-3l-.007,0C-1924.732,95.869-1924.975,96.872-1925.223,97.874Zm3.008-11.245a44.487,44.487,0,0,0-1.24,8.873c-.053,1.277.47,2.109,1.382,2.16a4.03,4.03,0,0,1-1.3.915,4.028,4.028,0,0,0,1.314-.918c-.912-.051-1.435-.885-1.382-2.16a44.449,44.449,0,0,1,1.24-8.873c.072-.288.039-.706.377-.808C-1922.177,85.912-1922.142,86.337-1922.215,86.628Zm.154,11.029a3.18,3.18,0,0,0,1.594-3.034A3.215,3.215,0,0,1-1922.061,97.658Zm13.081-5.642c1.823.911,3.593,1.932,5.385,2.9a.37.37,0,0,0-.013-.1.36.36,0,0,1,.009.086c-1.793-.971-3.562-1.992-5.385-2.9-1.786-.885-3.5-2.038-5.768-2.123l0,.014C-1912.478,89.971-1910.765,91.115-1908.98,92.016Zm-.973-9.057a23.08,23.08,0,0,1,1.7,5.476,2.994,2.994,0,0,0,.85,1.8,19.1,19.1,0,0,0,7.146,3.772,5.637,5.637,0,0,0,.63.145,5.692,5.692,0,0,1-.62-.143,19.1,19.1,0,0,1-7.146-3.772,2.985,2.985,0,0,1-.851-1.8,23.057,23.057,0,0,0-1.7-5.476c-.325-.658-.5-.981-.755-1.029C-1910.448,81.985-1910.27,82.309-1909.953,82.959Zm-4.294,8.478c-.134-.416-.274-.85-.428-1.32Zm61.241-19.353c-.627.568-.5,1.155-.23,1.982a8.906,8.906,0,0,1,.108,2.477,17.017,17.017,0,0,0,1.818,6.946A18.453,18.453,0,0,1-1849.563,88a2.522,2.522,0,0,1-1.47,2.9,5.419,5.419,0,0,1-.586.243,5.4,5.4,0,0,0,.6-.234,2.521,2.521,0,0,0,1.47-2.9A18.451,18.451,0,0,0-1851.3,83.5a17.13,17.13,0,0,1-1.818-6.946,8.859,8.859,0,0,0-.108-2.477c-.273-.826-.4-1.415.23-1.981a1.409,1.409,0,0,0-.426-.6A1.39,1.39,0,0,1-1853.006,72.084Zm-81.7,17.239c-.389.45-.6.7-.769.723.172-.015.383-.261.783-.724a.03.03,0,0,1,.012-.008A.042.042,0,0,0-1934.709,89.323Zm-13.581-3.307a13.4,13.4,0,0,1,3.437,2.6,2.8,2.8,0,0,0,1.123.8l-.007-.011a2.823,2.823,0,0,1-1.106-.791,13.4,13.4,0,0,0-3.437-2.6,2.038,2.038,0,0,1-1.024-.683A2.062,2.062,0,0,0-1948.29,86.016Zm30.142-.77c-.135.215-.356.479-.287.732-.057-.249.158-.507.291-.718a1.164,1.164,0,0,0,.141-1.126A1.174,1.174,0,0,1-1918.147,85.247Zm-22.179-2.339h0a4.412,4.412,0,0,0-.393-.25A4.386,4.386,0,0,1-1940.327,82.908Zm29.96-3.919a1.767,1.767,0,0,1,.057,1.378c-.377,1.009-1.4.738-2.221,1.012.8.26.616.722.234,1.307l.015,0c.38-.583.558-1.042-.238-1.3.825-.274,1.844,0,2.221-1.012a1.766,1.766,0,0,0-.057-1.378,1.357,1.357,0,0,0-1.635-.81,2.292,2.292,0,0,1,.359-.03A1.3,1.3,0,0,1-1910.367,78.989Zm-30.36,3.664-.007,0Zm30.992-17.183c-.277,2.751-.5,5.509-.861,8.248-.126.957-.136,1.987-1.148,2.714a8.887,8.887,0,0,0-1.578,2.2l.017-.008a8.794,8.794,0,0,1,1.572-2.193c1.012-.727,1.022-1.757,1.148-2.714.354-2.739.585-5.5.861-8.248.1-.986.195-1.971.3-3.071l-.01-.005C-1909.54,63.5-1909.635,64.483-1909.734,65.47Zm1.419,12.733a.279.279,0,0,1,.01.075.282.282,0,0,0-.01-.077,7.662,7.662,0,0,0-1.492-2.939,1.787,1.787,0,0,0-.023.281,1.763,1.763,0,0,1,.023-.279A7.662,7.662,0,0,1-1908.316,78.2Zm-1.973-.846a1.39,1.39,0,0,0,1.029.145c0-.021,0-.041,0-.061,0,.02,0,.039,0,.059a1.377,1.377,0,0,1-1.025-.144,1.857,1.857,0,0,0-.736-.195h.009A1.885,1.885,0,0,1-1910.289,77.358Zm.846-.594a2.809,2.809,0,0,1-.387-1.2A2.793,2.793,0,0,0-1909.443,76.764Zm-19.742-.165.008-.012Zm.014-.023c.454-.749.856-1.531,1.306-2.282C-1928.316,75.046-1928.718,75.827-1929.171,76.576Zm23.416-.882a1.437,1.437,0,0,1-.365.625,1.436,1.436,0,0,0,.372-.632,1,1,0,0,0-.354-1.254l0,.009A.981.981,0,0,1-1905.756,75.695Zm-1.444.455.082,0-.082,0Zm.148-.011a.86.86,0,0,0,.524-.217A.86.86,0,0,1-1907.051,76.138Zm.064-2.42c.276.189.154.476.106.727a5.86,5.86,0,0,0-.333,1.562,5.745,5.745,0,0,1,.34-1.569c.048-.251.177-.531-.106-.727a.556.556,0,0,0-.3-.1A.53.53,0,0,1-1906.987,73.718Zm-20.979,1.807.224-.34h0Zm23.433-.928Zm-22.9-.134c.091-.15.19-.3.282-.452C-1927.246,74.165-1927.345,74.313-1927.436,74.463Zm21.856-3.333a.669.669,0,0,0-.483.293.853.853,0,0,0,.161,1.254c.275.269.558.531.81.819.183.209.449.351.541.663-.093-.317-.359-.463-.531-.661-.236-.272-.531-.55-.81-.819a.853.853,0,0,1-.161-1.254.668.668,0,0,1,.483-.293.672.672,0,0,1,.177,0,.67.67,0,0,0-.113-.01A.668.668,0,0,0-1905.579,71.13Zm-2.164,2.581a1.529,1.529,0,0,0-.581.363,1.528,1.528,0,0,1,.573-.356,1.974,1.974,0,0,1,.228-.076A2.144,2.144,0,0,0-1907.743,73.711Zm-19.867.17c.025-.041.048-.083.071-.127C-1927.563,73.8-1927.586,73.84-1927.611,73.881Zm23.086-.7a1.525,1.525,0,0,0-.41-.02v0q.077-.006.147-.006A1.4,1.4,0,0,1-1904.524,73.185Zm52.826-1.53c-.709-1.125-1.719-1.854-2.3-2.937a.6.6,0,0,1,.508.062.615.615,0,0,0-.519-.071c.588,1.083,1.594,1.812,2.3,2.937a1.3,1.3,0,0,1-.989-.36A1.308,1.308,0,0,0-1851.7,71.655Zm-1.859-.3a.949.949,0,0,1-.323-.824,1.1,1.1,0,0,1,.736.331,1.114,1.114,0,0,0-.747-.34A.966.966,0,0,0-1853.557,71.358Zm-4.954-2.859a1.822,1.822,0,0,0,.433.523,1.827,1.827,0,0,1-.423-.514.754.754,0,0,0-.166-.188A.755.755,0,0,1-1858.511,68.5Zm5.726.441a1.9,1.9,0,0,0-.218-.42,1.943,1.943,0,0,1,.208.412.507.507,0,0,1-.548-.062A.514.514,0,0,0-1852.786,68.94Zm-7.594-1.652a2.284,2.284,0,0,0,.446.506,2.3,2.3,0,0,1-.435-.5,1.932,1.932,0,0,0-.394-.435A1.935,1.935,0,0,1-1860.38,67.287Zm-1.9-1.366a.916.916,0,0,0,.2.251.9.9,0,0,1-.191-.242,2.292,2.292,0,0,0-.812-.846A2.291,2.291,0,0,1-1862.278,65.921Zm-2.292-2.1a1.87,1.87,0,0,0,.529.706,1.868,1.868,0,0,1-.518-.7,2.211,2.211,0,0,0-.582-.812A2.223,2.223,0,0,1-1864.57,63.823Zm-75.34-4.857a11.158,11.158,0,0,1-.907,1.637,10.853,10.853,0,0,0,.913-1.644c.111-.212.187-.509.363-.644C-1939.722,58.445-1939.8,58.747-1939.91,58.967Zm2.073-2.544a5.764,5.764,0,0,1-.842,1.481,5.639,5.639,0,0,0,.847-1.488,22.44,22.44,0,0,1,2.078-3.574A22.043,22.043,0,0,0-1937.838,56.422Zm3.158-5.049c-.013.029-.027.059-.039.089.015-.032.029-.064.045-.1.054-.12.1-.255.156-.384C-1934.574,51.113-1934.623,51.25-1934.679,51.373Zm63.473-3.949h0Zm-.012,0h0Zm-.007,0-.017,0Zm-.02,0h0Zm-.008,0a5.869,5.869,0,0,0-1.173-.169,1.66,1.66,0,0,1-1.417-.732c-.242-.288-.3-.506-.225-.689-.083.186-.024.406.222.7a1.647,1.647,0,0,0,1.417.732l.1,0A6.642,6.642,0,0,1-1871.252,47.417Zm9.327-4.953a2.174,2.174,0,0,1,.2-1,2.183,2.183,0,0,0-.2,1Zm-.737-6.192c1.66.127,2.078.556,2.052,2.194a4.48,4.48,0,0,1-.565,1.93l-.013.026.016-.033a4.5,4.5,0,0,0,.565-1.93c.027-1.638-.392-2.066-2.052-2.194a103.617,103.617,0,0,0-12.447.157c-.537.023-1.075.021-1.614.019h-.6c-1.15,0-2.3-.012-3.451.011h-.171c-.358,0-.761,0-.92.327.161-.324.563-.322.917-.32h.17c.664-.013,1.329-.011,1.994-.009.486,0,.972,0,1.457,0,.739,0,1.477.014,2.213-.018,2.826-.121,5.651-.3,8.478-.3C-1865.309,36.131-1863.986,36.169-1862.662,36.271Zm-7.375-5.89a8.1,8.1,0,0,1-4.177,2.341c-2.03.531-4.094.885-6.16,1.224a69.544,69.544,0,0,0-8.889,2.384,70.865,70.865,0,0,1,8.886-2.377c2.066-.338,4.129-.693,6.159-1.224a8.1,8.1,0,0,0,4.177-2.341,5.723,5.723,0,0,0,.429-.54A5.671,5.671,0,0,1-1870.037,30.381Zm-15.774-5.585a40.46,40.46,0,0,0-6.464,5.338,7.336,7.336,0,0,0-1.249,1.6,7.364,7.364,0,0,1,1.245-1.6,40.449,40.449,0,0,1,6.464-5.338,3.424,3.424,0,0,0,.545-.418A3.586,3.586,0,0,1-1885.811,24.8Zm-73.037,80.673a30.953,30.953,0,0,1-2.167-4.508c-.073-.216-.145-.434-.219-.649a33.05,33.05,0,0,1-.9-3.319v0l-.3-.8a30.309,30.309,0,0,1-.377-8.055,3.417,3.417,0,0,0-.886-2.758c-.4-.465-.785-.952-1.187-1.415a5.785,5.785,0,0,1-1.128-5.931c1.633-2.317,4.262-2.9,6.7-3.889l.013-.014c-2.441.987-5.07,1.573-6.705,3.892,1.092-3.767,2.236-7.51,4.812-10.6.15-.177.3-.368.432-.561.728-1.039.491-1.8-.708-2.263a17.811,17.811,0,0,0-3.543-.743,7.67,7.67,0,0,1-2.858-.874,2,2,0,0,1-1-2.551,6.26,6.26,0,0,1,1.2-2.254,58.648,58.648,0,0,1,10.608-10.484,33.023,33.023,0,0,1,14.447-6.334,60.056,60.056,0,0,0,7.44-1.568,2.5,2.5,0,0,1-.813.8c-2.368,1.709-4.81,3.31-7.263,4.9q-7.588,4.908-15.141,9.851c-1.594,1.04-3.175,2.105-4.76,3.158l.115.177,27.423-17.089a8.187,8.187,0,0,1-.554,2.318c-2.6,7.8-5.24,15.594-7.768,23.421a3.912,3.912,0,0,1-2.48,2.581,63.637,63.637,0,0,0-7.7,3.883c-.593-.256-.3-.444-.065-.591-.232.144-.536.333.065.591.451.26.793-.062,1.149-.233,2.206-1.062,4.406-2.139,6.609-3.2a3.132,3.132,0,0,1,1.529-.43c-1.823,5.329-3.566,10.566-5.579,15.711l-.009.007a33.85,33.85,0,0,1-3.755,9.091c-1.794,2.778-2.425,5.911-3.269,8.99a.572.572,0,0,0,.137.664c.531.039.517-.7,1.079-.724a2.177,2.177,0,0,0,1.451.934c-.682.455-1.346.939-2.051,1.359a1.812,1.812,0,0,1-.9.312C-1958.154,106.251-1958.5,105.994-1958.848,105.469Zm-4.358-26.071c.3.115.354-.145.407-.315a1.4,1.4,0,0,1,1.24-1c.4-.037.605-.173.661-.4-.058.226-.268.359-.659.4a1.4,1.4,0,0,0-1.24,1c-.06.177-.1.43-.407.315a3.694,3.694,0,0,1,1.626-2.352A3.687,3.687,0,0,0-1963.206,79.4Zm2.248-2.247,0,.007c1.033-.087,1.3-.111,1.456-.727C-1959.653,77.04-1959.926,77.064-1960.958,77.151Zm.909-.825.009,0a1.672,1.672,0,0,1,.225-1.573A1.653,1.653,0,0,0-1960.049,76.326Zm1.582-.2a.308.308,0,0,0,.181-.244.325.325,0,0,1-.18.237c-.437-.011-.391-.708-.885-.607a.066.066,0,0,0,0,.007.475.475,0,0,1,.088-.009C-1958.859,75.514-1958.873,76.12-1958.467,76.13Zm1.763-2.466c.611.136.158.72.379,1.109.4-.108.682-.5,1.16-.433,0,0,0,0,0-.007-.478-.066-.764.326-1.159.434-.221-.389.239-.971-.379-1.109a1.364,1.364,0,0,0-1.437.66,1.094,1.094,0,0,0-.194.421,1.091,1.091,0,0,1,.192-.414,1.471,1.471,0,0,1,1.159-.692A1.279,1.279,0,0,1-1956.7,73.664Zm1.828-3.112a1.191,1.191,0,0,1,1.166.8,1.653,1.653,0,0,1-.135,1.493,1.653,1.653,0,0,0,.14-1.5,1.2,1.2,0,0,0-1.166-.8,1.376,1.376,0,0,0-1.4.752,1.508,1.508,0,0,0-.132.342,1.484,1.484,0,0,1,.131-.335,1.375,1.375,0,0,1,1.23-.761A1.372,1.372,0,0,1-1954.876,70.552Zm4.374.837c-.739-1.314.724-.862.815-1.518a.581.581,0,0,0-.111-.061.578.578,0,0,1,.1.057c-.09.656-1.551.2-.817,1.515Zm-.492-1.545a.792.792,0,0,0,.625-.005c.066-.019.132-.038.2-.051-.067.013-.133.032-.2.051a.8.8,0,0,1-.624.005Zm-.041-.731a1.278,1.278,0,0,0-.024.575,1.283,1.283,0,0,1,.031-.572c.035-.23.145-.462-.126-.637h0C-1950.892,68.657-1951,68.9-1951.035,69.113Zm-6.278-50.954a1.127,1.127,0,0,1-.407-1.263,1.162,1.162,0,0,1,1.091-.614,3.178,3.178,0,0,1,2.48.876c1.518,1.721,17.452,18.413,18.715,20.315a1.307,1.307,0,0,1-.294.639,1.406,1.406,0,0,1-.8.422C-1938.578,36.683-1955.265,20.017-1957.313,18.159Zm23.036,20.293c.354-.906-.053-1.789-.106-2.68a43.074,43.074,0,0,1,.422-11.755,11.386,11.386,0,0,1,2.5-5.267s0,0,0,.007c.561-.592,1.107-1.2,1.683-1.766,1.564-1.567,4.524-1.658,5.265,1.062.161.589.608.594,1.022.235a8.935,8.935,0,0,0,1.113-1.131,46.391,46.391,0,0,0,3.534-5.269q1.69-2.373,3.327-4.777a5.414,5.414,0,0,1,6.689-2.3,5,5,0,0,0,4.112-.566c2.886-1.256,5.738-2.592,8.681-3.7.533-.221,1.079-.377,1.6-.55-.177.366-.632.541-.708,1.039.572.531,1.387.377,2.042.686a11.262,11.262,0,0,0,1.44.428c.975.3,1.035.571.558,1.454a18.441,18.441,0,0,1-3.175,3.892q-3.468,3.6-7.072,7.077c-2.746,2.627-5.591,5.15-8.493,7.608a2.892,2.892,0,0,1-.54.285l0-.01a129.788,129.788,0,0,1-14.093,10.629,89.893,89.893,0,0,1-9.467,5.332.947.947,0,0,1-.256.035Q-1934.237,38.456-1934.277,38.452Zm24.739-17.109c-.282.334-.675.592-.818,1.033.146-.434.535-.688.815-1.022a1.2,1.2,0,0,0,.236-.386A1.227,1.227,0,0,1-1909.538,21.344Zm-22.468-1.229a4.652,4.652,0,0,1,.352-.724A4.067,4.067,0,0,0-1932.006,20.115Zm10.761-.581h0c.619-1.687,2.214-2.714,3.123-4.25h0C-1919.035,16.817-1920.629,17.845-1921.244,19.534Z" transform="translate(-1839.396 124.673) rotate(-180)" fill="#f8f5f0"/>
</svg>
