<svg xmlns="http://www.w3.org/2000/svg" width="389.06" height="421.524" viewBox="0 0 389.06 421.524">
  <path id="maple" d="M139.166,238.65a44.892,44.892,0,0,1-26.912,5.162,63.805,63.805,0,0,0-28.189,3.047,25.8,25.8,0,0,0-9.435,5.425,50.1,50.1,0,0,0,3.217-11.234c1.035-7.523-.114-14.338-6.677-19.2a38.074,38.074,0,0,0-18.177-7.018,46.573,46.573,0,0,0-12.2.064,5.825,5.825,0,0,1,1.564-1.93,31.751,31.751,0,0,0,6.079-8.472c2.958-6.25,1.49-11.554-4.337-15.38a74.238,74.238,0,0,0-12.322-6.271,200.2,200.2,0,0,0-30.24-9.6c-.515-.124-1.027-.277-1.539-.416,4.732-.121,9.471-.142,14.2-.384,8.81-.451,17.63-.91,26.18-3.388,6.456-1.874,8.671-4.305,7.96-12.841-.256-3.025-1.458-5.816-2.727-8.714l1.71,1.067c9.482,5.973,19.134,11.615,29.835,15.2a27.8,27.8,0,0,0,9.741,1.714c5.841-.171,8.692-4.394,6.538-9.841-1.532-3.882-4.248-6.961-7.135-9.869-8.532-8.586-18.441-15.39-28.537-21.949-2.428-1.578-4.91-3.079-7.612-4.771,2.226-.327,4.231-.519,6.19-.935,4.824-1.027,9.076-3.065,12.038-7.228,2.489-3.5,2.9-7.132.793-11a35.184,35.184,0,0,0-7.146-8.778A108.934,108.934,0,0,0,45.552,78.842c.867-.377,1.475.078,2.076.281a37.812,37.812,0,0,0,12.845,2.432c6.794-.153,10.125-3.4,10.36-10.189.235-6.869-1.131-13.552-2.592-20.207-1.76-7.974-4.024-15.81-6.257-23.784.459.608.921,1.212,1.372,1.824A245.461,245.461,0,0,0,86.109,56.217a61.407,61.407,0,0,0,10.054,8.436c6.044,3.911,10.968,3.4,16.108-1.731,4.032-4.021,6.449-9.012,8.451-14.253.22-.572.192-1.3.843-1.717.174,4.931.252,9.826.544,14.708.747,12.482,1.856,24.925,5.688,36.931a30.257,30.257,0,0,0,4.415,9.062c4.163,5.557,10.338,5.83,14.985.658,3.239-3.6,5.084-7.964,6.541-12.5,3.2-9.93,4.5-20.2,5.315-30.546.121-1.532.217-3.061.327-4.65.818.171,1.031.846,1.422,1.3,3.765,4.412,7.875,8.39,13.4,10.541,6.182,2.4,11.462.754,15.156-4.771,3.107-4.647,4.767-9.9,6.044-15.287a77.9,77.9,0,0,0,2.428-22.7c-.053-.878-.192-1.753-.316-2.876,1.106,1.177,2.058,2.2,3.018,3.2a18.289,18.289,0,0,0,3.445,2.787c4.977,3.2,9.318,2.7,13.36-1.625,4.4-4.707,7.725-10.178,11-15.678,2.784-4.682,5.333-9.5,7.821-14.338A2.652,2.652,0,0,1,237.3,0c-.373,1.5-.732,3-1.123,4.494a110.087,110.087,0,0,0-3.761,23.987,32.931,32.931,0,0,0,1.159,10.374,12.614,12.614,0,0,0,5.29,7.306c5.333,3.537,10.96,5.564,17.584,3.985-2.055,1.913-4.135,3.8-6.154,5.749a85.778,85.778,0,0,0-13.307,15.675,25.682,25.682,0,0,0-3.744,8.767,9.485,9.485,0,0,0,1.152,6.837c4.266,7.363,10.985,10.818,19.091,12.109.356.053.711.078,1.138.124-.085.846-.768,1.187-1.219,1.66-7.754,8.124-14.932,16.684-20.353,26.589-2.489,4.54-4.6,9.243-4.707,14.558-.146,7.384,3.836,11.732,11.213,12.087,6.09.324,11.853-1.355,17.506-3.36,14.253-5.055,27.375-12.4,40.173-20.332a5.07,5.07,0,0,1,1.891-.8c-.544,1.067-1.12,2.133-1.625,3.232-2.133,4.671-3.889,9.453-3.065,14.725a10.92,10.92,0,0,0,8.252,9.45c5.66,1.635,11.469,1.536,17.278,1.209a227.929,227.929,0,0,0,32.153-4.543c.572-.117,1.234-.608,1.756.142a191.649,191.649,0,0,0-22.152,12.717,79.852,79.852,0,0,0-13.367,10.541c-5.535,5.621-5.958,8.916-1.941,15.732a32.232,32.232,0,0,0,9.62,10.068c.476.331.963.647,1.82,1.219-3.864-.5-7.27-1.02-10.7-1.358-5.788-.572-11.579-.8-17.317.491a21.883,21.883,0,0,0-2.723.789c-5.262,1.913-7.665,6.4-6.31,11.871,1.251,5.045,4.295,9.037,7.686,12.8a5.188,5.188,0,0,1,1.091,1.514l-4.049-1.532c-10.982-4.138-22.127-7.729-33.749-9.6-5.571-.892-11.167-1.422-16.773-.206a16.067,16.067,0,0,0-4.167,1.49A9.362,9.362,0,0,0,238,235.29c2.873,3.381,6.669,5.45,10.63,7.231,7.715,3.466,15.856,5.51,24.115,7.142.711.135,1.383.284,2.158.444-.665.85-1.586.622-2.339.8a24.19,24.19,0,0,0-6.783,2.556c-4.4,2.609-5.877,6.424-4.419,11.344a28.794,28.794,0,0,0,3.2,6.513,226.332,226.332,0,0,0,21.263,28.861,8.6,8.6,0,0,1,1.618,2.425l-1.806-1.209c-10.58-7.11-21.37-13.865-33.3-18.5a35.744,35.744,0,0,0-12.215-2.844,8.937,8.937,0,0,0-8.66,4.743c-3.932,6.826-5.926,14.021-4.91,21.928a8.176,8.176,0,0,1,.064.885,1.145,1.145,0,0,1-.135.356c-.665-.356-.711-1.067-.985-1.6-3.619-7.437-7.754-14.526-13.815-20.3-3.228-3.068-6.815-5.539-11.348-6.2-8.792-1.28-18.053,4.835-20.993,13.783a27.652,27.652,0,0,0-1.269,8.707c-.565.121-.5-.306-.587-.526a53.209,53.209,0,0,0-12.112-18.4A81.332,81.332,0,0,1,144.037,246.5a16.276,16.276,0,0,1-.665-4.2c.668-1.8,2.428-1.515,3.612-1.422,4.771.427,9.51,1.173,14.263,1.778a2.031,2.031,0,0,1,1.92,1.938c.4,2.275.885,4.536,1.422,6.783a191.334,191.334,0,0,0,8.059,25.953c.732,1.87,1.547,3.712,2.322,5.564a.743.743,0,0,0,.185-.793,179.661,179.661,0,0,1-8.063-35.8c-.3-2.442-.192-2.606,2.222-2.133,9.03,1.714,17.943,3.911,26.774,6.435a7.535,7.535,0,0,1,4.526,2.983,242.577,242.577,0,0,1,15.643,24.349c1.806,3.31,3.3,6.755,4.878,10.168-1.465-6.193-4.1-11.92-6.854-17.609s-5.941-11.074-8.856-16.709a229.15,229.15,0,0,1,50.526,22.952c-8.952-6.47-18.668-11.583-29-16.56a105.406,105.406,0,0,1,27.307-8.888,7.97,7.97,0,0,0-3.555.16,101.789,101.789,0,0,0-24.555,6.933,3.485,3.485,0,0,1-3.121.039,265.4,265.4,0,0,0-36.412-13.079c-.405-.114-.985-.057-1.067-.807a135.849,135.849,0,0,1,36.7-11.042,19.4,19.4,0,0,0-5.333.146,137.1,137.1,0,0,0-36.262,8.966,5.293,5.293,0,0,1-3.409.242Q165.51,240,153.586,237.956c-.5-.085-1.28.185-1.422-.38-.2-.711.651-.878,1.12-1.145,9-5.148,18.156-10,27.375-14.75,9.954-5.13,20.165-9.734,30.219-14.672,5.464-2.688,10.918-4.479,17.065-3.591,1.984.288,4.021.206,6.015.441,13.293,1.561,26.308,4.341,38.676,9.578,3.249,1.376,6.438,2.89,9.656,4.337-16.574-10.2-34.84-15.429-53.992-18.042a2.371,2.371,0,0,1,.924-.711q23.9-10.146,48.585-18.508a4.063,4.063,0,0,1,3.381.252q12.724,6.335,25.5,12.582c.483.238.988.43,1.486.643.039-.092.078-.185.114-.281l-25.921-14.5c6.079-2.286,11.924-3.669,17.527-5.756a8.177,8.177,0,0,0-2.272.356c-10.427,2.745-20.712,5.976-30.983,9.243-.519.167-1.17.711-1.618.089-.355-.466.174-1,.4-1.465q6.709-13.648,14.654-26.6c1.778-2.894,3.555-5.774,5.454-8.831a1.567,1.567,0,0,0-1.12.921,299.2,299.2,0,0,0-20.84,34.087,9.289,9.289,0,0,1-5.763,4.942c-12.955,4.369-25.714,9.272-38.317,14.576q-16.052,6.755-31.833,14.117C174.085,221.251,160.71,228,147.6,235.258c-.5.281-1.12.917-1.578.537-.6-.5.032-1.205.281-1.756q9.208-20.51,17.936-41.24a4.892,4.892,0,0,1,2.322-2.549c15.113-8.106,30.112-16.5,44.877-25.291,2.218-1.319,4.412-2.673,6.844-4.152a2.44,2.44,0,0,0-1.927.516c-4.2,2.19-8.347,4.494-12.592,6.595-11.252,5.574-22.547,11.074-33.82,16.6-.6.3-1.351.963-1.927.391-.483-.476.192-1.187.356-1.778.018-.057.046-.11.068-.167q10.367-24.555,20.04-49.416A14.221,14.221,0,0,1,193.617,127,110.009,110.009,0,0,1,219.6,112.858c2.35-.9,4.732-1.714,7.11-2.57a106.654,106.654,0,0,0-34.99,15.564c4.522-12.223,9.076-24.3,13.581-36.4.565-1.518.732-3.271,1.827-4.565A116.589,116.589,0,0,1,221.841,70c2.254-1.852,4.529-3.683,6.794-5.525A117.41,117.41,0,0,0,208.726,79.9q4.124-12.159,8.248-24.314l-.405-.139c-3.054,8.65-6.147,17.285-9.6,25.793a71.255,71.255,0,0,1,.476-7.427c.323-2.542.146-5.1.4-7.622a31.065,31.065,0,0,0,.149-7.437c-.345-2.46.2-4.977-.8-7.334,0,1.479.224,2.947.2,4.412a178.14,178.14,0,0,1-2.332,25.426c-.519,3.136-.324,6.4-1.483,9.414Q195.75,110.992,187.4,131.1a11.111,11.111,0,0,1-1.82,3.665c-4.3-13.332-8.472-26.386-14.452-38.751a1.273,1.273,0,0,0,.1.892c5.286,12.724,9.044,25.953,12.706,39.192a5.171,5.171,0,0,1-.064,3.63q-7.491,17.374-14.914,34.784c-.27.633-.3,1.7-1.006,1.742-.864.05-.963-1.067-1.248-1.71a337.658,337.658,0,0,1-14.576-38.726c-.693-2.322-1.333-4.657-2-6.989a2.215,2.215,0,0,0-.036,1.259,295.2,295.2,0,0,0,14.7,49.143c1.017,2.609.3,4.206-.583,6.165q-8.177,18.131-16.382,36.262c-1.067,2.322-2.176,4.622-3.37,7.132a6.6,6.6,0,0,1-.75-2.912q-3.992-20.417-9.826-40.39c-.622-2.133-1.849-4.248-1.635-6.506.416-4.369.338-8.76.43-13.122.274-12.614.107-25.242.1-37.859,0-.356.164-.807-.569-1.145-.3,14.327-1.778,28.406-2.9,42.637-.711-.356-.686-.818-.814-1.187-1.379-3.971-2.691-7.971-4.117-11.927-4.572-12.649-9.5-25.16-15.177-37.361-1.308-2.816-2.389-5.5-1.013-8.589a11.744,11.744,0,0,0,.523-2.247c3.139-12.958,5.71-26.034,8.33-39.107.043-.22.206-.523-.188-.711-1.724,7.181-3.406,14.327-5.162,21.452s-3.512,14.164-5.887,21.157C99.142,97.251,91.961,83.948,84.115,71a3.04,3.04,0,0,0,.427,1.34c2.684,4.945,5.4,9.876,8.063,14.828,1.308,2.432,1.23,2.585-1.443,2.489A143.982,143.982,0,0,1,71.75,87.734c-1.682-.284-3.36-.583-5.038-.875a15.543,15.543,0,0,0,4.042,1.379,146.02,146.02,0,0,0,22.39,3.484,3.067,3.067,0,0,1,2.748,2.066c6.669,13.51,12.8,27.24,18.231,41.275a54.268,54.268,0,0,1,2.844,8.049A95.208,95.208,0,0,0,77.029,124.27a.75.75,0,0,0,.551.427,98.161,98.161,0,0,1,36.362,18.412c2.016,1.614,4.376,2.979,5.35,5.745,3.651,10.4,7.085,20.858,10.09,31.459a402.061,402.061,0,0,1,10.534,46.217,11.884,11.884,0,0,1,.487,3.936,4.731,4.731,0,0,1-.711-.388,293.382,293.382,0,0,0-24.2-18.341,4.327,4.327,0,0,1-1.731-2.588A178.466,178.466,0,0,0,104.55,183.8a50.412,50.412,0,0,0-5.148-9.467.526.526,0,0,0-.1.757c4.764,9.759,7.6,20.151,10.029,30.674.11.487.526,1.067,0,1.486-.356.3-.764-.139-1.1-.356a266.192,266.192,0,0,0-28.537-15.92,4.266,4.266,0,0,1-1.906-1.778,131.694,131.694,0,0,0-13.908-18.842c-.654-.761-1.4-1.447-2.112-2.158s-1.422-1.383-2.112-2.073a129,129,0,0,1,15.188,22.351c-9.812-4.039-19.628-7.768-29.941-10.057a199.486,199.486,0,0,1,45.772,20.7,139.316,139.316,0,0,0-16.933,2.844,76.881,76.881,0,0,0-16.1,5.432c3.2-.857,6.325-1.934,9.51-2.8a123.561,123.561,0,0,1,24.53-3.608,6.783,6.783,0,0,1,4.515,1.17c3.523,2.4,7.164,4.622,10.719,6.982,1.522,1.006,2.809,2.489,4.32,3.331,3.854,2.169,7.11,5.105,10.665,7.633,1.294.917.9,1.365-.267,1.881a224.918,224.918,0,0,0-21.686,11.042,50.923,50.923,0,0,0-8.671,5.987,25.5,25.5,0,0,0,2.6-1.369c9.716-5.429,20.143-9.169,30.535-13.015a3.791,3.791,0,0,1,4.32.931q4.817,4.33,9.766,8.511C140.549,235.774,140.677,236.3,139.166,238.65Z" transform="matrix(0.259, -0.966, 0.966, 0.259, 0, 341.817)" fill="#f8f5f0"/>
</svg>
