<svg xmlns="http://www.w3.org/2000/svg" width="172.931" height="167.135" viewBox="0 0 172.931 167.135">
  <path id="mint--tree" d="M81.462,674.591c1.438-.511,2.063.818,3.41.779-1.767-2.841-3.535-5.626-4.046-8.9a21.508,21.508,0,0,1-.261-3.677c0-1.1-.432-2.54.568-3.188s1.7.767,2.614,1.21a13.1,13.1,0,0,0,5.37,1.671c-2.182-3.9-4.12-7.563-5.114-11.615-.222-.869-.989-1.858-.165-2.659.938-.915,1.932-.085,2.841.29.511.2,1,.568,1.75.068-.784-2.62-1.955-5.188-2.387-7.956a30.317,30.317,0,0,1,.7-12.934c.568-2.057,1.284-2.4,2.648-.568.614.807,1.352,1.512,2.58,2.841-.631-4.216-1.171-7.632-.619-11.07s1.137-6.757,3.381-9.484c.8-.96.5-1.977.5-2.961A32.333,32.333,0,0,1,97.7,593.421c.869-2.012,1.972-2.455,3.978-1.273,2.273,1.358,4.722,2.523,6.541,4.461,1.33,1.421,3.12.83,4.592,1.671a32.846,32.846,0,0,1,12.576,12.377c.239-.142.472-.2.506-.307.261-.886-.773-2.171.216-2.625,1.193-.568,1.671.938,2.273,1.654a67.715,67.715,0,0,1,10.4,16.837c.29-.165.477-.216.568-.335.676-.858-.335-2.682,1.085-2.841,1.063-.108,1.625,1.426,2.233,2.358,4.614,7.058,6.66,14.957,7.581,23.531,2.273-2.517,3.7-5.546,6.285-7.643,1.233,2.068,2.455,3.978,3.523,5.961s2.228,3.131,4.364.528a37.011,37.011,0,0,1,2.228,11.553c.045,1.392.273,2.052,1.972,1.625,10.183-2.568,19.48,0,28.276,5.114,4.182,2.449,8.643,4.961,11.365,8.848,4.012,5.745,10.723,8.672,14.206,14.843,2.273,3.978,2.483,3.853-2.012,4.387.364,1.216,1.495,1.631,2.273,2.313a39.46,39.46,0,0,1,7.49,8.49c.511.8,2.1,1.756-.21,2.75-1.051.455.46,1.324.886,1.8a46.722,46.722,0,0,1,9.962,17.679c.7,2.273.438,3.3-2.273,3.182a65.406,65.406,0,0,0-22.73,2.733c-.625.2-1.239.438-1.818.648-.153.807.449,1.063.852,1.375,1.864,1.432.875,2.017-.676,2.58a33.824,33.824,0,0,1-14.343,1.631c1.676,2.466.08,2.608-1.54,2.892a41.076,41.076,0,0,1-19.957-1.7c.347,2.068,2.273,3,2.574,4.83-1.057.671-2.08.273-3.052.068-8.757-1.847-16.116-6.1-21.446-13.326-1.171-1.591-3.41-1-4.074-3.057-.932,2.983-1.642,5.887-3.137,8.524a23.222,23.222,0,0,1-4.546,5.8c-.659.6-1.227,1.739-2.273,1.3-.915-.381-.267-1.58-.761-2.449-1.023.438-1.279,1.506-1.8,2.273a31,31,0,0,1-15.877,12.292c-.75.267-1.665.966-2.381.278-.835-.807.511-1.46.443-2.625a38.766,38.766,0,0,1-11.8,3.41c-1.7.142-3.41.216-5.114.244-1.392,0-2.324-.375-.835-2.273-6.955,2.426-13.519,3.518-20.321,2.4-1.864-.307-1.864-.324-1.023-2.239a24.7,24.7,0,0,0-10.592,1.614c-1.227.449-2.637,1.284-3.694.153-.943-1.006,0-2.336.341-3.472,2-6.7,3.762-13.49,7.387-19.5-.568-.568-1.017-.29-1.472-.216-.943.148-2.051,1.4-2.767.29-.614-.955.642-1.841,1.193-2.665a109.783,109.783,0,0,1,12.536-15.133c-1.392-.7-2.364.1-3.41.341-.534.125-1.08.568-1.557,0s0-1.085.216-1.563a44.325,44.325,0,0,1,8.615-11.933c.455-.455,1.608-.858-.068-1.472-.847-.307,0-1.137.426-1.557,1.7-1.648,3.41-3.54,5.643-4.216,2.415-.739,1.33-2.932,2.4-4.143.324-.358-.671-.7-1.085-.994-5.262-3.756-10.229-7.8-13.922-13.235A10.489,10.489,0,0,1,81.462,674.591Zm98.144,1.608-1.79-.568c-.818-1.341,2.324-1.989.455-2.762a14.428,14.428,0,0,0-10.632-.3c2.87.216,5.739.267,8.45,1.358-3.074,2.307-6.188-.75-9.6.29,3.006.852,3,.847,1.057,3.165-.273.33-.71.8-.631,1.08.153.568-1.137.767-.239,1.324.517.313.915,0,1.244-.347a12.17,12.17,0,0,1,11.723-3.256c2.637,1.364,5.876,1.483,8.047,3.876-2.148-.665-4.234-1.449-6.353-2.148-2.415-.8-4.682.068-6.955.3-4.478.46-4.455.642-5.569,2.273,1.614-.1,3.1-1.341,5.2-.426l-3.017.779c-3.285.835-6.126,2.324-7.956,5.342-.364.568-1.006.926-.17,1.853,3.375,3.768,10.16,5.62,14.894,3.875,4.415-1.625,8.28-1.926,10.916-.75-3.535.568-7.08.284-10.848,2.381,1.921.267,3.336.886,4.4.511,1.534-.534,2.063-1.04,3.012-.807a.568.568,0,0,0,.511-.171c1.966,1.847,4.83,2.068,6.819,3.927-.614-1.875-2.5-2.676-3.148-4.546,5.887,6.4,12.968,11.445,19.082,17.616-.392-4.813-1.046-9.325-5.046-12.5-1.563-1.244-3.444-5.262-3.711-7.069a1.6,1.6,0,0,0-.54-.972c-2.58-1.853-3.915-5.222-7.387-6.006-.568-.119-1.972-.3-1.267-1.3.977-1.387-.159-1.7-.79-2.159C186.737,677.853,183.47,676.245,179.606,676.2Zm-36.937,62.395c.25,1.227.5,2.449.79,3.853,3.62-3.114,5.83-6.916,6.251-10.8-1.563,2.642-2.892,5.114-5.114,6.887,7.456-11.5,8.774-19.844,7.535-24.759-2.074,2.387-2.466,5.614-4.711,8.74.688-4.489,3.04-7.592,3.569-11.286-1.648,2.534-2.273,5.592-4.16,8.1-.421-.671-.045-1.063.04-1.506.148-.79,1.006-1.483.392-2.364a.784.784,0,0,0-.75-.085,2.79,2.79,0,0,0-1.04,2.756,10.791,10.791,0,0,0,.324,1.085,19.349,19.349,0,0,1,.608,8.978c-.568,3.574-.994,7.3-3.643,10.166.392-1.063.807-2.12,1.137-3.194,1.534-4.609,2.841-9.257,1.33-14.138-.477-1.517-1.324-4.262-1.773-4.216-1.943.2-.858-1.29-1.137-1.841-.983.483-.955,1.87-2.273,1.8-1.262-3.347,4.029-4.984,2.273-8.467-.1,1.881-1.62,3.8-2.631,3.319-1.426-.688-1.773-.062-2.563.489-.278.193-.886.386-.989.267-1.7-1.943-2.034-.125-2.671.921-.432.71-.79,1.665-1.9,1.074s-.085-1.233.17-1.7a1.04,1.04,0,0,0-.733-1.517c-.739,1.773-2.944,1.318-3.876,2.665-4.126,5.978-10.109,10.069-15.7,14.331-3.057,2.33-6.938,4.063-10.439,6.063-8.524,4.876-17.133,9.695-24.435,16.423a16.993,16.993,0,0,0-4.643,5.614,29.1,29.1,0,0,1,12.684-1.614c.807.068,2.273.046,2.068.926-.568,2.438,1.33,1.591,2.08,1.608a38.67,38.67,0,0,0,16.315-3.211c.989-.426,2.273-1.7,3.023-.858.96,1.136-.921,1.943-1.262,3.034-.04.136.074.324.136.568a33.528,33.528,0,0,0,15.451-4.08c.864-.466,1.921-1.745,2.688-1.04,1.046.972-.727,1.858-.841,2.909a2.964,2.964,0,0,0,.278.71c5.529-2.608,10.513-5.558,13.684-11.24,1.057-1.852,1.887-4.518,4.472-5.376Zm-13.905-85.807c3.938-4.6,7.1-9.774,10.8-14.559A30.124,30.124,0,0,1,135.2,646c-1.137,1.614-2.608,2.995-3.41,4.859-.381.892-.631,1.654.619,1.966a26.048,26.048,0,0,1,12.729,7.6c1.284-2.608,1.443-3.108,1.1-3.41-.568.25-.523,1.335-1.943,1.352,6.251-11.649,2.273-21.98-3.154-32.6-.375.716-.568,1.017-.7,1.341-.318.756-.347,1.915-1.324,1.972-1.068.063-1.006-1.176-1.37-1.887-1.381-2.694-2.648-5.45-4.131-8.081a45.769,45.769,0,0,0-5.984-8.416c-.83,1.21-.284,2.983-1.659,3.091-1.1.085-1.233-1.483-1.7-2.347A29.3,29.3,0,0,0,113.3,600.189c-.619.733.25,2.034-.858,2.273-1.017.2-1.239-.972-1.807-1.546-.932-.938-1.767-1.983-2.745-2.87a22.042,22.042,0,0,0-8.228-5.006c1.83,2.739,3.267,4.682,4.472,6.757s2.347,4.319,2.273,6.91c-2.273-3.716-3.665-7.916-6.819-11.365-.307.71-.528,1.137-.671,1.563a31.959,31.959,0,0,0-1.4,14.559c.114.767.733,1.852-.284,2.273s-1.273-.881-1.926-1.335a1.3,1.3,0,0,0-.489-.108c-4.052,6.251-1.284,10.575,3.887,14.388l-3.313-1.523c1.767,3.023,4.148,4.489,6.376,6.1-4.546-1.574-7.694-4.472-8.717-9.729-2.154,8.672,4.751,11.786,9.018,16.479a19.734,19.734,0,0,1-5.808-4.364c-.46-.438-.994-1.455-1.483-1.137-1.79,1.233-2.353-.529-3.222-1.222a33.122,33.122,0,0,1-3.182-3.273c-2.273,7.08-1.631,13.394,1.8,20.491.364.761,1.3,1.5.165,2.478-.9.773-1.529.2-2.273-.136-.455-.2-.886-.79-1.818-.062,1.8,4.415,2.409,9.541,7.3,12.274.063.034.256-.165.33-.216.131-.87-1.227-1.137-.813-2.114,1.227.477,1.472,2.245,3.148,2.318-.375-1.137-1.023-1.938-.921-2.995.716.176,1.222,1.2,1.9.477-.432-3.307-4.717-4.546-4.091-8.388,1.137,2.074,2.557,3.728,5.222,3.864-.568-1.495-2.051-2.335-2.318-4.387,1.477,1.631,2.614,2.955,3.824,4.211s2.353,2.273,3.535,3.41l.648-.625c-1.7-1.955-3.858-3.6-4.4-6.3,2.324,2.006,3.449,5.256,7.348,6.683-1.665-3.1-3.978-4.8-4.717-7.512l2.955,2.722c-.313-1.631-1.7-2.108-1.529-3.648l3.711,3.478c.443-1.165-1.137-1.347-.631-2.523,1.466,1.483,3.41,2.273,4.466,4.086a1.335,1.335,0,0,0,1.989.415c1.137-.75,0-1.29-.375-1.745-1.137-1.37-2.415-2.659-3.631-3.978,2.154.256,2.784,2.375,4.893,3.194-.977-2-2.927-2.75-3.358-4.7,4.035,3.177,7.035,8.62,13.507,5.682-.352-.813-1.813-.864-1.875-2.375l4.444,1.011c.375.989.8,2.2,2.1,1.648.784-.352.278-1.307-.136-1.966Zm50.268,91.575c-.773-1.227-1.267-1.909-1.659-2.648-.477-.892-1.7-1.824-1.137-2.716.727-1.091,1.841.17,2.779.369,1.568.324,3.069.977,4.637,1.3a33.475,33.475,0,0,0,14.974.114c-.062-1.188-1.233-1.54-.977-2.841,5.444.33,10.984.813,16.264-1.6-2.716-3.1-2.716-3.1,1.137-4.336A86.542,86.542,0,0,1,227,729.3c-3.682-1.512-7.086-1.051-10.734-1.608,1.745-1.012,3.142-.614,4.546-.568,4.33.04,8.206,2.841,12.729,1.995,1.358-.244,2.841-.83,4.074-.654,3.177.449,2.2-1.137,1.665-2.728a44.324,44.324,0,0,0-10.433-16.718c-.722-.744-3.086-1.773.028-2.767.994-.318,0-1.136-.29-1.534a40.625,40.625,0,0,0-8.007-8.393c-1.137-.9-3.449-1.466-3.017-2.841s2.739-.46,4.165-.864c.142-.04.233-.239.506-.568-4.654-7.956-11.8-12.939-21.338-15.911,2.659-1.137,4.387.068,6.194-.386-9.172-9.984-24.5-16.07-34.664-13.9,11.831.938,17.832,2.426,20.838,5.37-8.143-3.091-16.116-5.205-24.566-3.728,2.137.227,4.3.17,6.467.244a10.473,10.473,0,0,1,6.319,1.841c-3.643-.534-6.876-1.046-10.132-.438,2.733.568,5.762-.239,8.007,2.023a30.775,30.775,0,0,0-8.308-.665c2.87,2.2,6.092.932,9,3.052-3.694-.455-6.677-1.023-10.126-.534,3.495,1.08,7.171-.341,9.66,2.739.4.494,1.165.188,1.847,0,5.035-1.216,10.064-.739,15.076.273a103.211,103.211,0,0,1-11.246.2,6.251,6.251,0,0,0-5.683,2.529,16.533,16.533,0,0,0,8.831.676c3.739-.892,7.387-.051,11.07,1.37l-5.211,1.557c3.978,0,7.2.222,9.962,2.273-4.137-2.057-9.092.153-13.865-2.466l5.268-1.4a21.327,21.327,0,0,0-8.836,0,37.019,37.019,0,0,1,7.132,6.325c1.978,2.159,4.711,3.773,6.364,6.336a4.153,4.153,0,0,0,4.216,2.04,20.693,20.693,0,0,1,9.217,2.1c-3.978,0-7.848-1.642-12.058-.568,3.319,5.114,9.217,2.7,13.564,5.228-3.279-.034-6.251-1.245-9.342-.824.852,3.165,2.574,4.734,5.739,5,4.114.347,7.5,3.159,11.558,3.836.08,0,.119.284.25.614-3.91-.517-7.723-1.068-11.541-1.495-.807-.085-2.182-.75-2.387.568-.193,1.239.1,2.631,1.887,2.938,1.432.244,2.841.722,4.9,1.279-2.551.756-4.222-.494-6.046-.114l6.91,1.995c-2.358.756-4.478-.83-7.115-.148,1.665,1.352,3.364,1.307,4.819,1.9s3.1.7,4.285,1.9c-7.336-1.335-14.246-5.114-22.73-3.2,14.775,1.972,28.316,5.353,39.63,14.564a85.57,85.57,0,0,1-9.229-4.66,68.125,68.125,0,0,0-9.66-4.148,65.254,65.254,0,0,0-10.109-2.841c-3.307-.608-6.637-1.091-9.962-1.625,3.978,1.8,8.336,2.347,12.5,4.074-4.722,2.358-7.677-2.665-12.348-2.273a69.6,69.6,0,0,1,9.166,5.558A31.536,31.536,0,0,1,213.4,728c-2.108-1.358-3.938-2.995-5.876-4.5-1.7-1.335-3.563-2.5-5.319-3.779-1.46-1.063-4.035.886-4.876-1.824,0-.074-.421-.136-.523-.051-1.807,1.5-3.586.1-5.364-.074-1.313-.125-2.6-.477-3.9-.71-1.2-.216-2.4-.852-4.222-.057,2.779,1.648,5.6,1.006,8.524,2.324h-6.024l-.091.421,3.228.932c-.489.659-1.392.08-1.614.568-.034,1.239,2.8-.193,1.495,2.273-.267.506,1.853,2.995,4.057,3.307,2.938.426,5.842,1.137,9.427,1.858-3.194,1.136-5.711-.568-8.285.04.79,1.813,2.784,2.347,3.535,4.546a40.477,40.477,0,0,1-8.848-7.762c-1.426-1.636-2.813-3.222-5.444-3.409.733-.369,1.29-.477,1.483-.8s-.261-.568-.614-.7c-1.068-.472-1.835-.045-3.131.864-1.051.733-2.387.063-3.552-.261-1.818-.511-2.881-.568-2.193,1.961,1.063,3.87,1.7,7.87,4.018,11.365-1.585-.568-2.273-1.887-2.932-3.177a13.906,13.906,0,0,1-1.62-5.41c-.3-4.279-5.825-1.7-6.666-5.222-.04-.165-.926-.364-1.029-.239-1.352,1.7-2.614-.057-4.3-.119,2.176,1.637,4.023,3.125,6.364,3.915-3.722-.148-6.865-1.9-10.16-3.182,2.108,2,4.955,2.625,7.723,4.455-2.682.034-4.546-1.887-7.211-1.057l4.512,3.2c-1.767-.1-3.16-1.455-5.308-.966l3.79,2.478c-1.949.642-3.233-.932-4.853-1.057-.284,1.551,1.631,1.756,1.642,3.29-.653-.455-1.137-.75-1.557-1.091s-.943-.8-1.938-1.654C161.308,737.7,168.922,742.27,179.032,744.362ZM95.884,701.953c1.7-2.273,4.086-2.733,5.438-4.461A42.619,42.619,0,0,0,83.07,715.386c1.415-.142,2.341-.29,3.262-.307.807,0,1.887-.318,2.233.682.278.813-.631,1.3-1.137,1.818a108.308,108.308,0,0,0-9.9,11.32c-.909,1.216-1.779,2.466-3.074,4.262a20.929,20.929,0,0,1,2.148-.7c.79-.148,1.659-1.108,2.347-.29s-.33,1.529-.688,2.273c-1.1,2.193-2.375,4.319-3.364,6.563a44.038,44.038,0,0,0-3.87,14.206,68.515,68.515,0,0,1,11.8-10.74c5.927-4.262,12.286-7.831,18.542-11.564,2.068-1.227,4.074-2.563,6.751-4.256-9.354-.449-17.678-.17-25.469,3.864a14.311,14.311,0,0,1,5.148-2.87c6.541-2.427,13.337-2.54,20.179-2.228a4.831,4.831,0,0,0,3.25-.614,73.776,73.776,0,0,0,12.161-10.2c1.051-1.136,1.222-1.835-.6-2.21a65.781,65.781,0,0,0-15.218-1.4,65.3,65.3,0,0,0-17.616,3.222,5,5,0,0,1,3.137-1.7,56.483,56.483,0,0,1,29.981-1.006c1.1.261,2.364,1.029,3.3-.477,1.006-1.631,2.091-3.216,3.506-5.376-1.807.881-2,2.529-3.739,2.841,1.875-2.733,3.722-5.114,4.688-7.984a47.416,47.416,0,0,1-7.916,7.007c-1.1-2.142,1.091-3.33,1.262-5.5-2.387,2.012-3.12,5.648-6.779,4.995.568-1.546,2.648-2.534,2.807-4.546-1.318-.426-1.426,1.443-2.455.994-2.461-1.068-2.421-1.091-4.029.375-.432.392-.739,1.136-1.648.864.744-1.7,2.773-2.364,3.273-4.728-3.552,1.983-6.364,4.734-10.183,5.512-.614.125-.949,1.091-2.273.807l6.188-5.9-.3-.29q-3.728,2.944-7.438,5.893c1.193-2.841,4.046-4.057,5.745-6.4-3.347,1.068-5.023,4.381-7.99,5.961,1.137-2.074,2.938-3.591,4.4-5.37-1.58.216-2.324,1.7-3.75,1.864-.653-.523,1.006-1.534-.159-1.426-1.4.136-3.148.239-4.137,1.46-2.841,3.523-7.285,5.347-9.66,9.308,3.682-7.348,10.683-10.9,17.383-14.831C100.663,699.185,98.8,701.049,95.884,701.953Zm39.852-30.9.148-.614c1.733.324,3.466.665,5.2.977.614.108.915.278,1.137-.8.267-1.273-.5-.932-.881-.989a12.344,12.344,0,0,1-5.018-1.421c.926-.9,1.949.614,2.671-.4.051-1.534-1.824-1.04-2.211-2.182a13.21,13.21,0,0,0-9.933-8.944c-1.37-.347-3.222-1.017-4.069-.068s.688,2.313,1.25,3.41c2.273,4.506,4.643,8.961,6.978,13.434-1.188-1.182-2.6-1.137-3.978-1.227a4.177,4.177,0,0,1-3.819-2.273l5.188,1.625c-.534-5.029-5.41-5.114-7.956-7.956l4.95,2.273c-1.239-2.421-2.273-4.307-3.182-6.251-1.7-3.586-1.9-3.716-6-2.841-.909.188-2.79-.1-2.523,1.017.6,2.5-1.137,1.7-2.051,1.739-3.87.233-7.762.261-11.473,1.551-.642.222-1.875.114-1.784,1.057.239,2.449-1.529,1.966-2.8,2.046a24.435,24.435,0,0,1-12.212-2.057,12.2,12.2,0,0,0,3.466,5.643c4.83,4.188,10.575,6.615,16.559,8.62,3.785,1.261,7.785.983,11.649,1.79,1.557.324,1.7,1.875,3.194,1.9,8.041.119,16.082.381,23.782-2.733l-7.956,1.245c2.4-2.659,5.5-2.415,8.3-3.2-3.347.068-6.819,1.267-9.217-2.2,4.376-1.136,8.444,1.756,12.9.8ZM171.1,711.226c3.069.983,5.5,3.506,8.944,3.222-1.512-6.45-1.54-7.564-.284-9.66.364,8.973.8,9.95,4.546,10.325.165-.977-1.4-.4-1.273-1.455,1.671-.062,3.165,1.108,5.563.568-2.336-.648-4.273-.614-5.9-2.2,1.654-.074,2.841,1.108,4.614.54l-3.341-1.347c3.5-.068,6.819.074,10.32-1.176-2.068-.449-4.029.409-5.916-1.136,1.83-.25,3.41.682,5.075-.4l-4.546-4.023c1.426.966,3.273.568,4.546,1.591.915.739,1.6,2.978,2.921,1.676.756-.744-1.392-1.858-2.068-2.921-.062-.091.04-.284.068-.432,4.8,3.25,4.8,3.25,8.7,2.307-5.523-6.421-12.854-9.28-20.753-11.1-4.37-1.006-8.984-.165-13.286-1.75-1.665-.614-3.273.636-4.978.256-3.654-.813-3.262-.671-4.347,3.148-.619,2.148.477,3.279.335,4.654v3.978c-2.318-.733-1.9-4.495-5.114-3.711,1.068,1.063,2.006,2.125.568,3.591-.761-.676-1.495-1.392-2.307-2.017-.568-.415-1.137-1.443-1.853-.75-.852.869.222,1.551.8,2.068,3.233,2.892,6.353,5.938,10.291,7.927a4.222,4.222,0,0,1,1.591,1.08c1.347,1.943,6.967,4.319,9.138,3.756.722-.187.642-.318.688-1.21.136-2.512-1.171-3.853-2.756-5.4ZM124.752,697.02c-.244-3.813,2-6.353,3.893-9.064,1.546-2.216,2.375-4.978,4.66-6.416-6.58-.176-12.934,2.171-18.571,7a7.435,7.435,0,0,0,5.683,1.335c-1.137-1.012-2.6-.608-3.461-1.7,2.188-1.483,4.16.324,6.183.034-.324,2.228-1.62,2.927-3.546,2.841-.369,0-.847-.273-1.137.324-.75,1.415-1.33,1.983-1.9,1.87-1.58-.307-3.165-.6-4.711-1.029s-3.046-1.136-4.546.034c.21-3.41-4.143-3.017-4.546-5.944,2.455.818,4.023,2.961,6.666,3.41-.7-1.387-2.364-1.529-2.841-3.307,1.273.716,2.2,1.313,3.188,1.784,1.875.892,4.546-1.245,4.074-3.125,3.705,1.563,5.773-1.779,8.643-2.716-6.154-1.136-12.5-.392-18.372-2.841l4.069,2.029c-3.506-.778-7.331.046-10.308-2.841-2.432-2.341-4.728-4.847-7.666-6.7-3.881-2.449-7.24-5.489-8.137-10.422.994,5.086.858,10.518,5.313,14.3.676.568,2.086,1.171,1.7,2-.614,1.233-1.779-.131-2.716-.091-.119,0-.227.182-.568.5,3.239,1.2,3.052,4.9,5.313,6.853a41.062,41.062,0,0,0,11.28,7.012c.608.25,1.7.682,1.665.892-.455,2.944,2.108,2.233,3.41,2.688a64.9,64.9,0,0,0,8.376,2.324c3.313.693,6.615,1.654,10.058,1.409.216,0,.824.472.8-.477-.091-2.625.631-3.358,3.267-3.75-.659-.312-1.506.188-2.12-.449.449-.869,1.807-.085,2.182-1a4.37,4.37,0,0,0-5.3,3.222Zm19.23-10.462c-8.285,1.585-10.9,2.938-11.269,6.325,2.029-.415,3.546-2.1,5.791-2.319-2.887,3.557-6.211,6.717-4.842,11.848,3.267-2.478,4.546-6.217,7.24-8.967A56.513,56.513,0,0,0,137.4,703.6c-.386,1.7-1.137,3.876-.125,4.825,1.176,1.08,2.495-.943,3.711-1.7s.858-1.7.119-2.324a2.736,2.736,0,0,1-.813-2.557c.034-3.256,1.409-6.143,2.461-9.427.921,1.745-.886,3.472.671,4.785.642-.3.114-1.438,1.33-1.483-.733,2.318-.415,4.79-2.313,6.779-.784.818-.051,2.137.813,2.995.761.756,2,1.216,2.415.267.886-2.023,3.074-2.171,4.341-3.6,1.409-1.6.994-3.052.926-4.972-.1-2.841.392-5.819.381-8.825.767.369.494,1.386,1.364,1.529.148-1.921-1.108-3.517-1.165-5.364a12.49,12.49,0,0,1,2.273,9.325c-.159,1.4-.517,2.784-.767,4.182-.119.648-.318,1.358.477,1.733,1.068.5,1.324-.438,1.62-1.063a12.658,12.658,0,0,0,1.608-5.336l-2.171,3.285c0-2.273-.114-3.978.04-5.626.119-1.307-.869-3.41.716-3.733,1.4-.307,1.415,1.892,1.938,3.04.244.568.415,1.136,1.137,1,.841-.142.568-.858.523-1.358a11.519,11.519,0,0,0-3.114-6.819c-1.909-2-2.892-2.449-5.029-.733a15.915,15.915,0,0,0-2.546,2.659c-1.46,1.887-2.841,3.847-4.7,6.416.261-2.75,2.023-3.978,2.534-5.95a8.9,8.9,0,0,0-5.381.756Zm7.99-13.991a55.26,55.26,0,0,1-.33-6.512c.131-2.057-.472-3.944-1.887-4.739-1.665-.938-1.477-2.222-1.83-3.546-2.944,8.064-1.495,15.411,3.8,22.52h-5.569c2.495,1.171,4.546,1.466,6.6.3a2.046,2.046,0,0,1,2.614.233c1.5,1.506,2.551.517,3.472-.619,4.188-5.171,4.279-11.575,5.222-17.713.045-.3-.267-.653-.392-.938l-3.557,2.881c-.176-.955.671-1.779.847-2.773s.409-1.847.5-2.779c.159-1.7.943-.614,1.54-.381a5.262,5.262,0,0,0,.04-1.7c-.284-.9-1.608.8-1.966-.693-.068-.278-.438.5-.534.864-.881,3.364-2.875,6.1-4.779,8.939-2.012,3-3.7,6.2-1.8,9.979a4.694,4.694,0,0,1,.347,3.228c-2.273-1.529-2.029-4.228-3.41-6.046-3.62-4.773-3.483-4.881-3.381-6.654,1.523,1.972,2.068,4.552,4.432,6.143Zm2.875-7.637c5.114-5.972,6.637-11.456,4.171-14.991-1.995,1.938-3.273,4.359-4.711,6.671-2.188,3.483-2.091,5.035.523,8.3Zm-18.235-2.347c.994.568,1.8,1.034,2.614,1.483,1.1.6,1.2,1.136-.085,1.591,1.534-.159,2.2,1.8,3.893,1.523.858-.142.813-.727,1.188-1.136.733-.784-.074-1.012-.443-1.227-.886-.523-.818-1.2-.972-2.154-.841-5.177-5.018-7.626-10.865-8.257,1.989,2.057,5.165,1.455,6.955,3.512-2.159.875-3.83-1.6-6.353-.528,1.858,1.136,3.91,1.216,5.683,3.125l-4.6-1.307c1.466,2.114,4.205,1.074,5.069,3.154-.682.529-1.25-.636-2.1.2Zm-35.039,32.055a4.643,4.643,0,0,0,2.614,2.438,31.493,31.493,0,0,0,12.138,3.478c.693.057,1.637-.29,2.012.614.921,2.211.955,2.273,3.273,1.25-1.523-1.188-1.523-1.188.341-2.443C115.012,699.02,108.4,697.793,101.572,694.639Z" transform="translate(-68.263 -591.501)" fill="#f8f5f0"/>
</svg>
