<svg xmlns="http://www.w3.org/2000/svg" width="20.383" height="20.383" viewBox="0 0 20.383 20.383">
  <g id="phone" transform="translate(0.01 0.011)" fill="none" stroke-linecap="round" stroke-linejoin="round">
    <path d="M19.632.969,15.492.014A.962.962,0,0,0,14.4.567L12.486,5.025a.953.953,0,0,0,.275,1.115l2.412,1.975a14.754,14.754,0,0,1-7.054,7.054L6.144,12.756a.954.954,0,0,0-1.115-.275L.571,14.392a.967.967,0,0,0-.557,1.1l.955,4.14a.955.955,0,0,0,.932.74A18.469,18.469,0,0,0,20.372,1.9.954.954,0,0,0,19.632.969Z" stroke="none"/>
    <path d="M 15.59586334228516 1.576988220214844 L 14.0268383026123 5.238039016723633 L 16.12316131591797 6.953839302062988 C 16.65489959716797 7.389060020446777 16.82291984558105 8.12992000579834 16.53096961975098 8.75193977355957 C 14.92814064025879 12.16685962677002 12.16679000854492 14.92807006835938 8.755579948425293 16.52694892883301 C 8.551325798034668 16.62268447875977 8.334366798400879 16.6688289642334 8.119561195373535 16.6688289642334 C 7.680328369140625 16.6688289642334 7.25035285949707 16.47574615478516 6.958200454711914 16.11879920959473 L 5.242402076721191 14.0224781036377 L 1.576894760131836 15.59340667724609 L 2.332208633422852 18.86642074584961 C 6.702710151672363 18.75810813903809 10.7959451675415 17.0057258605957 13.8992805480957 13.90423965454102 C 17.00430107116699 10.80106735229492 18.75857543945313 6.706215858459473 18.8668041229248 2.331832885742188 L 15.59586334228516 1.576988220214844 M 15.2778491973877 -0.01081466674804688 C 15.34859561920166 -0.01081085205078125 15.42026710510254 -0.00290679931640625 15.49156951904297 0.01350021362304688 L 19.63169097900391 0.9689197540283203 C 20.06561088562012 1.068439483642578 20.37214088439941 1.454580307006836 20.37214088439941 1.900440216064453 C 20.37214088439941 12.11141967773438 12.09588050842285 20.37175941467285 1.900819778442383 20.37175941467285 C 1.450979232788086 20.37175941467285 1.068820953369141 20.06124877929688 0.96929931640625 19.63130950927734 L 0.01387977600097656 15.49118995666504 C -0.08962059020996094 15.04134941101074 0.1452503204345703 14.57956981658936 0.5712108612060547 14.39245986938477 L 5.029800415039063 12.48163986206055 C 5.150882720947266 12.42974662780762 5.278041839599609 12.40470504760742 5.40401554107666 12.40470504760742 C 5.683932304382324 12.40470504760742 5.957765579223633 12.52845668792725 6.144450187683105 12.75631904602051 L 8.118969917297363 15.16873931884766 C 11.23600006103516 13.70775032043457 13.73998069763184 11.16794967651367 15.17309951782227 8.114609718322754 L 12.76068019866943 6.140089988708496 C 12.43027019500732 5.873369216918945 12.31880950927734 5.415569305419922 12.48600006103516 5.025439262390137 L 14.39682960510254 0.5668392181396484 C 14.55092430114746 0.2117557525634766 14.90227127075195 -0.01084136962890625 15.2778491973877 -0.01081466674804688 Z" stroke="none" fill="#81c1a1"/>
  </g>
</svg>
