<svg xmlns="http://www.w3.org/2000/svg" width="10.214" height="15.739" viewBox="0 0 10.214 15.739">
  <g id="placeholder-filled-point" transform="translate(-67.883 57)">
    <path id="Path_12536" data-name="Path 12536" d="M17.99,0a5.113,5.113,0,0,0-5.107,5.107,4.982,4.982,0,0,0,.447,2.085,70.914,70.914,0,0,0,4.445,8.448.284.284,0,0,0,.431,0,70.975,70.975,0,0,0,4.445-8.448A4.98,4.98,0,0,0,23.1,5.107,5.114,5.114,0,0,0,17.99,0Zm0,7.76a2.653,2.653,0,1,1,2.653-2.653A2.656,2.656,0,0,1,17.99,7.76Z" transform="translate(55 -57)" fill="#4a8466"/>
  </g>
</svg>
