<svg xmlns="http://www.w3.org/2000/svg" width="9.96" height="9.96" viewBox="0 0 9.96 9.96">
  <path id="question-circle" d="M12.9,8.015a4.98,4.98,0,1,0,4.98,4.98A4.981,4.981,0,0,0,12.9,8.015Zm0,9a4.016,4.016,0,1,1,4.016-4.016A4.014,4.014,0,0,1,12.9,17.01Zm2.153-5.124c0,1.346-1.454,1.367-1.454,1.865v.127a.241.241,0,0,1-.241.241h-.917a.241.241,0,0,1-.241-.241V13.7c0-.718.544-1,.955-1.235.353-.2.569-.332.569-.594,0-.346-.442-.576-.8-.576-.466,0-.681.22-.983.6a.241.241,0,0,1-.335.043l-.559-.424A.242.242,0,0,1,11,11.191a2.257,2.257,0,0,1,2.02-1.088A2,2,0,0,1,15.055,11.886Zm-1.31,3.357A.843.843,0,1,1,12.9,14.4.844.844,0,0,1,13.745,15.243Z" transform="translate(-7.922 -8.015)" fill="#62615d"/>
</svg>
