<svg xmlns="http://www.w3.org/2000/svg" width="1920.06" height="151.408" viewBox="0 0 1920.06 151.408">
  <path id="wave" d="M0-41H1920V61.931s-143.345,48.477-374.058,48.477c-41.21,0-113.153-4.109-180.013-11.772-79.311-9.091-152.024-22.052-165.495-23.242-10.364-.915-47.295-6.276-87.041-8.874-55.46-3.626-116.247-4.588-116.247-4.588a19.87,19.87,0,0,1-3.788-.431c-1.606-.4-2.638-1.181-5.549-3.12L962.607,41.6a4.651,4.651,0,0,0-2.888-.914,4.352,4.352,0,0,0-2.787.914c-.563.36-15.089,10.851-23.71,16.781-2.836,1.951-4.035,2.748-5.484,3.184a11.307,11.307,0,0,1-3.331.34s-57.023,1.052-111.772,4.613c-39.837,2.591-78.5,7.7-92.774,8.874-16.772,1.377-96.415,15.24-171.953,23.242a1946.359,1946.359,0,0,1-196.9,10.353C119.889,108.994-.06,61.931-.06,61.931Z" transform="translate(0.06 41)" fill="#f8f5f0"/>
</svg>
