<svg xmlns="http://www.w3.org/2000/svg" width="20.285" height="20.383" viewBox="0 0 20.285 20.383">
  <g id="whatsapp" transform="translate(0 0.001)">
    <g id="WhatsApp_Logo" data-name="WhatsApp Logo" transform="translate(0 -0.001)">
      <g id="WA_Logo" data-name="WA Logo" transform="translate(0 0)">
        <path id="Path_12534" data-name="Path 12534" d="M17.329,2.961a10.1,10.1,0,0,0-15.9,12.187L0,20.382l5.354-1.4a10.087,10.087,0,0,0,4.826,1.23h0A10.1,10.1,0,0,0,17.329,2.961ZM10.185,18.5h0A8.382,8.382,0,0,1,5.908,17.33L5.6,17.149l-3.177.833.848-3.1-.2-.318A8.395,8.395,0,1,1,10.185,18.5Zm4.6-6.287c-.252-.126-1.493-.737-1.725-.823s-.4-.126-.568.126-.652.821-.8.989-.294.189-.547.063a6.9,6.9,0,0,1-2.03-1.252,7.558,7.558,0,0,1-1.4-1.748c-.145-.253-.015-.387.111-.515.113-.113.252-.294.378-.442a1.722,1.722,0,0,0,.252-.421.466.466,0,0,0-.021-.442C8.375,7.62,7.87,6.377,7.66,5.872s-.413-.426-.568-.436-.316-.009-.484-.009a.927.927,0,0,0-.673.316,2.832,2.832,0,0,0-.883,2.105,4.913,4.913,0,0,0,1.03,2.611,11.254,11.254,0,0,0,4.31,3.811,14.605,14.605,0,0,0,1.439.533,3.438,3.438,0,0,0,1.589.1,2.6,2.6,0,0,0,1.7-1.2,2.081,2.081,0,0,0,.145-1.2c-.065-.105-.228-.163-.48-.29Z" transform="translate(0 0.001)" fill="#81c1a1" fill-rule="evenodd"/>
      </g>
    </g>
  </g>
</svg>
