<?xml version="1.0" encoding="utf-8"?><svg xmlns="http://www.w3.org/2000/svg" width="30" height="19.5" viewBox="0 0 30 19.5"><path d="M6 10.5a3 3 0 11-3-3 3 3 0 013 3zm-3 6A1.5 1.5 0 104.5 18 1.5 1.5 0 003 16.5zM3 0a3 3 0 103 3 3 3 0 00-3-3zm7.5 9a1.5 1.5 0 101.5 1.5A1.5 1.5 0 0010.5 9zm0 7.5A1.5 1.5 0 1012 18a1.5 1.5 0 00-1.5-1.5zm0-16.5a3 3 0 103 3 3 3 0 00-3-3zM21 9a1.5 1.5 0 101.5 1.5A1.5 1.5 0 0021 9zm0 7.5a1.5 1.5 0 101.5 1.5 1.5 1.5 0 00-1.5-1.5zM21 0a3 3 0 103 3 3 3 0 00-3-3zm7.5 9a1.5 1.5 0 101.5 1.5A1.5 1.5 0 0028.5 9zm0 7.5A1.5 1.5 0 1030 18a1.5 1.5 0 00-1.5-1.5zm0-15A1.5 1.5 0 1030 3a1.5 1.5 0 00-1.5-1.5z"/></svg>