<?xml version="1.0" encoding="utf-8"?><svg xmlns="http://www.w3.org/2000/svg" width="8.564" height="9.788" viewBox="0 0 8.564 9.788"><path d="M7.647.003H.918A.941.941 0 000 .917V8.87a.941.941 0 00.918.918h6.729a.941.941 0 00.918-.918V.917a.941.941 0 00-.918-.914zm-5.2 8.32a.263.263 0 01-.245.245h-.734a.263.263 0 01-.245-.245v-.738a.263.263 0 01.245-.245h.734a.263.263 0 01.245.245zm0-2.447a.263.263 0 01-.245.245h-.734a.263.263 0 01-.245-.245v-.738a.263.263 0 01.245-.245h.734a.263.263 0 01.245.245zM4.894 8.32a.263.263 0 01-.245.245h-.734a.263.263 0 01-.245-.245v-.735a.263.263 0 01.245-.245h.734a.263.263 0 01.245.245v.734zm0-2.447a.263.263 0 01-.245.245h-.734a.263.263 0 01-.245-.245v-.735a.263.263 0 01.245-.245h.734a.263.263 0 01.245.245v.735zM7.341 8.32a.263.263 0 01-.245.245h-.734a.263.263 0 01-.245-.245V5.138a.263.263 0 01.245-.245h.734a.263.263 0 01.245.245v3.181zm0-4.894a.263.263 0 01-.245.245H1.468a.263.263 0 01-.245-.245V1.468a.263.263 0 01.245-.245h5.628a.263.263 0 01.245.245z"/></svg>