<?xml version="1.0" encoding="utf-8"?><svg xmlns="http://www.w3.org/2000/svg" width="697.035" height="435.646" viewBox="0 0 697.035 435.646"><path d="M687.699 435.146H9.335c-4.871 0-8.835-3.964-8.835-8.836V244.66c.938-.446 3.89-1.966 6.854-4.714 2.079-1.926 3.736-4.06 4.926-6.344a19.76 19.76 0 002.249-9.224 19.71 19.71 0 00-2.249-9.214c-1.19-2.279-2.848-4.407-4.927-6.325-2.941-2.713-5.913-4.237-6.853-4.683V9.335C.5 4.464 4.464.5 9.335.5h233.662a59.29 59.29 0 00-.98 10.698c0 31.453 25.012 60.994 70.429 83.18 45.302 22.132 105.524 34.32 169.571 34.32 45.652 0 90.055-6.292 128.41-18.197C647.25 99.072 676.991 83 696.533 63.983V204.12c-.803.454-3.236 1.948-5.612 4.607a22.925 22.925 0 00-4.034 6.333c-1.217 2.87-1.834 6.004-1.834 9.317 0 3.314.617 6.444 1.834 9.303a22.652 22.652 0 004.035 6.296c2.385 2.647 4.805 4.11 5.612 4.556V426.31c0 4.872-3.964 8.836-8.836 8.836z"/><path d="M687.699 434.646c4.596 0 8.336-3.74 8.336-8.336V244.823c-1.019-.593-3.272-2.057-5.483-4.51a23.148 23.148 0 01-4.124-6.437c-1.244-2.92-1.874-6.116-1.874-9.498 0-3.38.63-6.58 1.873-9.512a23.425 23.425 0 014.122-6.47c2.234-2.501 4.475-3.972 5.486-4.566V65.16c-19.607 18.715-49.089 34.53-85.46 45.819-38.402 11.919-82.856 18.219-128.558 18.219-64.121 0-124.421-12.206-169.79-34.37-45.598-22.275-70.71-51.976-70.71-83.63 0-3.399.297-6.823.882-10.198H9.335C4.74 1 1 4.74 1 9.335v194.508a29.736 29.736 0 016.693 4.629c2.121 1.957 3.813 4.13 5.03 6.46a20.2 20.2 0 012.306 9.446c0 3.339-.776 6.52-2.305 9.455-1.217 2.335-2.91 4.515-5.03 6.48-2.755 2.553-5.507 4.068-6.694 4.66V426.31c0 4.597 3.74 8.336 8.335 8.336H687.7m0 1H9.335c-5.147 0-9.335-4.188-9.335-9.336V244.34c.034-.015 3.543-1.544 7.014-4.76 2.037-1.887 3.66-3.976 4.823-6.21a19.265 19.265 0 002.192-8.992 19.21 19.21 0 00-2.192-8.982c-1.164-2.228-2.786-4.31-4.823-6.189-3.469-3.2-6.98-4.715-7.014-4.73V9.335C0 4.188 4.188 0 9.335 0H243.6a58.806 58.806 0 00-1.083 11.198c0 31.252 24.913 60.633 70.148 82.732 45.236 22.098 105.38 34.268 169.352 34.268 45.602 0 89.954-6.284 128.261-18.174 37.288-11.573 67.288-27.907 86.756-47.234v141.628c-.028.014-2.901 1.468-5.74 4.644a22.428 22.428 0 00-3.946 6.194c-1.19 2.807-1.794 5.876-1.794 9.122 0 3.247.604 6.31 1.794 9.107a22.152 22.152 0 003.946 6.158c2.834 3.144 5.712 4.576 5.74 4.59V426.31c0 5.148-4.188 9.336-9.335 9.336z"/></svg>