<?xml version="1.0" encoding="utf-8"?><svg xmlns="http://www.w3.org/2000/svg" width="789" height="324" viewBox="0 0 789 324"><g data-name="Group 495" opacity=".2"><ellipse data-name="Ellipse 154" cx="394.5" cy="5" rx="394.5" ry="5" transform="translate(0 314.001)" opacity=".19"/></g><g data-name="Path 13534"><path d="M775.714 300.993H12.674c-5.058 0-9.174-4.116-9.174-9.175v-188.27c.959-.453 4.016-2.02 7.11-4.887 2.152-1.994 3.869-4.205 5.101-6.57a20.461 20.461 0 002.329-9.55c0-3.373-.784-6.583-2.329-9.541-1.233-2.36-2.95-4.565-5.102-6.55-3.093-2.853-6.148-4.407-7.109-4.858V9.675C3.5 4.615 7.616.5 12.675.5h763.039c5.059 0 9.175 4.116 9.175 9.175v51.88c-.82.455-3.309 1.967-5.822 4.779a23.741 23.741 0 00-4.177 6.557c-1.26 2.972-1.899 6.218-1.899 9.65 0 3.432.639 6.673 1.899 9.633a23.45 23.45 0 004.178 6.52c2.51 2.787 4.998 4.276 5.82 4.726v188.398c0 5.06-4.115 9.175-9.174 9.175z"/><path d="M12.675 1C7.89 1 4 4.891 4 9.675v51.603c1.217.598 4.071 2.15 6.948 4.804 2.195 2.025 3.947 4.275 5.206 6.686a20.9 20.9 0 012.386 9.773c0 3.453-.803 6.744-2.385 9.781-1.26 2.416-3.01 4.672-5.205 6.706-2.879 2.667-5.735 4.232-6.95 4.834v187.956c0 4.783 3.891 8.675 8.675 8.675h763.039c4.783 0 8.675-3.892 8.675-8.675V103.712c-1.04-.599-3.362-2.097-5.692-4.683a23.956 23.956 0 01-4.267-6.66c-1.287-3.022-1.939-6.329-1.939-9.828 0-3.5.652-6.812 1.938-9.845A24.237 24.237 0 01778.694 66c2.334-2.61 4.66-4.13 5.695-4.735V9.675c0-4.784-3.892-8.675-8.675-8.675H12.674m0-1h763.04c5.343 0 9.675 4.332 9.675 9.675v52.18S773.49 67.791 773.49 82.54c0 14.749 11.898 20.577 11.898 20.577v188.7c0 5.343-4.332 9.675-9.675 9.675H12.674c-5.342 0-9.674-4.332-9.674-9.675v-188.59s14.54-6.26 14.54-20.687C17.54 68.113 3 61.914 3 61.914V9.674C3 4.333 7.332 0 12.675 0z"/></g></svg>