<?xml version="1.0" encoding="utf-8"?><svg xmlns="http://www.w3.org/2000/svg" width="13.869" height="10.401" viewBox="0 0 13.869 10.401"><path d="M13.606 3.435a.163.163 0 01.263.127V10.4H0V3.565a.162.162 0 01.263-.127c.607.471 1.411 1.07 4.174 3.077a4.846 4.846 0 002.5 1.289 4.848 4.848 0 002.5-1.289C12.2 4.507 13 3.906 13.606 3.435zm-6.672 3.5c.628.011 1.533-.791 1.988-1.121 3.594-2.608 3.868-2.836 4.7-3.486a.648.648 0 00.249-.512V0H0v1.815a.652.652 0 00.249.512c.829.647 1.1.878 4.7 3.486.451.33 1.357 1.132 1.985 1.121z"/></svg>