<?xml version="1.0" encoding="utf-8"?><svg xmlns="http://www.w3.org/2000/svg" width="612.552" height="378.636" viewBox="0 0 612.552 378.636"><g data-name="Слой 1"><path data-name="Path 13189" d="M519.857 0h-4.771c-3.176 1.956-6.815 2.726-10.223 4.089-3.98 1.656-7.245 3.994-8.86 8.179a35.7 35.7 0 00-.279 12.534c.416 2.2-.3 3.265-2.46 4-7 2.365-10.564 7.606-11.573 14.68a38.166 38.166 0 00-.109 6.134c.082 4.321-.191 4.771-4.287 3.885-5.316-1.138-9.862.2-14.06 3.408-2.44 1.861-4.914 3.667-7.374 5.5s-4 4.416-3.271 7.367c1.261 5.084-.293 9.1-3.578 12.765-.1 1.547-.682 3.244-.211 4.614 1.152 3.5-.061 6.032-2.535 8.288a17.366 17.366 0 00-1.486 9.617c.116.777.314 1.7-.307 2.283-3.408 3.244-3.455 7.688-4.478 11.838s-.409 7.388 3 10.005a2.213 2.213 0 01.5 3.51c-2.045 2.726-2.345 5.814-2.174 9.044.906 3.237 3.081 5.507 5.691 7.436l2.011 1.329c4.266 2.181 9.351 1.268 13.583 3.585a26.068 26.068 0 004.641.273c4.287-.518 6.611-.143 10.291 2.1a2.431 2.431 0 01.259.2c4.771 1.145 7.995-1.479 11.048-5.6 1.179 5.227-.388 8.86-1.663 12.547-.872 5.684-.9 5.766-6.229 4.191-7.79-2.3-15.566-4.26-23.711-1.663a20.182 20.182 0 01-3.721.286c-7.8.913-15.675.055-23.459.927-11.961 1.363-23.786 3.469-35.57 5.882-8.56 4.157-17.775 6.6-26.58 10.175L353.6 190.28l-1.261.682c-.729.913-2.31.872-2.672 2.46 1.547.538 3.074.164 4.573.164 3.558-1.765 7.183-3.408 10.659-5.323 5.016-2.726 10.114-5.146 15.907-5.664 4.771-.893 9.071-3.142 13.556-4.853 8.1-3.19 16.677-4.151 25.217-5.3a85.09 85.09 0 0116.452-2.011h12.95c2.358-.934 4.151 0 5.7 1.724a1.54 1.54 0 011.3-1.7c6.3-1.363 12.6-2.726 18.906 0 1.649.348 3.312.682 4.955 1.05 5.18 1.24 5.18 1.254 3.251 6.447-1.363 6.427-3.667 12.649-4.328 19.24-.211 2.12-1.881 2.3-3.558 2.276a58.019 58.019 0 00-11.845 1c-.6.682-2.045.334-2.174 1.847 2.767.777 5.541-.1 8.26.218a149.124 149.124 0 0134.05 2.61l13.631 2.045c1.363-.4 2.931.32 4.73-1.125-6.659-2.569-13.583-2.6-20.235-4.771a2.161 2.161 0 012.4-.532c6.815 1.022 13.692 1.99 20.514 3.108 11.293 1.861 22.58 3.646 33.484 7.361l8.083 2.045c-2.672-2.672-5.664-3.244-8.056-4.8-4.266-1.145-8.492-2.44-12.8-3.408-5.52-1.234-11.1-2.195-16.65-3.278l-13.338-2.154c4.655-3.333 8.976-6.42 14.019-8.179 9.2-4.089 15.9.682 22.361 6.57-1.363-2.972-3.837-4.5-6-6.393-.859-.75-2.726-1.315-2.045-2.678s2.4-.906 3.735-.825 2.549 1.329 3.817.075a7.515 7.515 0 015.343-1.8c9.617-.279 19.138-2.045 28.788-1.649 1.438-.627 3.162-.947 4.266-1.949 2.726-2.474 5.4-2.045 8.444-.831 4.819 1.895 9.508 4.13 14.544 5.452V184.7l-15.88-5.336a9.705 9.705 0 00-7.367 1.7 7.422 7.422 0 01-5.159 1.3 60.3 60.3 0 00-16.493 1 5.718 5.718 0 01-3.278.6c-6.652-.382-13.249.429-19.853 1.009-5.009 2.726-9.344.239-13.733-1.8a92.989 92.989 0 01-16.357-6.7c-2.494-1.268-4.941-2.883-8-2.419-1.261.191-1.7-.682-1.506-1.663 1.472-7.5 2.9-14.994 10.223-19.485 1.956-1.186 3.619-1.363 5.616 0 3.006 2.045 6.134 3.946 9.991 3.892a25.013 25.013 0 0012.186-1.472c3.094-1.029 6.856-1.131 7.64-5.418-.225-2.372-.429-4.771-.682-7.109-.143-1.363.061-2.372 1.629-2.862 3.68-1.159 5.255-4.089 5.984-7.606.682-3.217 1.295-6.447 1.942-9.664a10.6 10.6 0 00-2.045-6.209c-3.646-3.585-3.755-4-.586-8.1 1.833-2.372 2.406-4.771 1.193-7.5l-4.607-7.5c-.627-1.016-1.165-2.045.245-2.876 3.919-2.419 6.713-6.038 9.855-9.283 3.612-3.762 4.007-7.838 1.234-12.268-4.652-6.74-12.108-10.431-17.908-16.009-4.089-3.939-4.771-3.271-3.094-8.935.382-1.3.852-2.576 1.281-3.864.682-3.96 1.7-8.506-2-11.048-4.859-3.34-5.65-7.279-4.253-12.411a14.014 14.014 0 00.164-3.04c-.988-5.187-4.253-8.022-9.16-9.678-3.35-1.124-6.99-1.676-9.898-3.946zm30.669 109.728c-1.234 3.108-.361 5.67 1.942 7.933 1.363 1.363 2.59 2.849 2.126 5.016a52.019 52.019 0 01-1.363 9.392c-.5 2.931-2.045 4.771-5.187 4.771-2.379 0-3.271 1.2-2.856 3.476 1.05 2.413 1.2 5.03 1.772 7.551.593 2.644-.607 4.089-3.115 4.7a51.006 51.006 0 01-14.142 1.69 12.767 12.767 0 01-7.708-3.176 2.892 2.892 0 01-1.029-3.817c1.363-3.6 2.522-7.279 3.762-10.9.457-3.237 1.09-6.461 1.309-9.712.136-2.045.627-3.36 2.815-3.871a5.5 5.5 0 003.674-2.794c.273-.518.429-1.24-.116-1.486-.4-.177-1.043.211-1.581.354-1.936 1.724-4.089 2.856-6.815 2.2-1.329-.32-2.045.443-2.685 1.527-2.392 4.028-3.074 4.239-7.633 2.726-.586-.191-1.227-.75-1.8.164a3.742 3.742 0 002.726 3.1c1.465.525 1.922 1.309 1.533 2.815a27.569 27.569 0 01-7.715 13.706c-1.486 1.363-2.944 1.574-4.519.286-2.89-2.365-5.739-4.771-7.395-8.247-1.54-4.089-1.363-8.465-1.983-12.7-.354-2.338 0-3.592 2.9-4.007 5.023-.716 7.245-7.388 4.089-11.314-.266 1.452-.47 2.91-.811 4.335-.443 1.9-.947 3.844-3.21 4.389s-3.646-.682-4.859-2.338a4.887 4.887 0 00-1.363-.9c-2.644 2.76-4.928.825-7.5-.722 3.319 4.007 2.624 8.478 2.317 12.874-.089 1.261-.334 2.529-1.786 3s-2.419-.239-3.34-1.138c-1.711-1.656-3.346-3.408-5.077-5.023-2.229-2.113-2.569-3.912.061-6.175 1.643-1.418 3.162-3.571.252-5.541-.116 4.123-.423 4.266-4.539 3.626a7.5 7.5 0 00-6.529 1.786c1.131 1.09 2.576.682 3.885.743s2.338.409 2.726 1.976c1.1 4.716 4.8 7.586 8.022 10.734 1.5 1.472 3.558 1.363 5.452.641s2.6-2.419 2.658-4.369.061-3.858.1-5.786c0-1.363.273-2.576 1.949-2.651 1.827-.082 2.324 1.2 2.345 2.672.048 2.726.136 5.452-.082 8.179a16.916 16.916 0 004.832 13.685c1.956 2.045 4.26 3.728 6.406 5.582 3.115 1.05 5.452-.061 7.5-2.46 2.726-3.142 5-6.42 5.643-10.653a23.609 23.609 0 011.363-4.907 3.864 3.864 0 014.41-2.392c1.513.32.348 2.133.334 3.278s-.259 2.474-.361 3.721c-.579 7.449-4.048 13-10.762 16.439a10.823 10.823 0 00-3.231 2.965c-2.419 2.924-3.9 6.359-5.384 9.787l-1.643 10.08c-.532 7.136-1.411 14.237-2.535 21.312-.729 5.057-.729 5.071-5.214 4.648-2.822-.266-5.63-.757-8.451-.825-2.992-.075-3.5-1.309-2.972-4.089 2.045-10.591 5.146-20.9 7.763-31.351 1.5-4.771 2.242-9.542-.136-14.312 0-1.016.075-2.045.055-3.053-.123-7.613-1.99-9.685-8.342-10.939-1.22-.239-2.447-.457-3.674-.682-5.609-.981-8.526-3.844-9.773-9.453-.45-2-.4-4.191-1.758-6.134a13.195 13.195 0 008.86 17.816c2.726.682 5.6 1.016 8.015 2.685 2.917 2.045 4.839 5.1 4.362 8.342-.388 2.624-3.006 4.771-5.964 5.452-2.726.634-4.464-.845-5.807-3.115-2.16-3.66-2.515-3.748-6-1.493a5.575 5.575 0 01-5.773.579l-5.555-1.363c-3.578-.859-7.361-1.213-10.148-4.048a5.111 5.111 0 01-2.222-3.633c-.6-2.937.416-5.575 1.643-8.131.927-1.929 1.206-3.762-.818-5.071-3.8-2.46-4.089-5.923-3.012-9.807.838-3.047.532-6.713 4.28-8.26 1.649-2.045.627-4.634 1.452-6.815a11.059 11.059 0 012.583-7.449 7.5 7.5 0 001.172-7.279 7.426 7.426 0 01.975-7.068 11.62 11.62 0 00.682-9.221 5.664 5.664 0 011.67-6.509 83.633 83.633 0 019.439-7.183 12.036 12.036 0 0110.128-1.472c1.363.089 2.726.109 4.042.293 2.522.341 4.771 0 6.134-2.413 0-4.553-1.52-9.187.682-13.631 1.568-4.58 4.423-7.9 9.317-8.9 2.924-.6 3.967-2.3 3.789-5.064-.191-2.931-.525-5.861-.538-8.8s.17-5.957 2.617-7.783c4.444-3.305 9.187-6.175 14.851-6.979 4.287-.607 7.94 1.5 11.743 2.828 5.814 2.045 6.993 3.953 6.815 10.107a16.582 16.582 0 01-.988 5.323 5.834 5.834 0 00.184 4.921c5.97 3.755 7.674 8.806 4.682 15.3l-.566 1.227c-.941 3.762-2.419 7.592 1.295 10.8l4.1 2.535c4.546 2.406 8.022 6.229 12.268 9.037a22.737 22.737 0 016.066 5.357c1.758 2.379 2.6 5.166.682 7.5-3.483 4.253-6.945 8.812-12.268 10.9-2.856 1.125-3.592 2.31-1.99 4.866a24.866 24.866 0 001.881 2.726c3.942 4.514 4.16 8.814-.502 12.951zm-34.069 71.522l16.357 5.493c-7.5 2.917-13.856 7.129-20.685 10.339a15.171 15.171 0 01-7.586 1.363c-1.82-.109-2.726-.838-2.426-2.76q.682-4.171 1.363-8.349c.266-2.569.579-5.125.777-7.7.143-1.9.811-2.638 2.781-1.861 3.087 1.2 6.27 2.3 9.419 3.469z"/><path data-name="Path 13190" d="M612.552 224.909a83.282 83.282 0 01-14.408-6.747 108.625 108.625 0 01-12.872-6.134c-14.076-6.318-29.342-7.844-44.2-11.109 5.848 3.292 12.425 4.43 18.545 6.815a69.612 69.612 0 0111.361 3.544c6.134 1.622 11.729 4.989 17.856 6.332 8.492 1.847 15.689 6.563 23.718 9.344z"/><path data-name="Path 13191" d="M612.551 299.879a140.97 140.97 0 00-14.5-7.34c-1.179-.375-2.372-.743-3.544-1.145-3.537-1.213-7.013-2.651-10.625-3.551-1.359-.341-3.404-1.959-4.624.62a1.649 1.649 0 001.54.845l5.255 2.324c8.608 3.585 17.638 6.263 25.217 11.961a3.967 3.967 0 001.281.375z"/><path data-name="Path 13192" d="M26.425 281.545c-7.77-1.5-15.532-3.033-23.309-4.451-1.029-.191-2.822-1.043-2.924 1-.082 1.622 1.588 1.254 2.631 1.363 8.86.859 17.454 3.564 25.51 6.7a81.524 81.524 0 0019.015 4.866 39.626 39.626 0 0115.151 5.555c1.036.613 2.488 2.092 3.483.32.9-1.608-.893-2.317-1.977-3.019-5.657-3.687-11.47-6.815-18.627-6.236a13.285 13.285 0 01-7.449-2.045z"/><path data-name="Path 13193" d="M50.865 299.913a8.86 8.86 0 01-2.883-3.176c3.653.273 6.3 2.944 9.692 3.087.477-.845.136-1.459-.464-2.106-2.624-2.842-10.278-5.534-14.6-4.941 2.726 2.529 3.517 6.216 6.25 8.553 1.056.9 2.045 3.156 3.408 2.045 1.596-1.274-1.076-2.181-1.403-3.462z"/><path data-name="Path 13194" d="M53.625 273.824l.743-1.206c3.544-10.618 8.4-20.446 16.984-28.011 2.195-2.883 5.527-4.525 7.892-7.265a16.759 16.759 0 00-7.361 4.4 66.9 66.9 0 00-18.994 30.876z"/><path data-name="Path 13195" d="M68.101 293.701c.607.314 1.2.647 1.82.92a1.459 1.459 0 001.854-.375 1.363 1.363 0 00-.327-1.84c-4.771-4.594-9.542-9.262-16.923-8.812-.068 1.656 1.363 1.942 2.385 2.508a54.081 54.081 0 0111.191 7.599z"/><path data-name="Path 13196" d="M24.379 313.51q1.022 1.084 2.045 2.181a19.806 19.806 0 003.006 2.726c1.608.975 2.651.559 2.249-1.595-1.24-1.05-1.7-2.583-2.5-3.905-2.726-3.912-5.964-7.013-12.036-7.5z"/><path data-name="Path 13197" d="M46.142 244.129c-11.682 6.359-20.412 15.676-26.914 27.153 1.274-.184 1.847-1.234 2.556-2.106 6.9-8.451 13.992-16.718 22.879-23.227a9.037 9.037 0 001.479-1.82z"/><path data-name="Path 13198" d="M29.151 312.948c.8 1.322 1.261 2.856 2.5 3.905 3.933-1.022 3.953-1.036 1.718-4.56-1.52-2.4-3.053-4.771-4.641-7.136a4.626 4.626 0 00-4.192-2.426c.852 2.774 2.726 4.675 3.769 6.965.451.999 1.957 1.81.846 3.252z"/><path data-name="Path 13199" d="M39.197 295.046c1.445 3.51 3.06 7.5 4.771 11.457a1.547 1.547 0 001.963.941 1.481 1.481 0 00.756-2.045c-1.363-4.089-2.651-8.213-5.568-11.552-.348-.4-.586-1.077-1.288-.811s-.668.893-.634 2.01z"/><path data-name="Path 13200" d="M25.062 248.76c-.266.354-.825.8-.743 1.043.368 1.084 1.125.32 1.615.123 4.614-1.854 9.2-3.776 13.808-5.65a31.88 31.88 0 004.41-1.738c6.134-3.674 13.317-1.677 19.765-3.871 4.771-1.629 9.855-2.44 14.8-3.612a73.554 73.554 0 0117.911-3.244l3.2-.211a33.232 33.232 0 0110.762-1.193c8.178.279 16.3-.62 24.447-1.165 15.8-1.05 31.528-3.265 47.483-1.036 6.509.906 11.586 1.99 13.011 9.317a2.815 2.815 0 003.476 2.454c-.327-1.418.682-3-.2-4.253-2.808-3.953-4.055-8.71-6.74-12.718-.811-.055-2.045-.055-1.738.961.934 3.49-1.254 2.454-2.944 2.215-1.363-.191-2.678-.443-4.021-.641-11.389-1.622-22.811-1.172-34.241-.682-2.242.245-4.485.5-6.734.729-2.14.211-4.273.477-6.42.545-3.06.089-2.16-3.667-4.41-4.7a6.378 6.378 0 000 2.045c1.363 2.794.3 3.455-2.5 3.408-5.984-.109-11.975.068-17.965.129-5.718.634-11.457 1.131-17.141 1.97-3.067.457-4.7-.218-5.03-3.537a32.4 32.4 0 00-1.418-5.923 14.313 14.313 0 00-5.364-7.565c-.954 1.424-.2 2.8-.45 4.089.532 1.588.981 3.21 1.615 4.771.784 1.915.593 4.355 2.726 5.555.866.484 1.513.988 1.363 2.045-.17 1.274-1.274 1.452-2.235 1.7a26.307 26.307 0 01-2.644.4l-28.829 6.55-10.782 3.476a86.4 86.4 0 00-17.843 8.214z"/><path data-name="Path 13201" d="M40.055 239.303c-4.955 1.329-9.589 3.5-14.312 5.452-8.015 3.66-15.676 8.138-24.058 10.9-.682.245-1.813.416-1.424 1.458.348.927 1.363.525 2.1.334 5.5-1.465 10.584-3.953 15.676-6.434 2.222-1.084 4.362-2.454 7.006-2.283a86.734 86.734 0 0117.822-8.219c-.233-1.93-1.733-1.065-2.81-1.208z"/><path data-name="Path 13202" d="M516.304 218.172l-12.8-4.962c-6.815-2.045-13.856-3.646-20.514-6.059a56.97 56.97 0 00-12.895-3.469 203.089 203.089 0 00-23.854.681c-7.429 1.009-14.837 2.124-21.891 4.843 1.976 1.479 4.13.559 6.134.348 6.134-.682 12.266-1.482 18.442-2.243a55.437 55.437 0 0113.631-.9 41.3 41.3 0 0113.631 1.361 69.422 69.422 0 0112.949 2.89 145.222 145.222 0 0128.8 10.666 197.837 197.837 0 0126.376 13.3c2.045 1.165 4.205 2.242 6.216 3.51q17.72 11.15 35.358 22.382l1.445-.17-2.045-1.847-27.262-17.72-27.262-15.785-13-6.134z"/><path data-name="Path 13203" d="M572.341 224.909a181.241 181.241 0 0126.58 13.79l5.268 2.992c-5.357-5.807-12.268-9.4-18.886-13.365l-20.617-8.553a8.571 8.571 0 00-4.566-1c.538 1.363 1.915 1.458 3.006 1.956 3.04 1.454 6.125 2.817 9.215 4.18z"/><path data-name="Path 13204" d="M380.827 370.764l9.692 7.2.423-.477-10.114-9.446-.722-.682c-3.851-3.3-7.742-6.556-11.532-9.93-1.738-1.547-3.926-2.726-4.819-5.071a46.571 46.571 0 00-9.385-7.5c-.109 1.731 1.234 2.61 2.222 3.626a267.4 267.4 0 0021.244 19.553c1.035.841 2.003 1.789 2.991 2.727z"/><path data-name="Path 13205" d="M354.404 344.861a46.572 46.572 0 019.385 7.5c.682-.361 1.424.641 2.113-.177-3.251-4.232-7.449-7.5-10.973-11.409l-1.411-1.24c-4.771-3.408-9.16-7.279-14.367-10.005-.961-.5-1.779-1.479-3.067-1.1 5.452 4.587 10.857 9.2 16.357 13.74a12.722 12.722 0 011.963 2.691z"/><path data-name="Path 13206" d="M530.821 329.042a239.044 239.044 0 0125.217 21.073c9.487 9.269 19.894 17.454 29.886 26.1 1.561.143 1.274-.5.477-1.22-2.883-2.569-5.684-5.241-8.7-7.633-9.542-7.552-17.3-17.039-26.764-24.713-2.208-1.779-4.341-3.639-6.509-5.452l-12.878-10.056-.784-.682c-1.921-.681-3.172-2.726-5.452-2.726.961 2.726 4.09 3.135 5.507 5.309z"/><path data-name="Path 13207" d="M331.828 367.236c.927.913 2.365 1.465 2.045 3.2a7.749 7.749 0 001.315 6.359c.463.613 0 2.045 1.4 1.813 1.1-.177 1.1-1.3 1.274-2.167a42.143 42.143 0 00.8-11.477c-.048-.682.77-3.224-1.69-1.438-.061.048-.477-.184-.463-.259.348-3.162-2.89-4.968-2.856-8.226a13.549 13.549 0 00-3.7-9.78c-1.554.641-.443 2.045-1.445 2.951a6.185 6.185 0 01-.463-.8c-1.424-3.571-2.726-7.224-5.452-10.053-.518-.525-1.036-1.452-1.929-1.009s0 1.445-.307 2.195c-1.5-.443-1.983-2.345-3.9-2.276-.627 2.29 1.493 3.844 1.67 5.868 2.283 3.755 3.517 8.063 6.1 11.654 1.8-.327.682-2 1.363-3.04 1.677 2.835 1.527 6.6 4.975 8.24.388.177.423 1.22.511 1.881.258 2.121.496 4.238.752 6.364z"/><path data-name="Path 13208" d="M488.992 350.429l-13.43-7.572a4.052 4.052 0 001.942 2.433c4.921 2.91 10.073 5.452 14.537 9.051 3.905 2.045 7.347 4.825 10.9 7.361a6.079 6.079 0 012.678 4.137c3.251-.116 5.5 2.89 8.737 2.815-7.975-6.721-16.746-12.357-25.364-18.225z"/><path data-name="Path 13209" d="M21.845 181.182l3.9.109c2.563 0 5.977.968 7.5-.3 2.59-2.174 4.539-1 6.815-.538 4.3.477 8.86.1 11.982 4.089-.341-4.4-2.726-6.461-7.136-6.57-2.59-.068-5.221.068-7.763-.682l-4.614-.164c-6.584-.116-13.167.545-19.765 0l-9.405.123c-.545.157-1.084.327-1.636.457-.9.2-1.942.32-1.677 1.615.218 1.043 1.084 1.363 2.045 1.363 1.595 0 3.183-.089 4.771-.061 5.032.129 10.018-.402 14.983.559z"/><path data-name="Path 13210" d="M28.517 203.781c-3.476-7.7-6.993-15.376-11.811-22.361-.409.961.089 1.765.47 2.576q6.686 14.312 13.392 28.625a18.1 18.1 0 001.165 1.731c-.449-4.246-2.33-7.265-3.216-10.571z"/><path data-name="Path 13211" d="M21.477 204.463q2.535 4.989 5.078 9.985c.872.388 1.411.041 1.186-.845a47.421 47.421 0 00-9.105-18.463c.067 4.122 2.078 6.542 2.841 9.323z"/><path data-name="Path 13212" d="M585.29 189.469l-2.726-1.295c.136 1.506 1.445 1.806 1.908 2.672l.818.668a82.589 82.589 0 0113.167 12.833l.545.593 3.714 4.089c.4-2.12-.988-3.19-1.615-4.614a101.628 101.628 0 00-15.812-14.946z"/><path data-name="Path 13213" d="M183.077 370.262q-1.4-7.906-2.808-15.791c-.463-.988-.927-1.976-1.363-2.9-1.24.129-1.05.961-1.022 1.554a56.377 56.377 0 003.851 17.72c.177.457.232 1.295.968.94.304-.14.265-.992.374-1.523z"/><path data-name="Path 13214" d="M175.956 357.558c.845 6.454 1.677 12.908 2.549 19.363.1.716.109 1.772 1.247 1.581.825-.143.777-1.05.757-1.683a59.457 59.457 0 00-3.674-19.383z"/><path data-name="Path 13215" d="M258.15 318.963c-2.6-2.965-4.328-6.659-8.274-9.412 2.215-.089 3.285 1.043 4.573 1.363.879.225 1.922.682 2.406-.354s-.484-1.643-1.281-2.086c-3.674-2.045-7.367-4.021-11.055-6.032-.913-.4-1.813-.838-2.726-1.206-3.8-1.513-6.331-.3-7.422 3.53-.954 3.047 2.045 3.769 3.2 6.079.975-2.215-.579-4.123.334-6.045 2.46 1.888 3.817 4.709 6.7 5.527a10.067 10.067 0 016.25 5.364 7.256 7.256 0 002.181 2.992c3.319 1.929 4.226 5.139 5.078 8.458 1.363 5.452 4.968 9.787 7.122 14.817 1.683 3.932 2.556 8.219 5.234 11.716 1.534 5.132 4.164 9.957 4.45 15.437.184 3.408 3.408 5.493 4.089 8.86q-.511-5.977-1.036-11.954c-.041-4.219-3.2-7.5-3.592-11.586l-.941-1.363c-1.056 1.084.177 2.488-.872 3.728-2.549-10.223-4.539-20.405-9.542-29.627q-2.44-4.117-4.876-8.206z"/><path data-name="Path 13216" d="M5.249 313.511c-.089 2.045 1.724 2.14 2.944 2.726 3.708 1.867 7.96 2.726 10.857 6.059.859.143 1.84.682 2.454-.32.45-.722.089-1.486-.382-2.188-2.726-4.056-11.054-7.389-15.873-6.277z"/><path data-name="Path 13217" d="M18.076 322.418c-3.974-1.363-7.967-2.644-12.22-2.726-.729 0-1.806-.388-2.092.566-.348 1.145.811 1.561 1.588 1.833 2.454.866 4.955 1.574 7.443 2.351a28.347 28.347 0 003.3.286c1.381-.07 2.41-.606 1.981-2.31z"/><path data-name="Path 13218" d="M230.887 357.196c1.452 3.619.143 7.218-.089 10.83.239 1.159-.341 2.5.75 3.476l1.384-3.469 1.411-13.631c.443-4.26-3.183-7.8-2.14-12.172-.164-.1-.334-.184-.5-.273-.339 5.071.207 10.196-.816 15.239z"/><path data-name="Path 13219" d="M129.256 369.553c-.913-4.048-.17-8.342-2.106-13.2-1.22 4.9-.47 9.01-.613 13.052.545 2.726.525 5.6 2 9.017 1.196-3.43.392-6.21.719-8.869z"/><path data-name="Path 13220" d="M579.258 288.463l-7.6-3.762c-4.512-2.529-10.223-1.7-14.394-5.227-1.908-.279-3.66-1.527-6.045-1.05l2.038 1.69a70.874 70.874 0 0110.319 6.073 34.681 34.681 0 016.72 3.994c3.319-1.861 5.827.743 8.656 1.568.954.279 2.12.845 2.842 0 .934-1.1-.682-1.6-1-2.433a1.65 1.65 0 01-1.54-.852z"/><path data-name="Path 13221" d="M425.812 211.278l-1.193.082c-6.182 1.547-12.377 3.312-18.115-1.295-8.512-2.488-16.7-5.875-24.979-9.017-5.8-1.929-11.913-2.174-17.85-3.326a42.254 42.254 0 01-9.405-1.459c-6.931-2.256-14.19-1.84-21.312-2.583-13.065-.47-26.083-.177-38.964 2.433-.777.164-1.97.552-2.045-.961-.17-5.139-2.133-9.971-2.508-15.069-1.99-8.662-1.534 17.461-4.648 17.788-2.876.307-3.912-.518-3.967-3.292-.089-4.682-.184-9.439-5.043-12.145-1.574-.872-3.237-1.6-4.859-2.392-3.619-.743-5.173 1.07-5.534 4.423-.109 1-.334 1.983-.5 2.972.075 2.6.109 5.2.218 7.8.075 1.847-.5 2.529-2.379 1.69-6.618-2.944-13.57-5-20.378-7.408l-10.775-2.774-15.832-3.312c-.682-.055-1.363-.068-2.045-.177-7.286-1.125-7.19-1.125-6.768-8.335.15-2.426.825-3.231 3.271-2.46 3.326 1.05 5.684-.225 7.081-3.408.818-1.854 1.779-3.639 2.678-5.452.4-2.351.831-4.873-.682-6.85-2.426-3.142-2.447-6.577-2.045-10.182a22.737 22.737 0 01-2.849-12.268c.157-6.3-5.316-9.1-10.714-5.841-1.145 2.467-3.646 2.91-5.814 3.776-3.081 1.24-5.411 3.271-5.636 6.625-.327 4.962-5.241 8.6-3.81 14.047.143.538-1 1.411-1.52 2.14-1.908 2.665-1.758 9.139.538 11.157 2.644 2.31 5.561 4.519 8.9 5.527 4.314 1.295 2.174 4.321 2.215 6.625.041 2.644-2.045 2.447-3.967 2.222-3.476-.416-6.986-1.4-10.469-.722-5.3 1.043-10.38-.061-15.512-.947-.722-.123-1.608-.041-1.956-1.043-.859-2.488 2.535-8.219 5.18-8.512 2.256-.252 4.328-.872 5.452-2.978 2.133-4.089 3.2-8.642.791-12.7a18.832 18.832 0 01-2.494-10.6 41.9 41.9 0 00-.525-5.357 5.541 5.541 0 01-2.856-2.61c-2.583-4.314-6.659-6.011-11.511-6.175-2.665 2.494-6.666 3.571-7.96 7.5a32.094 32.094 0 01-.886 14.565 18.872 18.872 0 01-4.968-10.809c-1.09-7.572-5.657-9.542-11.4-5.159l-1.125 1.363c-.341 1.54-.8 3.06-1 4.614a27.071 27.071 0 01-3.694 11.13 14.019 14.019 0 005.827 20.14c2.842 1.588 1.179 4.4 1.765 6.6.552 2.1-.477 2.985-2.529 3.408-4.273.872-8.894.859-12.268 4.355-7.156-1.929-14.231-4.219-21.339-6.263-4.212-1.213-8.328-.572-12.316-1.8-2.781-.852-1.479 1.268-1.254 2.474-5.125-1.493-9.637-3.81-14.667-4.382 1.165 1.8 3.231 2.045 4.709 3.183l3.319 1.363c3.714.818 7.408 1.67 11.171 2.317 4.362.75 8.219 4.151 13.14 2.9 3.571-.906 6.781.838 10.032 1.67 6.134 1.588 12.527 1.8 18.688 3.333 9.112 2.263 17.5 6.584 26.676 8.86 6.011 1.479 11.416 5.391 17.093 8.219 5.752 1.82 10.659 5.452 16.759 6.87 4.451 1.036 8.247 4.9 12.806 7.8-1.908.872-3.237 1.888-4.648 2.011s-2.726-1.895-5.159-.791a95.609 95.609 0 0011.32 7.5 2.031 2.031 0 002.276.075c2.481-2.174 4.307-.5 6.222.893 1.534.157 3.5 3.128 4.369-.8a37.69 37.69 0 003.271 2.5c1.9 1.165 2.045 0 1.82-1.52a27.8 27.8 0 01-4.818-5.527c-1.595.273-2.808-.607-4.048-1.363-2.167-.682-4.478-.184-6.625-1.786-11.484-8.587-23.363-16.589-36.469-22.58a72.646 72.646 0 01-11.43-4.253c-1.268-.491-2.556-.927-3.789-1.493-8.281-3.769-16.623-7.347-25.8-8.39-1.363-.15-2.726-.361-4.042-.545 7.122-1.97 14.115-3.864 21.353-4.457 6.775-1.247 13.549-1.084 20.951-.634-1.724 2.14-3.04 3.544-4.089 5.125s-1.97 3.081-1.854 5.1c3.939-4.437 6.618-9.787 14.04-9.889a74.711 74.711 0 0117.891 1.5 33.765 33.765 0 00-9.964 7.722c-.184.906-1.288 1.493-.9 2.842l2.849-2.276c3.708-4.553 8.444-7.695 14.312-7.926a39.962 39.962 0 0112.315 1.888 181.638 181.638 0 0125.606 6.986l-11.341 3.728c-5.343 2.767-10.284 6.066-14.2 10.721 2.917.334 4.171-2.978 6.972-3.408-.525 1.908-2.324 2.781-2.658 5.411 2.276-2.092 3.994-3.776 5.827-5.33 5.2-4.423 10.693-8.335 17.72-9.324 7.32.375 13.174 4.689 19.894 6.686-.041.314-.075.634-.109.947l-32.66 10.182c-4.73 1.758-9.787 2.515-14.387 4.675l-1.833.831c-1.261.729-2.535 1.431-3.776 2.195-.566.354-1.2.818-.947 1.595s1.016.763 1.7.791c1.97.082 3.714-.8 5.541-1.309a33.962 33.962 0 0112.172-3.462 104.6 104.6 0 0128.011-10.032c7.926-3.2 15.675-6.959 24.372-7.695 1.1-.232 2.2-.538 3.319-.682 8.567-.981 17.148-1.881 25.715-2.91a99.4 99.4 0 0125.128.157l3.231.184c7.5-.061 14.435 3.006 21.748 3.721 15.737 1.547 29.756 8.737 44.621 13.12.273.082.47.4 1.186 1.022-4.614 1.513-8.921 2.767-13.092 4.355-2.488.947-3.939.75-5.609-1.649a32.455 32.455 0 00-13.631-11.457c-.477-.2-1.847-2.045-2.31.259 6.877 2.583 11.354 8.083 16.1 13.263.716.77.593 1.54-.361 1.867-2.781.961-4.28 3.694-6.9 4.853a157.631 157.631 0 01-15.147 4.531c-8.383 2.917-17.243 4.491-25.183 8.71 4.382 1.077 8.138-1.363 12.213-1.792a114.494 114.494 0 0113.631-3.994l25.8-7.633c1.2-1 3.271-.5 4.294-2.406-2.856-.511-5.262.913-7.824.477 6.066-2.529 12.138-4.968 18.613-6.209a213.374 213.374 0 0124.365-4.853c1.186-.927 3.094-.2 4.389-1.8-3.886-.837-7.457-.019-10.998-.156zm-216.781-51.115c-.886 4.887-4.723 8.656-4.737 13.829a42.264 42.264 0 01-.756 5.725c-.082.586-.32 1.186-.954 1.247-.927.1-1.043-.682-1.118-1.363-.273-2.365-.443-4.771-.763-7.095-.252-1.84-.8-3.592-2.726-4.4-.716-.293-1.827-.647-1.363.8.682 2.27-.634 1.363-1.506 1.036-4.232-1.561-7.5-9.153-5.548-13.222a14.613 14.613 0 001.731-5.112c.4-5.255 4.7-9.18 4.934-14.531 0-.682 1.111-1.411 1.854-1.874a20.746 20.746 0 004.185-3.442 5.216 5.216 0 016.236-1.2c2.27.947 2.14 3.012 1.956 4.955-.348 3.68-.157 7.224 1.649 10.584a5.773 5.773 0 01.5 2.972 8.995 8.995 0 002.835 7.279c3.36 3.51 2.665 10.169-1.029 13.127-1.827 1.465-3.857.75-5.452-.061s.1-2.147.416-3.176c.573-2.086.975-4.042-.347-6.086zm-45.4 16.909h-.866c-1.09-3.735-2.167-7.6-5.193-10.141-3.605-3.033-4.4-6.5-3.292-10.9 1.4-5.6 2.617-11.245 1.915-17.127-.538-4.525 4.321-7.906 8.642-6.284 6.134 2.3 6.993 7.552 7.238 13.011.143 3.081.825 5.718 2.992 8.042a8.091 8.091 0 01-2.317 12.847c-.934.5-2.045 1.561-3.067.729-.838-.682-.061-1.915.143-2.883.545-2.563 1.547-5.159-1.07-8.015-1.8 7.224-3.469 13.958-5.132 20.705zm-24.829-9.289c-2.5 2.481-4.56.906-5.452-.913-1.731-3.646-3.592-7.8-1.363-11.709a40.443 40.443 0 005.35-15.614c.252-2.2 1.568-4.307 4.13-4.266 2.726.048 3.346 2.338 3.537 4.6.259 2.978.4 6.3 2.433 8.369 4.669 4.771 2.692 10.646 3.53 16.044.184 1.145-.8 1.84-1.7 2.344-1.288.722-2.651 1.295-3.939 2.011-1.493.838-2.4.913-2.045-1.247.116-.682.129-1.479-.818-1.533a1.363 1.363 0 00-1.363 1.247 13.317 13.317 0 00-.177 2.726c.075 2.944.2 5.9.3 8.86.041 1.165.123 2.6-1.5 2.454-1.772-.164-.682-1.629-.586-2.413a31.766 31.766 0 00-.348-10.98zm4.614 6.693a10.427 10.427 0 00-.1-1.363c-.279-1.881.15-2.726 2.351-2.283 1.84.368 3.5-.729 5.112-1.574 2.086-1.1 6.931.068 8.253 1.956 2.045 2.862-.068 7.776-3.5 8.179-2.726.341-5.452.47-8.1.968s-4.157-.184-3.892-3.183a26.93 26.93 0 00-.116-2.7zm124.377 17.038h-.17c.164-2.488.273-4.975.5-7.456.136-1.527.913-2.147 2.563-1.7 4.8 1.3 8.362 11.927 5.248 15.866a2.727 2.727 0 01-.811.6c-5.057 2.992-7.258 1.82-7.327-3.905-.014-1.179-.007-2.317-.007-3.449z"/><path data-name="Path 13222" d="M80.233 269.891l1.363-1.854c1.4.484.123 2.045 1.7 2.726q5.916-13.426 11.859-26.88a15.129 15.129 0 001.172-2.808c.279-1.363-.62-.682-1.165-.5l-3.312 5.459c-3.8 6.924-7.62 13.835-11.334 20.8-.447.849-1.953 1.885-.283 3.057z"/><path data-name="Path 13223" d="M80.308 295.006c2.086.634 2.828-.157 2.106-2.154-.634-1.779-1.465-3.483-2.2-5.221-1.056-1.881-2.045-3.8-3.169-5.63a9 9 0 00-7.656-4.613 99.929 99.929 0 0110.919 17.618z"/><path data-name="Path 13224" d="M74.684 292.716c1.3-.259 1.363-1.159.832-2.045-2.89-5.009-6.7-9.078-12.22-11.232-.811-.314-1.936-.538-2.433.409s.545 1.363 1.138 1.813a70.97 70.97 0 019.875 9.262 4.853 4.853 0 002.808 1.793z"/><path data-name="Path 13225" d="M87.76 284.847a49.293 49.293 0 012.726 8.7c.191.879.354 1.97 1.52 1.895s1.268-1.138 1.363-2.045c.164-2.365.279-4.73.416-7.095-.293-1.084-.552-2.174-.893-3.244-.164-.491-.47-1.52-.845-1.24-4.089 3.053-2.9-2.937-5.452-2.835-.435 2.038 1.094 3.858 1.165 5.864z"/><path data-name="Path 13226" d="M329.711 285.567c1.649 3.476 3.326 6.938 4.941 10.428 2.092 4.525.613 7.5-4.416 8.751-3.183.8-6.406 1.438-9.582 2.263-1.247.32-2.726.416-3.408 1.82.164.218.286.532.409.532 7.96-.15 15.75-1.009 22.409-5.95a12.99 12.99 0 013.6-1.827c6.134-2.1 12.268-4.089 18.286-6.352 1.52-.572 4.88-.266 3.278-3.905-.191-.429 1.152-.872 1.942-.981a29.7 29.7 0 0110.68-2.8c3.408-.647 6.89-1.281 10.332-1.936.75-.143 2.12-.048 2.045-.831-.45-3.408 2.379-2.263 3.592-2.413 5.187-.627 10.414-.32 15.635-.143 1.568-.423 3.408.177 4.88-1.118-1.636-2.174-4.641-1.016-6.87-2.883 5.1-.62 9.664-1.268 14.272-.164 5.452 0 10.9 2.045 17.243.682a17.1 17.1 0 00-8.247-2.726c-6.045-.736-12.084-1.677-18.211-1.363a2.542 2.542 0 01-2.372-1.056 1.151 1.151 0 00-.6-.252 9.876 9.876 0 01-9.841 2.781c-6.645-1.724-13.133-4.042-19.69-6.134a53.993 53.993 0 01-12.852-4.775c-5.452-1.431-10.094-4.491-15.8-5.807a66.2 66.2 0 01-23.5-10.114c-.32.579-.682 1.159-.975 1.738 3 4.089 5.984 8.233 9.017 12.322.5.682 1.125 2.181 1.847 1.622 2.174-1.677 2.092.47 2.692 1.363.934 1.363 1.172 3.353 3.34 3.905v-4.089l.859-.525c.988 6.488 7.64 8.628 9.814 14.217a2.222 2.222 0 001.629 1.568c3.708.743 5.084 4.246 5.5 6.87.4 2.488-2.726 4.335-5.452 5.255-.852.293-1.738.5-2.61.75l-12.754 4.625c-1.595.586-2.515.177-2.978-1.581a38.083 38.083 0 00-3.51-9.174 24.114 24.114 0 00-5.889-7.361c-.245 2.253 1.411 3.2 1.315 4.768zm37.546.913c-2.154 1.363-3.333.157-4.307-1.622-1.309-2.4-2.651-4.771-4.866-6.488a11.913 11.913 0 01-3.81-5.118c-2.631-5.112-8.594-7.586-10.809-13.631 17.72 7.034 35.543 12.5 53.194 18.661-10.38.811-19.458 6.059-29.388 8.179z"/><path data-name="Path 13227" d="M327.613 285.566c-3.619-7.013-7.565-13.788-13.57-19.124a9 9 0 01-2.835-5.227 17.644 17.644 0 01-12.227-8.247 28.765 28.765 0 00-3.49-2.658c-7.885-4.382-15.812-8.683-23.731-13.011-2.345-.32-4.539-2.045-7.415-.818.532.484.791.872 1.138 1.009 4.655 1.752 8.587 5.016 13.522 6.236a13.242 13.242 0 016.372 3.755l5.077 4.007c1.247.975 2.488 2.726 3.742 2.767 3.592 0 4.948 2.726 6.918 4.771 2.133 2.188 3.905 5.861 6.359 6.366 4.26.879 5.071 4.28 7.2 6.7 1.792 2.045 3.156 4.43 4.771 6.638.307.423.8 1.009 1.213 1.009 1.881 0 1.895-.089 2.5.913 1.111 1.84 2.2 3.694 3.3 5.534z"/><path data-name="Path 13228" d="M352.318 313.45a1.043 1.043 0 01.572.109c11.586 3.408 22.845 7.545 33.341 13.6a42.292 42.292 0 017.565 3.96c1.118.525 2.263 1 3.346 1.581q13.092 7.047 26.171 14.108c-1.363-2.672-4.178-3.633-6.447-5.2-2.856-1.97-5.841-3.748-8.771-5.609l-27.261-14.149c-9.058-3.51-17.952-7.5-27.262-10.223-4.089-.443-7.913-2.154-12.172-1.792z"/><path data-name="Path 13229" d="M579.253 336.682c.232-1.281 1.459-.034 2.113-1.056-1.445-1.295-2.883-2.726-4.444-3.946a251 251 0 00-22.3-15.546c-1.036-.681-2.045-1.547-3.408-1.254a7 7 0 001.234 1.547c8.669 6.018 16.814 12.711 25.026 19.322a10.6 10.6 0 001.779.934z"/><path data-name="Path 13230" d="M275.828 305.932c-2.726 0-3.837-2.583-5.854-3.735-1.69-.968-3.149-2.413-4.9 0-.906 1.254-2.079.068-3.067-.259-3.49-1.145-6.672-3.305-10.946-3.408 1.363 2.31 3.8 2.59 5.118 4.212l7.422 5.35 2.924.382c.62-.525.279-1.05.048-1.533-.416-.879-.682-1.752.273-2.419s1.472.184 2.045.607c2.222 1.561 4.389 3.2 6.618 4.737.852.593 2 1.772 2.222-.538a8.061 8.061 0 01-1.903-3.396z"/><path data-name="Path 13231" d="M275.829 305.931a8.062 8.062 0 001.956 3.408c1.922.927 2.263 3.006 3.3 4.58.682 1.063 1.459 2.433 2.815 1.752s.361-2.011 0-3.012a19.22 19.22 0 00-3.892-6.332 23.779 23.779 0 01-6.679-14.122c-.266-2.235-.92-4.43-1.4-6.638-.218-.252-.388-.682-.682-.736-1.118-.32-.634.443-.573.913l1.363 9.617c.17 1.2.682 2.6-1.363 2.61-.634 2.6 1.677 3.605 2.856 5.214.663.954 1.515 1.826 2.299 2.746z"/><path data-name="Path 13232" d="M298.442 322.697c.136-3.026-2.12-5.8-.859-8.976.341-.859-.682-1-1.281-1.2-5.63-1.813-5.63-1.813-4.928 4.348.232 2.045.423 4.089.757 6.073.123.757.545 1.643 1.561 1.438.791-.164.818-1.022.872-1.677.15-1.908.232-3.823.382-6.529 1.976 4.587.8 9.467 4.089 13.222.988-1.854.8-3.1 0-4.307z"/><path data-name="Path 13233" d="M280.075 301.242c.388 2.215 1.554 3.878 2.467 5.636a62.886 62.886 0 015.275 12.881c.2.75.409 1.69 1.363 1.724s1.213-.866 1.363-1.663c.825-4.913-5.581-16.533-10.468-18.578z"/><path data-name="Path 13234" d="M263.602 308.091l-7.442-5.371c-3.408-.082-6.168-2.283-9.453-2.61-.777-.075-2.385-1.281-2.174 1.009 5.187 2.774 10.359 5.568 15.566 8.3 1.601.831 3.346 1.712 3.503-1.328z"/><path data-name="Path 13235" d="M298.442 322.697l.6 2.4c1.254-.818 1.131.532 1.363.981 1.261 2.624 2.385 5.316 3.626 7.947a14 14 0 001.765 2.835c.634.777 1.663 1.615 2.59.941s-.136-1.595-.463-2.344c-.409-.927-.981-1.779-.641-2.862a8.735 8.735 0 01-3.408-4.771 13.345 13.345 0 01-2.351-4.416c-.743-1.863-1.8-1.788-3.081-.711z"/><path data-name="Path 13236" d="M475.412 341.522c-4.887.545-8.983-1.363-12.827-4.089-4.164-1.588-7.8-4.355-12.172-5.452 2.222 2.726 5.6 3.667 8.478 5.336 5.664 3.271 11.416 6.379 17.175 9.487 1.036.559 2 1.52 3.408 1.274-.259-1.24-2.447-1.036-1.97-2.726a4.085 4.085 0 01-1.942-2.44z"/><path data-name="Path 13237" d="M54.961 218.093c-1.929-5.711-3.346-11.627-6.611-17.12-.525 1.459.32 2.419.382 3.483a81.465 81.465 0 013.607 13.631c1.595 4.355 1.956 9 3.19 13.869 1.431-1.465.682-3.012.988-4.3q-.786-4.792-1.556-9.563z"/><path data-name="Path 13238" d="M489.874 308.582l-28.625-9.389-12.268-3.483-15.8-3.278-11.47-1.363c-1.363.252-2.794-.327-4.771.777l6.286 1.147a59.932 59.932 0 0110.762 1.486c10.359 1.527 20.249 4.771 30.158 8.022a70.937 70.937 0 0111.416 3.51 263.741 263.741 0 0129.988 11.586c1.3.1 2.351 1.254 4.089.941-6.304-4.299-13.086-7.005-19.765-9.956z"/><path data-name="Path 13239" d="M226.853 337.93q1.295 8.928 2.583 17.85c.559.409-.388 2.385 1.486 1.418.988-5.043.443-10.169.77-15.246-1.431-4.369-1.745-9.753-4.566-12.861-3.585-3.946-3.074-9.126-6.045-12.949-.477-.613-.279-1.752-.388-2.644-1.363-4.928-1.908-10.223-6.393-14.312-.409 2.113 1.4 3.455.293 5.009l2.665 7.313c1.2.586 1.206 1.833 1.581 2.862 1.977 5.411 3.885 10.843 5.9 16.241.915 2.393 2.571 4.545 2.114 7.319z"/><path data-name="Path 13240" d="M421.72 348.201c-7.333-3.81-14.435-8.1-23.091-11.164 1.506 2.426 3.6 2.44 4.832 3.646l4.587 2.249a163.57 163.57 0 0127.33 16.657l8.526 5.882c-6.325-7.154-14.415-11.988-22.184-17.27z"/><path data-name="Path 13241" d="M117.166 300.561a17.114 17.114 0 00-5.548-12.67c-.988 1.786.5 2.91.136 4.464l-4.341-4.007c-.682 0-1.458-.177-1.363.9.497 4.102 6.972 10.72 11.116 11.313z"/><path data-name="Path 13242" d="M91.778 340.769c-.511 2.44-1.029 4.88-1.574 7.5-.613-.579-.1-1.82-1.459-2.045-.716 1.4 0 3.012-.32 4.464 1.929.136.9 2.045 2.167 3.462a89.844 89.844 0 006.134-23.431c-2.739 2.842-3.401 6.65-4.948 10.05z"/><path data-name="Path 13243" d="M98.43 340.629l4.968-14.251c.307-2.992 1.908-5.725 1.922-9.317-2.1 1.881-2.788 4.035-3.653 6.045a53.255 53.255 0 00-4.089 13.9c-.157 1.258-.784 2.73.852 3.623z"/><path data-name="Path 13244" d="M121.16 302.639c1.983-.273 3.5-.573 1.568-3.074-1.554-2.045-.92-4.8-1.752-7.115-.682-1.8-.818-4.928-3.224-4.369-2.61.613-.682 3.258-.416 4.934.4 2.542 1.179 5.03 1.792 7.545z"/><path data-name="Path 13245" d="M121.8 258.987a98.373 98.373 0 00-2.12 13.631q.416 4.089.8 8.11c1.6-.927 1.186-2.529 1.309-3.939.409-4.6-.354-9.255.647-13.829a7.667 7.667 0 01.831-3.96c.491-3.333 2.726-6.045 3.837-10.107-3.053 3.176-3.633 6.638-5.214 9.542a1.131 1.131 0 01-.09.552z"/><path data-name="Path 13246" d="M140.809 339.199a87.01 87.01 0 012.235-12.063c.252-2 .5-3.987.791-6.332-3.626 4.048-6.522 16.848-5.391 23.254 2.242-.983 1.363-3.402 2.365-4.859z"/><path data-name="Path 13247" d="M226.798 233.088l4.982 5.357a11.42 11.42 0 001.22 1.152c1.165.818 1.963 3.346 3.619 1.908 1.281-1.125-.573-2.6-1.418-3.653-2.474-3.06-5.05-6.032-7.62-9.017a9.092 9.092 0 00-5.078-3.128c-.5-.1-1.295-.273-1.363.477-.034.436.532.913.825 1.363a27.8 27.8 0 004.832 5.541z"/><path data-name="Path 13248" d="M70.786 316.358c.2 1.077-.3 2.29.913 3.524 1.69-1.847 1.418-4.416 2.515-6.359.682-2.726 1.438-5.452 1.949-8.179.266-1.411 1.608-3.605-.375-4.13-1.5-.4-1.683 2.045-2.045 3.408-1.041 3.853-1.975 7.804-2.957 11.736z"/><path data-name="Path 13249" d="M150.05 206.384c1.363 1.363 2.644 2.726 4.021 4.035.573.538 1.22 1.758 2.092.763a1.949 1.949 0 00-.211-2.726c-1.363-1.159-2.726-2.242-4.089-3.36-2.61-.886-4.709-2.617-7.013-4.042-4.825-2.985-9.862-5.643-14.864-8.335a3.164 3.164 0 00-3.817.136c8.389 4.008 15.879 9.209 23.881 13.529z"/><path data-name="Path 13250" d="M113.076 200.373l-4.839-6.243c-3.558-1.438-7.211-2.726-10.06-5.561 4.089 6.4 11.361 9.467 15.457 16.425.819-2.167-.333-3.333-.558-4.621z"/><path data-name="Path 13251" d="M151.829 243.993l-.682-.941-1.976 2.338a36.489 36.489 0 01-3.135 5.5c-5.534 9.119-6.134 19.213-5.677 29.429l.934.157 1-7.858c-.736-4.055 1.4-7.367 2.726-10.9 2.182-5.969 3.736-12.144 6.81-17.725z"/><path data-name="Path 13252" d="M67.794 190.927l-.579-.572c-4.423-.429-7.327-3.749-10.946-5.718-.852-.457-1.867-.947-2.726.075 2.781 4.634 7.095 7.851 10.8 11.627.307.314.763.763 1.1.729 3.919-.375 4.457 2.931 5.943 5.282a133.871 133.871 0 008.86 12.949 20.33 20.33 0 00-5.057-14.312c-2.692-3.149-4.948-6.686-7.395-10.06z"/><path data-name="Path 13253" d="M476.244 252.246c-9.174-3.674-18.4-7.258-27.262-11.586-4.709-1.138-9.092-3.176-13.631-4.832a172.633 172.633 0 00-27.262-4.784c-2.685.491-5.534-.906-8.124.682l8.124.75a56.365 56.365 0 0113.631 1.9 48.8 48.8 0 0113.631 3.53 141.034 141.034 0 0127.262 10.175c4.525 1.363 8.628 3.755 12.949 5.568a5.451 5.451 0 012.726 3.265l7.5 1.458c.743-1.418-.682-1.329-1.261-1.656-2.708-1.54-5.51-2.985-8.283-4.47z"/><path data-name="Path 13254" d="M488.477 237.177l-25.865-8.9c-1.213.048-2.331-.92-4.164-.143 6.27 2.045 12.193 3.721 17.8 6.25 6.4 1.581 12.166 4.866 18.4 6.863l1.363-.682z"/><path data-name="Path 13255" d="M312.673 250.127c.716-.927 1.445-1.411 2.46-.314s2.045 2.113 3.135 3.121c.634.593 1.179 1.561 2.256 1.159 1.206-.443.259-1.615.757-2.835l8.7 9.828.825-.538c-.838-3.858-3.592-6.815-5.67-10.1 1.009-.627 1.159.545 1.758.613.327-.579.682-1.159.975-1.738-.757-1.7-4.28-.722-3.728-3.169s3.408-1.683 5.221-2.27c3.06-.981 6.366-1.206 9.255-2.937-3.939-1.506-7.851-.682-11.45.634-3.449 1.275-4.812.579-6.209-2.815-2.488-6.025-5.193-12.07-10.3-16.527-.041 1.247.825 2.045 1.418 3.019a89.688 89.688 0 016.815 12.118c.791 1.833 2.822 3.967 1.772 5.555-1.281 1.929-3.68.116-5.6-.266-.832-.164-1.82.463-2.474-.545-1.581-.491-3.333-2.781-4.444-1.765-2.46 2.242-3.646-.075-5.323-.682-1.493-.572-2.883-2.045-4.587-.457a1.683 1.683 0 01.729 1.615c-1.5-.682-2.917-1.411-4.389-1.983-1.1-.429-1.4.1-1.015 1.131l6.318 5.275c1.186.682 2.426 1.234 3.551 1.983 1.745 1.172 2.2.266 2.045-1.4 2.796 1.148 4.371 3.731 7.199 4.29z"/><path data-name="Path 13256" d="M421.788 272.958c-3.837 1.07-7.783.123-11.648.627a2.542 2.542 0 002.372 1.056c6.134-.334 12.166.607 18.211 1.363 1.786-1.315 3.748-.634 5.561-.307 4.669.838 9.283 1.963 13.944 2.862 2.147.416 4.362 1.315 7.068-.327-7.5-3.517-15.11-4.825-22.709-6.209-4.301-.087-8.615-.448-12.799.935z"/><path data-name="Path 13257" d="M260.794 269.21c1.82 5.889 3.026 12.029 7.129 16.957.75.682.341 2.011 1.99 2.726-.4-5.807-.457-11.259-5.078-15.417a13.836 13.836 0 01-1.942-3.1c-.484-.751-.606-2.223-2.099-1.166z"/><path data-name="Path 13258" d="M250.653 257.623a75.822 75.822 0 017.824 11.668c.307.545.484 1.717 1.588 1.125.252-.129.2-.811.293-1.24-.852-1.84-1.861-3.626-2.535-5.527-1.908-5.364-6.959-8.219-9.446-13.1l-.8.511z"/><path data-name="Path 13259" d="M65.081 176.629c-3.8-.348-7.613 2.045-11.4-.089-.872.6-2.726.2-2.59 1.629.082 1.131 1.67 1.329 2.726 1.663 1.595.518 3.244.913 4.88 1.315 3.2.784 6.461 2.086 9.446-.613 1.949.416 3.892.859 5.848 1.24.941.184 2.086.634 2.14-1.056a44.307 44.307 0 00-11.05-4.089z"/><path data-name="Path 13260" d="M483.836 284.885c1.472 1.493 3.646 1.186 5.343 2.106a148.241 148.241 0 0115.123 4.621c7.94 1.942 15.4 5.289 23.091 7.933-.641-1.363-2.045-1.758-3.237-2.29a212.88 212.88 0 00-37.294-12.145 19.354 19.354 0 00-3.026-.225z"/><path data-name="Path 13261" d="M190.737 312.713c.947 1.1 1.827 2.665 3.558 1.4 1.363-1.009 1.043-3.312.232-3.571-3.857-1.234-2.842-4.437-3.408-7.04a1.52 1.52 0 00-.763-1.016 1.05 1.05 0 00-1.295.8 14.857 14.857 0 00-.6 2.965 15.259 15.259 0 01-2.556 7.947c2.726.641 3.265-1.615 4.26-3.244.845.443.511 1.193.572 1.759z"/><path data-name="Path 13262" d="M219.301 286.248c-.266-2.249-.429-4.512-.852-6.727-.157-.811.682-3.04-1.908-1.833-.818.382-.6-.927-.682-1.479-.232-2.365-.361-4.737-.6-7.1-.075-.8.089-2.113-1.479-1.268a128.821 128.821 0 00.682 18.4 19.552 19.552 0 013.517 8.669c.245 1.745.559 3.667 2.174 4.771 1.465 1.022-.389 1.711-.116 2.6.886 2.9 1.7 5.834 2.6 8.731.157.5.579 1.084 1.247.791a1.363 1.363 0 00.634-1.752c-.757-2.474-.075-4.887.143-7.32-.457-1.6-.927-3.2-1.363-4.771-.682-2.556-1.111-5.166-3.122-7.245-1.1-1.114-.991-2.886-.875-4.467z"/><path data-name="Path 13263" d="M214.79 313.366c2.2 1.213 2.433-.2 2.481-1.861l-2.678-7.286c-1.663-2.351-3.34-4.7-6.045-5.984-.941-.443-2.195-1.418-2.126.831 3.577 4.309 5.771 9.421 8.368 14.3z"/><path data-name="Path 13264" d="M463.461 276.618c3.046 1.084 5.909-.109 8.86-.586 1.268-.2 2.651.307 3.987.491 7.034.164 14.067.682 22.048.041-3.524-2.467-6.815-1.922-10.223-2.972 11.423-2 21.482 2.365 31.855 4.389 1.329-.491 1.206-1.145.157-1.806-.77-.477-1.963-.382-2.283-1.881a53.672 53.672 0 0112.227 3.851l7.552 2.426c.075-2.113-2.2-2.045-2.583-3.973l18.354 7.708c.838.348 1.677.682 2.535.975a.893.893 0 001.152-.436c.259-.511-.082-.9-.443-1.152-1.363-.961-2.828-1.874-4.246-2.808-6.945-3.483-13.883-6.959-21.625-8.383-4.594-.341-9.221-.429-13.631-1.861-4.307-.579-8.642 1.738-12.949-.123a65.905 65.905 0 00-14.312-.566l-6.645 2.76c-6.924.791-13.869.2-20.808.266-.2 0-.4-.191-.607-.286l-12.847-2.8c-1.908.341-3.912-1.329-6.284.511 6.729 3.578 14.035 3.993 20.759 6.215z"/><path data-name="Path 13265" d="M409.527 313.23l13.665 5 25.79 9.112c1.363.17 2.726 1.138 4.048-.17a3.468 3.468 0 01-1.009-.123c-13.692-5.848-27.855-10.387-41.9-15.239a4.212 4.212 0 01-2.726-2.358l-11.47-3.34c-.354.682-1.438.8-1.363 1.8z"/><path data-name="Path 13266" d="M162.051 296.614c-1.138-1.077-2.222-2.229-3.449-3.2a1.6 1.6 0 00-2.195 0c-.6.613-.055 1.281.239 1.854.811 1.595 1.677 3.162 2.726 5.125-3.408-.055-4.4-4.4-7.708-3.667-.314 1.029.682 1.6.859 2.454 2.256 2.917 4.5 5.848 6.815 8.744 2.12 2.726 5.221 2.563 8.179 2.726-1.179-4.924-3.544-9.408-5.466-14.036z"/><path data-name="Path 13267" d="M204.478 313.421c1.056.511 2.113.954 3.2.075-1.874-5.309-5.841-8.751-10.428-11.586-1.22-.757-2.3-.348-3.408.538s-.682 1.8-.375 2.726a23.492 23.492 0 005.568 8.86c.757.75 1.7 1.458 2.672.586s-.061-1.649-.484-2.365c-.682-1.152-1.458-2.242-2.195-3.36l.593-.593z"/><path data-name="Path 13268" d="M135.349 304.439c.279-1.186.559-2.365.845-3.551-.784.566-1.574 1.131-2.978 2.154v-7.626c0-.975.123-2.331-1.152-2.5s-1.4 1.234-1.67 2.167a9.154 9.154 0 01-1.363 3.319c-.6-2.767-1.159-5.548-1.833-8.3-.266-1.07-.682-2.549-2.1-2.154s-1.506 2.372-.934 3.169c2.113 2.924 1.4 6.291 2 9.446.361 1.915.518 4.655 3.68 2.27 1.05-.784 1.363.075 1.683.831.912 2.049 2.268 1.899 3.822.775z"/><path data-name="Path 13269" d="M162.047 296.614c1.922 4.641 4.287 9.112 5.452 14.053.947.109 1.642 1.622 2.658.791.9-.736.286-1.915.041-2.849-.757-2.815-1.486-5.643-2.44-8.383-.8-2.29-2.113-4.232-4.955-4.26z"/><path data-name="Path 13270" d="M150.254 299.967l-1.138-1.5c-1.8-1.24-3.006-3.408-6.345-3.66 3.081 4.819 5.848 9.194 8.683 13.535a1.261 1.261 0 001.772.47 1.418 1.418 0 00.388-1.84c-1.104-2.324-2.235-4.667-3.36-7.005z"/><path data-name="Path 13271" d="M211.232 313.449l.191-.048h.2c-.2-5.262-5.814-12.588-10.987-13.433 3.576 4.948 6.248 9.828 10.596 13.481z"/><path data-name="Path 13272" d="M529.87 255.695l-26.365-12.329-7.497-2.781-1.363.682 8.86 4.089a232.978 232.978 0 0128.57 14.312 278.573 278.573 0 0126.015 15.485c1.82-1.049-.1-1.418-.45-1.745a77.765 77.765 0 00-13.3-9.453c-4.788-2.787-9.64-5.5-14.47-8.26z"/><path data-name="Path 13273" d="M319.447 204.463c3.946 3.408 9.16 6.134 11.532 10.394 3.353 6.032 8.5 10.121 12.663 15.205a27.091 27.091 0 003.851 3.34c.518.429 1.022.532 1.288-.293-8.86-13.692-20.528-24.488-33.975-33.552z"/><path data-name="Path 13274" d="M453.67 260.976l-5.534-2.583c-12.949-4.382-25.967-8.642-39.386-11.47-2.215-.47-4.4-1.111-6.7-.845.981 1.131 2.413 1.1 3.7 1.431 14.605 3.7 29.047 7.8 43.23 12.84 1.582.098 3.05.975 4.69.627z"/><path data-name="Path 13275" d="M394.459 240.618l-13.631-1.465h-8.1l-.041.62 35.4 4.9 1.568-.314-1.568-1.05z"/><path data-name="Path 13276" d="M361.573 218.094c-3.8-5.8-8.131-11.1-14.108-14.81a15.3 15.3 0 00-5.268-2.154l4.089 3.176c7.742 4.525 12.268 12.016 17.632 18.845q-1.159-2.495-2.345-5.057z"/><path data-name="Path 13277" d="M255.962 235.173c-1.261-.682-2.494-1.452-3.8-2.045a5.289 5.289 0 01-3.305-5.323 31.4 31.4 0 00-.954-8.288l-1.942-3.878c.573 5.4 1.786 10.693.586 16.1a44.011 44.011 0 007.838 10.223c1.09 1 2.14 2.045 3.769 2.092.493-3.272-.843-6.08-2.192-8.881z"/><path data-name="Path 13278" d="M295.559 231.725q-2.992-6.815-6-13.631l-4.26-7.279-3.033-3.878c.409 4.191 2.726 7.545 4.321 11.184 2.195 3.98 3.749 8.322 6.679 11.886.623.75.586 2.4 2.293 1.718z"/></g></svg>