<?xml version="1.0" encoding="utf-8"?><svg xmlns="http://www.w3.org/2000/svg" width="206.345" height="228.541" viewBox="0 0 206.345 228.541"><defs><filter id="ama" x="69.811" y="0" width="64.318" height="212.5" filterUnits="userSpaceOnUse"><feOffset dy="3"/><feGaussianBlur stdDeviation=".5" result="blur"/><feFlood flood-opacity=".4"/><feComposite operator="in" in2="blur"/><feComposite in="SourceGraphic"/></filter></defs><g transform="translate(-.001)" filter="url(#ama)"><path data-name="Union 13" d="M71.31 208v-4h2.685v-86.035l-2.185-2.186 2.829-2.829 22.627 22.628-2.828 2.828-1.748-1.748V191.9h19.3s1.356-69.246 0-72.864c-.575-1.534-3.958-12.175-11.524-18.521C89.688 91.475 74 86.375 74 86.375V4h-2.69V0h60v4h-1.838v55.071l3.156 1.212-1.434 3.734-22.405-8.6 1.434-3.734 1.762.676V17.027h-19.3v56.682a51.044 51.044 0 0120.717 10.125c9.2 7.847 16.069 21.266 16.069 21.266V204h1.839v4z"/></g><path data-name="Path 13611" d="M100.049 151.019q.387-.129.322.258a1.155 1.155 0 01-.322.645l-.387.774a6.313 6.313 0 01-.387.645q-1.29 2.193-2.646 4.259t-2.774 4.128q-2.58 4-5.224 8t-5.225 8.127q-1.805 2.705-3.477 5.345t-3.354 5.354q-.9 1.419-2.709 4.837t-3.805 7.74q-2 4.322-3.677 9.03a39.649 39.649 0 00-2.129 8.514 10.342 10.342 0 00.839 6.192q1.29 2.387 5.16 2.387a14.8 14.8 0 005.543-1.028 21.393 21.393 0 004.9-2.774 34.206 34.206 0 004.386-3.935q2.064-2.193 3.87-4.257l.9-.9q.774-.774 1.483-1.613a8.251 8.251 0 001.1-1.612q.387-.774-.129-1.032a.508.508 0 00-.709.065l-.58.581q-1.419 1.548-3.741 4.063t-4.966 4.966a36.72 36.72 0 01-5.418 4.193 9.763 9.763 0 01-5.1 1.742q-2.58 0-3.548-1.225a4.544 4.544 0 01-.967-2.9 13 13 0 01.58-3.741 35.959 35.959 0 011.226-3.483A69.853 69.853 0 0172.378 207q1.87-3.612 3.676-7.095 3.354-6.579 6.708-13.029t6.837-12.9q1.161-1.935 3.354-5.87t4.516-8.186q2.322-4.257 4.192-8.062a38.625 38.625 0 002.387-5.612q.387-1.161 0-1.1a2.065 2.065 0 00-.968.645q-.581.581-1.225 1.354t-.774.9q-8.9 10.062-17.608 20.06t-17.222 20.324q-2.58 3.1-5.805 7.224t-6.837 8.447q-3.612 4.322-7.676 8.45a86.8 86.8 0 01-8.256 7.418 41.7 41.7 0 01-8.648 5.29 21.425 21.425 0 01-8.836 2q-2.58 0-5.805-.258a23.035 23.035 0 01-6.059-1.29 12.09 12.09 0 01-4.773-3.1 7.97 7.97 0 01-1.935-5.676A4.522 4.522 0 004.395 219a4.175 4.175 0 002.644-.323 3.426 3.426 0 001.677-1.871 3.329 3.329 0 00-.129-2.709 4.16 4.16 0 00-1.87-2.193 3.7 3.7 0 00-2.516-.387 4.851 4.851 0 00-2.386 1.29 5.185 5.185 0 00-1.484 2.58 6.669 6.669 0 00.258 4.838 13.864 13.864 0 002.84 4.066 12.683 12.683 0 006.836 3.677 29.886 29.886 0 008.578.452 44.452 44.452 0 008.643-1.613 26.837 26.837 0 007.16-3.161 64.563 64.563 0 009.095-7.16 117.636 117.636 0 008.188-8.514q3.87-4.451 7.546-9.095t7.289-9.03q8.127-9.933 16.448-19.608t16.837-19.22zm10.061 59.727l6.063-1.161q1.677-.387 2.9-.645a13.289 13.289 0 002.193-.645 8.839 8.839 0 001.935-1.1 20.407 20.407 0 002.257-2 15 15 0 001.483-1.741 2.743 2.743 0 00.451-2.257 3.52 3.52 0 00-2.193-3.031 8.733 8.733 0 00-4.579-.516 19.635 19.635 0 00-5.741 1.741 21.992 21.992 0 00-5.805 3.935 24.035 24.035 0 00-4.644 6 19.355 19.355 0 00-2.322 7.74 12.859 12.859 0 00.133 4.064 10.781 10.781 0 001.548 3.806 6.6 6.6 0 004.58 3.032 10.79 10.79 0 005.547-.9 23.64 23.64 0 005.741-3.548 54.546 54.546 0 005.1-4.709 39.764 39.764 0 003.741-4.515 9.746 9.746 0 001.612-2.9l-.516-.258q-.774.129-2.774 2.451t-4.773 5.1a47.081 47.081 0 01-5.938 5.021 10.452 10.452 0 01-6 2.258q-2.967 0-3.612-1.935a8.152 8.152 0 01-.068-4.451 24.977 24.977 0 011.806-5.1q1.23-2.575 1.875-3.736zm.774-1.419q-.129-.129.194-.838a10.616 10.616 0 01.838-1.489q.516-.774 1.032-1.419a6.451 6.451 0 00.645-.9 17.729 17.729 0 012.709-2.645 17.68 17.68 0 013.741-2.386 7.377 7.377 0 013.676-.774q1.742.129 2.386 2.322.516 1.806-1.548 3.483a20.8 20.8 0 01-4.9 2.9 30.212 30.212 0 01-5.483 1.806q-2.645.585-3.29-.06zm68.5-3.1a7.338 7.338 0 001.29-5.934 2.758 2.758 0 00-1.745-2.383 8.253 8.253 0 00-3.032-.58 7.964 7.964 0 00-3.676.967 26.179 26.179 0 00-3.676 2.322 27.575 27.575 0 00-3.354 2.967q-1.546 1.614-2.707 2.774.516-1.161 1.225-2.709a9.125 9.125 0 00.838-2.967 3.381 3.381 0 00-.58-2.386q-.71-.967-2.9-.967a5.939 5.939 0 00-2.58.7 30.233 30.233 0 00-2.774 1.548q-1.354.852-2.58 1.755t-2.129 1.677q-.645.516-2.064 1.677t-2.9 2.451q-1.484 1.29-2.773 2.451a9.423 9.423 0 00-1.677 1.806 1.619 1.619 0 00-.387.645.584.584 0 00.129.645q.258.387 1.161-.258t1.936-1.553q1.032-.9 1.87-1.742l1.1-1.1q1.806-1.677 3.741-3.225t3.87-2.967a11.736 11.736 0 011.161-.774 22.144 22.144 0 012.258-1.226 7.578 7.578 0 012.193-.709q.968-.129.839.9a11.392 11.392 0 01-1.432 2.329q-1.419 2.064-3.483 5.031t-4.451 6.321q-2.386 3.354-4.515 6.321t-3.672 5.031q-1.548 2.064-1.679 2.322h6.45q.645-.9 2.257-3.354t3.935-5.611q2.322-3.161 4.966-6.644a61.588 61.588 0 015.482-6.321 42.91 42.91 0 015.482-4.708 8.61 8.61 0 014.838-1.871q1.29 0 1.484.71a2.9 2.9 0 01-.129 1.677 9.775 9.775 0 01-.9 1.935q-.581.968-.839 1.354-4 5.805-8.127 11.417t-8.256 11.416h6.45q4.773-6.45 9.288-12.965a58.586 58.586 0 0110.707-11.674q1.419-1.161 3.419-2.516a7.006 7.006 0 013.934-1.354q2.322 0 1.29 1.935a23.568 23.568 0 01-3.676 5.1q-2.516 2.774-4.773 5.741a28.97 28.97 0 00-3.612 6.122 8.541 8.541 0 00-.322 6.257q1.16 3.354 3.418 3.741a8.522 8.522 0 005.031-.9 23.8 23.8 0 005.676-3.874q2.9-2.58 5.289-5.031a50.642 50.642 0 003.87-4.386 16.969 16.969 0 001.483-2.064q0-.774-.71-.71a1.714 1.714 0 00-1.1.451q-1.032 1.032-3.225 3.418t-4.838 4.9q-2.642 2.522-5.091 4.455t-3.87 1.935q-2.193 0-2.773-.967a2.957 2.957 0 01-.129-2.451 13.525 13.525 0 011.612-3.29q1.161-1.806 2.451-3.483t2.451-2.967q1.161-1.29 1.548-1.81a26.9 26.9 0 001.87-2.645 13.759 13.759 0 001.355-2.9 18.1 18.1 0 00.58-2.645 6.8 6.8 0 00-.193-2.773 2.978 2.978 0 00-3.1-2.58 8.4 8.4 0 00-4 1.032 20.452 20.452 0 00-3.483 2.322q-1.67 1.289-3.284 2.646t-3.032 2.774z"/></svg>