<?xml version="1.0" encoding="utf-8"?><svg xmlns="http://www.w3.org/2000/svg" width="357.72" height="359.85" viewBox="0 0 357.72 359.85"><path d="M50.12 314.72c-2.2-1.281-4.74-1.26-7.12-1.821-14-4-28.2-6.539-43-6.51 23.59-7 75.77-10.65 117.14 20.76-14.46-18.74-31.85-34.35-51.46-47.641a292.938 292.938 0 00-62.62-32.78c7.29-1.61 30.24 6.54 49 16.89 15.16 8.35 29 18.51 42.359 29.73-38.74-75.58-33-149.8 5-223.19l1.3.211c-1.52 4.33-2.92 8.709-4.58 13-15.39 39.68-22.739 80.68-19.54 123.29 2 26.34 9.06 51.4 20.25 75.32.46 1 .55 2.3 1.87 2.78 1-1.63.41-3.23-.06-4.77-17.74-58.83-11.319-115.94 12.61-171.65 16.861-39.29 39.32-74.86 70.321-104.66 1.4-1.35 2.52-3.11 4.59-3.68-52.19 94.729-73.62 194.1-46 301 0-7.349-.211-14.71-.18-22.08.2-40.451 10-78.54 28.53-114.3 20.18-38.93 47.669-72.1 81.19-100.34 7.14-6 14-12.35 21.86-17.43 1.47-1 2.74-2.579 4.919-1.8a4.139 4.139 0 01-1.82 3.25c-28.93 24.941-49.49 56.05-65.939 90.1-18.911 39.17-33.151 79.94-41 122.81-.24 1.29-.35 2.6-.54 4 1.44-.34 1.43-1.471 1.69-2.271 13.63-42.34 36.419-79.48 64.54-113.57a415.088 415.088 0 0180.44-75.23c10.6-7.51 19.059-17.68 29.849-25 4.43-3 8.44-6.75 14-8.06-69.19 66-120.54 143.09-148.53 235.54 3-.65 3-2.849 3.73-4.34 9.42-19.8 20.07-38.78 35.93-54.31a46.515 46.515 0 0111.2-8.311c8.19-4.209 15.21-3.28 22.109 2.811 6.511 5.739 10.95 13 14.8 20.589 16.5 32.35 32.07 65.15 45.73 98.82 1.309 3.22 2.3 6.56 3.43 9.85-.26 1.12-.08 2.32-1.09 3.209-17.21-28.26-31.35-58.45-53.07-83.89a89.738 89.738 0 00-12.81-12.6c-7.58-5.919-11.641-5.639-17.93 1.54-7.841 8.941-14 19.08-19.921 29.3-1.47 2.5-3.52 4.73-3.52 8.25 2.95-2.721 6-5.38 8.83-8.18a90.825 90.825 0 0111.5-9.59c8.43-5.89 13.58-6 21.86.06 11.67 8.52 21.31 19.12 30.3 30.32 5 6.22 10.049 12.42 14 19.37.44.76.92 1.37.31 2.32-2.261-.61-3-2.8-4.45-4.261-13.23-13.389-26.14-27.12-40.53-39.309-9.51-8.06-11.88-8.11-21.56-.311-13.95 11.23-26 24.36-37.12 38.35a38.1 38.1 0 00-6 11.22c16-12.4 32.62-19.78 52.22-18s34.62 12.51 48.23 25.8a119.63 119.63 0 00-28.24-6.951 92.589 92.589 0 00-39.4 4.431 235.642 235.642 0 00-37.85 16.66c.09-2.21.09-2.21 1.89-3.84 7-6.34 15.08-11.09 23.3-15.61 17.67-7.88 36-11.091 55.3-7.82-9.41-3.83-19-6.65-29.28-6.38-24.58.409-42.64 13.18-58.459 30.8 3.7-7.34 3-15.63 7.25-22.88 6.13-10.58 10.89-22 16.24-33l.029-.05-3.409-2.64c-.319 9.156-4.8 12.988-15.6 13.647l-.022.064c-4.759 9.689-7.829 20-11.219 30.25a231.613 231.613 0 017.46-58.12c2.74-10.43 5.86-20.76 8.81-31.13a33.563 33.563 0 003.219-8.89q8.76-20.089 17.5-40.189a549.157 549.157 0 0155.62-88.52c-2.77.19-3.641 1.78-4.76 2.831a523.107 523.107 0 00-48.42 51.76 150.715 150.715 0 00-22.372 36.981c6.806.1 13.185-2.592 19.9-3.07q-8.74 20.1-17.5 40.189c-5.05 1.5-10.53.06-15.5 2.26 5-2.2 10.45-.76 15.5-2.26a33.569 33.569 0 01-3.22 8.89c-3.23 1.82-3.76 5.38-5.13 8.31a298.271 298.271 0 00-11.589 27.52c-.831 2.38 1.439 5.68-1.13 6.62-2.25.82-3.85-2.7-6.25-3.5a27.614 27.614 0 01-3.927-1.957v.016c-5.86 22.66-7.5 45.82-8.771 69-6.66-47.51 8.08-91.21 24.04-134.7a3.779 3.779 0 00-1.38 1.4c-15.26 28-26.39 57.4-31.77 88.9a242.569 242.569 0 00-3.41 38.24c0 .741.86 3.631-1.56 1-.44-3.28-.87-6.57-1.3-9.85-1.2-14.58-.671-29.2-.741-43.81.23-1.3.571-2.59.69-3.9q4.35-47 13.2-93.3c1.76-9.16 4.35-18.17 6.68-27.72l-.037.031c-2.328 9.538-4.915 18.539-6.673 27.689q-8.9 46.32-13.2 93.3c-.12 1.3-.456 2.586-.686 3.878h.006c.07 14.61-.46 29.23.74 43.81-2.387-6.9-4.276-7.609-10.682-4.011v.031c-.641 2.769.49 5.34.91 8-.391 3.15.859 6.431-.571 10.271a40.333 40.333 0 01-4.919-9.96c-16.421-42-24.241-85.68-24.691-130.72a334.484 334.484 0 0120.49-119.38c5.48-14.94 11.29-29.77 17.11-45-2.18.87-2.61 2.59-3.45 3.88-7.36 11.3-14.35 22.84-20.651 34.77-5.34 10.123-10.811 20.2-14.5 31.1 2.814.25 4.229 1.7 3.851 4.606q-3.43 26.46-4.92 53.1a8.736 8.736 0 01-.81 2.33l-1.08 33.06c-6.648 4.167-10.544 9.853-10.005 18l.016.111a115.837 115.837 0 002.939 23.9c.85 10.85 4 21.24 6.19 31.83v.019c4.995 14.633 10.41 29.116 16.8 43.21l14.119 28.471a16.222 16.222 0 01-5.53-6.79c-8.94-18.19-19.23-35.77-25.72-55.11a21.391 21.391 0 01-1.55-6.781h.008c-.5-1.389-1.071-2.758-1.477-4.176-9.34-33.37-11.66-67.47-10.451-101.92.07-2.21.3-4.4.53-7.511-2.059 3.25-1.66 6-2.08 8.6a228.663 228.663 0 006.45 101.3c7.56 26.1 20.81 49.64 33.41 73.51.481.91 1.82 1.66.571 3.12-10.1-10.53-20.461-20.53-32.971-28.08-13.9-10-45-19.54-55.679-18.2 25.38 7 47.91 18.78 68.449 34.491 3.92 3.72 7.92 7.359 11.71 11.21 1.23 1.25 3.5 2.31 2.3 4.85C107.6 341.969 81.16 324.059 50.12 314.72zm97.82-.741zm.25-17.39q-.023.622-.042 1.244.023-.632.052-1.264c.1-2.732 2.34-5.148 5.087-6.322-2.761 1.165-5.008 3.584-5.097 6.343zm1.17-39.33a244 244 0 00-2.441 34.534 244 244 0 012.441-34.534zm109.12-27.61a55.292 55.292 0 00-8.83 6.511c-10.66 9.74-19.08 21.3-26.53 33.6a109.1 109.1 0 00-10.82 18.993 109.783 109.783 0 0110.82-18.993c2.05 1.31 4 .73 6.1-.07 3.51-1.35 7-2.91 10.85-3l-.021.036c1.667-2.475 3.374-4.94 4.991-7.446 3.81-5.881 7.81-11.62 12.88-16.511 7.59-7.32 14.53-7.91 23.359-2a64.131 64.131 0 0111.58 10.28c2.87 3.12 5.72 6.27 8.591 9.4-3.7-9.49-6.82-19.24-13.85-26.78-5.165-5.57-10.358-8.3-15.988-8.3-4.093.003-8.417 1.443-13.132 4.28zm-59.415 6.639zm.023 0a1.959 1.959 0 00.711-.153 1.961 1.961 0 01-.711.153zm-1.949-1.456l-.01-.018zm64.23-17.783c-7.2 4.38-12.69 10.53-17.339 17.381 4.68-6.851 10.139-13 17.339-17.34 8.289-4.988 14.727-3.17 20.337 6.376-3.61-6.143-7.564-9.1-12.132-9.1a16.134 16.134 0 00-8.204 2.683zM244.03 234.43c5.266-4.065 10.356-8.149 16.389-10.83-6.033 2.682-11.119 6.765-16.389 10.83zm37.72-10.89zm-106.01-21.5c4.16-33.681 13.56-65.111 39.35-90.17-25.79 25.06-35.19 56.489-39.35 90.17zm-70.652-31.311a11.812 11.812 0 005.151-1.6 11.812 11.812 0 01-5.151 1.6zm5.211-1.632l.071-.039zm.15-.083l.179-.1zm1.2-.66l.07-.038zm.125-.068a11.275 11.275 0 012.478-1.1 11.268 11.268 0 00-2.478 1.101zm2.5-1.1q.066-.015.13-.026-.065.01-.132.025zm.132-.026a2.119 2.119 0 01.222-.027 2.119 2.119 0 00-.228.026zm.347-.03z"/></svg>