<?xml version="1.0" encoding="utf-8"?><svg xmlns="http://www.w3.org/2000/svg" width="209.327" height="262.448" viewBox="0 0 209.327 262.448"><path data-name="Path 13340" d="M98.305 237.12c4.784 2.129 10.038 3.6 13.554 7.933 1.013 1.252 2.089.582 3.237.383a8.714 8.714 0 0110.365 9.193 10.07 10.07 0 01-8.292 1.826c-5.334-1.068-10.365-2.392-16.153-1.108-10.365 2.224-20.9-.167-31.381 0-5.422-2.3-6.035-5.055-2.113-9.567 2.456-2.854 5.621-4.784 9.567-7.016-13.745-5.892-27.466-7.351-41.578-6.745 6.378-2.232 12.948-2.966 19.653-3.4-11.162-4.5-22.866-4.72-34.634-4.712 13.745-3.428 27.482-4.616 41.714-.4-4.664-3.915-9.256-7.9-13.992-11.72a123.615 123.615 0 00-15.3-10.755c-5.39-3.141-10.811-6.235-16.344-9.1s-11.162-5.4-16.607-8.4c21.136 3.6 42.679 5.581 61.391 17.484a147.587 147.587 0 0114.455 10.731c-16.009-35.407-35.288-68.686-61.734-97.436 27.179 11.162 48.547 29.133 63.161 55.012-11.959-37.034-20.41-75.176-37.943-110.455 3.1 1.124 5.932 5.246 12.039 17.891 3.189 6.538 6 13.235 9.456 19.709-8.874-32.545-21.79-63.783-30.448-96.471l4.991 8.284a2.6 2.6 0 001.4 1.786c.231 2 1.738 3.253 2.838 4.7 22.962 30.089 39.7 63.025 46.37 100.641 1.921 10.843 3.349 21.742 4.784 32.689 3.7-26.215 9.631-51.752 22.2-75.359-11.959 35.08-16.56 71.421-19.2 108.191 9.217-39.76 26.35-75.032 57.173-102.65A72.147 72.147 0 01170.61 65.84c-.191 1.746-1.347 2.28-2.145 2.982-7.574 6.673-12.517 15.077-15.81 24.469-9.217 26.31-16.982 53.075-26.486 79.274-1.491 4.1-3.062 8.164-4.385 12.557 21.662-20.562 46.553-34.889 75.878-41.068-23.5 11.3-46.314 23.663-66.047 41.124 23.982-15.675 48.315-30.472 77.711-33.757-30.6 19.605-53.7 47.837-82.734 71.022a133.71 133.71 0 0141.81-6.729c13.849.048 27.506 1.531 40.247 7.973-10.835 1.212-21.654 2.153-33.047 4.106 6.195 1.858 12.334 1.77 17.317 5.533-15.077-.67-30.066-1.021-45.047 1.06 3.508.391 7.04.67 10.524 1.22a48.245 48.245 0 0111.656 2.846c-17.692-.757-34.5-1.315-51.265.853l-.375-1.172 24.4-9.193c6.825-2.392 13.849-4.122 20.849-5.972a151.456 151.456 0 00-52.437 9.264c-1.292.454-2.464 1.746-4.058.877 8.826-6.617 16.089-14.917 24.07-22.436 12.039-11.337 23.966-22.786 35.941-34.187l11.5-9.312a1.969 1.969 0 00-1.706 0c-17.373 8.65-34.187 18.274-49.432 30.3-10.317 8.148-20.554 16.472-26.31 28.846-.271.582-.654 1.268-1.371.351a55.805 55.805 0 013.189-13.921c13.681-34.283 24.716-69.467 37.52-104.037 2.567-6.035 5.143-12.063 7.821-18.338-2.089.175-2.766 1.595-3.636 2.639a195.771 195.771 0 00-18.338 25.011c-18.5 30.767-27.427 64.692-33.063 99.74-.861 5.326.6 10.947-2.161 15.946-2.7-11.082-5.063-22.26-8.188-33.223-3.8-13.315-9.1-26.039-17.476-37.265-1.284-3.428-3.731-6.075-6.043-8.77a104.047 104.047 0 00-19.255-18.027c1.9 3.333 4.194 6.331 6.378 9.424 13.936 19.932 26.645 40.558 33.127 64.389 1.347 4.967 2.041 10.117 4.106 14.885-.319 1.714 1.2 3.388.287 5.39-7.837-14.407-20.219-22.994-34.49-29.356a33.567 33.567 0 00-9.647-3.986c.885 1.722 2.256 2.073 3.341 2.79 13.307 8.77 25.067 19.238 33.079 33.239 2.216 3.867 4.441 5.182 8.419 3.189l6.211-.279 3.062.239c.957 1.044 2.192.439 3.309.542zm-14.351 15.037c4.345.59 8.706.223 13.06.151a21.759 21.759 0 009.217-2.057c1.858-.9 2.519-2.113.47-3.444-5.964-3.883-12.262-6.737-19.653-5.876a26.717 26.717 0 00-16.44 7.662c-.63.63-1.531 1.371-1.124 2.344a2.609 2.609 0 002.639 1.3c3.938-.041 7.884-.057 11.831-.08zM62.491 63.201c-3.317-7.973-8.164-14.957-12.876-22.42-.8 1.491 0 2.264.3 3.062 3.436 9.456 7.008 18.864 10.365 28.343 3.189 8.969 6.163 18.011 9.233 27.02 7.255 24.556 11.21 49.846 16.44 74.873a345.041 345.041 0 00-2.719-37.345c-3.213-25.521-8.706-50.428-20.745-73.493z"/><path data-name="Path 13347" d="M98.305 237.116l-.8-.143a33.525 33.525 0 012.392-10.277c.718.917 1.1.231 1.371-.351 5.74-12.374 15.946-20.729 26.31-28.846 15.268-12.055 32.083-21.678 49.432-30.3a1.969 1.969 0 011.706 0l-11.5 9.376c-9.137 4.106-16.9 10.293-24.716 16.384s-16.465 11.357-22.525 19.257c-6.211 8.092-14.455 14.255-20.323 22.579a24.062 24.062 0 00-1.347 2.321z"/><path data-name="Path 13349" d="M69.667 255.363c10.476-.183 21.048 2.208 31.381 0 5.764-1.244 10.819 0 16.153 1.108a10.07 10.07 0 008.292-1.826c1.858 2.655.8 5.748-2.312 5.23-8.052-1.355-15.292 2.471-22.946 2.567-6.378.08-12.844-.59-18.864-3.532-3.643-1.801-7.989-1.73-11.704-3.547z"/><path data-name="Path 13350" d="M107.171 233.133c1.595.869 2.767-.423 4.058-.877a151.456 151.456 0 0152.437-9.264c-7 1.85-14.024 3.572-20.849 5.972-5.892-.47-11.553 1.013-17.213 2.216s-11.034 2.862-16.552 4.321c-1.379.367-2.711 1.1-4.441.654.073-1.714 1.221-2.44 2.56-3.022z"/><path data-name="Path 13383" d="M94.158 236.435l-3.062-.239c.056-.8.12-1.595.175-2.392 2.759-5.039 1.3-10.66 2.161-15.946 5.637-35.081 14.558-68.973 33.063-99.74a195.773 195.773 0 0118.338-25.011c.869-1.029 1.547-2.464 3.635-2.639-2.679 6.275-5.254 12.3-7.821 18.338-1.858-.112-1.906 1.595-2.5 2.631-4.56 7.837-9.025 15.73-13.554 23.608-.223-.327 0-1.323-.8-.8a4.248 4.248 0 00-.981 1.69c-7.606 15.786-14.088 31.995-17.708 49.208-.71 3.4-2.392 6.785-1.212 10.444-2.017 9.161-4.082 18.338-6.027 27.5a76.207 76.207 0 01-3.707 13.348z"/><path data-name="Path 13384" d="M65.609 163.292c2.982 7.75 5.852 15.539 8.961 23.225 4.457 11.018 9.129 21.949 10.492 33.924.215 1.834.231 3.4-1.164 4.736-2.065-4.784-2.759-9.918-4.106-14.885-6.482-23.831-19.191-44.417-33.127-64.389-2.161-3.094-4.457-6.091-6.378-9.424a104.05 104.05 0 0119.254 18.027c2.336 2.71 4.784 5.357 6.068 8.786z"/><path data-name="Path 13385" d="M49.694 201.211c-.215 1.044.566 1.387 1.268 1.77 11.034 5.892 18.338 15.81 26.924 24.453 2.735 2.774 4.345 6.283 7 9.041-3.986 1.993-6.2.678-8.419-3.189-7.973-14-19.773-24.429-33.079-33.239-1.084-.718-2.456-1.068-3.341-2.791a33.569 33.569 0 019.647 3.955z"/><path data-name="Path 13386" d="M62.488 63.241c-1.2 1.595-.135 3.07.231 4.545 2.583 10.421 5.358 20.793 6.8 31.461-3.07-9.009-6.043-18.05-9.233-27.02-3.365-9.48-6.936-18.888-10.365-28.343-.295-.8-1.084-1.595-.3-3.062 4.706 7.462 9.553 14.479 12.867 22.419z"/><path data-name="Path 13387" d="M83.954 252.156c.8-1.427 1.595-2.607 3.412-3.046s4.784-.191 4.648-3.189c-.159-2.8-2.272-4.345-4.967-4.975 7.391-.861 13.689 1.993 19.653 5.876 2.049 1.331 1.387 2.543-.47 3.444a21.76 21.76 0 01-9.217 2.057c-4.353.057-8.714.424-13.059-.167z"/><path data-name="Path 13390" d="M124.592 134.98c-8.77 19.565-15.2 39.912-20.729 60.594-1.2-3.66.5-7.04 1.212-10.444 3.62-17.213 10.1-33.422 17.708-49.208a4.249 4.249 0 01.981-1.69c.812-.54.605.421.828.748z"/></svg>