<?xml version="1.0" encoding="utf-8"?><svg xmlns="http://www.w3.org/2000/svg" width="132.096" height="70.803" viewBox="0 0 132.096 70.803"><path data-name="Path 13592" d="M101.093 47.948s-22.249-6.008-.945-13.795c0 0-17.41-1.339-1.558-8.247 0 0-6.619-1.654-1.929-7.387 0 0-9.307 5.4-10.975-2.277 0 0-14.74 25.754-7.287-5.951 0 0-7.4 12.292-6.675-4.617 0 0-4.227 3.949-5.729-5.674-1.5 9.623-4.061 7.621-4.061 7.621-.778 10.012-6.786 2.67-6.786 2.67 7.676 32.6-8.009 6.786-8.009 6.786-3.338 8.343-10.235-.779-10.235-.779 4.9 9.233-5.006 9.567-5.006 9.567 8.121 6.382 1.5 8.288 1.5 8.288 21.637 6.174-.946 16.187-.946 16.187 14.017-3.449 9.345 3.337 9.345 3.337a90.385 90.385 0 0113.594-2.461 29.407 29.407 0 00-1.636-5.815c-.6-1.292-4.183-3.423-4.958-4.646 1.339.939 4.464 2.8 5.5 3.938a19.479 19.479 0 013.628 6.265q.635-.057 1.288-.109c-1.285-8.331-5.491-19.082-11.77-19.115 0 0 1.663-.518 4.25.875 2.708 1.459 6.075 6.135 7.343 8.657a31.991 31.991 0 012.909 9.4c.382-.021.766-.041 1.156-.059-.014-.133-.03-.265-.043-.4-.247-2.5-.327-5.028-.7-7.515-.62-4.155-2.1-7.988-5.5-11 4.412 2.056 6.13 5.855 7.762 9.868.146-16.08-2.057-18.517-2.057-18.517 3.74 3.59 5.062 17.535 3.242 27.474h.135a1.833 1.833 0 011.045-.033c.111-.847.219-1.694.312-2.543.367-3.318.309-6.678.72-9.99.256-2.065 1.191-9.594 2.836-11.344.157.038-.848 1.514-1.391 10.09-.1 1.643-.236 3.285-.33 4.928-.089 1.536-.153 3.072-.229 4.608 1.824-5.377 3.472-15.626 12.66-16.313-8.688 1.562-9.671 12-10.509 17.648-.146.985-.282 1.972-.422 2.958q.966.021 1.949.06c.232-1.235.481-2.467.8-3.684a26.37 26.37 0 012.861-6.849 6.784 6.784 0 018.247-3.258c-5.071-.042-5.942 2.287-7 4.253a24.486 24.486 0 00-2.513 9.663c.366.023.732.047 1.1.074 1.638-4.068 3.922-8.218 9.679-9.178-4.76 1.472-6.471 5.566-7.545 9.359a95.531 95.531 0 0115.65 2.765s-1.611-4.838 7.233-5.783z"/><g data-name="Group 509"><g data-name="Group 508"><path data-name="Path 13593" d="M.264 61.683A1.441 1.441 0 000 60.807l1.536.012a1.479 1.479 0 00-.18.366 2.62 2.62 0 00-.06.69l-.012 2.448 2.268-2.52a1.336 1.336 0 00.36-.648v-.084a1.283 1.283 0 00-.024-.252h1.8a2.532 2.532 0 00-.558.366q-.186.174-.522.534L2.244 64.31q.7.972 2.484 3.156.552.66 1.56 1.728h-1.44l-3.54-4.548v3.924a1.522 1.522 0 00.024.275.952.952 0 00.18.349H.06a1.791 1.791 0 00.162-.282 1.3 1.3 0 00.042-.414z"/><path data-name="Path 13594" d="M14.064 69.219a1.1 1.1 0 00.072-.36v-.1l-.12-.348-1.08-2.412H9.468l-1.116 2.688a.813.813 0 00-.084.288.709.709 0 00.048.24h-1.38a4.863 4.863 0 00.39-.432 2.411 2.411 0 00.294-.528l2.964-6.78a.705.705 0 00.048-.3v-.065a2.4 2.4 0 00-.024-.312h1.14l3.072 6.9a9.147 9.147 0 00.564 1.08l.324.444zm-2.892-7.164l-1.428 3.336h2.916z"/><path data-name="Path 13595" d="M23.16 68.451a1.516 1.516 0 00.192.744h-1.418a.912.912 0 00.182-.372V64.81h-4.5v3.36a3.184 3.184 0 00.042.666 1.516 1.516 0 00.188.378h-1.454a1.756 1.756 0 00.149-.264 1.154 1.154 0 00.055-.432v-6.9a1.337 1.337 0 00-.06-.45 1.652 1.652 0 00-.192-.354h1.478a3.414 3.414 0 00-.139.324 2.072 2.072 0 00-.08.684v2.328h4.513v-2.44a2.069 2.069 0 00-.047-.528.942.942 0 00-.22-.348h1.491a1.893 1.893 0 00-.138.378 3.783 3.783 0 00-.042.714z"/><path data-name="Path 13596" d="M31.103 69.219a1.105 1.105 0 00.073-.36v-.1q-.014-.036-.12-.348l-1.08-2.412h-3.468l-1.116 2.688a.792.792 0 00-.084.288.731.731 0 00.047.24h-1.379a4.864 4.864 0 00.39-.432 2.5 2.5 0 00.294-.528l2.964-6.78a.724.724 0 00.047-.3v-.065a2.24 2.24 0 00-.024-.312h1.14l3.071 6.9a9.147 9.147 0 00.564 1.08l.325.444zm-2.892-7.164l-1.424 3.336h2.916z"/><path data-name="Path 13597" d="M39.564 69.195h-1.02l.012-.024h-4.332v1.632h-.768v-2.184h.936a2.073 2.073 0 00.552-1.68v-4.668a1.644 1.644 0 00-.048-.456.84.84 0 00-.06-.12 3.349 3.349 0 00-.372.276l.444-1.14h5.052a2.061 2.061 0 00-.156.276 1.229 1.229 0 00-.048.432v6.828q0 .132.012.252h.576v.552h-.036v1.632h-.744zm-4.276-.576h3.424q.012-.18.012-.468l-.012-6.636-2.82.012v5.268a3.023 3.023 0 01-.391 1.524z"/><path data-name="Path 13598" d="M48.087 69.063a7.389 7.389 0 01-2.4.312 4.7 4.7 0 01-3.264-1.188 4.007 4.007 0 01-1.4-3.12v-.036a3.952 3.952 0 011.38-3.078 5 5 0 013.456-1.231h.036a5.856 5.856 0 012.064.373v.888a4.265 4.265 0 00-2.04-.564h-.108a3.635 3.635 0 00-2.646 1.038 3.538 3.538 0 00-1.074 2.61v.071a3.3 3.3 0 001.1 2.569 3.846 3.846 0 002.628.936h.156a4.648 4.648 0 002.616-.816z"/><path data-name="Path 13599" d="M49.487 61.683a1.447 1.447 0 00-.264-.876l1.536.012a1.479 1.479 0 00-.18.366 2.62 2.62 0 00-.06.69l-.012 2.448 2.267-2.52a1.331 1.331 0 00.361-.648v-.084a1.364 1.364 0 00-.024-.252h1.8a2.567 2.567 0 00-.559.366c-.124.116-.3.294-.521.534l-2.364 2.592q.7.972 2.484 3.156.55.66 1.56 1.728h-1.44l-3.54-4.548v3.924a1.522 1.522 0 00.024.275.937.937 0 00.18.349h-1.448a1.97 1.97 0 00.162-.282 1.3 1.3 0 00.042-.414z"/><path data-name="Path 13600" d="M63.996 68.463a1.86 1.86 0 00.036.414 1.106 1.106 0 00.179.354h-1.235a3.065 3.065 0 00.2-1v-6.072l-6.889 7.451.013-7.944a2.4 2.4 0 00-.144-.828h1.1a3.4 3.4 0 00-.108.432 7.484 7.484 0 00-.036.96v5.184l5.856-6.564h1.4a.674.674 0 00-.384.636z"/><path data-name="Path 13601" d="M72.852 68.463a1.86 1.86 0 00.036.414 1.106 1.106 0 00.179.354h-1.235a3.065 3.065 0 00.2-1v-6.072l-6.885 7.451.013-7.944a2.4 2.4 0 00-.144-.828h1.1a3.4 3.4 0 00-.108.432 7.484 7.484 0 00-.036.96v5.184l5.856-6.564h1.4a.672.672 0 00-.384.636zm-3.7-7h-.744l.8-1.284h1.163z"/><path data-name="Path 13602" d="M73.919 65.138v-.815h2.58v.815z"/><path data-name="Path 13603" d="M77.436 61.539a1.28 1.28 0 00-.048-.432 2.209 2.209 0 00-.157-.276h5.064l.445 1.14a2.059 2.059 0 00-.571-.378 1.409 1.409 0 00-.449-.066l-3.228-.012-.013 6.636a3.529 3.529 0 00.042.7 1.815 1.815 0 00.139.349h-1.473a1.374 1.374 0 00.252-.828z"/><path data-name="Path 13604" d="M90.492 69.219a1.1 1.1 0 00.072-.36v-.1l-.12-.348-1.08-2.412h-3.468l-1.116 2.688a.813.813 0 00-.084.288.709.709 0 00.048.24h-1.38a4.86 4.86 0 00.39-.432 2.453 2.453 0 00.294-.528l2.964-6.78a.722.722 0 00.048-.3v-.065a2.4 2.4 0 00-.024-.312h1.14l3.072 6.9a9.317 9.317 0 00.563 1.08l.325.444zM87.6 62.055l-1.428 3.336h2.915z"/><path data-name="Path 13605" d="M97.979 66.699v.084a2.269 2.269 0 01-.93 1.914 3.589 3.589 0 01-2.226.7 4.558 4.558 0 01-2.075-.4v-.984a3.246 3.246 0 002.063.684 2.283 2.283 0 001.537-.534 1.835 1.835 0 00.624-1.47 1.518 1.518 0 00-.624-1.236 2.54 2.54 0 00-1.6-.528 2.305 2.305 0 00-.839.168v-.84a2.485 2.485 0 00.6.083 3.159 3.159 0 001.788-.431 1.339 1.339 0 00.637-1.164v-.035a1.266 1.266 0 00-.535-1.014 2.128 2.128 0 00-1.3-.378 2.654 2.654 0 00-1.393.36v-.912a4.191 4.191 0 011.3-.18 3.873 3.873 0 011.956.432 1.71 1.71 0 01.913 1.56v.024a1.973 1.973 0 01-1.3 1.92l-.193.084.277.132a2.031 2.031 0 011.32 1.961z"/><path data-name="Path 13606" d="M107.399 64.899v.1a3.972 3.972 0 01-1.283 3.012 4.335 4.335 0 01-3.084 1.212h-.133a4.374 4.374 0 01-3.053-1.314 4.1 4.1 0 01-1.254-3.006 4 4 0 011.3-3 4.3 4.3 0 013.078-1.248h.131a4.308 4.308 0 013.048 1.29 4.188 4.188 0 011.25 2.954zm-1.044 0a3.639 3.639 0 00-.96-2.472 3.133 3.133 0 00-2.363-1.056h-.036a3.041 3.041 0 00-2.358 1.026 3.655 3.655 0 00-.954 2.478v.072a3.61 3.61 0 00.888 2.436 3.121 3.121 0 002.351 1.092h.1a3.119 3.119 0 002.346-1.05 3.555 3.555 0 00.986-2.526z"/><path data-name="Path 13607" d="M114.863 68.451a1.517 1.517 0 00.193.744h-1.418a.9.9 0 00.181-.372V64.81h-4.5v3.36a3.159 3.159 0 00.043.666 1.516 1.516 0 00.188.378h-1.454a1.848 1.848 0 00.149-.264 1.175 1.175 0 00.055-.432v-6.9a1.333 1.333 0 00-.061-.45 1.643 1.643 0 00-.191-.354h1.477a3.446 3.446 0 00-.138.324 2.078 2.078 0 00-.079.684v2.328h4.511v-2.44a2.081 2.081 0 00-.046-.528.955.955 0 00-.22-.348h1.491a2.035 2.035 0 00-.139.378 3.874 3.874 0 00-.042.714z"/><path data-name="Path 13608" d="M116.327 69.219a.635.635 0 01-.636-.636.6.6 0 01.186-.438.613.613 0 01.45-.186.634.634 0 01.624.624.612.612 0 01-.185.45.6.6 0 01-.439.186z"/><path data-name="Path 13609" d="M118.763 68.331a2.175 2.175 0 00.18.888h-1.44a1.26 1.26 0 00.216-.408 4.042 4.042 0 00.024-.564v-6.624a2.006 2.006 0 00-.036-.5 1.617 1.617 0 00-.168-.306h2.64a2.5 2.5 0 011.753.66 1.969 1.969 0 01.719 1.548v.06a2.1 2.1 0 01-.719 1.572 2.4 2.4 0 01-1.717.636h-.071a2.84 2.84 0 01-1.381-.336zm2.377-6.48a2.206 2.206 0 00-1.393-.421h-.18a2.369 2.369 0 00-.8.109v3.071a1.831 1.831 0 00.9.24h.084a1.921 1.921 0 001.344-.505 1.618 1.618 0 00.492-1.211v-.072a1.694 1.694 0 00-.447-1.211z"/><path data-name="Path 13610" d="M132.096 64.899v.072a2.925 2.925 0 01-1.288 2.412 4.809 4.809 0 01-2.565.948q.014.336.027.444a1.207 1.207 0 00.19.432h-1.473a1.3 1.3 0 00.216-.744v-.12a4.892 4.892 0 01-2.652-1.032 3.015 3.015 0 01-1.247-2.412 2.947 2.947 0 011.3-2.4 4.815 4.815 0 012.591-.984 1.705 1.705 0 00-.251-.684h1.543a1.98 1.98 0 00-.24.7 4.753 4.753 0 012.6 1 3.08 3.08 0 011.249 2.368zm-6.757-2a2.623 2.623 0 00-.947 1.98v.06a2.588 2.588 0 00.887 1.956 3.361 3.361 0 001.92.852v-5.652a3.379 3.379 0 00-1.86.8zm5.713 2a2.637 2.637 0 00-.964-1.98 3.387 3.387 0 00-1.845-.816v5.628a3.387 3.387 0 001.809-.8 2.587 2.587 0 001-2.032z"/></g></g></svg>