<?xml version="1.0" encoding="utf-8"?><svg xmlns="http://www.w3.org/2000/svg" width="389.06" height="421.524" viewBox="0 0 389.06 421.524"><path d="M266.58 269.193a44.897 44.897 0 01-1.984 27.334 63.813 63.813 0 00-4.357 28.02 25.803 25.803 0 002.797 10.519 50.106 50.106 0 00-10.02-6.017c-6.998-2.949-13.88-3.604-20.276 1.477a38.079 38.079 0 00-11.487 15.741 46.579 46.579 0 00-3.098 11.802 5.826 5.826 0 01-1.46-2.01 31.755 31.755 0 00-6.609-8.067c-5.271-4.476-10.775-4.432-15.98.206a74.247 74.247 0 00-9.25 10.279 200.224 200.224 0 00-17.105 26.725c-.253.466-.534.92-.8 1.38 1.108-4.603 2.315-9.187 3.306-13.818 1.846-8.627 3.687-17.266 3.508-26.167-.138-6.722-1.913-9.491-10.343-11.015-2.988-.536-5.996-.098-9.124.377l1.474-1.375c8.226-7.613 16.176-15.475 22.41-24.884a27.803 27.803 0 004.179-8.966c1.348-5.687-1.993-9.534-7.813-8.864-4.147.474-7.825 2.3-11.382 4.336-10.503 6.018-19.642 13.828-28.593 21.882-2.154 1.937-4.246 3.945-6.58 6.117.26-2.235.594-4.221.7-6.221.257-4.926-.61-9.562-3.865-13.501-2.736-3.311-6.138-4.649-10.42-3.615a35.188 35.188 0 00-10.331 4.63 108.947 108.947 0 00-16.118 12.736c-.14-.935.458-1.405.81-1.933a37.816 37.816 0 005.676-11.778c1.611-6.603-.662-10.662-7.16-12.647-6.574-2.006-13.384-2.417-20.191-2.73-8.159-.365-16.315-.207-24.596-.115.706-.286 1.41-.576 2.117-.853a245.49 245.49 0 0031.993-14.982 61.414 61.414 0 0010.753-7.527c5.343-4.826 6.125-9.715 2.5-16.009-2.84-4.936-7.035-8.564-11.58-11.855-.495-.36-1.206-.522-1.44-1.26 4.808 1.11 9.557 2.302 14.349 3.285 12.25 2.51 24.558 4.662 37.148 4.07a30.26 30.26 0 009.898-1.918c6.446-2.582 8.309-8.476 4.516-14.305-2.638-4.061-6.376-6.974-10.38-9.556-8.764-5.663-18.348-9.579-28.131-13.046-1.449-.513-2.901-1.002-4.407-1.52.377-.746 1.084-.777 1.624-1.037 5.237-2.494 10.144-5.434 13.653-10.214 3.92-5.35 3.697-10.877-.684-15.876-3.684-4.205-8.328-7.17-13.201-9.798a77.91 77.91 0 00-21.3-8.225c-.862-.176-1.743-.269-2.86-.44 1.424-.763 2.658-1.418 3.873-2.086a18.291 18.291 0 003.585-2.606c4.38-3.98 5.021-8.302 1.89-13.327-3.407-5.47-7.831-10.098-12.296-14.686-3.802-3.902-7.796-7.613-11.825-11.27a2.652 2.652 0 01-.832-1.405c1.352.749 2.708 1.484 4.05 2.249a110.1 110.1 0 0022.197 9.846 32.935 32.935 0 0010.322 1.567 12.615 12.615 0 008.428-3.218c4.798-4.235 8.213-9.146 8.403-15.954 1.316 2.48 2.6 4.979 3.96 7.434a85.788 85.788 0 0011.696 16.914 25.685 25.685 0 007.499 5.888 9.486 9.486 0 006.903.658c8.217-2.214 13.295-7.81 16.642-15.306.143-.33.259-.667.414-1.067.795.3.948 1.049 1.288 1.607 5.84 9.595 12.25 18.746 20.413 26.548 3.741 3.58 7.738 6.837 12.844 8.317 7.095 2.054 12.327-.667 14.58-7.701 1.89-5.8 1.762-11.801 1.289-17.781-1.192-15.078-4.888-29.656-9.236-44.073a5.07 5.07 0 01-.283-2.034c.89.802 1.77 1.634 2.701 2.407 3.96 3.27 8.124 6.205 13.43 6.774a10.921 10.921 0 0011.267-5.524c3.045-5.044 4.454-10.68 5.643-16.377a227.956 227.956 0 003.939-32.236c.035-.583-.268-1.35.592-1.66a191.672 191.672 0 006.547 24.693 79.861 79.861 0 006.72 15.642c3.997 6.803 7.07 8.065 14.695 5.95a32.236 32.236 0 0012.217-6.685c.443-.375.874-.763 1.649-1.443-1.484 3.603-2.868 6.759-4.083 9.985-2.052 5.443-3.772 10.978-4.01 16.855a21.886 21.886 0 00.056 2.835c.485 5.578 4.197 9.062 9.833 9.17 5.198.098 9.842-1.809 14.356-4.11a5.189 5.189 0 011.745-.661l-2.529 3.514c-6.842 9.537-13.197 19.373-18.015 30.115-2.304 5.15-4.265 10.42-4.543 16.15a16.069 16.069 0 00.36 4.41 9.363 9.363 0 0013.492 6.566c4.01-1.9 6.992-5.03 9.738-8.396 5.347-6.555 9.43-13.89 13.145-21.445.315-.652.633-1.262.988-1.97.65.863.19 1.694.167 2.467a24.193 24.193 0 00.713 7.214c1.38 4.927 4.683 7.341 9.813 7.207a28.797 28.797 0 007.12-1.404 226.359 226.359 0 0033.388-13.065 8.601 8.601 0 012.761-.935l-1.636 1.431c-9.608 8.38-18.928 17.053-26.495 27.377a35.748 35.748 0 00-5.911 11.063 8.938 8.938 0 002.339 9.594c5.575 5.566 12.009 9.356 19.91 10.422a8.177 8.177 0 01.872.168 1.145 1.145 0 01.309.222c-.516.55-1.215.41-1.8.537-8.122 1.57-16.041 3.729-23.189 8.088-3.8 2.324-7.116 5.149-8.928 9.356-3.514 8.162-.005 18.692 7.877 23.85a27.655 27.655 0 008.082 3.48c-.03.577-.425.404-.66.431a53.215 53.215 0 00-20.911 6.935 81.342 81.342 0 01-41.2 11.045 16.278 16.278 0 01-4.229-.446c-1.566-1.111-.834-2.737-.438-3.857 1.648-4.498 3.596-8.883 5.412-13.318a2.031 2.031 0 012.37-1.352c2.3.202 4.61.32 6.92.383a191.357 191.357 0 0027.158-1.063c1.996-.223 3.986-.533 5.976-.802a.743.743 0 00-.718-.385 179.682 179.682 0 01-36.671-1.483c-2.437-.343-2.568-.49-1.485-2.699 3.994-8.279 8.425-16.32 13.15-24.197a7.536 7.536 0 014.054-3.6 242.606 242.606 0 0127.573-8.804c3.665-.887 7.38-1.438 11.085-2.079-6.361-.189-12.576.874-18.785 2.06s-12.236 2.871-18.435 4.228a229.177 229.177 0 0135.258-42.864c-8.568 6.972-16.024 15.034-23.508 23.725a105.418 105.418 0 01-1.513-28.68 7.97 7.97 0 00-.766 3.475 101.801 101.801 0 00.337 25.516 3.485 3.485 0 01-.77 3.025 265.431 265.431 0 00-22.065 31.786c-.215.362-.31.937-1.056.822a135.865 135.865 0 01-1.162-38.312 19.402 19.402 0 00-1.24 5.19 137.116 137.116 0 00-.73 37.35 5.294 5.294 0 01-.65 3.357q-5.789 10.597-10.852 21.587c-.211.46-.153 1.284-.735 1.275-.739.009-.68-.857-.816-1.379-2.642-10.027-4.958-20.128-7.158-30.264-2.378-10.944-4.18-22-6.347-32.992-1.181-5.974-1.499-11.707.951-17.415.792-1.842 1.24-3.83 1.984-5.696 4.95-12.437 11.007-24.29 19.27-34.88 2.17-2.782 4.459-5.47 6.69-8.205-14.146 13.369-23.928 29.66-31.413 47.484a2.371 2.371 0 01-.447-1.077q-3.611-25.715-5.295-51.727a4.063 4.063 0 011.119-3.2q9.415-10.651 18.758-21.375c.355-.405.672-.843 1.006-1.269a7.157 7.157 0 00-.242-.183l-20.72 21.285c-.634-6.465-.456-12.47-1.02-18.422a8.178 8.178 0 00-.245 2.287c-.05 10.783.408 21.555.904 32.323.027.545.384 1.315-.333 1.586-.542.222-.921-.427-1.312-.766q-11.446-10.015-21.9-21.045a2074.46 2074.46 0 01-7.118-7.556 1.567 1.567 0 00.6 1.32 299.235 299.235 0 0027.53 28.96 9.29 9.29 0 013.281 6.848c.865 13.646 2.297 27.241 4.156 40.79q2.368 17.255 5.393 34.406c2.631 14.758 5.687 29.426 9.303 43.97.142.556.595 1.32.11 1.664-.639.45-1.156-.343-1.624-.727q-17.428-14.207-35.192-28.007a4.893 4.893 0 01-1.861-2.903c-3.916-16.699-8.14-33.362-12.808-49.902-.7-2.484-1.44-4.954-2.238-7.686a2.44 2.44 0 00-.001 1.995c1.028 4.624 2.18 9.227 3.11 13.872 2.47 12.313 4.857 24.648 7.276 36.97.134.657.58 1.554-.122 1.962-.585.343-1.097-.493-1.625-.804-.05-.033-.094-.073-.144-.11q-21.035-16.374-42.545-32.157a14.223 14.223 0 01-4.995-6.658 110.022 110.022 0 01-6.932-28.762c-.26-2.504-.43-5.015-.64-7.534a106.667 106.667 0 005.972 37.831c-10.637-7.534-21.124-15.061-31.645-22.547-1.32-.939-2.97-1.554-3.937-2.947a116.603 116.603 0 01-10.57-18.068c-1.205-2.657-2.385-5.33-3.578-7.994a117.424 117.424 0 009.744 23.227l-21.35-14.265-.24.355c7.565 5.19 15.105 10.415 22.43 15.954a71.263 71.263 0 01-7.051-2.383c-2.372-.97-4.89-1.462-7.26-2.36a31.069 31.069 0 00-7.145-2.07c-2.466-.305-4.756-1.483-7.292-1.128 1.429.383 2.905.547 4.314.95a178.161 178.161 0 0123.957 8.838c2.895 1.314 6.099 1.97 8.71 3.87q17.602 12.826 34.863 26.1a11.112 11.112 0 013.07 2.708c-13.993.7-27.684 1.35-41.177 3.924a1.273 1.273 0 00.887.134c13.66-1.81 27.413-2.014 41.15-2.123a5.172 5.172 0 013.49 1.002q14.844 11.736 29.74 23.416c.54.425 1.564.73 1.421 1.423-.175.848-1.28.654-1.975.763a337.698 337.698 0 01-41.184 4.05c-2.423.068-4.844.082-7.27.122a2.215 2.215 0 001.207.36 295.235 295.235 0 0051.28-1.471c2.783-.307 4.14.8 5.804 2.16q15.397 12.595 30.786 25.216c1.967 1.633 3.902 3.3 6.017 5.103a6.6 6.6 0 01-3.007-.03q-20.757-1.431-41.562-.969c-2.222.049-4.582.686-6.708-.105-4.113-1.534-8.375-2.596-12.565-3.814-12.114-3.532-24.356-6.641-36.546-9.902-.343-.093-.737-.368-1.253.253 13.762 4 26.98 9.074 40.436 13.844-.528.595-.968.45-1.357.479-4.193.304-8.397.535-12.588.888-13.403 1.14-26.765 2.66-40.022 4.984-3.059.535-5.931.884-8.559-1.246a11.745 11.745 0 00-2.035-1.087c-11.705-6.388-23.67-12.258-35.62-18.175-.201-.099-.452-.335-.735-.003 6.49 3.525 12.957 7.001 19.385 10.543s12.773 7.06 18.913 11.166c-14.98 2.878-29.69 6.37-44.23 10.595a3.04 3.04 0 001.405-.066c5.472-1.312 10.939-2.658 16.412-3.948 2.688-.634 2.816-.519 2.03 2.039a144 144 0 01-6.885 18.254c-.71 1.55-1.433 3.094-2.15 4.64a15.545 15.545 0 002.38-3.548 146.037 146.037 0 009.164-20.726 3.067 3.067 0 012.707-2.12c14.778-2.943 29.63-5.31 44.594-6.92a54.274 54.274 0 018.512-.663 95.22 95.22 0 00-28.546 33.7.75.75 0 00.556-.422 98.173 98.173 0 0127.203-30.357c2.082-1.53 4.011-3.455 6.936-3.68 10.992-.833 21.983-1.442 33.002-1.599a402.109 402.109 0 0147.374 1.794 11.885 11.885 0 013.929.55 4.732 4.732 0 01-.56.586 293.417 293.417 0 00-23.985 18.627 4.328 4.328 0 01-2.948 1.001 178.487 178.487 0 00-26.873 2.333 50.418 50.418 0 00-10.478 2.52.526.526 0 00.705.294c10.661-2.075 21.434-2.123 32.229-1.744.499.02 1.167-.232 1.435.385.198.422-.332.702-.629.97a266.224 266.224 0 00-22.77 23.444 4.267 4.267 0 01-2.21 1.38 131.71 131.71 0 00-21.804 8.556c-.905.434-1.76.977-2.632 1.48s-1.704 1.016-2.55 1.504a129.015 129.015 0 0125.525-8.883c-6.443 8.433-12.587 16.95-17.47 26.319a199.51 199.51 0 0131.852-38.855 139.333 139.333 0 00-1.638 17.094 76.89 76.89 0 001.077 16.96c0-3.314-.23-6.611-.242-9.912a123.576 123.576 0 012.868-24.63 6.784 6.784 0 012.3-4.06c3.23-2.78 6.32-5.722 9.52-8.545 1.367-1.21 3.132-2.07 4.337-3.31 3.094-3.162 6.773-5.547 10.136-8.326 1.22-1.013 1.552-.516 1.748.745a224.945 224.945 0 005.05 23.808 50.929 50.929 0 003.537 9.927 25.503 25.503 0 00-.649-2.866c-2.728-10.792-3.64-21.833-4.664-32.868a3.791 3.791 0 012.019-3.932q5.43-3.531 10.75-7.23c2.179-1.539 2.72-1.526 4.599.542z"/></svg>