<?xml version="1.0" encoding="utf-8"?><svg xmlns="http://www.w3.org/2000/svg" width="248.604" height="238.673" viewBox="0 0 248.604 238.673"><path d="M122.417.32c.761.339 1.468.8 2.2 1.2a23.27 23.27 0 006.765 4.857c1.852 1.758 4.289 2.5 6.457 3.685a7.156 7.156 0 003.854 1.016 16.818 16.818 0 002.022 0c3.864-.478 6.293 1.355 7.839 4.7-.805-.169-1.855-1.2-2.345.078-.727 1.893-2.2 3.265-3.058 5.043a55.2 55.2 0 00-5 15.739c-.119.779.028 1.714-.9 2.439a11.908 11.908 0 01-2.766-3.726c-1.652-3.333-3.337-6.655-4.89-10.036-.615-1.355-1.662-1.29-2.759-1.246a2.3 2.3 0 00-2.066 1.92l.018-.01a2.309 2.309 0 012.055-1.883c1.1-.044 2.144-.095 2.759 1.246 1.553 3.387 3.239 6.7 4.89 10.036a11.9 11.9 0 002.766 3.726c.931-.725.785-1.659.9-2.439a55.181 55.181 0 015-15.739c.863-1.778 2.338-3.15 3.058-5.043.489-1.274 1.539-.248 2.344-.078a35.89 35.89 0 003.116 3.726 3.21 3.21 0 004.778.034c2-1.693 3.84-3.62 6.273-4.742 2.166-.6 4.107-.476 5.415 1.658h.014c2.267 2.323 3.6 5.253 5.2 8.007.364.63.737 1.253 1.108 1.88q1.265 2.84 2.536 5.682h.026a144.439 144.439 0 019.756 24.566c.061.213.092.44.149.657.826 3.181 1.787 3.631 4.839 2.3a2.148 2.148 0 01.5-.1 1.6 1.6 0 00.637 2.185 1.6 1.6 0 01-.626-2.178 19.444 19.444 0 013.058-2.31c-.632 1.453.092 2.188 1.379 2.676a20.219 20.219 0 0015.292-.21c.5-.207.961-.63 1.811-.339a20.491 20.491 0 01-1.824 6.981v-.169c0-1.453 0-2.169-.364-2.432.35.273.351.991.353 2.426v.17a66 66 0 01-3.728 10.168 60.59 60.59 0 01-3.385 9.452v.022l-7.85 22.337-.493-.064c-.69-5.1-1.754-10.131-2.905-15.14l-.339.338.006.014c.6 3.485 1.23 6.964 1.784 10.459.34 2.157.6 4.335.822 6.51a4.861 4.861 0 01-.89 3 90.15 90.15 0 01-3.056 8.8l.008-.008c-1.661 4.914-3.3 9.822-5 14.737q-3.71 10.72-7.5 21.413c-.177.5-.17 1.135-.788 1.4-.6-.237-.581-.8-.71-1.27q-5.64-20.745-12.172-41.23a11.325 11.325 0 01-.337-1.435l-.02-.032c-1.118-3.285-2.148-6.608-3.4-9.846-.506-1.317.724-2.178.557-3.36a1.68 1.68 0 00-.829-.12c-.559.008-1.093.017-1.09-.9 0-.018 0-.036-.007-.054-1.735-3.961-2.74-8.18-4.364-12.184-.3-.728-.469-1.514-.829-2.208-1.438-2.772-1.116-5.517.078-8.256v-.981c0-.234.017-.467.027-.7 1.475-2.886 1.461-6.368 3.422-9.145.68.566.6 1.182.741 1.71 1.658 6.364 3.187 12.779 6.116 18.723a8.253 8.253 0 01.984 4.653 8.4 8.4 0 00-.981-4.684c-2.926-5.944-4.455-12.359-6.116-18.723-.136-.528-.044-1.145-.741-1.71-1.961 2.784-1.947 6.266-3.422 9.145-.26-.932-1.045-1.665-1.019-2.7h-.024c-.024 1.04.765 1.775 1.019 2.71l-.031.7c-.883.071-.975.782-1.189 1.423s-.112 1.355-.928 1.934l-3.242-8.156-.571.213c1.512 5.331 3.993 10.354 5.315 15.736.826 2.219 1.72 4.4 2.467 6.655 6.8 20.39 12.984 40.962 18.394 61.766a4.188 4.188 0 01.17 3.048c-9.994-7.452-20.134-14.418-30.583-20.945l-12.644-7.926a5.071 5.071 0 01-2.212-2.235c-3.113-7.075-6.371-14.086-9.892-20.972a962.777 962.777 0 00-3.677-7.092l-.391.19c4.469 9.04 8.8 18.134 12.913 27.861-.829-.41-1.2-.552-1.519-.755-7.588-4.826-15.407-9.267-23.182-13.782a5.057 5.057 0 01-1.7-1.829q-5.63-8.955-11.288-17.907c-1.56-2.462-3.15-4.9-4.727-7.35l-.411.251 14.836 24.292-.408.386c-10.316-6-20.66-11.956-31.449-17.1 12.671 7.611 25.4 15.106 37.909 23.032a331.57 331.57 0 01-26.308 1.277h-.02v.61c5.88-.118 11.763-.085 17.629-.413 3.333-.186 6.674-.044 10-.366a3.21 3.21 0 012.062.616q9.936 6.185 19.872 12.379a2.44 2.44 0 011.359 1.375l-36.849 3.81a9.408 9.408 0 002.719.081q6.922-.593 13.844-1.209c5.848-.518 11.707-.986 17.548-1.6 2.987-.312 5.716-.3 8.257 1.778a62.46 62.46 0 006.715 4.261c.387.322.754.677 1.169.962 7.136 4.891 14.408 9.578 21.347 14.747a47.072 47.072 0 015.281 4.146c-.741-.048-1.064-.075-1.386-.088-3.5-.149-7.014-.566-10.5-.383-5.637.291-11.3.264-16.922.884-5.437.6-10.915.938-16.362 1.531-4.6.5-9.175 1.2-13.776 1.826a3.613 3.613 0 01-2.552-.677c-2.324-1.5-4.632-3.048-7.041-4.4-2.022-1.148-3.969-2.5-6.314-3.048a133.025 133.025 0 0113.117 8.393l-18.35 2.835c-1.522.088-3.058.108-4.563.278-3.272.359-6.392.369-9.07-2.066a19.962 19.962 0 00-3.85-2.462 19.587 19.587 0 00-5.131-2.239l.04.024a19.735 19.735 0 015.084 2.228 20.086 20.086 0 013.85 2.462c2.678 2.435 5.8 2.425 9.07 2.066 1.512-.169 3.041-.19 4.563-.278.265.584.786.655 1.335.677l.007-.006c3.473-.474 6.942-.958 10.415-1.426 1.788-.241 1.954-.034 1.39 1.616a2.063 2.063 0 00-.235 1.565c1.019-.244 1.111-1.175 1.312-1.9a2.418 2.418 0 012.341-1.968c8.95-1.27 17.938-2.141 26.933-3.008a242.179 242.179 0 0129.111-1.3 48.591 48.591 0 019.249 1.016 2.468 2.468 0 012 1.253c-12.233 6.016-23.019 14.137-33.916 22.124a6.263 6.263 0 01-1.434 1.4c-5.393 4.356-10.6 8.928-15.811 13.5-2.46 2.164-4.72 4.522-7.136 6.723-4.676 4.248-9.1 8.752-13.433 13.355a93.749 93.749 0 01-10.741 10.28 2.457 2.457 0 01-2.657.579c-1.658-.8-3.17-1.047-4.5.545.177-3.766 1.583-7.238 2.606-10.8.873-3.028 2.063-5.968 2.654-9.081.615-3.248-.319-4.372-3.67-4.4a33.43 33.43 0 00-7.021 1.037 142.8 142.8 0 01-20.389 3.248 31.647 31.647 0 01-8.043-.965c-3.653-1.114-6.65-2.842-7.108-7.153-.119-1.135-1.115-1.788-1.954-2.452-5.919-4.684-12.59-8.129-19.3-11.475-.8-.4-1.583-.854-2.379-1.28a3.593 3.593 0 011.469.112 2.708 2.708 0 001.946-.061c.108-.715-.388-1.016-.734-1.331a34.366 34.366 0 01-3.517-4.112c-1.332-1.72-1.268-2.063.9-2.682 3.042-.87 6.086-1.805 9.175-2.371 12.117-2.256 24.255-4.379 36.386-6.55l4.479-.813a1.268 1.268 0 00-1.329-.274c-12.009 1.9-23.956 4.132-35.907 6.34-4.727.874-9.47 1.853-14.272 1.832-4.53-.02-7.221 2.307-9.419 5.758-2.973-1.6-3.4-3.766-.747-5.778 6.544-4.972 11.937-11.2 18.349-16.3 1.118-.891.8-2.032.646-3.113a22.741 22.741 0 01-.615-3.655 4.413 4.413 0 012.841-4.217 15.369 15.369 0 015.437-1.246 48.832 48.832 0 006.552-1.016 12.475 12.475 0 011.515-.109c.805.847 1.6 1.694 2.419 2.537.479.488 1.02.989 1.733.427a1.326 1.326 0 00.414-1.748 1.382 1.382 0 01-.421 1.727c-.652.525-1.254.061-1.733-.427-.822-.83-1.614-1.694-2.419-2.537a13.63 13.63 0 014.074-.681 1.075 1.075 0 00-.124.487 1.053 1.053 0 01.13-.467l9.124-1.443c.866-.241 1.729-.508 2.6-.715a7.858 7.858 0 004.346-2.455c1.505-1.748 1.244-3.14-.874-4.142a20.276 20.276 0 00-4.577-1.216c-2.862-.592-5.805-.836-8.539-1.968-7.724-1.812-15.339-4.02-22.872-6.476a109.453 109.453 0 01-17.092-7.008 22.317 22.317 0 01-5.675-3.969c-1.8-1.822-1.954-3.085-.754-5.307a15.33 15.33 0 016.093-5.971c1.665-.959 3.381-1.832 5.019-2.838 2.416-1.48 2.892-2.879 1.991-5.578a13.835 13.835 0 00-3.786-5.545 27.075 27.075 0 00-2.8-2.456c-4.366-3.14-6.116-7.7-6.942-12.721a6.026 6.026 0 011.254-5.108 3.111 3.111 0 00.051-4.295c-1.461-2.008-2.97-3.983-4.417-5.988a30.085 30.085 0 01-3.527-5.758C-.56 55.848 0 54.96 2.719 54.73c.714-.061 1.506.1 2.039-.586a5.757 5.757 0 001.594.5c4.234.051 8.448.606 12.688.454a8.2 8.2 0 004.716-1.653c.989-.542 2-1.043 2.96-1.633 5.511-3.387 11.18-3.3 16.99-.826a26.117 26.117 0 004.622 1.619c3.15.7 4.812-.626 4.607-3.827-.1-1.494-.452-2.974-.679-4.461.155-.655.428-.993.812-.845-.395-.173-.671.166-.84.834a9.623 9.623 0 01-.217-4.667c.312-2.1 1.794-3.15 3.68-3.763 3.663-1.189 7.364-.755 11.064-.264 1.173.159 2.338.359 3.51.542 4.961.952 8.332 4.322 11.713 7.675.6.6 1.26 1.128 1.893 1.694l1.24 1.175 5.5 5.426 19.169 19.194a3.446 3.446 0 00-.649-2.28c-2.155-4.4-4.442-8.759-6.4-13.263-2.215-5.081-4.139-10.259-4.268-15.919.357-1.47.523-3.048 1.835-4.064 2.1-1.65 4.367-3.3 7.007-3.54 2.908-.261 3.8-1.937 4.366-4.251 2.494-7.157 4.961-14.327 6.847-21.677a18.775 18.775 0 00.979-4.366c.163-1.3.721-1.962 1.647-1.962a3.248 3.248 0 011.273.324zm7.823 26.259c-.452.786-1 1.693-.824 2.409a4 4 0 01.83-2.382.877.877 0 01.292.446.874.874 0 00-.298-.473zm1.732.266c.215.891-.219 1.529-1.192 1.881a.778.778 0 01-.25-.391.776.776 0 00.257.419c.983-.356 1.417-1.003 1.185-1.909zm62.7 44.825a1.837 1.837 0 00-.425-.278c-4.536-1.534-7.173-5.118-9.681-8.857a15.711 15.711 0 01-1.56-4.1 12.972 12.972 0 00-5.135-6.774c-2.569-1.727-3.035-4.109-2.919-6.74a29.874 29.874 0 012.5-10.839 4.339 4.339 0 011-1.551 4.29 4.29 0 00-1.022 1.561 29.866 29.866 0 00-2.5 10.838c-.115 2.632.34 5.013 2.919 6.74a12.969 12.969 0 015.135 6.774 15.814 15.814 0 001.56 4.095c2.508 3.726 5.145 7.323 9.681 8.857a1.825 1.825 0 01.425.278c2.912 2.052 6.331 2.066 10.116 2.693l-.006-.014c-3.775-.617-7.184-.635-10.09-2.68zM140.52 48.429a33.465 33.465 0 00-.506-3.44 33.616 33.616 0 01.5 3.413 61.6 61.6 0 002.167 12.434 63.017 63.017 0 01-2.162-12.407zm18.628-.694c-.015-.072-.03-.144-.043-.217q.023.127.051.254c.275 1.3.778 1.8 2.039 1.524 1.652-.362 3.347-.477 5.009-.745a12.34 12.34 0 018.682 2.195 7.6 7.6 0 013.293 5.985 41.167 41.167 0 002.351 9.484 8.006 8.006 0 01.262 4.319c-.316 1.443-.652 2.882-.982 4.322a15.119 15.119 0 001.879-2.219c.68-.864 1.267-.87 1.682.254 1.05 2.842 3.034 5.131 4.6 7.672 2.231 3.624 5.922 6.236 7.3 10.449 0-.028 0-.056-.006-.083-1.381-4.178-5.057-6.783-7.279-10.389-1.563-2.54-3.547-4.83-4.6-7.671-.415-1.125-1.019-1.118-1.682-.254a15.12 15.12 0 01-1.879 2.219c.34-1.439.68-2.879.982-4.322a8 8 0 00-.262-4.318 41.05 41.05 0 01-2.351-9.484 7.6 7.6 0 00-3.293-5.985 10.924 10.924 0 011.291.571 10.908 10.908 0 00-1.312-.584 12.288 12.288 0 00-8.682-2.195c-1.661.268-3.357.383-5.009.745a2.8 2.8 0 01-.6.074c-.826-.003-1.207-.53-1.442-1.602zm5.485 3.57a4.259 4.259 0 01.524-1.688 4.084 4.084 0 00-.541 1.7c-.474 1.912-.939 3.828-1.407 5.744h.014c.467-1.919.933-3.84 1.409-5.757zm-5.77 21.528a84.97 84.97 0 002.379-16.986c.1-2.445-.9-4.037-2.651-4.135a7.732 7.732 0 012.5-1.751 7.732 7.732 0 00-2.52 1.758c1.75.1 2.752 1.693 2.651 4.136a84.949 84.949 0 01-2.379 16.986c-.138.551-.074 1.351-.722 1.546.668-.184.601-.997.741-1.555zm-.3-21.115c-2.378 1.229-2.949 3.387-3.058 5.809.128-2.426.706-4.58 3.061-5.81zm-25.091 10.8c-3.5-1.744-6.891-3.7-10.33-5.558a.689.689 0 00.025.192.685.685 0 01-.018-.165c3.439 1.859 6.833 3.814 10.33 5.558 3.425 1.694 6.711 3.9 11.064 4.064l-.009-.027c-4.349-.149-7.63-2.34-11.059-4.064zm1.866 17.338a44.115 44.115 0 01-3.259-10.483 5.728 5.728 0 00-1.631-3.451 36.667 36.667 0 00-13.708-7.221 10.84 10.84 0 00-1.209-.277 10.913 10.913 0 011.189.274 36.669 36.669 0 0113.708 7.221 5.71 5.71 0 011.631 3.451 44.091 44.091 0 003.259 10.483c.623 1.26.965 1.878 1.448 1.969-.475-.101-.817-.72-1.426-1.965zm8.237-16.23c.257.8.525 1.627.82 2.527zM26.104 100.673c1.2-1.087.965-2.212.442-3.794-.459-1.382-.184-3.156-.208-4.742a32.528 32.528 0 00-3.486-13.3c-1.312-2.811-2.8-5.541-3.351-8.647a4.825 4.825 0 012.821-5.555 10.4 10.4 0 011.124-.466 10.433 10.433 0 00-1.144.449 4.825 4.825 0 00-2.82 5.555c.551 3.106 2.039 5.836 3.35 8.647a32.745 32.745 0 013.486 13.3c.024 1.6-.251 3.387.208 4.742.523 1.582.761 2.71-.442 3.793a2.7 2.7 0 00.817 1.146 2.659 2.659 0 01-.797-1.128zm156.722-33c.745-.862 1.148-1.332 1.474-1.383-.331.029-.735.5-1.5 1.387a.057.057 0 01-.023.015.081.081 0 00.051-.019zm26.05 6.33c-2.613-1.036-4.479-3.2-6.593-4.972a5.372 5.372 0 00-2.154-1.524l.012.02a5.415 5.415 0 012.121 1.514c2.114 1.775 3.979 3.936 6.593 4.972a3.909 3.909 0 011.964 1.307 3.957 3.957 0 00-1.941-1.316zm-57.819 1.473c.26-.411.682-.916.551-1.4.109.477-.3.971-.558 1.375a2.224 2.224 0 00-.271 2.155 2.243 2.243 0 01.281-2.133zm42.547 4.479a8.514 8.514 0 00.755.478 8.4 8.4 0 01-.755-.478zm-57.468 7.5a3.377 3.377 0 01-.109-2.638c.724-1.931 2.678-1.413 4.261-1.938-1.532-.5-1.183-1.382-.448-2.5l-.029.009c-.729 1.115-1.07 1.995.457 2.491-1.583.525-3.537 0-4.261 1.937a3.376 3.376 0 00.109 2.638 2.6 2.6 0 003.136 1.551 4.4 4.4 0 01-.688.058 2.488 2.488 0 01-2.429-1.606zm58.235-7.015l.014.008zm-59.448 32.9c.53-5.267.962-10.547 1.652-15.79.241-1.832.262-3.8 2.2-5.2 1.254-.9 1.923-2.618 3.028-4.217l-.033.016c-1.1 1.593-1.765 3.3-3.014 4.2-1.94 1.392-1.961 3.363-2.2 5.2-.68 5.243-1.122 10.524-1.652 15.79-.19 1.888-.374 3.772-.58 5.88l.02.01c.205-2.116.388-4.002.578-5.892zm-2.722-24.376a.53.53 0 01-.02-.143.545.545 0 00.02.146 14.658 14.658 0 002.861 5.626 3.407 3.407 0 00.043-.538 3.362 3.362 0 01-.043.535 14.658 14.658 0 01-2.858-5.629zm3.785 1.619a2.672 2.672 0 00-1.974-.277v.004a2.645 2.645 0 011.966.275 3.569 3.569 0 001.413.373h-.017a3.623 3.623 0 01-1.388-.378zm-1.623 1.137a5.368 5.368 0 01.742 2.3 5.337 5.337 0 00-.742-2.303zm37.869.315l-.014.024zm-.027.044c-.871 1.434-1.642 2.93-2.505 4.368.864-1.441 1.635-2.936 2.504-4.374zm-44.915 1.688a2.749 2.749 0 01.7-1.2 2.751 2.751 0 00-.714 1.211 1.915 1.915 0 00.679 2.4l.009-.017a1.876 1.876 0 01-.673-2.397zm2.769-.87q-.082 0-.158.009.076-.006.158-.009zm-.284.021a1.651 1.651 0 00-1 .415 1.652 1.652 0 011-.419zm-.123 4.632c-.53-.362-.3-.911-.2-1.392a11.183 11.183 0 00.638-2.989 10.971 10.971 0 01-.652 3c-.092.481-.34 1.016.2 1.392a1.07 1.07 0 00.585.187 1.017 1.017 0 01-.571-.201zm40.242-3.459l-.43.652.43-.656zm-44.948 1.776zm43.93.257c-.174.287-.364.571-.542.866.179-.298.37-.582.542-.869zm-41.924 6.381a1.284 1.284 0 00.926-.562 1.632 1.632 0 00-.309-2.4c-.527-.515-1.07-1.016-1.553-1.568-.351-.4-.86-.671-1.038-1.269.177.606.688.885 1.017 1.265.452.522 1.02 1.053 1.553 1.568a1.63 1.63 0 01.309 2.4 1.284 1.284 0 01-.926.562 1.29 1.29 0 01-.339-.007 1.288 1.288 0 00.218.019 1.293 1.293 0 00.142-.012zm4.151-4.941a2.933 2.933 0 001.114-.695 2.93 2.93 0 01-1.1.681 3.771 3.771 0 01-.437.146 4.079 4.079 0 00.424-.136zm38.109-.325a5.615 5.615 0 000-.003zm-44.284 1.331a2.932 2.932 0 00.787.038q-.146.012-.282.012a2.691 2.691 0 01-.505-.053zm-101.33 2.929c1.359 2.154 3.3 3.549 4.418 5.622a1.15 1.15 0 01-.975-.12 1.182 1.182 0 00.995.137c-1.128-2.073-3.058-3.468-4.417-5.623a2.5 2.5 0 011.9.69 2.513 2.513 0 00-1.921-.709zm3.566.57a1.816 1.816 0 01.62 1.577 2.117 2.117 0 01-1.412-.634 2.137 2.137 0 001.432.651 1.848 1.848 0 00-.64-1.597zm9.5 5.472a3.484 3.484 0 00-.831-1 3.494 3.494 0 01.811.985 1.448 1.448 0 00.319.359 1.447 1.447 0 01-.296-.347zm-10.983-.843a3.621 3.621 0 00.418.8 3.717 3.717 0 01-.4-.788.974.974 0 011.051.118.987.987 0 00-1.065-.133zm14.568 3.164a4.385 4.385 0 00-.855-.969 4.414 4.414 0 01.834.952 3.706 3.706 0 00.755.833 3.7 3.7 0 01-.731-.819zm3.639 2.615a1.751 1.751 0 00-.387-.48 1.72 1.72 0 01.367.463 4.392 4.392 0 001.556 1.619 4.39 4.39 0 01-1.532-1.606zm4.4 4.017a3.579 3.579 0 00-1.015-1.352 3.579 3.579 0 01.994 1.335 4.234 4.234 0 001.115 1.555 4.262 4.262 0 01-1.094-1.542zm144.517 9.3a21.344 21.344 0 011.741-3.133 20.788 20.788 0 00-1.751 3.147c-.213.406-.359.974-.7 1.232.348-.254.495-.831.709-1.252zm-3.976 4.871a11.025 11.025 0 011.615-2.834 10.791 10.791 0 00-1.625 2.848c-1.309 2.284-2.258 4.808-3.985 6.841 1.734-2.038 2.684-4.565 3.995-6.862zm-6.059 9.666q.039-.084.075-.169a7.53 7.53 0 01-.086.183c-.1.23-.195.488-.3.735.11-.257.203-.52.312-.755zm-121.753 7.56h.017zm.022 0h.012zm.013 0l.033.005zm.038.006h.012zm.015 0a11.277 11.277 0 002.25.324 3.186 3.186 0 012.719 1.4c.464.552.58.968.432 1.32.158-.356.046-.777-.425-1.334a3.161 3.161 0 00-2.718-1.4q-.094.005-.189.005a12.761 12.761 0 01-2.07-.313zm-17.891 9.483a4.158 4.158 0 01-.375 1.909 4.168 4.168 0 00.382-1.908zm1.414 11.855c-3.184-.244-3.986-1.064-3.935-4.2a8.572 8.572 0 011.084-3.7l.025-.05-.032.064a8.608 8.608 0 00-1.084 3.7c-.051 3.136.751 3.956 3.935 4.2 7.968.61 15.916.044 23.875-.3 1.029-.044 2.062-.04 3.1-.036h1.148c2.205 0 4.417.023 6.62-.02h.327c.686 0 1.46.007 1.764-.626-.309.62-1.079.616-1.759.613h-.326c-1.274.026-2.55.022-3.826.018-.932 0-1.864-.006-2.794 0-1.417 0-2.834-.027-4.244.034-5.422.231-10.84.57-16.261.57a98.344 98.344 0 01-7.616-.266zm14.146 11.275a15.541 15.541 0 018.013-4.481c3.894-1.016 7.853-1.694 11.815-2.344 5.84-.957 11.418-2.857 17.051-4.564-5.642 1.7-11.2 3.588-17.044 4.551-3.962.647-7.921 1.328-11.815 2.344a15.539 15.539 0 00-8.013 4.481 10.917 10.917 0 00-.823 1.034 10.826 10.826 0 01.817-1.02zm30.257 10.693c4.349-3.146 8.763-6.219 12.4-10.219a14.048 14.048 0 002.4-3.072 14.106 14.106 0 01-2.388 3.059c-3.636 4-8.05 7.072-12.4 10.219a6.584 6.584 0 00-1.046.8 6.906 6.906 0 011.034-.786zm140.1-154.441c1.8 2.676 2.824 5.727 4.156 8.63.139.413.279.83.421 1.243.5 2.141 1.448 4.156 1.723 6.354v.009l.576 1.532a57.915 57.915 0 01.724 15.421 6.533 6.533 0 001.7 5.28c.775.891 1.505 1.822 2.277 2.71a11.058 11.058 0 012.165 11.353c-3.133 4.435-8.175 5.559-12.843 7.445l-.025.027c4.683-1.89 9.725-3.011 12.862-7.452-2.094 7.211-4.289 14.378-9.229 20.3-.289.339-.571.7-.829 1.074-1.4 1.988-.941 3.455 1.359 4.332a34.216 34.216 0 006.8 1.422 14.735 14.735 0 015.481 1.673 3.827 3.827 0 011.923 4.884 11.981 11.981 0 01-2.3 4.315c-6.065 7.411-12.59 14.408-20.347 20.071-8.3 6.059-17.371 10.5-27.711 12.126a115.385 115.385 0 00-14.272 3 4.794 4.794 0 011.56-1.528c4.543-3.272 9.226-6.337 13.932-9.372q14.554-9.4 29.043-18.859c3.058-1.991 6.089-4.03 9.13-6.046l-.221-.339-52.6 32.715a15.642 15.642 0 011.064-4.437c4.978-14.94 10.051-29.853 14.9-44.837a7.494 7.494 0 014.758-4.942 122.161 122.161 0 0014.771-7.435c1.136.49.568.85.124 1.132.445-.276 1.029-.638-.124-1.132-.866-.5-1.522.119-2.205.447-4.23 2.032-8.451 4.1-12.678 6.131a6.016 6.016 0 01-2.933.823c3.5-10.2 6.84-20.227 10.7-30.077l.018-.013c1.762-6.064 3.766-12.093 7.2-17.4s4.652-11.316 6.27-17.209a1.093 1.093 0 00-.262-1.27c-1.019-.074-.992 1.338-2.069 1.385a4.178 4.178 0 00-2.783-1.788c1.308-.87 2.583-1.8 3.935-2.6a3.479 3.479 0 011.735-.6c.792.006 1.449.499 2.123 1.504zm8.358 49.911c-.581-.22-.679.278-.782.6a2.685 2.685 0 01-2.378 1.91c-.759.072-1.162.331-1.268.772.112-.433.513-.688 1.265-.759a2.685 2.685 0 002.378-1.91c.116-.339.2-.823.782-.6-.079 1.458-1.42 3.266-3.12 4.5 1.7-1.227 3.044-3.041 3.123-4.513zm-4.312 4.3v-.013c-1.981.167-2.5.213-2.792 1.391.289-1.164.813-1.208 2.792-1.378zm-1.744 1.579h-.016a3.2 3.2 0 01-.432 3.012 3.16 3.16 0 00.449-3.009zm-3.034.376a.589.589 0 00-.348.467.622.622 0 01.344-.454c.839.02.751 1.355 1.7 1.162v-.013a.917.917 0 01-.168.016c-.776.003-.748-1.156-1.523-1.176zm-3.381 4.722c-1.172-.261-.3-1.378-.727-2.124-.758.207-1.308.959-2.226.83v.014c.916.127 1.466-.624 2.223-.83.425.745-.459 1.859.727 2.123a2.618 2.618 0 002.756-1.263 2.1 2.1 0 00.372-.807 2.092 2.092 0 01-.369.793 2.823 2.823 0 01-2.222 1.324 2.452 2.452 0 01-.533-.058zm-3.506 5.958a2.284 2.284 0 01-2.236-1.527 3.157 3.157 0 01.259-2.858 3.158 3.158 0 00-.269 2.872 2.3 2.3 0 002.236 1.528 2.639 2.639 0 002.678-1.44 2.86 2.86 0 00.254-.654 2.862 2.862 0 01-.251.641 2.638 2.638 0 01-2.36 1.458 2.639 2.639 0 01-.311-.018zm-8.39-1.6c1.417 2.516-1.39 1.649-1.563 2.906a1.116 1.116 0 00.213.116 1.1 1.1 0 01-.2-.109c.173-1.255 2.976-.391 1.566-2.9zm.945 2.957a1.522 1.522 0 00-1.2.01c-.127.036-.253.072-.38.1.128-.025.256-.061.384-.1a1.529 1.529 0 011.2-.01zm.078 1.4a2.443 2.443 0 00.046-1.1 2.457 2.457 0 01-.06 1.094c-.068.44-.279.884.241 1.219-.503-.341-.291-.798-.227-1.215zm12.043 97.546a2.156 2.156 0 01.781 2.418 2.231 2.231 0 01-2.093 1.175 6.1 6.1 0 01-4.757-1.677c-2.912-3.3-33.476-35.25-35.9-38.891a2.5 2.5 0 01.565-1.224 2.7 2.7 0 011.535-.808c3.931 3.544 35.938 35.449 39.868 39.005zM182 165.062c-.68 1.734.1 3.424.2 5.131.452 7.529.8 15.038-.809 22.5a21.779 21.779 0 01-4.8 10.083v-.013c-1.075 1.132-2.123 2.292-3.229 3.38-3 3-8.678 3.174-10.1-2.032-.309-1.128-1.166-1.138-1.96-.451a17.177 17.177 0 00-2.134 2.164 88.853 88.853 0 00-6.779 10.087q-3.242 4.542-6.382 9.145c-3.249 4.766-7.625 6.063-12.831 4.4-2.977-.945-5.389-.227-7.887 1.084-5.535 2.4-11.006 4.962-16.651 7.075-1.023.423-2.07.722-3.068 1.053.34-.7 1.213-1.036 1.359-1.988-1.1-1.016-2.661-.722-3.918-1.314a21.614 21.614 0 00-2.762-.82c-1.869-.579-1.985-1.094-1.071-2.784 1.56-2.879 3.864-5.145 6.089-7.451q6.652-6.894 13.565-13.548c5.267-5.03 10.724-9.86 16.291-14.564a5.569 5.569 0 011.036-.545v.019a248.915 248.915 0 0127.033-20.347 172.508 172.508 0 0118.159-10.208 1.818 1.818 0 01.491-.068c.054.003.106.005.162.01zm-47.454 32.752c.542-.639 1.295-1.133 1.57-1.977-.28.831-1.026 1.317-1.563 1.957a2.3 2.3 0 00-.453.739 2.346 2.346 0 01.445-.721zm43.1 2.352a8.889 8.889 0 01-.675 1.386 7.771 7.771 0 00.671-1.388zm-20.642 1.107c-1.188 3.23-4.248 5.2-5.991 8.136 1.749-2.936 4.807-4.897 5.991-8.136z"/></svg>