<?xml version="1.0" encoding="utf-8"?><svg xmlns="http://www.w3.org/2000/svg" width="129.604" height="124.673" viewBox="0 0 129.604 124.673"><path d="M63.819.167c.4.177.765.418 1.146.628a12.134 12.134 0 003.527 2.537 14.821 14.821 0 003.366 1.925 3.724 3.724 0 002.009.531 8.749 8.749 0 001.054 0 3.683 3.683 0 014.087 2.457c-.42-.088-.967-.625-1.222.041-.379.989-1.148 1.706-1.594 2.634a28.873 28.873 0 00-2.608 8.222c-.062.407.014.9-.471 1.274a6.218 6.218 0 01-1.442-1.946c-.861-1.741-1.74-3.476-2.549-5.242-.321-.708-.866-.674-1.438-.651a1.2 1.2 0 00-1.077 1l.01-.005a1.2 1.2 0 011.071-.984c.572-.023 1.118-.05 1.438.651.81 1.769 1.688 3.5 2.549 5.242a6.218 6.218 0 001.442 1.946c.485-.378.409-.867.471-1.274a28.866 28.866 0 012.608-8.222c.45-.929 1.219-1.645 1.594-2.634.255-.665.8-.129 1.222-.041a18.748 18.748 0 001.625 1.946 1.672 1.672 0 002.491.018 15.015 15.015 0 013.27-2.477 2.221 2.221 0 012.823.866h.008a20.105 20.105 0 012.712 4.183c.189.329.384.655.577.982q.659 1.483 1.322 2.968h.013a75.509 75.509 0 015.086 12.832c.032.111.048.23.078.343.43 1.661.932 1.9 2.522 1.2a1.119 1.119 0 01.259-.05.838.838 0 00.332 1.142.838.838 0 01-.327-1.138 10.145 10.145 0 011.594-1.207c-.329.759.048 1.143.719 1.4a10.522 10.522 0 007.972-.11c.262-.108.5-.329.944-.177a10.721 10.721 0 01-.951 3.646v-.089c0-.759 0-1.133-.189-1.271.182.143.183.518.184 1.267v.088a34.526 34.526 0 01-1.943 5.311 31.7 31.7 0 01-1.764 4.937v.011l-4.092 11.668-.257-.034c-.36-2.666-.914-5.292-1.515-7.909l-.177.177v.007c.312 1.821.641 3.638.93 5.464.177 1.127.312 2.265.429 3.4a2.542 2.542 0 01-.464 1.568 47.065 47.065 0 01-1.593 4.6c-.866 2.567-1.72 5.131-2.6 7.7q-1.934 5.6-3.908 11.185c-.092.262-.089.593-.411.731-.315-.124-.3-.419-.37-.664q-2.94-10.836-6.345-21.537a5.921 5.921 0 01-.176-.75l-.01-.017c-.583-1.716-1.12-3.452-1.771-5.143-.264-.688.377-1.138.29-1.755a.874.874 0 00-.432-.063c-.292 0-.57.009-.568-.468v-.028c-.9-2.069-1.428-4.273-2.275-6.364-.154-.38-.245-.791-.432-1.153a4.774 4.774 0 01.041-4.312v-.512c0-.122.009-.244.014-.364.769-1.507.762-3.326 1.784-4.777.354.3.315.618.386.893a50.668 50.668 0 003.189 9.78 4.32 4.32 0 01.513 2.431 4.4 4.4 0 00-.511-2.447 50.921 50.921 0 01-3.189-9.78c-.071-.276-.023-.6-.386-.893-1.022 1.454-1.015 3.273-1.784 4.777-.136-.487-.545-.87-.531-1.41h-.012c-.012.543.4.927.531 1.415l-.016.364c-.46.037-.508.409-.62.743s-.059.708-.484 1.01l-1.69-4.26-.3.111c.788 2.785 2.082 5.408 2.771 8.22.43 1.159.9 2.3 1.286 3.476 3.543 10.651 6.769 21.4 9.589 32.264a2.192 2.192 0 01.089 1.592 234.977 234.977 0 00-15.944-10.941l-6.592-4.14a2.649 2.649 0 01-1.152-1.173c-1.623-3.7-3.322-7.358-5.157-10.955a413.343 413.343 0 00-1.917-3.7l-.2.1c2.33 4.722 4.59 9.472 6.732 14.554-.432-.214-.624-.288-.792-.395-3.956-2.521-8.032-4.841-12.085-7.2a2.641 2.641 0 01-.886-.955q-2.935-4.678-5.885-9.354c-.813-1.286-1.642-2.56-2.464-3.839l-.214.131 7.734 12.689-.213.2c-5.378-3.135-10.771-6.245-16.4-8.931 6.606 3.975 13.242 7.891 19.763 12.031-4.592.41-9.15.623-13.715.667h-.01v.318c3.065-.062 6.132-.044 9.19-.216 1.738-.1 3.479-.023 5.212-.191a1.672 1.672 0 011.075.322q5.18 3.231 10.36 6.467a1.273 1.273 0 01.709.718l-19.21 1.99a4.895 4.895 0 001.417.043q3.609-.31 7.217-.632c3.049-.271 6.1-.515 9.148-.833a5.328 5.328 0 014.3.929 32.535 32.535 0 003.5 2.226c.2.168.393.354.609.5 3.72 2.555 7.511 5 11.129 7.7a24.557 24.557 0 012.753 2.166c-.386-.025-.555-.039-.723-.046-1.825-.078-3.656-.3-5.472-.2-2.939.152-5.888.138-8.822.462-2.834.313-5.69.49-8.53.8-2.4.264-4.783.628-7.182.954a1.881 1.881 0 01-1.33-.354c-1.212-.785-2.415-1.592-3.67-2.3a12.672 12.672 0 00-3.292-1.592 69.333 69.333 0 016.838 4.384l-9.566 1.481c-.794.046-1.594.057-2.379.145-1.706.188-3.333.193-4.728-1.079a10.4 10.4 0 00-2.007-1.286 10.2 10.2 0 00-2.675-1.169l.021.013a10.279 10.279 0 012.651 1.164 10.463 10.463 0 012.007 1.286c1.4 1.272 3.022 1.267 4.728 1.079.788-.088 1.585-.1 2.379-.145.138.305.41.342.7.353 1.811-.248 3.619-.5 5.429-.745.932-.126 1.019-.018.725.844a1.079 1.079 0 00-.122.817c.531-.127.579-.614.684-.991a1.261 1.261 0 011.22-1.028c4.666-.664 9.352-1.118 14.041-1.571a126.007 126.007 0 0115.177-.678 25.284 25.284 0 014.822.531 1.286 1.286 0 011.044.655c-6.377 3.142-12 7.385-17.681 11.557a3.263 3.263 0 01-.748.729c-2.811 2.275-5.527 4.664-8.243 7.05-1.283 1.131-2.461 2.362-3.72 3.512-2.438 2.219-4.746 4.572-7 6.976a48.932 48.932 0 01-5.6 5.37 1.279 1.279 0 01-1.385.3c-.865-.418-1.653-.547-2.347.285a24.864 24.864 0 011.359-5.644c.455-1.582 1.075-3.117 1.384-4.743.321-1.7-.166-2.284-1.913-2.3a17.4 17.4 0 00-3.665.541 74.313 74.313 0 01-10.629 1.7 16.467 16.467 0 01-4.193-.5c-1.9-.582-3.467-1.485-3.706-3.737-.062-.593-.581-.934-1.019-1.281a56.45 56.45 0 00-10.064-5.994c-.418-.211-.825-.446-1.24-.669a1.87 1.87 0 01.766.059 1.409 1.409 0 001.015-.032c.056-.373-.2-.531-.383-.7a17.931 17.931 0 01-1.834-2.148c-.695-.9-.661-1.078.468-1.4 1.585-.455 3.173-.943 4.783-1.238 6.317-1.178 12.645-2.288 18.969-3.422l2.335-.425a.66.66 0 00-.693-.143c-6.261.994-12.489 2.158-18.719 3.312a40.157 40.157 0 01-7.44.957c-2.361-.011-3.765 1.2-4.911 3.008-1.55-.833-1.771-1.967-.39-3.018 3.412-2.6 6.223-5.853 9.566-8.515.583-.465.415-1.061.336-1.626a11.912 11.912 0 01-.321-1.909 2.305 2.305 0 011.481-2.2 8 8 0 012.834-.651 25.415 25.415 0 003.416-.531 6.49 6.49 0 01.79-.057c.42.442.833.885 1.261 1.325.25.255.531.517.9.223a.694.694 0 00.216-.913.723.723 0 01-.219.9c-.34.274-.654.032-.9-.223-.428-.433-.841-.885-1.261-1.325a7.094 7.094 0 012.124-.356.561.561 0 00-.064.254.549.549 0 01.068-.244l4.757-.754c.451-.126.9-.265 1.357-.373a4.1 4.1 0 002.266-1.283c.785-.913.648-1.64-.455-2.164a10.553 10.553 0 00-2.386-.635 24.073 24.073 0 01-4.451-1.028c-4.027-.946-8-2.1-11.924-3.383a56.989 56.989 0 01-8.911-3.661 11.636 11.636 0 01-2.958-2.073 1.954 1.954 0 01-.393-2.772 8 8 0 013.177-3.119c.868-.5 1.762-.957 2.616-1.483a2.077 2.077 0 001.038-2.914 7.227 7.227 0 00-1.974-2.9 14.119 14.119 0 00-1.459-1.283c-2.276-1.64-3.189-4.02-3.619-6.645a3.153 3.153 0 01.654-2.668 1.627 1.627 0 00.027-2.243c-.762-1.049-1.548-2.081-2.3-3.128A15.718 15.718 0 01.278 30.49c-.565-1.318-.273-1.782 1.144-1.9.372-.032.785.055 1.063-.306a3 3 0 00.831.264c2.208.027 4.4.317 6.615.237a4.267 4.267 0 002.459-.863c.516-.283 1.043-.545 1.543-.853a9.128 9.128 0 018.857-.432 13.6 13.6 0 002.409.846c1.642.364 2.508-.327 2.4-2-.051-.78-.236-1.553-.354-2.33.081-.342.223-.519.424-.441-.206-.09-.35.086-.438.436a5.036 5.036 0 01-.113-2.438 2.441 2.441 0 011.918-1.966 12.807 12.807 0 015.768-.138c.611.083 1.219.188 1.83.283 2.586.5 4.344 2.258 6.106 4.009.312.311.657.589.987.885l.646.614 2.866 2.834 9.993 10.026a1.8 1.8 0 00-.338-1.191c-1.123-2.3-2.316-4.575-3.338-6.928a22.086 22.086 0 01-2.225-8.315 3.382 3.382 0 01.957-2.123 7.257 7.257 0 013.653-1.849c1.516-.136 1.979-1.012 2.276-2.22 1.3-3.738 2.586-7.484 3.57-11.323a9.829 9.829 0 00.51-2.28c.085-.678.376-1.025.859-1.025a1.691 1.691 0 01.663.164zm4.078 13.717c-.236.411-.521.884-.429 1.258a2.1 2.1 0 01.433-1.244.458.458 0 01.152.233.456.456 0 00-.156-.247zm.9.139c.112.466-.114.8-.621.983a.405.405 0 01-.13-.2.4.4 0 00.134.219c.515-.191.741-.529.624-1.002zm32.687 23.415a.958.958 0 00-.222-.145c-2.365-.8-3.74-2.673-5.047-4.626a8.215 8.215 0 01-.813-2.139 6.775 6.775 0 00-2.677-3.538 3.606 3.606 0 01-1.522-3.521 15.636 15.636 0 011.306-5.662 2.269 2.269 0 01.522-.81 2.24 2.24 0 00-.533.816 15.625 15.625 0 00-1.306 5.661 3.6 3.6 0 001.522 3.521 6.773 6.773 0 012.677 3.538 8.274 8.274 0 00.813 2.14c1.307 1.946 2.682 3.825 5.047 4.627a.948.948 0 01.222.145c1.518 1.072 3.3 1.079 5.274 1.406v-.008c-1.968-.326-3.743-.336-5.26-1.405zm-28.231-12.14a17.432 17.432 0 00-.264-1.8 17.563 17.563 0 01.26 1.783 32.237 32.237 0 001.13 6.495 32.959 32.959 0 01-1.123-6.479zm9.711-.363a4.5 4.5 0 01-.022-.113l.026.133c.144.681.406.941 1.063.8.861-.189 1.745-.249 2.611-.389a6.424 6.424 0 014.526 1.146 3.972 3.972 0 011.717 3.126 21.533 21.533 0 001.226 4.954 4.189 4.189 0 01.137 2.256c-.165.754-.34 1.506-.512 2.258a7.893 7.893 0 00.98-1.159c.354-.451.661-.455.877.133a23.447 23.447 0 002.4 4.007c1.163 1.893 3.087 3.257 3.8 5.458v-.044c-.72-2.183-2.637-3.543-3.795-5.427a23.482 23.482 0 01-2.4-4.007c-.216-.587-.531-.584-.877-.133a7.91 7.91 0 01-.98 1.159c.177-.752.354-1.5.512-2.258a4.188 4.188 0 00-.136-2.256 21.472 21.472 0 01-1.226-4.954 3.972 3.972 0 00-1.717-3.126 5.679 5.679 0 01.673.3 5.674 5.674 0 00-.684-.305 6.4 6.4 0 00-4.526-1.146c-.866.14-1.75.2-2.611.389a1.454 1.454 0 01-.313.039c-.424-.003-.623-.282-.745-.841zm2.859 1.865a2.229 2.229 0 01.273-.882 2.14 2.14 0 00-.282.887c-.247 1-.49 2-.733 3h.007c.248-1.001.491-2.004.739-3.006zm-3.008 11.245a44.487 44.487 0 001.24-8.873c.053-1.277-.47-2.109-1.382-2.16a4.03 4.03 0 011.3-.915 4.028 4.028 0 00-1.314.918c.912.051 1.435.885 1.382 2.16a44.449 44.449 0 01-1.24 8.873c-.072.288-.039.706-.377.808.357-.095.322-.52.395-.811zm-.154-11.029a3.18 3.18 0 00-1.594 3.034 3.215 3.215 0 011.598-3.035zM69.58 32.658c-1.823-.911-3.593-1.932-5.385-2.9a.37.37 0 00.013.1.36.36 0 01-.009-.086c1.793.971 3.562 1.992 5.385 2.9 1.786.885 3.5 2.038 5.768 2.123v-.014c-2.27-.079-3.983-1.223-5.768-2.124zm.973 9.057a23.08 23.08 0 01-1.7-5.476 2.994 2.994 0 00-.85-1.8 19.1 19.1 0 00-7.146-3.772 5.637 5.637 0 00-.63-.145 5.692 5.692 0 01.62.143 19.1 19.1 0 017.146 3.772 2.985 2.985 0 01.851 1.8 23.057 23.057 0 001.7 5.476c.325.658.5.981.755 1.029-.247-.054-.425-.378-.742-1.028zm4.294-8.478c.134.416.274.85.428 1.32zM13.606 52.59c.627-.568.5-1.155.23-1.982a8.906 8.906 0 01-.108-2.477 17.017 17.017 0 00-1.818-6.946 18.453 18.453 0 01-1.743-4.512 2.522 2.522 0 011.47-2.9 5.419 5.419 0 01.586-.243 5.4 5.4 0 00-.6.234 2.521 2.521 0 00-1.47 2.9 18.451 18.451 0 001.751 4.509 17.13 17.13 0 011.818 6.946 8.859 8.859 0 00.108 2.477c.273.826.4 1.415-.23 1.981a1.409 1.409 0 00.426.6 1.39 1.39 0 01-.416-.588zm81.7-17.239c.389-.45.6-.7.769-.723-.172.015-.383.261-.783.724a.03.03 0 01-.012.008.042.042 0 00.033-.01zm13.581 3.307a13.4 13.4 0 01-3.437-2.6 2.8 2.8 0 00-1.123-.8l.007.011a2.823 2.823 0 011.106.791 13.4 13.4 0 003.437 2.6 2.038 2.038 0 011.024.683 2.062 2.062 0 00-1.007-.686zm-30.142.77c.135-.215.356-.479.287-.732.057.249-.158.507-.291.718a1.164 1.164 0 00-.141 1.126 1.174 1.174 0 01.151-1.114zm22.179 2.339a4.412 4.412 0 00.393.25 4.386 4.386 0 01-.386-.252zm-29.96 3.919a1.767 1.767 0 01-.057-1.378c.377-1.009 1.4-.738 2.221-1.012-.8-.26-.616-.722-.234-1.307h-.015c-.38.583-.558 1.042.238 1.3-.825.274-1.844 0-2.221 1.012a1.766 1.766 0 00.057 1.378 1.357 1.357 0 001.635.81 2.292 2.292 0 01-.359.03 1.3 1.3 0 01-1.258-.835zm30.36-3.664h.007zM70.332 59.205c.277-2.751.5-5.509.861-8.248.126-.957.136-1.987 1.148-2.714a8.887 8.887 0 001.578-2.2l-.017.008a8.794 8.794 0 01-1.572 2.193c-1.012.727-1.022 1.757-1.148 2.714-.354 2.739-.585 5.5-.861 8.248-.1.986-.195 1.971-.3 3.071l.01.005c.113-1.109.208-2.092.307-3.079zm-1.419-12.733a.279.279 0 01-.01-.075.282.282 0 00.01.077 7.662 7.662 0 001.492 2.939 1.787 1.787 0 00.023-.281 1.763 1.763 0 01-.023.279 7.662 7.662 0 01-1.485-2.938zm1.973.846a1.39 1.39 0 00-1.029-.145v.002a1.377 1.377 0 011.025.144 1.857 1.857 0 00.736.195h-.009a1.885 1.885 0 01-.716-.199zm-.846.594a2.809 2.809 0 01.387 1.2 2.793 2.793 0 00-.38-1.203zm19.742.165l-.008.012zm-.014.023c-.454.749-.856 1.531-1.306 2.282.458-.755.86-1.536 1.313-2.285zm-23.416.882a1.437 1.437 0 01.365-.625 1.436 1.436 0 00-.372.632 1 1 0 00.354 1.254v-.009a.981.981 0 01-.339-1.256zm1.444-.455h-.082.082zm-.148.011a.86.86 0 00-.524.217.86.86 0 01.531-.22zm-.064 2.42c-.276-.189-.154-.476-.106-.727a5.86 5.86 0 00.333-1.562 5.745 5.745 0 01-.34 1.569c-.048.251-.177.531.106.727a.556.556 0 00.3.1.53.53 0 01-.286-.11zm20.979-1.807l-.224.34zm-23.433.928zm22.9.134c-.091.15-.19.3-.282.452.102-.157.201-.305.292-.455zm-21.856 3.333a.669.669 0 00.483-.293.853.853 0 00-.161-1.254c-.275-.269-.558-.531-.81-.819-.183-.209-.449-.351-.541-.663.093.317.359.463.531.661.236.272.531.55.81.819a.853.853 0 01.161 1.254.668.668 0 01-.483.293.672.672 0 01-.177 0 .67.67 0 00.113.01.668.668 0 00.083-.011zm2.164-2.581a1.529 1.529 0 00.581-.363 1.528 1.528 0 01-.573.356 1.974 1.974 0 01-.228.076 2.144 2.144 0 00.229-.072zm19.867-.17a2.199 2.199 0 00-.071.127c.033-.049.056-.089.081-.13zm-23.086.7a1.525 1.525 0 00.41.02q-.077.006-.147.006a1.4 1.4 0 01-.254-.033zm-52.826 1.53c.709 1.125 1.719 1.854 2.3 2.937a.6.6 0 01-.508-.062.615.615 0 00.519.071c-.588-1.083-1.594-1.812-2.3-2.937a1.3 1.3 0 01.989.36 1.308 1.308 0 00-.989-.376zm1.859.3a.949.949 0 01.323.824 1.1 1.1 0 01-.736-.331 1.114 1.114 0 00.747.34.966.966 0 00-.325-.843zm4.954 2.859a1.822 1.822 0 00-.433-.523 1.827 1.827 0 01.423.514.754.754 0 00.166.188.755.755 0 01-.147-.19zm-5.726-.441a1.9 1.9 0 00.218.42 1.943 1.943 0 01-.208-.412.507.507 0 01.548.062.514.514 0 00-.548-.08zm7.594 1.652a2.284 2.284 0 00-.446-.506 2.3 2.3 0 01.435.5 1.932 1.932 0 00.394.435 1.935 1.935 0 01-.373-.438zm1.9 1.366a.916.916 0 00-.2-.251.9.9 0 01.191.242 2.292 2.292 0 00.812.846 2.291 2.291 0 01-.795-.846zm2.292 2.1a1.87 1.87 0 00-.529-.706 1.868 1.868 0 01.518.7 2.211 2.211 0 00.582.812 2.223 2.223 0 01-.563-.817zm75.34 4.857a11.158 11.158 0 01.907-1.637 10.853 10.853 0 00-.913 1.644c-.111.212-.187.509-.363.644.189-.141.267-.443.377-.663zm-2.073 2.544a5.764 5.764 0 01.842-1.481 5.639 5.639 0 00-.847 1.488 22.44 22.44 0 01-2.078 3.574 22.043 22.043 0 002.092-3.592zm-3.158 5.049c.013-.029.027-.059.039-.089l-.045.1c-.054.12-.1.255-.156.384.065-.146.114-.283.17-.406zM31.802 77.26zm.012 0zm.007 0h.017zm.02 0zm.008 0a5.869 5.869 0 001.173.169 1.66 1.66 0 011.417.732c.242.288.3.506.225.689.083-.186.024-.406-.222-.7a1.647 1.647 0 00-1.417-.732h-.1a6.642 6.642 0 01-1.069-.162zm-9.327 4.953a2.174 2.174 0 01-.2 1 2.183 2.183 0 00.2-1zm.737 6.192c-1.66-.127-2.078-.556-2.052-2.194a4.48 4.48 0 01.565-1.93l.013-.026-.016.033a4.5 4.5 0 00-.565 1.93c-.027 1.638.392 2.066 2.052 2.194a103.617 103.617 0 0012.447-.157c.537-.023 1.075-.021 1.614-.019h.6c1.15 0 2.3.012 3.451-.011h.171c.358 0 .761 0 .92-.327-.161.324-.563.322-.917.32h-.17c-.664.013-1.329.011-1.994.009h-1.457c-.739 0-1.477-.014-2.213.018-2.826.121-5.651.3-8.478.3a53.164 53.164 0 01-3.964-.143zm7.375 5.89a8.1 8.1 0 014.177-2.341c2.03-.531 4.094-.885 6.16-1.224a69.544 69.544 0 008.889-2.384 70.865 70.865 0 01-8.886 2.377c-2.066.338-4.129.693-6.159 1.224a8.1 8.1 0 00-4.177 2.341 5.723 5.723 0 00-.429.54 5.671 5.671 0 01.432-.536zm15.774 5.585a40.46 40.46 0 006.464-5.338 7.336 7.336 0 001.249-1.6 7.364 7.364 0 01-1.245 1.6 40.449 40.449 0 01-6.464 5.338 3.424 3.424 0 00-.545.418 3.586 3.586 0 01.548-.425zm73.037-80.673a30.953 30.953 0 012.167 4.508c.073.216.145.434.219.649a33.05 33.05 0 01.9 3.319l.3.8a30.309 30.309 0 01.377 8.055 3.417 3.417 0 00.886 2.758c.4.465.785.952 1.187 1.415a5.785 5.785 0 011.128 5.931c-1.633 2.317-4.262 2.9-6.7 3.889l-.013.014c2.441-.987 5.07-1.573 6.705-3.892-1.092 3.767-2.236 7.51-4.812 10.6-.15.177-.3.368-.432.561-.728 1.039-.491 1.8.708 2.263a17.811 17.811 0 003.543.743 7.67 7.67 0 012.858.874 2 2 0 011 2.551 6.26 6.26 0 01-1.2 2.254 58.648 58.648 0 01-10.608 10.484 33.023 33.023 0 01-14.447 6.334 60.056 60.056 0 00-7.44 1.568 2.5 2.5 0 01.813-.8c2.368-1.709 4.81-3.31 7.263-4.9q7.588-4.908 15.141-9.851c1.594-1.04 3.175-2.105 4.76-3.158l-.115-.177L96.21 83.088a8.187 8.187 0 01.554-2.318c2.6-7.8 5.24-15.594 7.768-23.421a3.912 3.912 0 012.48-2.581 63.637 63.637 0 007.7-3.883c.593.256.3.444.065.591.232-.144.536-.333-.065-.591-.451-.26-.793.062-1.149.233-2.206 1.062-4.406 2.139-6.609 3.2a3.132 3.132 0 01-1.529.43c1.823-5.329 3.566-10.566 5.579-15.711l.009-.007a33.85 33.85 0 013.755-9.091c1.794-2.778 2.425-5.911 3.269-8.99a.572.572 0 00-.137-.664c-.531-.039-.517.7-1.079.724a2.177 2.177 0 00-1.451-.934c.682-.455 1.346-.939 2.051-1.359a1.812 1.812 0 01.9-.312c.437.018.783.275 1.131.8zm4.358 26.071c-.3-.115-.354.145-.407.315a1.4 1.4 0 01-1.24 1c-.4.037-.605.173-.661.4.058-.226.268-.359.659-.4a1.4 1.4 0 001.24-1c.06-.177.1-.43.407-.315a3.694 3.694 0 01-1.626 2.352 3.687 3.687 0 001.635-2.357zm-2.248 2.247v-.007c-1.033.087-1.3.111-1.456.727.158-.612.431-.636 1.463-.723zm-.909.825h-.009a1.672 1.672 0 01-.225 1.573 1.653 1.653 0 00.241-1.576zm-1.582.2a.308.308 0 00-.181.244.325.325 0 01.18-.237c.437.011.391.708.885.607a.066.066 0 000-.007.475.475 0 01-.088.009c-.397-.007-.383-.613-.789-.623zm-1.763 2.466c-.611-.136-.158-.72-.379-1.109-.4.108-.682.5-1.16.433v.007c.478.066.764-.326 1.159-.434.221.389-.239.971.379 1.109a1.364 1.364 0 001.437-.66 1.094 1.094 0 00.194-.421 1.091 1.091 0 01-.192.414 1.471 1.471 0 01-1.159.692 1.279 1.279 0 01-.276-.038zm-1.828 3.112a1.191 1.191 0 01-1.166-.8 1.653 1.653 0 01.135-1.493 1.653 1.653 0 00-.14 1.5 1.2 1.2 0 001.166.8 1.376 1.376 0 001.4-.752 1.508 1.508 0 00.132-.342 1.484 1.484 0 01-.131.335 1.375 1.375 0 01-1.23.761 1.372 1.372 0 01-.159-.016zm-4.374-.837c.739 1.314-.724.862-.815 1.518a.581.581 0 00.111.061.578.578 0 01-.1-.057c.09-.656 1.551-.2.817-1.515zm.492 1.545a.792.792 0 00-.625.005c-.066.019-.132.038-.2.051.067-.013.133-.032.2-.051a.8.8 0 01.624-.005zm.041.731a1.278 1.278 0 00.024-.575 1.283 1.283 0 01-.031.572c-.035.23-.145.462.126.637-.255-.185-.147-.428-.112-.641zm6.278 50.954a1.127 1.127 0 01.407 1.263 1.162 1.162 0 01-1.091.614 3.178 3.178 0 01-2.48-.876c-1.518-1.721-17.452-18.413-18.715-20.315a1.307 1.307 0 01.294-.639 1.406 1.406 0 01.8-.422c2.057 1.844 18.744 18.51 20.792 20.368zM94.874 86.228c-.354.906.053 1.789.106 2.68a43.074 43.074 0 01-.422 11.755 11.386 11.386 0 01-2.5 5.267v-.007c-.561.592-1.107 1.2-1.683 1.766-1.564 1.567-4.524 1.658-5.265-1.062-.161-.589-.608-.594-1.022-.235a8.935 8.935 0 00-1.113 1.131 46.391 46.391 0 00-3.534 5.269q-1.69 2.373-3.327 4.777a5.414 5.414 0 01-6.689 2.3 5 5 0 00-4.112.566c-2.886 1.256-5.738 2.592-8.681 3.7-.533.221-1.079.377-1.6.55.177-.366.632-.541.708-1.039-.572-.531-1.387-.377-2.042-.686a11.262 11.262 0 00-1.44-.428c-.975-.3-1.035-.571-.558-1.454a18.441 18.441 0 013.175-3.892q3.468-3.6 7.072-7.077c2.746-2.627 5.591-5.15 8.493-7.608a2.892 2.892 0 01.54-.285v.01a129.788 129.788 0 0114.093-10.629 89.893 89.893 0 019.467-5.332.947.947 0 01.256-.035q.045-.013.085-.009zm-24.739 17.109c.282-.334.675-.592.818-1.033-.146.434-.535.688-.815 1.022a1.2 1.2 0 00-.236.386 1.227 1.227 0 01.24-.383zm22.468 1.229a4.652 4.652 0 01-.352.724 4.067 4.067 0 00.359-.732zm-10.761.581c-.619 1.687-2.214 2.714-3.123 4.25.92-1.541 2.514-2.569 3.129-4.258z"/></svg>