<?xml version="1.0" encoding="utf-8"?><svg xmlns="http://www.w3.org/2000/svg" width="275.248" height="224.493" viewBox="0 0 275.248 224.493"><path d="M31.799 95.278A127.6 127.6 0 0165.762 83a43.672 43.672 0 01-17.259-22.827c-.375-1.141-1.231-2.731-.815-3.4.864-1.3 2.446-.228 3.742 0 .514.09 1.035.122 2.291.261a89.818 89.818 0 01-8.772-14.577 36.036 36.036 0 01-1.875-4.508c-.563-1.883-2.674-4.3-1.166-5.56s3.212 1.728 5.389 2.258c.432-1.419-.587-2.446-1.027-3.563a47.227 47.227 0 01-2.544-27.563c.685-3.383 1.94-4.28 5.242-2.9 8.878 3.734 17.854 7.239 26.8 10.826.6.245 1.239.424 1.916.652.815-1.777-1.81-2.446-.774-4.59 15.212 6.228 30.1 12.726 39.238 28.085 2.756-4.451.815-8.837 1.255-13.672a49.094 49.094 0 0113.4 14.495 43.9 43.9 0 013.815 7.19c1.15 2.992 2.291 4.141 4.329.815 1.459-2.446 2.446-1.859 3.53.285a37.485 37.485 0 013.872 16.77c1.671.049 2.446-1.019 3.383-1.712a64.4 64.4 0 0132.748-12.294c2.071-.2 4.516-.448 5.862 1.019 2.4 2.625 4.777 1.679 7.337.938a87.481 87.481 0 0116-2.862c1.076-.1 3.171-.685 3.057.88-.326 4.28 2.307 2.372 4.076 2.275a13.622 13.622 0 002.4-.448c6.832-1.7 13.093-3.261 20.617-.236 9.212 3.734 19.566 2.511 29.349.155 3.864-.929 4.443.391 3.889 3.726-2.03 12.09-6.758 23.12-12.93 33.612-10.794 18.367-24.669 33.352-44.977 41.382-5.707 2.25-11.715 3.2-17.74 4.37.457 2.226 1.948 3.546 2.772 5.226 1.989 4.019 5.372 7.769 2.348 12.8-.318.514.53 1.745.815 2.633a84.783 84.783 0 015.079 26.251 27.463 27.463 0 01-.122 3.66c0 .334-.408.644-.62.962-1.818-.473-1.541-2.845-3.514-3.473a213.9 213.9 0 011.19 22.378 144.587 144.587 0 01-1.63 19.052c-.139.9.147 2.087-.88 2.56-1.3.611-1.94-.66-2.65-1.353a146.254 146.254 0 00-26.846-20.707 26.731 26.731 0 00.856 10.509c.864 3.424-.269 4.076-3.416 3.171a51.214 51.214 0 01-28.354-19.395c-.815-1.084-1.549-2.2-2.894-4.117-.351 2.69-.563 4.582-.864 6.465-.163 1.011.31 2.446-.9 2.878s-1.712-1.035-2.34-1.826c-1.761-2.242-3.261-4.737-5.2-6.783-2.2-2.307-2.764-6.75-7.525-6.049-.505.073-1.272-1.288-1.834-2.054a44.838 44.838 0 01-8.862-24.115c-.106-1.671.367-4.076-2.723-1.948-13.525 9.114-28.941 11.886-44.789 13.174-13.125 1.068-26.349.693-39.425 2.446-8.152 1.076-16.509 1.508-23.887 5.984-3.139 1.9-3.261-.342-3.188-2.707.62-17.12 6.579-32.61 13.932-47.7.538-1.1 1.15-2.16 1.63-3.261.253-.538.815-1.63 0-1.63-4.7.122-1.378-2.315-.889-3.163a59.512 59.512 0 0119.183-20.185c1.508-.987 3.75-1.41 3.7-3.848.072-1.126-.784-1.518-5.774-2.839zm217.931 4.3l.815-.065a4.239 4.239 0 001.63-2.674v-.236c.253-.929.514-1.851.775-2.772l-.082.09.9-.9-.082.081c1.092-.342 1.239-1.3 1.476-2.217.139-.171.285-.334.432-.505l.6-.6-.049.057a.938.938 0 01.367-.611c-3.049.326-4.525 2.576-5.959 4.891a.88.88 0 01-.065.644l-.88.815.081-.073-.9.9.081-.082-.9.889.073-.073-.889.962v1.392c-.351 1.084-1.63 1.7-1.492 3.041l-.049 1.63-2.544 2.984.465.408 5.283-4.671.049-.62c.261-.6.514-1.215.766-1.818v-.742zM86.6 82.458l1.1.758h.334a1.378 1.378 0 001.932-.628l1.516.742 1.3 1.573c2.919 1.467 5.087 4.215 8.3 4.891.815-.815-.978-1.688.106-2.951.815 1.508 1.386 2.715 2.063 3.881 1.076 1.859 2.12 2.927 2.707-.269 1.63 1.223 1.361 3.832 3.921 4.891-.408-1.476-.717-2.625-1.035-3.783 2.446 2.576 2.169 7.5 7.7 6.921-2.063-5.3-4.076-10.517-6.522-16.615 5.593 6.334 4.94 14.895 10.557 20.071-2.715-4.525-5.438-9.652-5.1-14.528a20.829 20.829 0 00-2.878-12.074c-4.949-9.147-11.413-17.12-18.555-24.677-14.02-14.806-29.92-27.67-43.847-42.565-.2-.2-.628-.179-1.052-.277-.448 5.144 1.891 9.416 4.28 14.731-4.785-3.954-5.022-8.748-6.424-13.859-.734 7.337 5.446 22.012 10.6 26.088-.954-3.025-3.261-5.324-3.685-9.432L60 35.44c-.228-3.2-2.788-5.275-2.9-8.4a47.115 47.115 0 013.408 4.541c1 1.4 1.5 3.261 4.158 4.785l-3.815-6.791a22.73 22.73 0 014.582 5.291c.6.815 1.06 2.144 2.446 1.72 2.348-.734 4.378-.921 5.625 1.794.285.611.929.416 1.63.351 1.883-.171 5.315 4.141 5.332 6.4-1.859-.685-2.111-3.44-4.468-3.652.155.872.261 1.484.465 2.69-3.261-3.913-3.432-3.073-8.152-4.215-2.022-.489-5.12-.5-7.125-2.519l1.5 3.326c-1.557-1.109-2.446-3.016-3.848-3.554-2.152-.815-2.332-.391-2.935-1.353q-2.739-4.4-5.446-8.813l-.62.261L53 34.419c-3.457-3.693-5-8.242-6.245-12.9s-1.37-9.277-1.63-13.981c-1.419 6-.44 11.87.97 17.691s4.549 11.047 7.631 16.3c-3.742-1.133-5.584-4.745-9.726-6.122 2.992 8.968 7.7 16.427 13.981 24.27l-7.9-1.174c5.47 8.772 11.365 16.721 19.1 23.561-.326-1.8-.962-3.261.122-5.258 4.574 5.65 9.93 7.6 16.5 4.989zm105.126 39.944c.293-.2.962.326.946-.481l-1.019.367-2.234.122a3.954 3.954 0 00-3.131-3.261c-6.473-1.932-12.865-3.612-19.468-.6a2.061 2.061 0 01-2.494-.058l9.424-2.943c-4.313-1.851-7.777 1.63-12.8 1.4l8.536-3.367c-4.394-1.288-8.152 1.7-13.427 1.125l10.394-3.114c-2.087-2.592-3.954-.611-5.772-.293-2.005.351-3.881 1.541-6.383 1.027 2.69-1.72 5.9-1.272 8.968-3.938-5.2.987-9.09 3.261-13.492 2.625 2.234-1 4.59-1.5 6.856-2.266 1.272-.432 3.073 0 3.644-1.916.416-1.443 1.329-.359 1.834-.114 4.386 2.128 8.87 4.076 13.044 6.571a52.118 52.118 0 0022.24 7.076c16.386 1.255 30.979-4.386 43.412-15.155.628-.538 1.72-.913 1.394-1.973-2.1-1.182-3.644.188-5.324 1.207 0-1.924-.318-3.2 1.427-4.582a214.928 214.928 0 0019.99-17.756c2.1-2.12 1.524-3.261-.636-4.516 1.842-1 3.62-2.063 4.3-4.622-2.8 1.321-4.826 3.424-8.1 3.408 3.481-.416-.375-2.8 1.5-3.864a34.966 34.966 0 009.7-8.315c.75-.9 2.984-1.272 1.712-2.87-.9-1.133-2.38-.342-3.563.6-7.019 5.536-15.033 9.082-23.528 11.682-6.188 1.891-12.571 2.9-18.889 4.573 7.256.856 14.438 5.3 21.9.188l-2.014 2.3c6.237.1 11.568-2.005 17.071-3.131-1.1 1.451-1.973 3.546-4.247 2.935-2.136-.571-3.636.432-5.291 1.272-.9.457-1.549 1.63-2.862.872-2.242-1.28-4.337-.416-6.025.978-3.6 2.968-8.152 1.785-12.229 3.082l5.6-3.718c-4.158.505-7.4-1.736-10.8-3.065a18.6 18.6 0 00-9.082-1.378c-10.386 1.133-20.821 1.9-31.183 3.261-14.4 1.785-28.256 5.438-40.11 14.389-2.446 1.867-4.989 3.685-6.579 6.522-2.65 4.745-1.427 7.117 4.035 7.125 2.592 0 4.37 2.209 6.9 2.226-.073 3.359 4.891.815 4.891 4.174 2.821-.269 5.038 2.535 8.063 1.476-.546.5-1.467.668-1.541 1.011-.171.88.742.815 1.345 1.011 7.337 2.4 14.674 4.614 22.533 4.459l3.147-.717c.9-.465 1.834-1.484 2.674.09a2.25 2.25 0 002.38-.457h-.13zm36.058-3.905a25.337 25.337 0 009.685-7.125c-3.343 2.242-7.28 3.6-9.913 6.872-.815.081-1.549.253-1.736 1.728zM7.526 169.971c-.073.253-.261.538-.2.742a.673.673 0 00.62.342c8.381-4.166 17.52-3.261 26.4-3.766 5.609-.326 10.354-1.981 14.022-6.188 1.557-1.785 3.261-2.054 5.4-1.867a25.077 25.077 0 0011.992-1.63c3.09-1.3 3.261-2.992.563-4.949-.815-.6-.31-.815-.13-1.052 1.989-2.356 4.027-4.671 6.522-7.508.644 3.685-3.114 3.946-3.261 6.294 7.019 2.038 11.365-3.367 16.778-5.788-1.842 2.446-4.476 3.832-7.378 5.813 3.538.253 5.968-1.63 8.756-1.818 3.872-.261 6.905-2.242 9.628-4.785 3.261-3.073 2.446-6.408-.391-9.783 5.642-.187 8.642-4.435 13.24-5.136l-6.449 4.313c5.1-1.149 9.1-4.41 13.786-6.8-.065 1.582-2.87 2.177-.774 3.872.179.155-.106 1.117.709.815 2.4-.929 5.291-1.63 7.084-2.829a11.917 11.917 0 004.891-12.163c-.049-.3-.408-.554-.872-1.141.049.815.065 1.174.106 1.549s.261.815-.766.7c-1.728-7.541-7.027-12.074-13.9-15.229h3.489a8.348 8.348 0 00-6.522-1.973 96.643 96.643 0 00-19.207 3.359 5.34 5.34 0 00-3.334 2.1l-1.794-.171c-1.427.4-2.9.677-4.28 1.2-18.074 6.881-33.27 17.992-46.844 31.591-2.739 2.739-3.1 5.829-3.041 9.261.049 2.821 1.247 3.261 3.391 1.239.269 2.046-2.576 2.446-1.59 4.582 2.038-.644 2.739-3.179 5.112-3.766-.815 2.739-3.636 3.677-3.6 6.661l6.577-7.571 1.052 1.1c-3.766 4.076-6.856 8.8-12.229 12.229.579-2.38 2.772-2.959 3.016-5.527l-5.25 4.386c.579-2.976 3.677-3.807 3.758-6.815l-2.706 1.627c3.342-3.84.546-7.818.709-11.707-5.2 6.008-10.019 12.18-14.854 18.335-1.63 2.128-3.31 4.3-5.951 5.348 5.462-7.989 10.647-16.183 17.895-23.577-13.916 3.693-24.164 15.237-23.5 28.289 1.17-.7 1.904-1.988 3.327-2.208zm122.808-10.223c-1.924-1.94-1.516-4.019-3.5-5.152.5 2.568.9 4.614 1.345 6.938-1.7-.946-1.052-3.057-3.041-3.864-.489 3.815 1.761 6.9 1.859 10.6-2.275-1.851-1.427-4.891-3.571-6.734-.815 2.878 1.378 5.324.864 8.462-3.31-5.641-2.951-11.74-4.891-17.194-.514 7.794 3.188 14.764 4.5 22.191-3.489-6.049-5.258-12.644-6.758-19.346a48.1 48.1 0 005.487 21.474c.481.962 1.3 1.981 1.264 2.943-.163 3.954-.22 4.141 3.065 4.965a5.967 5.967 0 013.84 2.788c1.794 3.033 5.495 4.622 6.269 8.446a1.386 1.386 0 001.785 1.2c1.345-2.959-.171-6.481 1.867-9.783 4.362 6.106 8.593 12.017 13.916 16.859a40.762 40.762 0 0020.1 9.783c-1.565-6.2-1.019-11.968-2.046-17.552s-2.022-11.136.155-16.7c.253 4.174.122 8.356.293 12.53s1.63 7.5 5.821 9.84c8.34 4.647 15.49 11.112 23.031 16.867 2.446-13.672-14.9-50.415-30.392-63.776.9 3.188.228 5.943 1.476 8.7a8.747 8.747 0 01-.815 8.511v-6.97h-.481q-1.541 12.229-3.065 24.457c-.954-7.4.424-14.674 1.435-21.849 1.264-9.017.815-17.2-7.166-23.43-2.853-2.226-5.046-5.3-7.549-7.981q-5.519-5.927-11.03-11.837c1.818 8.544 2.7 16.794-.2 25.028.995-7.729.9-15.4-1.288-22.965-.3-1.027-1.011-2.91-1.557-2.446-2.519 2.152-1.883-.946-2.723-1.435-.66-.391-.571-1.965-2.3-1.158 2.837 4.989 2.25 10.851 4.647 15.979-2.788-3.489-2.976-8.218-6.636-11.291l6.995 19.06-.815.269-5.747-14.895c-.978 4.207 2.446 7.337 2.2 11.536-1.932-1.957-1.443-4.891-4.362-7.337 1.484 7.337 3.987 13.4 3.791 20.006l-4.891-12.384c-.88 4.484-1.957 8.063.269 12-2.381-1.052-1.4-3.457-3.693-4.419zM272.019 50.383a77.286 77.286 0 01-23.43 1.769c-5.707-.383-11.014-3.334-16.37-3.579s-11 2.535-16.647 3.375c-1.255.188-2.682.53-2.625-1.394.106-3.09-2.046-2.332-3.628-2.136a93.751 93.751 0 00-17.487 3.75c-.938.3-2.625 1.3-2.927.236-1.28-4.557-4.777-3.1-7.614-3.025-12.783.334-23.014 7.166-33.066 13.859-7.19 4.777-12.066 11.976-16.2 19.566a65.467 65.467 0 00-4.891 12.49c-.473 1.549-.734 3.391.6 4.076 1.117.563 2.087-1.28 3.073-2.112s1.948-2.527 2.568-2.372c3.889.97 7.117-.31 10.223-2.315a78.911 78.911 0 0125.15-10.239c15.139-3.587 30.678-3.938 46.053-5.707 13.859-1.557 27.417-4.076 39.825-10.818a48.01 48.01 0 0017.389-15.424zm-152.72-24.955c.049 4.027.448 7.2-1.035 10.093-.481.946-.856 2.258-2.014 2.38-1.321.139-1.565-1.312-2.079-2.2-4.027-6.987-9.783-12.188-16.607-16.3-.677 1.15 1.525 1.435.554 2.845-5.275-4.508-10.239-9.318-17.332-10.957.554 2.495 2.967 3.872 3.041 6.44-4.965-4.19-11.112-5.071-16.3-7.745-.432 1.207 1.272 1.174.579 2.446L52.747 4.204l-.351.66 9.074 7.142-.611.815-9.163-6.75-1.215 1.4c2.209 1.8 4.582 3.432 6.6 5.43 13.215 13.093 27.58 25 40.012 38.887 11.642 12.987 21.2 27.18 24.955 44.594a3.524 3.524 0 002.128 3.041 11235.36 11235.36 0 00-4.288-14.87l.995-.326c.277 4.207 3.481 7.337 3.75 11.585 1.239-1.231 1.133-2.446.734-4.076-1.068-4.272-2.959-8.348-3.122-12.848-.049-1.443-.163-1.435.5-1.63 1.948-.628 1.957-.628 1.288-2.3s-1.81-2.984-1.932-4.891c1.973.75 1.525 3.171 2.927 3.946 4.166-5.78.057-11.038-.9-16.6l3.4 7.28c1.223-5.609-2.723-9.726-3.938-15.547 2.813 3.44 3.383 7.019 5.707 9.685 0-5.234-3.66-9.335-4.272-14.414l4.256 7.94c.611-3.709-2.136-6.416-2.5-10.386 4.81 6.872 6.261 13.631 3.261 20.993-1.345 3.261-1.1 6.824-2.568 10.231s.342 7.688 1.125 11.968c3.554-5.169 6.481-9.954 4.3-16.827 2.063 1.818 1.3 3.709 2.747 5.315v-8.152c1.516 1.794 0 4.215 1.63 5.65 2.283-1.117.277-3.147 1.272-4.394.938-.106.946 1.981 1.63 1.084a10.651 10.651 0 002.527-5.226c.253-3.261-.269-6.669-.5-10.508 2.381 3.766 1.092 7.68 2.258 11.153a28.4 28.4 0 00-3.131-17.283c-.986-1.8-1.753.1-2.446.628-3.579 2.853-3.538 2.87-5.389-1.419a53.1 53.1 0 00-14.185-19.753zm85.427 191.729a159.4 159.4 0 00-.31-37.5c-.114-.913-.815-2.1.065-2.682 1.231-.815 1.818.652 2.625 1.255.4.31.815.644 2.046 1.7-1.427-7.207.359-13.981-4.239-19.566a6.183 6.183 0 01-.644-2.323c-1.989-7.655-3.8-15.359-7.476-22.452-1.149-2.217-2.332-4.166-5.3-2.747-.212.913 1.451 1.565.44 2.6-1.378-.579-.815-3.155-2.935-2.739-.342.065.579 1.223-.383 1.867-.742-2.739-2.527-3.44-5.193-2.552a22.005 22.005 0 011.019 2.666c.188.717 1.223 1.451 0 2.356-1.761-3.2-2.323-7.867-7.737-6.848-.261 1.321 1.353 2.291.514 3.66-1.965-1.484-1.361-5.006-4.891-5.324.938 5.291 3.978 8.454 8.625 10.345 2.446.995 4.174 2.307 2.258 5.234-.709-1.109-.62-2.739-2.193-3.261-1.141.815.815 1.957.228 2.389-4.59-.342-3.962-5.576-7.476-7.093-.815.946.709 2.446-.391 2.568s-2.894-1.353-2.413-2.169c1.4-2.69-.995-2.739-2.1-3.489-2.152-1.484-4.891-1.81-6.84-3.864-.62-.677-1.777-1.37-2.829-.147-1.63 1.851-2.951 1.239-4.182-.489-.285-.4-.954-1.092-1.223-.6-2.511 4.541-2.584-.677-3.815-1.035-.872-.253-1.467-1.467-2.193-2.258.383 2.242 1.777 3.554 3.082 4.891 9.277 9.856 18.677 19.607 27.1 30.229 11.764 14.821 21.392 30.727 24.955 49.73.447 2.317.121 4.852 1.806 7.648zM22.179 143.215c.88-.522 1.63-1.247 1.94-1.1 4.076 1.761 6.171-1.068 8.527-3.522 13.215-13.737 28.167-25.036 45.857-32.455.726-.3 1.573-.44 1.932-1.508-7.158-3.872-13.182-.62-19.272 2.829l5.992-4.5c-3.579.122-7.158.065-10.354 0-4.6-.1-9.131-2.6-13.859 1.19 1.15-2.682 1.125-2.576-1.076-3.025a5.592 5.592 0 00-4.272.538 61.1 61.1 0 00-18.278 16.558c-.44.6-1.386 1.859-.709 2.03 4.6 1.158.815 3.261.261 4.2a157.807 157.807 0 00-12.563 29.088c-.432 1.37-1.313 2.755-.815 5.063a82.339 82.339 0 0113.125-24.726c-.864 5.364 2.022-.187 2.291 1.851l-4.353 6.889.6.4 3.938-5.209c.2 2.723-2.217 3.872-2.111 6.392l5.2-5.568c.192 2.161-1.463 2.718-2.001 4.585zm107.033-17.935c-5.943 8.7-14.471 10.125-23.544 10.207h-3.66c-1.215 0-1.761.236-1.59 1.63.921 7.288-3.758 10.6-9.538 12.807a47.016 47.016 0 01-18 2.715c-1.044 0-3.383-.978-2.927 1.37.815 3.995-1.965 4.468-4.508 5.389a22.181 22.181 0 01-9.587 1.5c-3.351-.31-4.94.938-5.1 4.468 2.25-.889 5.283-.62 6.652-1.312 4.5-2.307 9.685-1.891 14-4.353.929-.53 1.867-1.4 3.261-1-8.682 6.872-19.631 7.949-29.235 12.359 17.242 0 34.387-.473 50.757-6.62a172.224 172.224 0 00-20.756 2.813l15.327-8.087.318.351-2.038 2.177.4.334 12.155-7.011c-2.707 3.579-6.84 5.006-10.6 7.965 19.607-3.473 36.352-23.846 38.219-37.721zm-49.453-23.047c1.353 1.842 2.8 2.446 5.144 1.565a95.032 95.032 0 0120.56-4.843c1.671-.22 3.351-.408 5.568-.677-25-17.185-53.806-18.376-73.608-3.261 2.486.815 1.794 5.266 5.536 4.337 2.446-.611 3.84-3.31 6.612-3.718-.408 1.9-2.731 1.867-3.131 3.889 3.31 0 5.006-3.522 9.212-3.946l-3.978 3.465c6.017 2.446 9.783-3.261 15.579-4.785a9.506 9.506 0 01-3.563 3.97c-.538.326-1.337.668-.986 1.524a1.459 1.459 0 001.728.75c3.579-.726 7.655 1.973 10.688-2.275.652 1.794-1.851 1.957-.644 3.09a2.6 2.6 0 002.715.277c2.747-1.027 5.4-2.364 8.8-2.813-1.916 2.054-4.606 1.614-6.228 3.424z"/></svg>