<?xml version="1.0" encoding="utf-8"?><svg xmlns="http://www.w3.org/2000/svg" width="20.383" height="20.383" viewBox="0 0 20.383 20.383"><g stroke-linecap="round" stroke-linejoin="round"><path d="M19.642.98l-4.14-.955a.962.962 0 00-1.092.553l-1.914 4.458a.953.953 0 00.275 1.115l2.412 1.975a14.754 14.754 0 01-7.054 7.054l-1.975-2.413a.954.954 0 00-1.115-.275L.581 14.403a.967.967 0 00-.557 1.1l.955 4.14a.955.955 0 00.932.74A18.469 18.469 0 0020.382 1.911a.954.954 0 00-.74-.931z"/><path d="M15.606 1.588l-1.57 3.661 2.097 1.716a1.5 1.5 0 01.408 1.798 16.206 16.206 0 01-7.775 7.775 1.496 1.496 0 01-1.798-.408l-1.716-2.097-3.665 1.571.755 3.273a16.856 16.856 0 0011.567-4.962 16.85 16.85 0 004.968-11.572l-3.271-.755M15.288 0c.07 0 .142.008.214.025l4.14.955c.434.1.74.486.74.931 0 10.211-8.276 18.472-18.471 18.472a.955.955 0 01-.932-.74l-.955-4.14a.967.967 0 01.557-1.1l4.459-1.91a.957.957 0 011.115.275l1.974 2.412a14.754 14.754 0 007.054-7.054L12.771 6.15a.953.953 0 01-.275-1.115l1.91-4.458A.963.963 0 0115.289 0z"/></g></svg>