<?xml version="1.0" encoding="utf-8"?><svg xmlns="http://www.w3.org/2000/svg" width="9.96" height="9.96" viewBox="0 0 9.96 9.96"><path d="M4.978 0a4.98 4.98 0 104.98 4.98A4.981 4.981 0 004.978 0zm0 9a4.016 4.016 0 114.016-4.016 4.014 4.014 0 01-4.016 4.011zm2.153-5.124c0 1.346-1.454 1.367-1.454 1.865v.127a.241.241 0 01-.241.241h-.917a.241.241 0 01-.241-.241v-.183c0-.718.544-1 .955-1.235.353-.2.569-.332.569-.594 0-.346-.442-.576-.8-.576-.466 0-.681.22-.983.6a.241.241 0 01-.335.043l-.559-.424a.242.242 0 01-.047-.323 2.257 2.257 0 012.02-1.088 2 2 0 012.035 1.783zm-1.31 3.357a.843.843 0 11-.843-.848.844.844 0 01.845.843z"/></svg>