<?xml version="1.0" encoding="utf-8"?><svg xmlns="http://www.w3.org/2000/svg" width="271.09" height="360.266" viewBox="0 0 271.09 360.266"><path d="M64.24 266.374l-4.61-2.21c-1.07 2.34 1.05 4.28.9 6.52-.38 5.89-1.43 11.49-4.65 16.6a191.81 191.81 0 01-39.26 45c1-1.13 2-2.29 3-3.36a279.265 279.265 0 0032.12-38.23c10.46-15.26 9.68-23.39-3.53-36.3a129 129 0 00-11.3-9.85c-25.09-19.36-35.11-45.63-35.3-76.45-.11-18.77 4.16-36.74 10.84-54.08 5.35-13.87 6.51-27.73 2.63-42a27.7 27.7 0 01-.33-3.16c11.42 11.74 19.57 24.4 26.58 38.49a12.749 12.749 0 00.69-1.66c.32-1.35-.64-3.49 1.37-3.79 1.67-.26 2.21 1.77 2.94 3a88.311 88.311 0 0111.79 33.22c.62 4.55.92 9.15 1.38 13.88 2.25-.67 2.6-2.6 3.41-4.14.52-1 .52-2.59 1.94-2.58 1.67 0 1.8 1.75 2.23 2.93a54.06 54.06 0 013.41 21.57c-.17 3.4.42 4.87 3.93 3 3.14-1.7 4.09.09 4.66 2.81a145.128 145.128 0 013.2 32.76c2.18-7.13 2.89-14.49 3.35-21.8a220.056 220.056 0 00-1.54-46.87c-.25-1.71-.58-3.09-2.07-4.27-24.21-19.42-31.05-44.91-26.45-74.61 1.59-10.19 4.2-20.23 4.59-30.61.33-8.74-.35-17.28-3.7-25.5-.56-1.37-2.27-3.44-.55-4.45s2.59 1.51 3.49 2.69c6.68 8.73 13.39 17.45 19.83 26.36a108.4 108.4 0 0115.12 29.58c2.47-6.57 4.7-12.25 8.58-17 1.15-1.42 2.15-3.92 4.26-.5 1.48 2.41 2.31-.32 2.88-1.08a57.4 57.4 0 0121.54-17.44c3.82-1.84 4.85-.91 4.87 3.21 0 7.32.48 14.65.93 22 1.77 28.53-8.74 53.17-24.23 76.17a218.319 218.319 0 01-13.66 17.85c-4.93 5.87-7.8 12.19-7.37 20a224.44 224.44 0 01-3.91 57.19 10.387 10.387 0 00.3 2.21c8.61-17.25 18.12-33.19 23.87-51 .35 6.21-1.62 11.86-3.84 17.37s-4.79 11-7.4 16.39c-2.68 5.54-5.67 10.94-8.42 16.46a96.725 96.725 0 00-6.9 16.67c.88-1.36 1.79-2.69 2.62-4.07a116 116 0 0142.59-41.29c1.26-.71 3.71-4.6 4.89.64.27 1.22 2.35-.26 3.48-.68a109.13 109.13 0 0149-7c1.59.14 3.91-.52 4.45 1.34.62 2.16-2.06 2.11-3.26 3.05-1 .81-2.27 1.38-3 3.11 5.39.53 10.6.91 15.77 1.6a80.462 80.462 0 0120.62 5.8c1.46.62 3.79 1.05 3 3.23-1.88 4.93 1.47 3.79 4 3.74 5.77-.12 10.12 1.53 12.75 7.45 2.93 6.62 12.72 11.28 19.66 10.62 3.35-.31 4.85-4 8.67-4.13-.65 4.74-3.14 8.11-6.52 10.86-16.08 13.13-35.11 17-55.19 16.93-14.08 0-27.68-3.87-41.52-5.82-23.69-3.35-46.92-2.39-68.84 8.5a73.77 73.77 0 00-33.49 33.15c-14.86 28.84-34.57 53.74-60.38 73.59-1.22.94-2.18 2.53-5.15 2.25 19.25-16.44 36-34.19 49.34-54.93-14.15 15.9-27.49 32.64-46.71 43.13 3.42-3 6.79-6.05 10.29-8.95 15.21-12.62 28.92-26.63 40.14-43 3.22-4.68 5.07-10.23 8.19-14.81 5.84-8.54 7.07-19.31 14-27.25 1.53-1.75 2-4.54 2.72-6.9 11.33-35 14-70.78 9.23-107.13-.52-4 2-5.15 3.55-7.52a56.88 56.88 0 009.29-29.67c.36-8.36.64-17.06-2.17-24.76a277.39 277.39 0 01-6-18.52 55.7 55.7 0 00-8.4-18c3.57 8.7-.06 17.06-.8 25.52-.85 9.73.92 19.17 3.34 28.64v-14.35c2 7.49 1.36 15 .24 22.42 3.43-6.47 2.3-13.36 1.65-20-.58-5.87 4.69-10.57 2.37-16.55 2.62 5.2 2 10.56 1 17l2.47-4c1-.09 1 .52.9 1-2.19 8-4.23 16.07-5.9 24.24-1.49 7.3 0 14.55-.89 21.89-1.2-8.65-4.84-16.14-10-23a58.549 58.549 0 00-13.5-12.54c-1.57-1.1-2.76-2.28.59-2.08l7.19 4.77a148.88 148.88 0 0113.23 16.43c-1.49-9.09-2.14-18.43-4.73-27.2-1.85-6.25-8.09-9.91-13.47-13.61-3.33-2.3-6.51-4.7-7.68-8.85-.2-.73-.76-1.77.27-2.09.47-.15 1.27.74 2 1.2.7-2.45-1.4-4.76-.06-7.85 3.28 5.64.86 13.89 9.37 17.06-1.78-6.45-4.45-12.11-4.89-19.76 4.48 10.11 4.15 21 14.05 28.16-4.07-11.64-2.7-24-12.49-32.39a5.47 5.47 0 01-1.85-4.88 1.89 1.89 0 00-1.82-2 2.13 2.13 0 00-2.44 1.91c-5.45 23.69-9.13 47.29 3.87 70 1.13 2 1.84 4.34 4.15 5.45 1.29 2.06 2.6 4.12 3.9 6.18 1.52 2 2.69 4.42 4.63 5.82 7 5 8.1 12.41 9 20.14 3.57 31.05-1.27 61.06-11 90.48a9.828 9.828 0 01-.84 1.8c-.15.27-.48.43-1.35 1.13 1.26-5.22 2.45-9.82 3.47-14.46 3.57-16.19 3-32.42.37-48.66-.58-3.6-2.44-4.53-5.59-2.85-3.85 2.07-4.53.35-4.28-3.21a45.527 45.527 0 00-.44-10c-3.51 14.73-3.45 29.4 1.61 44v-17.26h1.43c-.9 11.88 0 23.68 1.18 35.46 1.14 11.21.69 22.31-2.8 33.1-1 3.06-1.38 6.6-4.55 8.57a82.148 82.148 0 005.67-37.21c-.6-8.44-11.31-19.14-20.3-19.65 6.13 5.05 11.85 10.18 16 16.77-9.46-7.55-16.65-17.94-28.82-22 12.91-.79 22.7 5.27 31.86 14.81a143.319 143.319 0 00-12.5-37.19c.43 3.37 2.61 6.3 2.28 10.12-2.11-1.24-1.73-3.39-2.62-4.9-2.15-3.67-3.11-8.28-7.12-10.51a95.522 95.522 0 00-15.63-6.58c-2.59-.89-4-.65-3.63 2.55-1.74-1-.93-3.18-3.16-4.06.63 3 .38 6.26 1.89 8.1a77.608 77.608 0 0112.43 22.39q-6.35-10.19-12.71-20.37c.6 8.29 3.65 15.43 7.94 22.16-3.28-1.31-4.12-4.73-6.92-6.47 1.71 3.28 3.43 6.57 5.82 11.17-3.44-2.48-4.54-4.89-5.8-7.1s-2.32-4.64-3.63-7.3c0 14.25 12.18 20.86 18 31.25.12.22.57.32.89.36 4 .5 6.16 3.69 7.51 6.66 3.79 8.3 9 15.91 11.81 24.68.32 1 1.21 2-.24 3.44-3.47-8.55-7.23-16.73-12.86-23.9 5.03 10.65 9.93 21.31 13.7 32.45zm28.81-122.31l.06.06 1-1a5.6 5.6 0 002.86-4.23l.12-1.85-.08.1 1.06-1.05 1-2.83c10.18-7.74 18.06-17.21 22.39-29.4-9.49 7.93-18.36 16.42-25.9 26.22a9.42 9.42 0 00-1.75 5.08 1 1 0 00-.19.81c.14.4.28.8.43 1.21.72 1.36-3.12 2.61-.1 4 0 .63.08 1.26.11 1.9zm116.12 86.11c-8.59-5.09-18.5-7.43-26.8-13.31l11.1 3.69c-6.57-4.94-25.78-9.06-34.49-7.54 9 .45 13.93 10.7 24.12 9.9-1.75-2.73-4.9-2-6.27-4.71 4.63.47 7.78 2.77 10.87 5.62 6 5.55 12.49 10.2 21.37 6.27 1.88.47 3.66-3.21 5.85.48 3.66 6.18 10.12 6.8 16.31 1.84-10.64-2.15-20.2-6.64-31-10.39 3.01 3.67 7.26 4.47 8.94 8.15zm-17.57-15c9.24 8.6 18.93 2.38 28.56 1.08-3.85 3.12-8.68 3.27-14.05 5.71 7.55-.61 13.31-3.15 20.59-5-5 4.26-10.16 4.46-15.4 6.8 15.1 5.83 29.33 11.8 44.52 2.7-7.16-1.28-13.61 6.14-22.29 1.68 6.53-.07 12.05.42 16.87-3.69-7.25-4.39-12.88-10.32-20.23-13.9 3.08-.37 5.37 1.4 8.79 2.77-3.75-4.83-8-4.41-12.24-3.69-2.24.37-4.34.61-3.8-2.53.81-4.73-2-6.3-5.74-7.08-9-1.88-17.86-4.61-27.21-4.65-2.71 0-6.53 1.64-7.93-.84-1.53-2.7 3.13-4 3.87-6.73-8.18-1.5-21.55-.13-35 3.18-11.48 2.84-21.89 7-26.74 19 3-2.53 5.39-5.92 9.28-7.45-3.69 4.84-8.38 8.82-11.19 14.3 5.51-6 11.16-11.68 18.2-16l-13.49 14.47.83 1 21.91-19.11c-3.65 6.29-9.59 10.28-14 15.92 7-5.34 13.26-11.57 21.22-15.4-4.68 4.41-10.27 7.73-14.51 12.95 2.82.79 3.86-1.38 5.29-2.52 3-2.34.46 2.72 3.51 2.19 9.94-1.73 21 2.81 29.78-5.48a10.75 10.75 0 01.9.59c-1.9 2.49-5 3.46-8 6.18 4.13-.19 6.09-3.47 9.31-3.41-.4 2.32-3.21 2-3.62 4.58 3.37-.93 5.59-4 9.16-4.23-.94 2.7-4 2.6-5.59 5.72l10.75-5.65c-1.69 3.53-4.71 3.71-6.54 6.65l8.9-4.13c.12.27.24.54.37.81zm-92.18-93.95c5.84-6.13 10.63-11.85 16.68-15.9 8.51-5.69 12.1-13.92 15-23.18 5.73-18.18 3.55-36.61 2.86-55-.13-3.39-2.12-1.6-3.38-1a49.11 49.11 0 00-20.41 18.59c-2.11 3.44-3.74 4.93-5.47-.26-6.38 8.79-10.69 19.64-6.14 26.22 1.41-3.55-1.06-6.9.08-10.31 2.78 8.46 3.45 17.33 5.53 26l-3.2-27.29c2.83 4.36 2.72 9.21 3.72 14.7 1.13-7.22-1.5-13.51-.61-19.91 1.15.07.93 1.35 1.17 1.34 1.94-.08-.12-2.46 1.71-2.86 1.71 3.62.89 7.7 2.18 11.43v-13.3l.84-.11 1.4 11 .93-.11v-16.87c2.55 2.75.93 5.57 2.31 7.92 1.07-4.59-1.73-10.27 4.29-12.9.19.92.39 1.87.86 4.09.54-8 5-10.74 11.34-12.87-2.92 5.36-2.37 11.4-7.88 14.75-7 4.26-7.38 12.12-9.71 18.93a88.168 88.168 0 007.81-7.77c4.43-4.7 5.47-5.45 8.83-6.54-8.19 11.24-21.63 18.81-23.14 34.68 8.84-9 18.37-15 24.36-15.3-33.04 20.72-25.25 21.99-31.96 51.82zm134.19 117c-.36 2.77-1.61 4-3.85 4.33-2.79.43-5.54 1.09-8.32 1.58-14.7 2.59-29-.4-42.83-4.55-24.95-7.47-49-4.48-72.86 4.4-2.33.87-4.78 1.6-6.48 3.63a5.47 5.47 0 002.35-.57 109.51 109.51 0 0151.24-8.33c15.66 1.1 30.88 5 46.43 6.79 16.92 2 33-1 49-7.81-1.78-.77-3 1.17-4.21-.09 1.55-1.86 4.65-1.43 5.76-4.3-5.72 2.66-11.92-3-18 2.6-4.39 4-13.57 1.74-17.72-2.8-1.62-1.77-2.83-1.69-4.7-.87-7 3.08-13.37 1.7-19-3.28a12.93 12.93 0 00-12-3.25 56.255 56.255 0 01-7.39 1.18c-6.44.44-13.11 1.85-18.87-2.37-3.8-2.79-7.59-2.89-11.76-1.28-10.73 4.13-21.43 8.3-31.35 14.2-1.37.81-3.14 1.29-3.67 2.57 11.16-.84 21.71-5.11 32.94-6.45s22.24.09 33.38 1.53l-12.11-3.92c12.45 2 24.07 7.61 37 7-4.3.06-8.46 0-14 .18 17.93 5.83 34.38 5.94 51.02-.1zm-179.58-69.73c-1-3.46-2.35-6.86-3-10.38-2.6-13.17 1.15-27-4-40 2.14 2.36 2.75 5.19 3.11 8.06 1.58 12.49 1.09 25.12 4.74 37.51 2.53 8.58 2.53 17.89 8 26.09v-18.4c-1.17.45-.74 2.09-2.56 2-.33-5.92 1-11.58 2.5-17.24 1.63.16 1.32 3.45 2.87 1.92 2.14-2.12.1-4.54-.57-7.35-1.6 1.69-2.75 3.05-4 4.24-1 .87-2 2.22-3.37 1.75-1.58-.54-1-2.23-1.07-3.51-.2-3.82-.26-7.66-.68-11.46a83.179 83.179 0 00-10.47-32.61c-1.75 1.66-.86 4.78-2.94 4.82-2.39 0-2.33-2.88-3.29-4.51-1.26-2.15-2.2-4.48-3.35-6.7s-2.35-4.29-3.53-6.44c3.84 9.69 5.32 19.82 6.4 29.78 1.63 15.48 7.78 29.12 15.21 42.43zm3.36 86.35c-6.73-14-13.43-26.63-21.78-38.61-2.86 5.35-3.2 5.38-6.78.59-6.43-8.62-11.32-18.3-10.72-29 .72-13-1.37-25.73-1.06-38.61.06-2.32.56-4.65.51-7-.13-4.9 4.27-8.27 3.68-13.68-.81-7.4-.46-15-1.3-22.42-.12-1 .38-2.42-2.11-3 1.48 24.16-5.82 47.64-2.75 71.67-3.88-19.43-1.66-38.76.77-58.13-2.86 5.75-3.1 11.76-3.61 18-1.79 22.17-1.09 43.94 6.11 65.15 4.91 14.46 11.59 27.72 26 35.26.9.47 1 1.75 1.44 2.16 4.7 4.9 4.9 12.62 11.6 17.62zm-22.13-114.35c.79 4.1 3.57 7 3.83 11.39-5.13-5.56-4.07-14.87-12.54-17.24-.18.4-.33.56-.31.7 1.89 11.87 7.56 22.4 12 33.36.3.75 1.46 1.27 2.33 1.67 4.32 2 8.68 4 13.72 6.3-5.14-11.62-10-22.67-14.93-33.68-.62-1.42-1.94-2.2-4.1-2.5zm97.61 76.23c4 .93 7.08 1.65 10.15 2.35 1 .22 1.89.7 2.89.1 4.42-2.67 7.54-2.59 13.06.68-3.42-.49-6.23-1.33-9.28-.27 5.83 5.91 14.46 7 23.84 3.39-7.36-8.01-22.01-10.35-40.66-6.25zm-39.85 24.29c14.49-9.36 30.31-15.54 46.69-20.47-20.67-4.57-33.61 8.26-46.69 20.47zM72.15 40.374c1.17-11.88-2.73-22.17-11.18-31.32a71.741 71.741 0 011.76 23.44 4.351 4.351 0 00.21 1.83c4.25.4 3.69 4.43 4.37 6.76.8 2.76 2 4.6 5 6.78l-7.83-25.73 1.19-.37zm-50.51 45c-.7 15.49 4.42 29.62 9.33 43.83-2.64-3.26-2.82-7.57-5.64-11.27 2.25 11.92 5 16.48 12.47 19.86-7.99-17.3-14.74-34.11-16.16-52.43zm72 145.72c11.07-12.3 25.67-21 35.67-34.42-1.74.64-3.17 1.73-4.77 2.48-9 4.27-12.76 14.3-21.33 19.35-4.39 2.55-7.06 7.83-9.62 12.58zm-19.5-204.91c1.77 11.43-.6 23.3 4.19 34.2a66.935 66.935 0 011-14.62c.48-3.18 3.08-6.43 1.37-9.68-1.87-3.48-4.36-6.59-6.56-9.9zm-51.17 122.11c.44 5.6 3.5 10.43 5.41 17-3.35-2.81-4.25-5.36-5.28-7.77s-1.73-5-2.91-8.49c1 14.32 4.45 18.28 15.65 18.44-3.34-7.27-6.62-14.41-9.91-21.55l-1.07.43 7.71 19c-5.26-4.63-6.78-11.13-9.6-17.06zm-7.82 55.2c-4.19-10.07-4.86-20.81-6.32-31.44s.89-21.33.8-32c-4.83 21.82-4.01 43.12 5.52 63.44z"/></svg>