<?xml version="1.0" encoding="utf-8"?><svg xmlns="http://www.w3.org/2000/svg" width="195" height="829" viewBox="0 0 195 829"><defs><clipPath id="bea"><path data-name="Rectangle 1178" transform="translate(1725 3615)" d="M0 0h195v829H0z"/></clipPath></defs><g transform="translate(-1725 -3615)" clip-path="url(#bea)"><path data-name="Union 12" d="M2266.023 4161.186c-6.487-52.829-35.882-128.402-77.926-201.326 13.94-40.743 19.15-88.642 12.991-138.795-16.22-132.108-105.136-229.901-198.6-218.425s-156.079 127.874-139.858 259.982q.61 4.963 1.354 9.857c-1.99 11.403-3.36 20.977-4.03 27.336-2.552 9.66.937 30.29-58.812 118.079-54.25 54.171-83.838 129.929-74.072 209.467 17.331 141.153 152.03 240.767 300.858 222.494s255.426-147.516 238.095-288.669z"/></g></svg>