<?xml version="1.0" encoding="utf-8"?><svg xmlns="http://www.w3.org/2000/svg" width="20.285" height="20.383" viewBox="0 0 20.285 20.383"><g data-name="WhatsApp Logo"><g data-name="WA Logo"><path data-name="Path 12534" d="M17.329 2.962a10.1 10.1 0 00-15.9 12.187L0 20.383l5.354-1.4a10.087 10.087 0 004.826 1.23 10.1 10.1 0 007.149-17.251zm-7.144 15.539a8.382 8.382 0 01-4.277-1.17L5.6 17.15l-3.177.833.848-3.1-.2-.318a8.395 8.395 0 117.114 3.936zm4.6-6.287c-.252-.126-1.493-.737-1.725-.823s-.4-.126-.568.126-.652.821-.8.989-.294.189-.547.063a6.9 6.9 0 01-2.03-1.252 7.558 7.558 0 01-1.4-1.748c-.145-.253-.015-.387.111-.515.113-.113.252-.294.378-.442a1.722 1.722 0 00.252-.421.466.466 0 00-.021-.442c-.06-.128-.565-1.371-.775-1.876s-.413-.426-.568-.436-.316-.009-.484-.009a.927.927 0 00-.673.316 2.832 2.832 0 00-.883 2.105 4.913 4.913 0 001.03 2.611 11.254 11.254 0 004.31 3.811 14.605 14.605 0 001.439.533 3.438 3.438 0 001.589.1 2.6 2.6 0 001.7-1.2 2.081 2.081 0 00.145-1.2c-.065-.105-.228-.163-.48-.29z" fill-rule="evenodd"/></g></g></svg>